<?xml version="1.0" standalone="no"?>
<!DOCTYPE svg PUBLIC "-//W3C//DTD SVG 20010904//EN"
 "http://www.w3.org/TR/2001/REC-SVG-20010904/DTD/svg10.dtd">
<svg version="1.0" xmlns="http://www.w3.org/2000/svg"
 width="840.000000pt" height="792.000000pt" viewBox="0 0 840.000000 792.000000"
 preserveAspectRatio="xMidYMid meet">

<g transform="translate(0.000000,792.000000) scale(0.100000,-0.100000)"
fill="#da8e16" stroke="none">
<path d="M3952 7490 c-243 -64 -421 -243 -489 -490 -17 -61 -18 -154 -18
-1560 0 -1675 -6 -1538 73 -1700 51 -105 186 -240 292 -292 134 -66 162 -70
494 -75 l298 -5 -5 -487 c-4 -360 -9 -518 -21 -611 -86 -673 -306 -1053 -736
-1270 -225 -113 -454 -160 -780 -160 -380 0 -740 78 -1107 240 -549 244 -962
607 -1158 1022 -137 289 -149 595 -40 993 48 173 119 359 262 679 115 257 233
537 233 550 0 3 -28 6 -62 6 -113 0 -240 41 -338 108 -25 17 -48 28 -51 24 -3
-4 -29 -64 -57 -133 -28 -70 -85 -200 -125 -290 -161 -355 -230 -531 -296
-749 -125 -412 -144 -766 -61 -1097 126 -499 548 -1010 1111 -1344 892 -529
1953 -637 2684 -271 440 220 740 599 890 1124 99 346 135 705 135 1355 l0 312
823 3 c913 4 863 0 1012 73 237 116 375 350 375 640 l0 95 -62 0 c-135 0 -329
45 -475 111 -159 71 -342 221 -456 374 -77 102 -160 274 -194 401 -25 90 -27
115 -27 289 -1 165 2 201 22 278 57 225 162 409 327 572 207 205 519 335 802
335 l65 0 -4 213 c-4 202 -6 216 -33 296 -68 199 -221 354 -423 428 l-77 28
-1365 2 c-1320 2 -1367 1 -1438 -17z"/>
<path d="M1344 6440 c-326 -85 -588 -422 -674 -867 -90 -469 46 -886 337
-1030 l77 -38 130 0 c125 0 135 2 215 34 236 94 465 320 603 596 65 127 93
203 126 335 22 88 26 127 26 245 0 165 -16 242 -74 360 -91 185 -253 319 -446
369 -84 22 -230 20 -320 -4z"/>
<path d="M7147 6299 c-106 -11 -186 -34 -294 -84 -114 -54 -166 -89 -261 -179
-130 -124 -225 -292 -269 -477 -22 -97 -22 -296 1 -397 82 -366 369 -648 736
-724 123 -26 339 -21 440 10 185 56 311 133 437 266 147 155 230 333 255 547
27 229 -44 483 -187 669 -102 132 -262 253 -415 313 -124 49 -303 71 -443 56z
m251 -225 c156 -32 285 -106 395 -224 124 -134 187 -298 187 -488 0 -127 -18
-208 -70 -317 -137 -285 -454 -453 -765 -405 -384 58 -642 375 -622 764 22
443 436 761 875 670z"/>
<path d="M7495 5634 c-152 -90 -162 -95 -204 -90 -117 15 -213 -63 -213 -174
0 -127 129 -215 245 -166 45 18 95 78 103 123 8 49 13 53 177 191 80 68 140
125 143 139 4 14 -1 33 -10 48 -29 45 -65 34 -241 -71z"/>
</g>
</svg>
