<svg id="MDI_cart" data-name="MDI / cart" xmlns="http://www.w3.org/2000/svg" width="24" height="24" viewBox="0 0 24 24">
  <rect id="Boundary" width="24" height="24" fill="none"/>
  <path id="Path_cart" data-name="Path / cart" d="M17,18a2,2,0,1,0,2,2,1.993,1.993,0,0,0-2-2M1,2V4H3l3.6,7.59L5.24,14.04A2.038,2.038,0,0,0,5,15a2,2,0,0,0,2,2H19V15H7.42a.25.25,0,0,1-.25-.25.213.213,0,0,1,.03-.12L8.1,13h7.45a2.011,2.011,0,0,0,1.75-1.03L20.88,5.5A1.265,1.265,0,0,0,21,5a1,1,0,0,0-1-1H5.21L4.27,2M7,18a2,2,0,1,0,2,2A1.993,1.993,0,0,0,7,18Z" transform="translate(1)" fill="#8b8b8b"/>
</svg>
