<svg xmlns="http://www.w3.org/2000/svg" viewBox="0 0 21.21 24.45"><defs><style>.cls-1{fill:#29abe2;fill-rule:evenodd;}</style></defs><title>angry1</title><g id="Layer_2" data-name="Layer 2"><g id="_12" data-name="12"><path class="cls-1" d="M6.56,6.54A3.25,3.25,0,0,0,3.28,3.27,3.31,3.31,0,0,0,0,6.54,3.29,3.29,0,0,0,3.28,9.72,3.23,3.23,0,0,0,6.56,6.54Zm2-2.21L3.28,0,2.7.68,8,5.1ZM17.74.68,17.15,0,11.86,4.33l.57.77ZM1.54,21.85l1.06,2.6,18.61-8.28-1.16-2.5ZM14,6.54a3.29,3.29,0,0,0,3.27,3.18,3.23,3.23,0,1,0,0-6.45A3.3,3.3,0,0,0,14,6.54Z"/></g></g></svg>