<svg xmlns="http://www.w3.org/2000/svg" viewBox="0 0 24.47 22.53"><defs><style>.cls-1{fill:#29abe2;fill-rule:evenodd;}</style></defs><title>happy2</title><g id="Layer_2" data-name="Layer 2"><g id="_12" data-name="12"><path class="cls-1" d="M4.43,7A3.52,3.52,0,0,0,8,3.58,3.56,3.56,0,0,0,4.43,0,3.51,3.51,0,0,0,.86,3.58,3.47,3.47,0,0,0,4.43,7Zm7.81,15.5a12.81,12.81,0,0,0,12.23-9.14L0,13.3a12.7,12.7,0,0,0,12.24,9.23ZM19.75,7a3.52,3.52,0,0,0,3.57-3.45,3.61,3.61,0,0,0-7.22,0A3.54,3.54,0,0,0,19.75,7Z"/></g></g></svg>