<?xml version="1.0" encoding="utf-8"?>
<!-- Generator: Adobe Illustrator 23.0.0, SVG Export Plug-In . SVG Version: 6.00 Build 0)  -->
<svg version="1.1" id="Layer_1" xmlns="http://www.w3.org/2000/svg" xmlns:xlink="http://www.w3.org/1999/xlink" x="0px" y="0px"
	 viewBox="0 0 1920 924" style="enable-background:new 0 0 1920 924;" xml:space="preserve">
<style type="text/css">
	.st0{opacity:0.48;}
	.st1{fill:none;stroke:#48EBEF;stroke-width:5;stroke-miterlimit:10;}
	.st2{fill:none;stroke:#4FE2EF;stroke-width:5;stroke-miterlimit:10;}
	.st3{fill:none;stroke:#56D9EF;stroke-width:5;stroke-miterlimit:10;}
	.st4{fill:none;stroke:#5DD0EF;stroke-width:5;stroke-miterlimit:10;}
	.st5{fill:none;stroke:#64C7EF;stroke-width:5;stroke-miterlimit:10;}
	.st6{fill:none;stroke:#6ABDEE;stroke-width:5;stroke-miterlimit:10;}
	.st7{fill:none;stroke:#71B4EE;stroke-width:5;stroke-miterlimit:10;}
	.st8{fill:none;stroke:#78ABEE;stroke-width:5;stroke-miterlimit:10;}
	.st9{fill:none;stroke:#7FA2EE;stroke-width:5;stroke-miterlimit:10;}
	.st10{fill:none;stroke:#8699EE;stroke-width:5;stroke-miterlimit:10;}
	.st11{fill:none;stroke:#8D90EE;stroke-width:5;stroke-miterlimit:10;}
	.st12{fill:none;stroke:#9487EE;stroke-width:5;stroke-miterlimit:10;}
	.st13{fill:none;stroke:#9B7EEE;stroke-width:5;stroke-miterlimit:10;}
	.st14{fill:none;stroke:#A275EE;stroke-width:5;stroke-miterlimit:10;}
	.st15{fill:none;stroke:#A96CEE;stroke-width:5;stroke-miterlimit:10;}
	.st16{fill:none;stroke:#AF62ED;stroke-width:5;stroke-miterlimit:10;}
	.st17{fill:none;stroke:#B659ED;stroke-width:5;stroke-miterlimit:10;}
	.st18{fill:none;stroke:#BD50ED;stroke-width:5;stroke-miterlimit:10;}
	.st19{fill:none;stroke:#C447ED;stroke-width:5;stroke-miterlimit:10;}
	.st20{fill:none;stroke:#CB3EED;stroke-width:5;stroke-miterlimit:10;}
</style>
<g class="st0">
	<path class="st1" d="M-703.9,769.5c421.5-611.3,1071-877.5,1738.9-322s912.5-505.7,1308.3-301.6s508.4,162.2,621.7-14.1"/>
	<path class="st2" d="M-698.5,753.9C-520,545.1-333.7,367.5-107.1,258c189.5-91.9,383.2-126.7,581-82.2
		c165.4,37.2,341.3,128.7,519,249.4c16.8,11.5,33.7,23.3,50.4,35.8c199,148.5,357,158.6,500.2,124.6
		c173.6-41.3,307.5-192.9,439.3-315.6c118.7-109.6,231.3-187.1,361.6-120.5c51.3,26.3,98,50,141.3,70.9
		c276.2,132.7,375.5,80.7,475.5-76.8"/>
	<path class="st3" d="M-693,738.2c193.1-179.7,367.3-349.3,599.8-463.1c197.5-97.1,388.6-134.4,579.6-83
		c160.7,43.2,337,146.7,515,251.4c16.8,10,33.7,20.2,50.3,31.1c197,129.9,350.4,129.4,497.1,108.3c176.6-25.4,307.4-171.3,440-299.2
		c117.5-113.3,228-195.6,356.8-130.5c50.4,25.5,96.3,50.4,139.9,73.4c269.5,142.6,370.3,90.7,471.9-71.3"/>
	<path class="st4" d="M-687.6,722.6c207.7-150.7,369.8-312.3,608.3-430.4c205.6-102.3,394.1-141.9,578.2-83.8
		c156.2,49.3,332.9,164.2,511,253.4c16.9,8.5,33.7,17,50.2,26.4c194.9,111.3,343.8,100,494,91.9c179.5-9.6,307.5-149.3,440.7-282.9
		c116.5-116.9,224.8-204.1,352.1-140.4c49.4,24.8,94.7,50.7,138.5,76c262.9,151.9,365.1,100.6,468.3-65.7"/>
	<path class="st5" d="M-682.2,707c222.3-121.6,372.2-275.3,616.7-397.7c213.6-107.6,399.6-149.5,576.8-84.6
		c151.6,55.5,328.6,182,507,255.3c16.9,6.9,33.7,13.8,50.1,21.7c192.5,92.6,337.1,70.5,490.9,75.6c182.2,6,307.6-127.3,441.3-266.5
		c115.6-120.3,221.5-212.6,347.3-150.3c48.5,24.1,93,50.9,137.1,78.6c256.4,160.9,359.9,110.6,464.7-60.2"/>
	<path class="st6" d="M-676.7,691.3C-439.8,598.7-302,453-51.5,326.4C170.1,213.5,353.5,169.5,523.9,241
		c147.1,61.7,324.3,199.8,502.9,257.3c16.9,5.4,33.7,10.7,50,17c190,74,330.3,40.9,487.9,59.3c185,21.5,307.8-105.3,442-250.2
		c114.6-123.8,218.3-221.1,342.5-160.3c47.5,23.4,91.4,51.1,135.8,81.2c250,169.5,354.7,120.6,461.1-54.6"/>
	<path class="st7" d="M-671.3,675.7c251.5-63.6,377.2-201.3,633.7-332.2C192,225.4,372.9,179.3,536.4,257.3
		c142.6,68,319.9,217.7,498.9,259.2c16.9,3.9,33.6,7.5,49.9,12.3c187.2,55.4,323.5,11.2,484.8,42.9c187.7,36.9,308-83.2,442.6-233.8
		c113.7-127.2,215-229.6,337.8-170.2c46.6,22.7,89.8,51.3,134.4,83.8c243.8,177.8,349.5,130.6,457.5-49.1"/>
	<path class="st8" d="M-665.9,660.1c266.1-34.5,379.7-164.3,642.1-299.5c237.7-123.3,416.1-171.4,572.7-87
		c138,74.4,315.6,235.5,494.9,261.2c16.9,2.4,33.5,4.4,49.7,7.6c184.2,37.1,316.7-18.6,481.7,26.6
		c190.4,52.1,308.2-61.1,443.3-217.4c112.9-130.6,211.8-238.1,333-180.2c45.6,22,88.2,51.4,133,86.4
		c237.7,185.7,344.3,140.6,454-43.5"/>
	<path class="st9" d="M-660.5,644.4c280.7-5.5,382.1-127.3,650.6-266.7c245.8-128.6,421.6-178.5,571.3-87.8
		c133.5,80.9,311.1,253.4,490.9,263.1c16.9,0.9,33.4,1.2,49.6,2.9c181,18.9,310-48.4,478.6,10.2c193.2,67.2,308.4-39,444-201.1
		c112-133.9,208.6-246.8,328.3-190.1c44.7,21.2,86.6,51.4,131.6,89c231.8,193.5,339.1,150.6,450.4-38"/>
	<path class="st10" d="M-655,628.8c295.3,23.5,384.6-90.4,659-234C257.8,261,431,209.3,573.9,306.2
		c128.9,87.4,306.7,271.4,486.9,265.1c16.9-0.6,33.4-3.3,49.5-1.8c176.9,17,303.3-78.4,475.5-6.1c196,82.3,308.7-16.9,444.6-184.7
		c111.2-137.3,205.4-255.3,323.5-200c43.8,20.5,85.1,51.4,130.2,91.6c226,201,333.9,160.6,446.8-32.4"/>
	<path class="st11" d="M-649.6,613.2c309.9,52.6,387.1-53.4,667.5-201.3c261.9-139.1,432.4-192.5,568.5-89.4
		c124.3,94.1,302.3,289.4,482.9,267c16.9-2.1,33.2-5,49.4-6.5c174.3-16.4,296.6-108.4,472.4-22.4c198.9,97.3,309,5.3,445.3-168.4
		c110.4-140.6,202.2-263.8,318.8-210c42.8,19.8,83.6,51.4,128.8,94.1c220.4,208.3,328.7,170.6,443.2-26.9"/>
	<path class="st12" d="M-644.2,597.5c324.5,81.6,389.6-16.4,675.9-168.5c269.9-144.3,437.7-199.3,567.1-90.2
		c119.6,100.8,297.9,307.4,478.9,269c16.9-3.6,33.1-8,49.3-11.2c170.9-33.6,290-138.5,469.3-38.8c201.8,112.2,309.3,27.5,446-152
		c109.6-144,198.9-272.3,314-219.9c41.8,19.1,82.2,51.4,127.5,96.7c215.1,215.5,323.6,180.5,439.6-21.4"/>
	<path class="st13" d="M-638.7,581.9c339.1,110.7,392,20.6,684.4-135.8c277.9-149.6,442.9-206.1,565.7-91
		c114.9,107.6,293.5,325.5,474.9,271c16.9-5.1,33-11,49.2-15.9c167.7-50.5,283.5-168.6,466.3-55.1
		c204.8,127.2,309.7,49.6,446.6-135.7c108.8-147.3,195.7-280.8,309.3-229.9c40.9,18.3,80.8,51.3,126.1,99.3
		c209.9,222.6,318.4,190.5,436-15.8"/>
	<path class="st14" d="M-633.3,566.3C-279.6,706-238.8,623.9,59.6,463.2c286-154.8,448.1-212.8,564.4-91.8
		c110,114.5,289.1,343.5,470.9,272.9c16.9-6.6,32.9-14,49-20.6c164.7-67.1,277-198.7,463.2-71.4c207.8,142.1,310,71.9,447.3-119.3
		c108.1-150.6,192.4-289.3,304.5-239.8c39.9,17.6,79.4,51.1,124.7,101.9c204.8,229.6,313.2,200.5,432.4-10.3"/>
	<path class="st15" d="M-627.9,550.6c368.3,168.7,397,94.6,701.3-70.3c294-160,453.2-219.4,563-92.6
		C741.5,509,921.2,749.3,1103.3,662.6c16.9-8,32.9-17,48.9-25.3c162-83.7,270.5-228.8,460.1-87.8c210.9,156.9,310.4,94.1,447.9-103
		c107.3-153.8,189.1-297.8,299.8-249.8c39,16.9,78.1,51,123.3,104.5c200,236.5,308,210.5,428.9-4.7"/>
	<path class="st16" d="M-622.4,535C-239.6,732.8-223,666.6,87.3,497.4C389.4,332.1,545.5,271.3,648.9,404
		C749,532.3,929.4,783.8,1111.8,680.8c16.9-9.5,32.9-20,48.8-30c159.5-100.1,264.1-259,457-104.1c214,171.8,310.9,116.3,448.6-86.6
		C2172.8,303,2252,154,2361.2,200.4c38,16.3,76.8,50.8,121.9,107.1c195.2,243.3,302.8,220.5,425.3,0.8"/>
	<path class="st17" d="M-617,519.4c397.5,226.8,401.9,168.6,718.2-4.9c310.1-170.5,463-232.7,560.2-94.2
		c94.9,135.2,276.2,397.9,458.9,278.8c16.9-11,32.9-22.9,48.7-34.7c157.2-116.6,257.7-289.1,453.9-120.4
		c217.2,186.7,311.3,138.6,449.3-70.3c105.9-160.4,182.5-314.6,290.3-269.6c37,15.6,75.6,50.7,120.6,109.7
		c190.7,250.2,297.6,230.5,421.7,6.4"/>
	<path class="st18" d="M-611.6,503.7c412.1,255.8,404.4,205.6,726.7,27.9c318.2-175.8,467.8-239.3,558.8-95
		c89.7,142.2,272.2,416.3,454.8,280.7c16.9-12.5,32.9-25.9,48.6-39.4c155.1-133.1,251.4-319.2,450.8-136.8
		c220.4,201.6,311.8,160.8,449.9-53.9c105.3-163.7,179.3-323.1,285.5-279.6c36.1,14.9,74.4,50.5,119.2,112.2
		c186.3,257,292.4,240.5,418.1,11.9"/>
	<path class="st19" d="M-606.2,488.1C-179.5,773-199.3,730.7,129,548.7c326.2-181,472.5-246,557.4-95.8
		c84.4,149.1,267.9,434.3,450.8,282.7c16.9-14,32.9-28.9,48.5-44.1c153.2-149.7,245.3-349.6,447.7-153.1
		c223.9,216.2,312.5,183.2,450.6-37.6c104.8-166.8,176-331.6,280.7-289.5c35.1,14.2,73.3,50.3,117.8,114.8
		c182,263.8,287.2,250.5,414.5,17.4"/>
	<path class="st20" d="M-600.7,472.5c441.2,313.9,409.4,279.6,743.6,93.3s477.1-252.7,556-96.6s263.5,452.2,446.8,284.6
		s266.1-449.6,493-218.2S1951.5,741,2090,514.4s214.5-452.7,392.4-182c177.9,270.7,282,260.5,410.9,23"/>
</g>
</svg>
