<?xml version="1.0" encoding="utf-8"?>
<!-- Generator: Adobe Illustrator 23.0.0, SVG Export Plug-In . SVG Version: 6.00 Build 0)  -->
<svg version="1.1" xmlns="http://www.w3.org/2000/svg" xmlns:xlink="http://www.w3.org/1999/xlink" x="0px" y="0px"
	 viewBox="0 0 1958 745" style="enable-background:new 0 0 1958 745;" xml:space="preserve">
<style type="text/css">
	.st0{display:none;}
	.st1{display:inline;}
	.st2{opacity:0.53;}
	.st3{fill:none;stroke:#240ADD;stroke-miterlimit:10;}
	.st4{fill:none;stroke:#270ADA;stroke-miterlimit:10;}
	.st5{fill:none;stroke:#2B0AD7;stroke-miterlimit:10;}
	.st6{fill:none;stroke:#2E09D4;stroke-miterlimit:10;}
	.st7{fill:none;stroke:#3209D1;stroke-miterlimit:10;}
	.st8{fill:none;stroke:#3509CE;stroke-miterlimit:10;}
	.st9{fill:none;stroke:#3809CB;stroke-miterlimit:10;}
	.st10{fill:none;stroke:#3C09C9;stroke-miterlimit:10;}
	.st11{fill:none;stroke:#3F08C6;stroke-miterlimit:10;}
	.st12{fill:none;stroke:#4208C3;stroke-miterlimit:10;}
	.st13{fill:none;stroke:#4608C0;stroke-miterlimit:10;}
	.st14{fill:none;stroke:#4908BD;stroke-miterlimit:10;}
	.st15{fill:none;stroke:#4D07BA;stroke-miterlimit:10;}
	.st16{fill:none;stroke:#5007B7;stroke-miterlimit:10;}
	.st17{fill:none;stroke:#5307B4;stroke-miterlimit:10;}
	.st18{fill:none;stroke:#5707B1;stroke-miterlimit:10;}
	.st19{fill:none;stroke:#5A07AE;stroke-miterlimit:10;}
	.st20{fill:none;stroke:#5D06AB;stroke-miterlimit:10;}
	.st21{fill:none;stroke:#6106A8;stroke-miterlimit:10;}
	.st22{fill:none;stroke:#6406A6;stroke-miterlimit:10;}
	.st23{fill:none;stroke:#6806A3;stroke-miterlimit:10;}
	.st24{fill:none;stroke:#6B06A0;stroke-miterlimit:10;}
	.st25{fill:none;stroke:#6E059D;stroke-miterlimit:10;}
	.st26{fill:none;stroke:#72059A;stroke-miterlimit:10;}
	.st27{fill:none;stroke:#750597;stroke-miterlimit:10;}
	.st28{fill:none;stroke:#780594;stroke-miterlimit:10;}
	.st29{fill:none;stroke:#7C0591;stroke-miterlimit:10;}
	.st30{fill:none;stroke:#7F048E;stroke-miterlimit:10;}
	.st31{fill:none;stroke:#82048B;stroke-miterlimit:10;}
	.st32{fill:none;stroke:#860488;stroke-miterlimit:10;}
	.st33{fill:none;stroke:#890486;stroke-miterlimit:10;}
	.st34{fill:none;stroke:#8D0483;stroke-miterlimit:10;}
	.st35{fill:none;stroke:#900380;stroke-miterlimit:10;}
	.st36{fill:none;stroke:#93037D;stroke-miterlimit:10;}
	.st37{fill:none;stroke:#97037A;stroke-miterlimit:10;}
	.st38{fill:none;stroke:#9A0377;stroke-miterlimit:10;}
	.st39{fill:none;stroke:#9D0374;stroke-miterlimit:10;}
	.st40{fill:none;stroke:#A10271;stroke-miterlimit:10;}
	.st41{fill:none;stroke:#A4026E;stroke-miterlimit:10;}
	.st42{fill:none;stroke:#A8026B;stroke-miterlimit:10;}
	.st43{fill:none;stroke:#AB0268;stroke-miterlimit:10;}
	.st44{fill:none;stroke:#AE0165;stroke-miterlimit:10;}
	.st45{fill:none;stroke:#B20163;stroke-miterlimit:10;}
	.st46{fill:none;stroke:#B50160;stroke-miterlimit:10;}
	.st47{fill:none;stroke:#B8015D;stroke-miterlimit:10;}
	.st48{fill:none;stroke:#BC015A;stroke-miterlimit:10;}
	.st49{fill:none;stroke:#BF0057;stroke-miterlimit:10;}
	.st50{fill:none;stroke:#C30054;stroke-miterlimit:10;}
	.st51{fill:none;stroke:#C60051;stroke-miterlimit:10;}
</style>
<g id="Layer_1" class="st0">
	<rect y="61" class="st1" width="1958" height="621"/>
</g>
<g id="Layer_2">
	<g class="st2">
		
			<image style="overflow:visible;opacity:0.71;" width="2346" height="572" xlink:href="BEBEEEE6.png"  transform="matrix(1 0 0 1 -151 100)">
		</image>
		<g>
			<g>
				<path class="st3" d="M-81,337.3c355-226.9,767-169.8,1084,37.6s954,9.7,1058-157.3"/>
				<path class="st4" d="M-81.4,334.9c167.9-97.7,349.3-138.2,523.9-139.1c146-0.8,290.8,34.6,424.2,104.6
					c46,24.2,90.9,50.1,134,78.4c83.4,54.6,188.7,77.7,301.3,81.1c180.4,6.1,378.3-33,528.8-86.4c112.8-40,198.1-96.5,231.9-149.6"
					/>
				<path class="st5" d="M-81.8,332.5C87,243.9,270.1,206.8,442.7,199.8c144.7-5.8,289.1,26.5,422.4,102.2
					c45.7,25.9,90.3,52.4,133.3,80.6c83.5,54.8,188.9,74,302.2,74.7c180.8,1.2,379.8-35,530.7-81.5c113.6-35,198.4-92.2,233.2-145.7
					"/>
				<path class="st6" d="M-82.2,330.1c169.6-79.5,354.4-113.2,525-126.2c143.5-10.9,287.5,18.4,420.6,99.8
					c45.3,27.7,89.8,54.7,132.6,82.8c83.7,54.9,189,70.4,303,68.3c181.3-3.4,381.4-37.1,532.6-76.6
					c114.5-29.9,198.7-87.9,234.5-141.7"/>
				<path class="st7" d="M-82.5,327.7C87.9,257.3,274.4,227,443,208c142.2-16,285.8,10.3,418.8,97.4c44.9,29.4,89.3,57,131.9,85
					c83.8,55.1,189.2,66.9,303.9,61.9c181.7-8,383-39.1,534.6-71.6c115.4-24.8,199-83.6,235.7-137.8"/>
				<path class="st8" d="M-82.9,325.3C88.3,264,276.7,237,443.2,212.1c141.1-21.1,284.1,2.1,417,95c44.5,31.1,88.8,59.3,131.2,87.2
					c84,55.2,189.3,63.5,304.7,55.5c182.1-12.5,384.8-41.1,536.5-66.7c116.4-19.7,199.3-79.3,237-133.9"/>
				<path class="st9" d="M-83.3,322.9C88.8,270.7,278.9,247,443.3,216.2c139.9-26.2,282.5-6.1,415.1,92.6
					c44.2,32.9,88.2,61.6,130.6,89.4c84.1,55.4,189.5,60,305.6,49.1c182.5-17,386.6-43,538.4-61.8c117.5-14.6,199.6-75,238.3-130"/>
				<path class="st10" d="M-83.7,320.5C89.2,277.4,281.2,257,443.5,220.3c138.7-31.4,280.8-14.4,413.3,90.2
					c43.8,34.6,87.7,63.8,129.9,91.6c84.3,55.5,189.6,56.5,306.4,42.7c182.9-21.6,388.5-44.8,540.3-56.9
					c118.6-9.4,199.9-70.7,239.6-126"/>
				<path class="st11" d="M-84.1,318.1c173.7-34,367.6-51.2,527.8-93.7c137.6-36.5,279.2-22.7,411.5,87.8
					c43.4,36.3,87.2,66.1,129.2,93.8c84.4,55.6,189.7,53.1,307.3,36.3c183.3-26,390.5-59.6,542.2-52c119.7,6,200.2-66.4,240.8-122.1
					"/>
				<path class="st12" d="M-84.5,315.7c174.6-24.9,370.3-38.9,528.3-87.2c136.5-41.7,277.5-31,409.7,85.4
					c43.1,37.9,86.6,68.4,128.5,96c84.6,55.8,189.8,49.6,308.1,30c183.7-30.5,393.2-62.5,544.2-47
					c120.4,12.3,200.5-62.1,242.1-118.2"/>
				<path class="st13" d="M-84.9,313.3c175.4-15.8,373-26.7,528.9-80.8c135.4-47,275.9-39.4,407.9,83
					c42.7,39.6,86.1,70.7,127.8,98.2c84.7,55.9,189.9,46.2,309,23.6c184.1-35,394.4-50,546.1-42.1c122.3,6.4,200.8-57.8,243.4-114.3
					"/>
				<path class="st14" d="M-85.2,310.9c176.2-6.7,375.8-14.5,529.4-74.3c134.3-52.3,274.3-47.7,406.1,80.6
					c42.4,41.3,85.6,73,127.1,100.4c84.9,56.1,190,42.8,309.8,17.2c184.5-39.4,396.5-51.6,548-37.2
					c123.6,11.7,201.1-53.5,244.7-110.4"/>
				<path class="st15" d="M-85.6,308.5c177.1,2.4,378.5-2.3,530-67.8c133.3-57.6,272.7-56.1,404.3,78.2c42,42.9,85,75.2,126.5,102.6
					c85,56.2,190.2,39.3,310.6,10.8c184.8-43.8,398.6-53.1,549.9-32.3c124.9,17.2,201.4-49.2,246-106.4"/>
				<path class="st16" d="M-86,306.2c177.9,11.5,381.2,9.8,530.5-61.3c132.2-62.9,271.1-64.6,402.5,75.8
					c41.7,44.6,84.5,77.5,125.8,104.8c85.2,56.4,190.3,35.9,311.5,4.4c185.2-48.2,400.7-54.5,551.8-27.4
					c126.2,22.6,201.7-44.9,247.2-102.5"/>
				<path class="st17" d="M-86.4,303.8c178.7,20.6,384,21.9,531.1-54.8c131.1-68.3,269.6-73,400.6,73.4c41.3,46.2,84,79.8,125.1,107
					c85.3,56.5,190.4,32.6,312.3-2c185.6-52.6,402.8-55.8,553.8-22.4c127.6,28.2,202-40.6,248.5-98.6"/>
				<path class="st18" d="M-86.8,301.4C92.8,331,299.9,335.3,444.9,253c130-73.8,268.1-81.5,398.8,71c41,47.8,83.4,82.1,124.4,109.2
					c85.5,56.7,190.5,29.2,313.2-8.4c186-57,404.9-57,555.7-17.5c128.9,33.8,202.3-36.3,249.8-94.7"/>
				<path class="st19" d="M-87.2,299c180.4,38.8,389.4,45.9,532.2-41.8c128.9-79.2,266.5-90,397,68.6
					c40.7,49.4,82.9,84.4,123.7,111.4c85.6,56.8,190.6,25.8,314-14.8c186.4-61.3,407-58.2,557.6-12.6
					c130.2,39.5,202.6-32,251.1-90.7"/>
				<path class="st20" d="M-87.6,296.6c181.2,47.9,392.1,57.9,532.8-35.4c127.8-84.7,265-98.5,395.2,66.2
					c40.4,51.1,82.4,86.6,123,113.6c85.8,57,190.7,22.5,314.9-21.2c186.7-65.7,409.1-59.4,559.5-7.7
					c131.5,45.2,202.8-27.6,252.4-86.8"/>
				<path class="st21" d="M-87.9,294.2c182.1,57,394.8,69.8,533.3-28.9c126.7-90.2,263.6-107,393.4,63.8
					c40.1,52.7,81.8,88.9,122.4,115.8c85.9,57.1,190.8,19.1,315.7-27.6c187.1-70,411.1-60.4,561.4-2.8
					c132.8,50.9,203.1-23.3,253.6-82.9"/>
				<path class="st22" d="M-88.3,291.8c182.9,66.1,397.4,81.7,533.9-22.4c125.6-95.8,262.1-115.5,391.6,61.4
					c39.8,54.3,81.3,91.2,121.7,118c86.1,57.3,191,15.8,316.6-34c187.5-74.3,413.2-61.4,563.4,2.1c134,56.7,203.4-19,254.9-79"/>
				<path class="st23" d="M-88.7,289.4C95,364.6,311.3,383,445.7,273.5c124.4-101.3,260.6-124,389.8,59
					c39.5,55.9,80.8,93.5,121,120.2c86.2,57.4,191.1,12.4,317.4-40.4c187.9-78.6,415.1-62.4,565.3,7.1
					c135.3,62.6,203.7-14.7,256.2-75"/>
				<path class="st24" d="M-89.1,287c184.6,84.3,402.7,105.4,535-9.4c123.2-106.9,259.2-132.5,387.9,56.6
					c39.2,57.5,80.3,95.8,120.3,122.4c86.4,57.6,191.2,9.1,318.3-46.8c188.3-82.9,417.1-63.3,567.2,12
					c136.5,68.5,204-10.4,257.5-71.1"/>
				<path class="st25" d="M-89.5,284.6c185.4,93.4,405.2,117.2,535.5-2.9c122-112.5,257.8-141.1,386.1,54.1
					c38.9,59.1,79.7,98.1,119.6,124.6c86.5,57.7,191.4,5.8,319.1-53.2c188.8-87.1,419-64.2,569.1,16.9
					c137.6,74.4,204.3-6.1,258.8-67.2"/>
				<path class="st26" d="M-89.9,282.2c186.2,102.5,407.8,129.1,536.1,3.5C567,167.6,702.6,136.2,830.6,337.5
					c38.6,60.8,79.2,100.3,118.9,126.8c86.7,57.8,191.5,2.5,320-59.6c189.2-91.4,420.9-65.1,571,21.8c138.8,80.4,204.6-1.8,260-63.3
					"/>
				<path class="st27" d="M-90.3,279.8c187,111.6,410.3,140.9,536.7,10c119.5-123.8,255-158.1,382.5,49.3
					c38.3,62.4,78.7,102.6,118.3,129c86.8,58,191.6-0.8,320.8-66c189.6-95.6,422.8-66,572.9,26.7c139.9,86.3,204.9,2.5,261.3-59.4"
					/>
				<path class="st28" d="M-90.6,277.4C97.2,398.1,322.2,430.1,446.6,294c118.2-129.4,253.7-166.7,380.7,46.9
					c38,64,78.1,104.9,117.6,131.2c87,58.1,191.8-4.1,321.7-72.3c190-99.9,424.6-66.8,574.9,31.7c140.9,92.3,205.2,6.8,262.6-55.4"
					/>
				<path class="st29" d="M-91,275c188.7,129.8,415.3,164.5,537.8,23C563.6,163,699.1,122.8,825.6,342.6
					c37.8,65.6,77.6,107.2,116.9,133.4c87.1,58.3,191.9-7.4,322.5-78.7c190.5-104.1,426.4-67.7,576.8,36.6
					c141.9,98.4,205.5,11.1,263.9-51.5"/>
				<path class="st30" d="M-91.4,272.7c189.5,138.9,417.8,176.2,538.3,29.5c115.6-140.7,251-183.8,377.1,42.1
					c37.5,67.2,77.1,109.5,116.2,135.6c87.3,58.4,192.1-10.7,323.3-85.1c190.9-108.3,428.1-68.5,578.7,41.5
					c142.9,104.4,205.8,15.4,265.1-47.6"/>
				<path class="st31" d="M-91.8,270.3c190.4,148,420.2,188,538.9,36C561.3,159.9,696.7,113.9,822.4,346
					c37.2,68.8,76.5,111.7,115.5,137.8c87.4,58.6,192.3-13.9,324.2-91.5c191.4-112.6,429.8-69.3,580.6,46.4
					c143.9,110.4,206.1,19.7,266.4-43.7"/>
				<path class="st32" d="M-92.2,267.9C99,424.9,330.5,467.7,447.3,310.3c112.8-152,248.3-200.9,373.4,37.3
					c37,70.4,76,114,114.8,140c87.6,58.7,192.4-17.2,325-97.9c191.9-116.8,431.5-70.1,582.5,51.3c144.8,116.5,206.4,24,267.7-39.7"
					/>
				<path class="st33" d="M-92.6,265.5c192,166.2,425.1,211.6,540,48.9c111.4-157.7,247-209.5,371.6,34.9
					c36.7,72,75.5,116.3,114.2,142.2c87.7,58.9,192.6-20.5,325.9-104.3c192.3-121,433.2-70.9,584.5,56.3
					c145.8,122.5,206.7,28.3,269-35.8"/>
				<path class="st34" d="M-92.9,263.1c192.9,175.3,427.4,223.4,540.6,55.4c110-163.4,245.7-218,369.8,32.5
					c36.5,73.6,74.9,118.6,113.5,144.4c87.9,59,192.8-23.7,326.7-110.7c192.8-125.2,434.8-71.7,586.4,61.2
					c146.6,128.6,207,32.6,270.3-31.9"/>
				<path class="st35" d="M-93.3,260.7C100.4,445,336.5,495.8,447.8,322.6c108.6-169,244.4-226.6,368,30.1
					c36.2,75.2,74.4,120.9,112.8,146.6c88.1,59.2,193-27,327.6-117.1c193.3-129.4,436.4-72.5,588.3,66.1
					c147.5,134.6,207.3,36.9,271.5-28"/>
				<path class="st36" d="M-93.7,258.3c194.5,193.5,432.1,247,541.7,68.4C555.1,152,691.1,91.5,814.1,354.4
					c36,76.8,73.9,123.1,112.1,148.8c88.2,59.3,193.2-30.3,328.4-123.5c193.8-133.6,438-73.3,590.2,71
					c148.3,140.7,207.6,41.2,272.8-24"/>
				<path class="st37" d="M-94.1,255.9c195.4,202.6,434.5,258.7,542.2,74.9C553.8,150.4,690,87.1,812.5,356.1
					c35.7,78.4,73.3,125.4,111.4,151c88.4,59.5,193.4-33.5,329.3-129.9c194.3-137.8,439.6-74.2,592.1,75.9
					c149.1,146.7,207.9,45.5,274.1-20.1"/>
				<path class="st38" d="M-94.5,253.5c196.2,211.7,436.8,270.6,542.8,81.4c104.2-186,240.7-252.3,362.6,22.9
					c35.5,80,72.8,127.7,110.8,153.2c88.5,59.6,193.6-36.8,330.1-136.3c194.8-142,441.1-75,594.1,80.8
					c149.9,152.8,208.2,49.8,275.4-16.2"/>
				<path class="st39" d="M-94.9,251.1c197,220.8,439.1,282.4,543.3,87.9c102.7-191.6,239.4-260.8,360.8,20.5
					c35.2,81.6,72.3,130,110.1,155.4c88.7,59.7,193.8-40,331-142.7c195.3-146.2,442.7-75.8,596,85.8
					c150.7,158.8,208.5,54.1,276.7-12.3"/>
				<path class="st40" d="M-95.3,248.7c197.9,229.9,441.4,294.2,543.9,94.3c101.2-197.3,238.2-269.4,358.9,18.1
					c35,83.2,71.8,132.3,109.4,157.6c88.8,59.9,194-43.3,331.8-149.1c195.9-150.3,444.2-76.6,597.9,90.7
					c151.5,164.9,208.8,58.5,277.9-8.4"/>
				<path class="st41" d="M-95.6,246.3c198.7,239,443.7,306,544.4,100.8c99.7-202.9,236.9-277.9,357.1,15.7
					c34.7,84.9,71.2,134.6,108.7,159.8c89,60,194.2-46.5,332.7-155.5c196.4-154.5,445.7-77.5,599.8,95.6
					c152.2,170.9,209,62.8,279.2-4.4"/>
				<path class="st42" d="M-96,243.9C103.5,492,349.9,561.8,449,351.2c98.1-208.5,235.7-286.5,355.3,13.3
					c34.5,86.5,70.7,136.8,108,162c89.1,60.2,194.4-49.8,333.5-161.9c196.9-158.7,447.2-78.3,601.7,100.5
					c152.9,177,209.3,67.1,280.5-0.5"/>
				<path class="st43" d="M-96.4,241.5c200.3,257.2,448.2,329.7,545.6,113.8c96.6-214.2,234.5-295,353.5,10.9
					c34.3,88.1,70.2,139.1,107.3,164.2c89.3,60.3,194.6-53,334.4-168.3C1441.8,199.3,1693,283,1848,467.6
					c153.7,183,209.6,71.4,281.8,3.4"/>
				<path class="st44" d="M-96.8,239.2c201.2,266.3,450.4,341.5,546.1,120.3c95-219.8,233.3-303.6,351.7,8.5
					c34,89.7,69.6,141.4,106.7,166.4c89.4,60.5,194.9-56.3,335.2-174.6c198-167.1,450.1-80.1,605.6,110.4
					c154.4,189,209.9,75.7,283,7.3"/>
				<path class="st45" d="M-97.2,236.8c202,275.4,452.7,353.4,546.7,126.8c93.5-225.4,232.1-312.1,349.9,6.1
					c33.8,91.3,69.1,143.7,106,168.6c89.6,60.6,195.1-59.5,336-181c198.6-171.2,451.5-80.9,607.5,115.3
					c155,195.1,210.2,80,284.3,11.3"/>
				<path class="st46" d="M-97.6,234.4c202.8,284.5,454.9,365.2,547.2,133.2c91.9-231,230.9-320.7,348.1,3.7
					c33.6,92.9,68.6,146,105.3,170.8c89.7,60.8,195.3-62.7,336.9-187.4c199.1-175.4,453-81.8,609.4,120.2
					c155.7,201.1,210.5,84.3,285.6,15.2"/>
				<path class="st47" d="M-98,232c203.7,293.6,457.1,377.1,547.8,139.7c90.3-236.6,229.7-329.2,346.3,1.3
					c33.3,94.5,68,148.2,104.6,173c89.9,60.9,195.6-66,337.7-193.8c199.7-179.6,454.4-82.7,611.3,125.1
					c156.4,207.1,210.8,88.6,286.9,19.1"/>
				<path class="st48" d="M-98.3,229.6C106.2,532.2,361,618.5,450,375.8c88.8-242.2,228.5-337.8,344.4-1.1
					c33.1,96.1,67.5,150.5,103.9,175.2c90,61.1,196.1-69,338.6-200.2c200.6-183.4,455.8-83.6,613.2,130
					c157.1,213.1,211.1,92.9,288.2,23"/>
				<path class="st49" d="M-98.7,227.2C106.6,538.9,362.9,628,450.2,379.9c87.2-247.8,227.8-346.4,342.6-3.5
					c33,97.7,67,152.8,103.2,177.4c90.2,61.2,196.3-72.3,339.4-206.6c201.1-187.7,457.2-84.5,615.2,134.9
					c157.7,219.1,211.4,97.2,289.4,27"/>
				<path class="st50" d="M-99.1,224.8C107.1,545.6,364.4,637.4,450.3,384c85.3-253.5,226.4-354.9,340.8-5.9
					c32.7,99.4,66.4,155.1,102.6,179.6C984,619,1090.1,482,1234,344.6c201.5-192,458.3-85.2,617.1,139.9
					c158,225.3,211.7,101.5,290.7,30.9"/>
				<path class="st51" d="M-99.5,222.4c207,329.9,466,424.6,550,165.7s225-363.4,339-8.4s241,158.7,443-37.6s460-86.3,619,144.8
					s212,105.8,292,34.8"/>
			</g>
		</g>
	</g>
</g>
<g id="Layer_3" class="st0">
</g>
</svg>
