<svg id="Layer_1" data-name="Layer 1" xmlns="http://www.w3.org/2000/svg" xmlns:xlink="http://www.w3.org/1999/xlink" viewBox="0 0 642 2312"><defs><style>.cls-1{opacity:0.99;fill:url(#linear-gradient);}.cls-2{mask:url(#mask);}.cls-3{opacity:0.54;}.cls-10,.cls-100,.cls-101,.cls-102,.cls-103,.cls-104,.cls-105,.cls-106,.cls-107,.cls-108,.cls-109,.cls-11,.cls-110,.cls-111,.cls-112,.cls-113,.cls-114,.cls-115,.cls-116,.cls-117,.cls-118,.cls-119,.cls-12,.cls-120,.cls-121,.cls-122,.cls-123,.cls-124,.cls-125,.cls-126,.cls-127,.cls-128,.cls-129,.cls-13,.cls-130,.cls-131,.cls-132,.cls-14,.cls-15,.cls-16,.cls-17,.cls-18,.cls-19,.cls-20,.cls-21,.cls-22,.cls-23,.cls-24,.cls-25,.cls-26,.cls-27,.cls-28,.cls-29,.cls-30,.cls-31,.cls-32,.cls-33,.cls-34,.cls-35,.cls-36,.cls-37,.cls-38,.cls-39,.cls-4,.cls-40,.cls-41,.cls-42,.cls-43,.cls-44,.cls-45,.cls-46,.cls-47,.cls-48,.cls-49,.cls-5,.cls-50,.cls-51,.cls-52,.cls-53,.cls-54,.cls-55,.cls-56,.cls-57,.cls-58,.cls-59,.cls-6,.cls-60,.cls-61,.cls-62,.cls-63,.cls-64,.cls-65,.cls-66,.cls-67,.cls-68,.cls-69,.cls-7,.cls-70,.cls-71,.cls-72,.cls-73,.cls-74,.cls-75,.cls-76,.cls-77,.cls-78,.cls-79,.cls-8,.cls-80,.cls-81,.cls-82,.cls-83,.cls-84,.cls-85,.cls-86,.cls-87,.cls-88,.cls-89,.cls-9,.cls-90,.cls-91,.cls-92,.cls-93,.cls-94,.cls-95,.cls-96,.cls-97,.cls-98,.cls-99{fill:none;stroke-miterlimit:10;stroke-width:3px;}.cls-4{stroke:#ff457f;}.cls-5{stroke:#fe4580;}.cls-6{stroke:#fe4581;}.cls-7{stroke:#fd4482;}.cls-8{stroke:#fc4483;}.cls-9{stroke:#fc4484;}.cls-10{stroke:#fb4485;}.cls-11{stroke:#fa4486;}.cls-12{stroke:#fa4487;}.cls-13{stroke:#f94388;}.cls-14{stroke:#f84389;}.cls-15{stroke:#f8438a;}.cls-16{stroke:#f7438b;}.cls-17{stroke:#f6438c;}.cls-18{stroke:#f6428d;}.cls-19{stroke:#f5428e;}.cls-20{stroke:#f4428f;}.cls-21{stroke:#f44290;}.cls-22{stroke:#f34291;}.cls-23{stroke:#f24292;}.cls-24{stroke:#f24193;}.cls-25{stroke:#f14194;}.cls-26{stroke:#f04195;}.cls-27{stroke:#f04196;}.cls-28{stroke:#ef4197;}.cls-29{stroke:#ee4198;}.cls-30{stroke:#ee4099;}.cls-31{stroke:#ed409a;}.cls-32{stroke:#ec409b;}.cls-33{stroke:#ec409c;}.cls-34{stroke:#eb409d;}.cls-35{stroke:#ea3f9e;}.cls-36{stroke:#ea3f9f;}.cls-37{stroke:#e93fa0;}.cls-38{stroke:#e83fa1;}.cls-39{stroke:#e73fa2;}.cls-40{stroke:#e73fa3;}.cls-41{stroke:#e63ea4;}.cls-42{stroke:#e53ea5;}.cls-43{stroke:#e53ea6;}.cls-44{stroke:#e43ea7;}.cls-45{stroke:#e33ea8;}.cls-46{stroke:#e33da9;}.cls-47{stroke:#e23daa;}.cls-48{stroke:#e13dab;}.cls-49{stroke:#e13dac;}.cls-50{stroke:#e03dad;}.cls-51{stroke:#df3dae;}.cls-52{stroke:#df3caf;}.cls-53{stroke:#de3cb0;}.cls-54{stroke:#dd3cb1;}.cls-55{stroke:#dd3cb2;}.cls-56{stroke:#dc3cb3;}.cls-57{stroke:#db3bb4;}.cls-58{stroke:#db3bb5;}.cls-59{stroke:#da3bb6;}.cls-60{stroke:#d93bb7;}.cls-61{stroke:#d93bb8;}.cls-62{stroke:#d83bb9;}.cls-63{stroke:#d73aba;}.cls-64{stroke:#d73abb;}.cls-65{stroke:#d63abc;}.cls-66{stroke:#d53abd;}.cls-67{stroke:#d53abe;}.cls-68{stroke:#d439bf;}.cls-69{stroke:#d339c0;}.cls-70{stroke:#d339c1;}.cls-71{stroke:#d239c2;}.cls-72{stroke:#d139c3;}.cls-73{stroke:#d139c4;}.cls-74{stroke:#d038c5;}.cls-75{stroke:#cf38c6;}.cls-76{stroke:#cf38c7;}.cls-77{stroke:#ce38c8;}.cls-78{stroke:#cd38c9;}.cls-79{stroke:#cd38ca;}.cls-80{stroke:#cc37cb;}.cls-81{stroke:#cb37cc;}.cls-82{stroke:#cb37cd;}.cls-83{stroke:#ca37ce;}.cls-84{stroke:#c937cf;}.cls-85{stroke:#c936d0;}.cls-86{stroke:#c836d1;}.cls-87{stroke:#c736d2;}.cls-88{stroke:#c736d3;}.cls-89{stroke:#c636d4;}.cls-90{stroke:#c536d5;}.cls-91{stroke:#c535d6;}.cls-92{stroke:#c435d7;}.cls-93{stroke:#c335d8;}.cls-94{stroke:#c335d9;}.cls-95{stroke:#c235da;}.cls-96{stroke:#c134db;}.cls-97{stroke:#c134dc;}.cls-98{stroke:#c034dd;}.cls-99{stroke:#bf34de;}.cls-100{stroke:#bf34df;}.cls-101{stroke:#be34e0;}.cls-102{stroke:#bd33e1;}.cls-103{stroke:#bc33e2;}.cls-104{stroke:#bc33e3;}.cls-105{stroke:#bb33e4;}.cls-106{stroke:#ba33e5;}.cls-107{stroke:#ba32e6;}.cls-108{stroke:#b932e7;}.cls-109{stroke:#b832e8;}.cls-110{stroke:#b832e9;}.cls-111{stroke:#b732ea;}.cls-112{stroke:#b632eb;}.cls-113{stroke:#b631ec;}.cls-114{stroke:#b531ed;}.cls-115{stroke:#b431ee;}.cls-116{stroke:#b431ef;}.cls-117{stroke:#b331f0;}.cls-118{stroke:#b231f1;}.cls-119{stroke:#b230f2;}.cls-120{stroke:#b130f3;}.cls-121{stroke:#b030f4;}.cls-122{stroke:#b030f5;}.cls-123{stroke:#af30f6;}.cls-124{stroke:#ae2ff7;}.cls-125{stroke:#ae2ff8;}.cls-126{stroke:#ad2ff9;}.cls-127{stroke:#ac2ffa;}.cls-128{stroke:#ac2ffb;}.cls-129{stroke:#ab2ffc;}.cls-130{stroke:#aa2efd;}.cls-131{stroke:#aa2efe;}.cls-132{stroke:#a92eff;}</style><linearGradient id="linear-gradient" x1="-764.47" y1="1137.5" x2="1392.04" y2="1137.5" gradientTransform="translate(-16.51 26.06)" gradientUnits="userSpaceOnUse"><stop offset="0" stop-color="#020202"/><stop offset="0.04" stop-color="#313131"/><stop offset="0.09" stop-color="#616161"/><stop offset="0.14" stop-color="#8c8c8c"/><stop offset="0.19" stop-color="#afafaf"/><stop offset="0.25" stop-color="#ccc"/><stop offset="0.3" stop-color="#e3e3e3"/><stop offset="0.37" stop-color="#f3f3f3"/><stop offset="0.44" stop-color="#fcfcfc"/><stop offset="0.54" stop-color="#fff"/><stop offset="0.62" stop-color="#fcfcfc"/><stop offset="0.68" stop-color="#f4f4f4"/><stop offset="0.72" stop-color="#e6e6e6"/><stop offset="0.76" stop-color="#d1d1d1"/><stop offset="0.8" stop-color="#b7b7b7"/><stop offset="0.83" stop-color="#969696"/><stop offset="0.86" stop-color="#707070"/><stop offset="0.89" stop-color="#434343"/><stop offset="0.92" stop-color="#111"/><stop offset="0.93"/></linearGradient><mask id="mask" x="27.78" y="25.93" width="539" height="2232.74" maskUnits="userSpaceOnUse"><rect class="cls-1" x="-780.97" y="894.06" width="2156.5" height="539" transform="translate(1460.84 866.28) rotate(90)"/></mask></defs><title>abstract11_vertical</title><g class="cls-2"><g class="cls-3"><path class="cls-4" d="M271.28,26.78c198,290.24,234.87,473.27,212,586.29-28,138.35-441.45,274.31-268.23,439.49,248.23,141,192.23,389.64,61.23,489.29s235,425.69-5,652.08"/><path class="cls-5" d="M273.15,27.07C418,242.88,475.26,400.39,486.77,513.4c3.86,38.69,2.09,72.18-3.63,101.1C472.91,667,407.78,718.79,339.6,772,227,859.89,105.81,951.86,214.48,1054.52c204,115.47,204.5,303.26,124.08,422.55a278,278,0,0,1-61.66,66c-67.94,51.75-4.66,162.23,42,289,44.37,119.61,69.74,252.47-46.45,362.35"/><path class="cls-6" d="M275,27.37C417.38,242.92,473.74,401.3,486.12,514.74c4.08,38.72,2.4,72.22-3.12,101.19-10.06,52.77-74.95,104.72-143.34,158C226.93,861.8,104.55,954.14,213.92,1056.49c203.88,115,206.46,302,125.35,421.8a279.9,279.9,0,0,1-61.76,66c-68.42,52.19-6.45,161.91,41.72,288.46,45.6,119.83,70.44,252.2-45.53,362.15"/><path class="cls-7" d="M276.88,27.66C416.74,243,472.53,402.18,485.47,516.08c4.4,38.74,2.74,72.27-2.62,101.28C473,670.47,408.32,722.5,339.71,775.86,226.86,863.71,103.3,956.42,213.35,1058.45,417.16,1173.08,421.79,1359.29,340,1479.51a281.74,281.74,0,0,1-61.84,66c-68.9,52.61-8.1,161.53,41.39,287.93,47,120,71.14,251.91-44.61,361.94"/><path class="cls-8" d="M278.75,28C416.09,243,471.11,403.08,484.82,517.42c4.64,38.77,3.09,72.33-2.11,101.37-9.56,53.44-74.13,105.56-142.95,159-113,87.83-237.72,180.9-127,282.62,203.75,114.22,210.41,299.64,127.9,420.32a283.59,283.59,0,0,1-61.93,66c-69.38,53-9.76,161.15,41.05,287.41,48.36,120.16,71.85,251.63-43.68,361.73"/><path class="cls-9" d="M280.61,28.25C415.45,243.05,469.69,404,484.17,518.76c4.89,38.79,3.44,72.38-1.6,101.46-9.31,53.78-73.72,106-142.76,159.5-113.09,87.81-239,181.25-127.6,282.65C415.9,1176.18,424.6,1360.8,341.39,1482a285.47,285.47,0,0,1-62,66.06C209.5,1601.5,268,1708.79,320.09,1834.9c49.74,120.33,72.55,251.35-42.76,361.52"/><path class="cls-10" d="M282.48,28.55c132.33,214.54,185.78,376.32,201,491.56,5.14,38.81,3.79,72.42-1.09,101.54-9.07,54.12-73.31,106.4-142.56,160C226.65,869.44,99.53,963.25,211.64,1064.34,415.27,1177.73,426,1361.56,342.09,1483.17a287.57,287.57,0,0,1-62.1,66.08c-70.35,53.92-13.05,160.41,40.38,286.36,51.13,120.5,73.26,251.06-41.83,361.31"/><path class="cls-11" d="M284.35,28.84C414.16,243.13,466.84,405.77,482.87,521.45c5.38,38.83,4.14,72.48-.58,101.63-8.82,54.46-72.9,106.82-142.37,160.51C226.58,871.35,98.27,965.52,211.07,1066.3c203.57,113,216.07,295.83,131.73,418.08-17.78,25.78-38.89,48.28-62.2,66.1-70.83,54.36-14.68,160,40.06,285.84,52.51,120.67,74,250.78-40.9,361.1"/><path class="cls-12" d="M286.22,29.14c127.3,214,179.19,377.52,196,493.65,5.63,38.86,4.49,72.53-.07,101.72-8.57,54.8-72.5,107.25-142.18,161C226.51,873.26,97,967.8,210.5,1068.26c203.51,112.57,218,294.6,133,417.34-17.86,25.78-39,48.29-62.29,66.11C209.91,1606.51,264.9,1711.38,321,1837c53.9,120.84,74.66,250.5-40,360.89"/><path class="cls-13" d="M288.08,29.43C412.88,243.22,464,407.56,481.57,524.13c5.87,38.88,4.84,72.59.44,101.81-8.32,55.14-72.09,107.67-142,161.51C226.45,875.18,95.76,970.07,209.94,1070.23c203.44,112.15,219.94,293.37,134.27,416.59-17.92,25.78-39.07,48.29-62.37,66.13-71.79,55.22-17.95,159.29,39.39,284.78,55.3,121,75.36,250.23-39.05,360.69"/><path class="cls-14" d="M290,29.73c122.28,213.53,172.59,378.72,191,495.74a337.24,337.24,0,0,1,.94,101.9c-8.05,55.48-71.67,108.09-141.78,162-113.7,87.7-245.57,183-130.71,282.8C412.75,1183.93,431.25,1364.33,344.92,1488c-18,25.78-39.16,48.3-62.46,66.14-72.28,55.66-19.58,158.92,39.06,284.26,56.69,121.19,76.06,249.94-38.13,360.47"/><path class="cls-15" d="M291.82,30C411.59,243.31,461.11,409.34,480.27,526.81a336.46,336.46,0,0,1,1.45,102c-7.8,55.83-71.26,108.52-141.59,162.53C226.31,879,93.25,974.63,208.8,1074.15c203.32,111.33,223.82,290.91,136.83,415.11-18.07,25.78-39.26,48.3-62.55,66.15-72.76,56.1-21.2,158.56,38.72,283.74,58.1,121.37,76.77,249.66-37.2,360.26"/><path class="cls-16" d="M293.69,30.32c117.25,213,166,379.92,185.93,497.83a336.09,336.09,0,0,1,2,102.07c-7.55,56.18-70.86,108.94-141.4,163C226.24,880.91,92,976.9,208.23,1076.12,411.49,1187,434,1365.79,346.33,1490.48c-18.13,25.79-39.35,48.3-62.64,66.17-73.24,56.53-22.81,158.18,38.4,283.21,59.5,121.54,77.47,249.38-36.28,360"/><path class="cls-17" d="M295.55,30.61C410.3,243.39,458.23,411.13,479,529.49a335.42,335.42,0,0,1,2.47,102.16C474.15,688.17,411,741,340.23,795.19c-114.06,87.63-249.49,184-132.57,282.89C410.85,1188.58,435.37,1366.53,347,1491.7c-18.2,25.79-39.44,48.31-62.73,66.18-73.72,57-24.43,157.81,38.07,282.69,60.91,121.71,78.17,249.09-35.36,359.84"/><path class="cls-18" d="M297.42,30.91C409.66,243.43,456.79,412,478.32,530.83a335.1,335.1,0,0,1,3,102.25c-7,56.87-70,109.79-141,164C226.1,884.73,89.48,981.46,207.09,1080c203.13,110.09,229.65,287.22,140.65,412.87-18.26,25.8-39.53,48.32-62.81,66.2-74.21,57.4-26,157.44,37.73,282.17,62.33,121.89,78.88,248.81-34.43,359.63"/><path class="cls-19" d="M299.29,31.2C409,243.48,455.35,412.91,477.67,532.17a334.47,334.47,0,0,1,3.49,102.34c-6.78,57.21-69.63,110.21-140.82,164.54C226,886.64,88.22,983.73,206.52,1082c203.07,109.66,231.59,286,141.93,412.12-18.34,25.8-39.62,48.33-62.9,66.22C210.86,1618.18,257.9,1717.41,323,1842c63.74,122.06,79.58,248.53-33.51,359.42"/><path class="cls-20" d="M301.15,31.5c107.22,212,152.75,382.3,175.87,502a334.2,334.2,0,0,1,4,102.43c-6.52,57.56-69.23,110.63-140.63,165C226,888.55,87,986,206,1084c203,109.25,233.53,284.76,143.2,411.38-18.41,25.8-39.72,48.33-63,66.23-75.17,58.27-29.25,156.7,37.07,281.12,65.15,122.23,80.28,248.25-32.59,359.21"/><path class="cls-21" d="M303,31.79c104.71,211.77,149.44,382.9,173.35,503.07a333.2,333.2,0,0,1,4.5,102.51c-6.25,57.91-68.81,111-140.43,165.55-114.54,87.54-254.73,185.37-135,283,202.94,108.84,235.48,283.53,144.47,410.64-18.47,25.8-39.84,48.29-63.08,66.24-75.77,58.55-30.85,156.33,36.74,280.59,66.58,122.42,81,248-31.66,359"/><path class="cls-22" d="M304.89,32.09C407.08,243.61,451,415.57,475.72,536.2a332.67,332.67,0,0,1,5,102.6c-6,58.25-68.4,111.47-140.23,166.05-114.67,87.53-256,185.71-135.68,283.05,202.88,108.42,237.42,282.3,145.75,409.89-18.54,25.81-39.94,48.29-63.17,66.26-76.26,59-32.44,156,36.41,280.06,68,122.59,81.69,247.69-30.73,358.79"/><path class="cls-23" d="M306.76,32.38c99.68,211.27,142.79,384.08,168.31,505.16a332.45,332.45,0,0,1,5.52,102.69c-5.72,58.6-68,111.89-140,166.55C225.76,894.29,83.2,992.84,204.25,1089.86c202.82,108,239.37,281.07,147,409.15-18.62,25.81-40,48.29-63.26,66.27-76.75,59.41-34,155.58,36.07,279.54,69.43,122.76,82.39,247.41-29.8,358.58"/><path class="cls-24" d="M308.62,32.67c97.18,211,139.48,384.68,165.81,506.21a332.53,332.53,0,0,1,6,102.78C475,700.61,412.86,754,340.6,808.72,225.69,896.2,81.94,995.11,203.68,1091.82,406.44,1199.42,445,1371.67,352,1500.22c-18.68,25.82-40.13,48.3-63.34,66.29-77.24,59.84-35.63,155.21,35.74,279,70.86,122.93,83.09,247.12-28.88,358.37"/><path class="cls-25" d="M310.49,33c94.66,210.77,136.15,385.27,163.29,507.25a332,332,0,0,1,6.53,102.87c-5.2,59.3-67.18,112.74-139.66,167.56-115,87.46-260,186.74-137.54,283.14,202.7,107.18,243.27,278.62,149.58,407.65-18.75,25.82-40.22,48.31-63.44,66.3-77.72,60.27-37.21,154.84,35.42,278.5,72.29,123.11,83.79,246.84-28,358.16"/><path class="cls-26" d="M312.36,33.26c92.15,210.52,132.83,385.87,160.77,508.3a331.59,331.59,0,0,1,7,103c-4.93,59.65-66.77,113.16-139.46,168.06C225.55,900,79.43,999.67,202.54,1095.75c202.63,106.77,245.22,277.39,150.86,406.91-18.82,25.83-40.32,48.31-63.53,66.32-78.21,60.69-38.79,154.45,35.08,278,73.73,123.28,84.5,246.56-27,358"/><path class="cls-27" d="M314.22,33.56C403.86,243.82,443.73,420,472.48,542.9A331.45,331.45,0,0,1,480,646c-4.66,60-66.36,113.58-139.27,168.57C225.48,901.93,78.18,1001.94,202,1097.71c202.56,106.36,247.16,276.17,152.12,406.17-18.88,25.83-40.41,48.31-63.61,66.33-78.7,61.12-40.37,154.08,34.75,277.45s85.2,246.28-26.11,357.74"/><path class="cls-28" d="M316.09,33.85c87.13,210,126.17,387,155.74,510.39a331,331,0,0,1,8.05,103.14c-4.38,60.35-65.95,114-139.07,169.07-115.39,87.39-263.89,187.77-139.4,283.23,202.5,105.94,249.11,274.94,153.4,405.42-18.95,25.83-40.51,48.31-63.7,66.34-79.19,61.55-42,153.71,34.41,276.92,76.62,123.63,85.91,246-25.18,357.54"/><path class="cls-29" d="M318,34.15C402.58,243.91,440.8,421.79,471.18,545.58a330.63,330.63,0,0,1,8.56,103.23c-4.11,60.7-65.54,114.43-138.88,169.57-115.51,87.37-265.2,188.12-140,283.26,202.44,105.53,251.06,273.71,154.68,404.68-19,25.84-40.6,48.32-63.79,66.36-79.68,62-43.52,153.32,34.08,276.39,78.06,123.8,86.61,245.72-24.26,357.33"/><path class="cls-30" d="M319.83,34.44c82.1,209.51,119.5,388.23,150.7,512.48,9.86,39.29,11,73.56,9.07,103.32-3.84,61.06-65.13,114.85-138.68,170.07C225.28,907.67,74.41,1008.77,200.27,1103.6c202.38,105.12,253,272.49,156,403.94-19.08,25.84-40.69,48.32-63.88,66.37-80.15,62.41-45.09,152.95,33.76,275.87,79.51,124,87.31,245.44-23.34,357.12"/><path class="cls-31" d="M321.69,34.74C401.29,244,437.87,423.56,469.88,548.26c10.09,39.31,11.31,73.62,9.58,103.41C475.89,713.08,414.74,766.94,341,822.25c-115.76,87.33-267.82,188.8-141.27,283.31,202.32,104.71,255,271.27,157.23,403.19-19.15,25.85-40.79,48.33-64,66.39-80.64,62.84-46.65,152.57,33.42,275.35,81,124.14,88,245.15-22.41,356.9"/><path class="cls-32" d="M323.56,35C400.65,244,436.4,424.45,469.23,549.61c10.32,39.32,11.68,73.68,10.09,103.49C476,714.86,415,768.79,341,824.18c-115.88,87.31-269.13,189.15-141.89,283.35,202.26,104.28,256.92,270,158.5,402.44-19.21,25.86-40.87,48.34-64.05,66.41-81.13,63.26-48.22,152.18,33.09,274.82,82.41,124.3,88.71,244.87-21.48,356.69"/><path class="cls-33" d="M325.43,35.33C400,244.08,434.92,425.34,468.58,551c10.54,39.35,12.05,73.74,10.6,103.58-3,62.12-63.91,116.11-138.1,171.58-116,87.29-270.44,189.49-142.52,283.38,202.2,103.87,258.88,268.82,159.78,401.7-19.28,25.86-41,48.34-64.14,66.42-81.62,63.69-49.78,151.81,32.75,274.3,83.88,124.47,89.42,244.59-20.55,356.48"/><path class="cls-34" d="M327.29,35.62c72.07,208.5,106.16,390.6,140.64,516.67C478.7,591.66,480.35,626.09,479,656c-2.75,62.47-63.5,116.53-137.91,172.09C225,915.31,69.38,1017.88,198,1111.45c202.13,103.46,260.82,267.6,161.05,401-19.35,25.86-41.07,48.34-64.23,66.43-82.11,64.13-51.35,151.43,32.42,273.78,85.33,124.63,90.12,244.3-19.63,356.27"/><path class="cls-35" d="M329.16,35.92C398.71,244.17,432,427.11,467.28,553.63c11,39.4,12.79,73.86,11.61,103.76-2.46,62.82-63.08,117-137.71,172.59-116.24,87.24-273,190.17-143.75,283.44,202.06,103,262.78,266.37,162.32,400.21-19.41,25.87-41.16,48.34-64.32,66.45-82.59,64.55-52.89,151,32.1,273.25,86.79,124.8,90.82,244-18.71,356.06"/><path class="cls-36" d="M331,36.21c67,208,99.46,391.79,135.6,518.76,11.22,39.42,13.16,73.92,12.12,103.85C476.57,722,416.08,776.2,341.23,831.91c-116.36,87.22-274.36,190.52-144.37,283.47,202,102.63,264.74,265.15,163.6,399.47-19.48,25.87-41.25,48.35-64.41,66.46C213,1646.29,241.6,1732,327.81,1854c88.26,125,91.53,243.75-17.78,355.86"/><path class="cls-37" d="M332.9,36.51C397.43,244.25,429,428.89,466,556.31c11.45,39.45,13.53,74,12.63,103.94-1.9,63.53-62.27,117.8-137.32,173.6C224.8,921,65.61,1024.71,196.29,1117.34c201.94,102.22,266.7,263.94,164.88,398.73-19.55,25.87-41.35,48.35-64.5,66.47-83.56,65.42-56,150.27,31.43,272.2,89.72,125.13,92.23,243.47-16.86,355.65"/><path class="cls-38" d="M334.76,36.8c62,207.49,92.77,393,130.57,520.85,11.67,39.47,13.9,74,13.14,104-1.62,63.9-61.86,118.23-137.13,174.11C224.73,923,64.36,1027,195.72,1119.31c201.88,101.8,268.65,262.71,166.15,398-19.61,25.89-41.44,48.36-64.58,66.5-84.05,65.84-57.55,149.88,31.1,271.67,91.19,125.29,92.93,243.18-15.94,355.44"/><path class="cls-39" d="M336.63,37.1C396.14,244.34,426.05,430.66,464.68,559c11.89,39.49,14.27,74.1,13.65,104.11C477,727.35,416.88,781.75,341.39,837.71,224.66,924.87,63.1,1029.26,195.15,1121.27,397,1222.66,465.76,1382.76,362.58,1518.5c-19.68,25.89-41.53,48.37-64.68,66.51-84.53,66.27-59.09,149.49,30.77,271.15,92.67,125.45,93.64,242.9-15,355.23"/><path class="cls-40" d="M338.5,37.39c57,207,86.06,394.16,125.53,522.94,12.11,39.52,14.65,74.17,14.16,104.2-1.06,64.61-61,119.07-136.75,175.11-116.85,87.14-279.59,191.9-146.86,283.59,201.76,101,272.57,260.27,168.71,396.49-19.75,25.9-41.63,48.37-64.77,66.52-85,66.71-60.64,149.1,30.44,270.63,94.14,125.61,94.34,242.62-14.09,355"/><path class="cls-41" d="M340.36,37.69c54.49,206.73,82.72,394.75,123,524,12.34,39.54,15,74.23,14.67,104.29-.77,65-60.64,119.5-136.55,175.62C224.52,928.69,60.59,1033.81,194,1125.2c201.69,100.56,274.52,259,170,395.74-19.81,25.9-41.72,48.37-64.85,66.54-85.51,67.13-62.18,148.71,30.1,270.1,95.62,125.77,95.05,242.33-13.16,354.8"/><path class="cls-42" d="M342.23,38c52,206.49,79.36,395.35,120.5,525,12.56,39.57,15.4,74.29,15.17,104.38-.48,65.32-60.22,119.92-136.35,176.12-117.09,87.09-282.22,192.58-148.1,283.65,201.63,100.15,276.48,257.83,171.25,395-19.88,25.91-41.81,48.38-64.94,66.55-86,67.56-63.72,148.32,29.77,269.58,97.09,125.92,95.74,242.05-12.24,354.59"/><path class="cls-43" d="M344.1,38.28c49.47,206.23,76,395.94,118,526.08,12.78,39.58,15.77,74.34,15.68,104.46C477.57,734.49,418,789.16,341.6,845.44c-117.21,87.07-283.52,192.93-148.72,283.68,201.57,99.74,278.45,256.61,172.53,394.26-20,25.91-41.91,48.38-65,66.56-86.48,68-65.26,147.92,29.44,269,98.57,126.09,96.44,241.78-11.31,354.39"/><path class="cls-44" d="M346,38.57c46.95,206,72.63,396.54,115.47,527.13,13,39.61,16.14,74.4,16.18,104.55.1,66-59.4,120.76-136,177.13-117.33,87-284.83,193.26-149.34,283.71,201.5,99.31,280.41,255.39,173.8,393.5-20,25.92-42,48.4-65.12,66.59-87,68.42-66.79,147.52,29.11,268.52,100.06,126.24,97.15,241.5-10.38,354.18"/><path class="cls-45" d="M347.83,38.86C392.28,244.59,417.11,436,460.79,567c13.21,39.63,16.51,74.47,16.69,104.64.39,66.39-59,121.18-135.77,177.63-117.46,87-286.15,193.61-150,283.74,201.44,98.9,282.37,254.17,175.08,392.76-20.07,25.93-42.09,48.4-65.21,66.6-87.45,68.86-68.33,147.13,28.78,268,101.54,126.39,97.85,241.21-9.46,354"/><path class="cls-46" d="M349.7,39.16c41.93,205.48,65.91,397.73,110.44,529.22C473.57,608,477,642.91,477.34,673.11c.68,66.74-58.59,121.6-135.58,178.13-117.58,87-287.45,194-150.59,283.77,201.38,98.49,284.33,253,176.35,392-20.13,25.93-42.18,48.4-65.29,66.61-87.93,69.29-69.86,146.73,28.44,267.48,103,126.54,98.56,240.93-8.53,353.76"/><path class="cls-47" d="M351.57,39.45C391,244.68,414.11,437.78,459.49,569.72c13.64,39.68,17.27,74.59,17.71,104.82,1,67.1-58.18,122-135.39,178.63-117.7,87-288.76,194.3-151.21,283.81,201.32,98.07,286.3,251.74,177.63,391.27-20.2,25.94-42.28,48.41-65.38,66.63-88.42,69.72-71.39,146.33,28.11,266.95,104.51,126.69,99.26,240.65-7.61,353.55"/><path class="cls-48" d="M353.44,39.75c36.91,205,59.17,398.92,105.4,531.31,13.86,39.71,17.65,74.65,18.22,104.91,1.26,67.45-57.77,122.45-135.2,179.14C224,942.07,51.8,1049.75,190,1138.94c201.25,97.66,288.25,250.52,178.9,390.53-20.27,25.94-42.37,48.41-65.47,66.64-88.91,70.15-72.92,145.93,27.78,266.43,106,126.84,100,240.36-6.69,353.34"/><path class="cls-49" d="M355.3,40c34.4,204.73,55.81,399.52,102.89,532.36,14.08,39.74,18,74.72,18.72,105,1.57,67.81-57.36,122.87-135,179.64C224,944,50.54,1052,189.47,1140.9c201.19,97.25,290.22,249.31,180.17,389.79-20.32,26-42.46,48.41-65.56,66.65-89.38,70.59-74.44,145.53,27.45,265.91,107.49,127,100.67,240.08-5.76,353.12"/><path class="cls-50" d="M357.17,40.34c31.89,204.47,52.44,400.12,100.37,533.4,14.3,39.76,18.41,74.78,19.23,105.09C478.63,747,419.82,802.12,342,859,223.91,945.89,49.28,1054.3,188.9,1142.87,390,1239.7,481.09,1391,370.35,1531.91c-20.39,25.95-42.55,48.42-65.65,66.67-89.87,71-76,145.12,27.12,265.38,109,127.13,101.37,239.8-4.84,352.91"/><path class="cls-51" d="M359,40.63c29.38,204.22,49.06,400.72,97.85,534.45,14.51,39.79,18.79,74.84,19.74,105.18C478.79,748.78,420.09,804,342,860.91,223.84,947.8,48,1056.58,188.33,1144.83c201.07,96.42,294.15,246.87,182.73,388.29-20.46,26-42.65,48.43-65.74,66.69-90.36,71.45-77.5,144.72,26.78,264.85,110.48,127.28,102.07,239.53-3.91,352.71"/><path class="cls-52" d="M360.9,40.93c26.87,204,45.69,401.31,95.34,535.49,14.73,39.81,19.17,74.9,20.25,105.27,2.46,68.88-56.13,124.14-134.42,181.15-118.3,86.87-295.3,196-154.31,283.95,201,96,296.12,245.66,184,387.55-20.52,26-42.74,48.44-65.82,66.7-90.84,71.88-79,144.31,26.45,264.33,112,127.42,102.77,239.24-3,352.5"/><path class="cls-53" d="M362.77,41.22c24.36,203.72,42.32,401.92,92.82,536.54,14.94,39.84,19.55,75,20.76,105.36,2.76,69.24-55.73,124.56-134.22,181.65-118.43,86.85-296.61,196.36-154.94,284,200.94,95.59,298.09,244.44,185.28,386.8-20.59,26-42.83,48.44-65.91,66.72-91.33,72.31-80.54,143.9,26.12,263.8,113.47,127.56,103.47,239-2.07,352.29"/><path class="cls-54" d="M364.64,41.52C386.49,245,403.58,444,454.94,579.11c15.16,39.86,19.93,75,21.27,105.44,3.06,69.59-55.32,125-134,182.16-118.55,86.83-297.92,196.7-155.55,284C387.5,1245.9,486.68,1394,373.18,1536.78c-20.65,26-42.93,48.44-66,66.73C215.36,1676.25,225.11,1747,333,1866.79c115,127.7,104.18,238.68-1.13,352.08"/><path class="cls-55" d="M366.51,41.81C385.84,245,402.06,444.93,454.29,580.45c15.37,39.88,20.31,75.08,21.78,105.53,3.36,69.95-54.91,125.4-133.84,182.66-118.67,86.81-299.23,197-156.17,284,200.81,94.77,302,242,187.82,385.32-20.71,26-43,48.45-66.09,66.74-92.29,73.18-83.58,143.09,25.46,262.76,116.47,127.83,104.88,238.39-.21,351.87"/><path class="cls-56" d="M368.37,42.11c16.83,203,32.18,403.71,85.27,539.68,15.59,39.91,20.69,75.14,22.28,105.62,3.67,70.31-54.49,125.82-133.64,183.16C223.49,957.36,41.75,1068,185.49,1154.64c200.75,94.35,304,240.81,189.1,384.58-20.78,26-43.11,48.45-66.18,66.76-92.78,73.61-85.09,142.67,25.13,262.23,118,128,105.58,238.11.71,351.66"/><path class="cls-57" d="M370.24,42.4C384.55,245.11,399,446.72,453,583.13c15.8,39.94,21.08,75.2,22.79,105.71,4,70.66-54.09,126.24-133.44,183.66-118.91,86.77-301.85,197.73-157.42,284.11,200.69,93.93,306,239.59,190.38,383.83-20.84,26-43.21,48.46-66.27,66.77-93.26,74-86.61,142.26,24.79,261.71,119.48,128.1,106.29,237.83,1.64,351.44"/><path class="cls-58" d="M372.11,42.7c11.8,202.45,25.41,404.92,80.23,541.77,16,40,21.46,75.27,23.3,105.8,4.28,71-53.79,126.51-133.25,184.17-119.21,86.5-303.16,198.07-158,284.13C385,1252.09,492.28,1397,376,1541.65c-20.9,26-43.29,48.47-66.36,66.79-93.74,74.48-88.12,141.85,24.47,261.18,121,128.24,107,237.55,2.56,351.24"/><path class="cls-59" d="M374,43c9.3,202.21,22,405.53,77.72,542.82,16.23,40,21.85,75.33,23.81,105.89,4.59,71.37-53.39,126.93-133.06,184.67C223.11,962.85,38,1074.79,183.78,1160.53c200.57,93.11,309.9,237.17,192.93,382.34-21,26-43.39,48.47-66.45,66.81-94.22,74.91-89.63,141.42,24.13,260.65,122.49,128.38,107.7,237.27,3.49,351"/><path class="cls-60" d="M375.84,43.29c6.78,202,18.64,406.12,75.2,543.86,16.44,40,22.23,75.39,24.32,106,4.9,71.73-53,127.35-132.87,185.17-119.44,86.46-305.77,198.76-159.28,284.2,200.51,92.69,311.87,236,194.21,381.59-21,26-43.49,48.48-66.54,66.82-94.71,75.34-91.15,141,23.8,260.13,124,128.5,108.4,237,4.41,350.82"/><path class="cls-61" d="M377.71,43.58C382,245.28,393,450.31,450.39,588.49c16.65,40,22.62,75.45,24.83,106.06,5.2,72.1-52.57,127.78-132.67,185.69C223,966.67,35.47,1079.34,182.65,1164.46c200.44,92.28,313.83,234.75,195.47,380.85-21.09,26-43.57,48.48-66.62,66.83-95.2,75.78-92.66,140.59,23.47,259.61,125.5,128.63,109.09,236.71,5.33,350.61"/><path class="cls-62" d="M379.58,43.88c1.76,201.44,11.86,407.33,70.16,546A332.53,332.53,0,0,1,475.08,696c5.51,72.45-52.16,128.2-132.48,186.19-119.69,86.41-308.39,199.45-160.52,284.25,200.38,91.87,315.8,233.54,196.75,380.11-21.16,26-43.67,48.49-66.71,66.85-95.68,76.21-94.17,140.16,23.13,259.08,127,128.76,109.8,236.42,6.26,350.4"/><path class="cls-63" d="M381.44,44.17c-.75,201.2,8.47,408,67.65,547a332.55,332.55,0,0,1,25.84,106.24C480.77,770.22,423.18,826,342.65,884.1,222.84,970.5,33,1083.89,181.51,1168.39c200.31,91.45,317.78,232.32,198,379.36-21.21,26-43.75,48.49-66.8,66.86-96.16,76.65-95.67,139.75,22.81,258.56,128.52,128.88,110.5,236.14,7.18,350.19"/><path class="cls-64" d="M383.31,44.47c-3.26,200.94,5.08,408.55,65.14,548a333.39,333.39,0,0,1,26.34,106.33C480.94,772,423.45,827.88,342.7,886c-119.93,86.38-311,200.14-161.76,284.32,200.25,91,319.75,231.12,199.3,378.61-21.28,26.06-43.85,48.51-66.89,66.88-96.64,77.08-97.18,139.33,22.47,258,130,129,111.21,235.86,8.12,350"/><path class="cls-65" d="M385.18,44.76c-5.78,200.69,1.68,409.16,62.62,549.09a333.76,333.76,0,0,1,26.85,106.42c6.46,73.52-50.93,129.46-131.89,187.7C222.7,974.32,30.44,1088.45,180.37,1172.31,380.56,1262.94,502.1,1402.22,381,1550.18c-21.35,26.07-43.95,48.51-67,66.89-97.12,77.52-98.69,138.9,22.14,257.51,131.55,129.14,111.91,235.58,9,349.78"/><path class="cls-66" d="M387,45.06c-8.28,200.44-1.71,409.76,60.11,550.14a334,334,0,0,1,27.36,106.5c6.78,73.87-50.52,129.89-131.7,188.2-120.18,86.33-313.62,200.82-163,284.38,200.13,90.21,323.7,228.7,201.85,377.12-21.4,26.08-44,48.52-67.06,66.91-97.61,78-100.2,138.47,21.81,257,133.06,129.26,112.61,235.3,10,349.56"/><path class="cls-67" d="M388.91,45.35c-10.79,200.19-5.1,410.38,57.59,551.19a334.43,334.43,0,0,1,27.87,106.59c7.09,74.23-50.12,130.31-131.51,188.7C222.57,978.14,27.93,1093,179.23,1176.24c200.07,89.8,325.68,227.49,203.13,376.38-21.47,26.08-44.13,48.52-67.15,66.92-98.09,78.39-101.71,138,21.47,256.46,134.58,129.37,113.32,235,10.89,349.35"/><path class="cls-68" d="M390.78,45.64c-13.31,199.94-8.51,411,55.07,552.24a334.86,334.86,0,0,1,28.38,106.68c7.41,74.58-49.59,130.89-131.32,189.21-120.24,86.52-316.24,201.5-164.24,284.43,200,89.39,327.64,226.29,204.4,375.64a462.21,462.21,0,0,1-67.25,66.93c-98.57,78.82-103.21,137.62,21.15,255.94,136.09,129.49,114,234.74,11.81,349.14"/><path class="cls-69" d="M392.65,45.94c-15.82,199.69-11.91,411.6,52.55,553.28A335.63,335.63,0,0,1,474.09,706C481.82,780.93,424.91,837.3,343,895.7,222.6,982.2,25.42,1097.55,178.1,1180.17c199.94,89,329.62,225.08,205.67,374.89a466.27,466.27,0,0,1-67.33,67c-99.05,79.25-104.71,137.19,20.81,255.41C474.87,2007,452,2111.87,350,2226.35"/><path class="cls-70" d="M394.51,46.23c-18.32,199.44-15.3,412.21,50,554.33a335.77,335.77,0,0,1,29.39,106.86C482,782.71,425.17,839.16,343,897.63c-120.49,86.49-318.86,202.2-165.49,284.5,199.88,88.55,331.6,223.87,207,374.15a470.86,470.86,0,0,1-67.42,67c-99.54,79.69-106.22,136.76,20.48,254.89C476.67,2007.85,453,2112.3,351.2,2226.85"/><path class="cls-71" d="M396.38,46.53C375.54,245.71,377.67,459.35,443.9,601.9a336.51,336.51,0,0,1,29.9,107C482.18,784.5,425.44,841,343.07,899.57,222.47,986,22.9,1102.1,177,1184.09c199.82,88.14,333.58,222.67,208.23,373.4a474,474,0,0,1-67.51,67c-100,80.13-107.72,136.33,20.15,254.37,140.65,129.83,116.12,233.89,14.58,348.51"/><path class="cls-72" d="M398.25,46.82c-23.35,198.93-22.11,413.44,45,556.42a337,337,0,0,1,30.41,107c8.7,76-48,132.58-130.53,191.22C222.4,987.94,21.65,1104.38,176.39,1186.06c199.75,87.72,335.55,221.46,209.5,372.65a478.32,478.32,0,0,1-67.6,67c-100.49,80.56-109.22,135.89,19.82,253.84,142.17,129.94,116.83,233.6,15.51,348.3"/><path class="cls-73" d="M400.11,47.12C374.26,245.8,374.6,461.17,442.6,604.58a337.51,337.51,0,0,1,30.92,107.13c9,76.35-47.54,133-130.34,191.72C222.33,989.85,20.39,1106.66,175.82,1188c199.69,87.31,337.53,220.25,210.78,371.91a482,482,0,0,1-67.69,67c-101,81-110.72,135.46,19.49,253.31,143.69,130.06,117.53,233.33,16.43,348.1"/><path class="cls-74" d="M402,47.41c-28.37,198.43-28.92,414.67,40,558.51a338,338,0,0,1,31.43,107.22c9.34,76.71-47.14,133.42-130.15,192.22-121,86.4-324.09,203.57-168,284.62,199.63,86.9,339.51,219,212.06,371.17a486.85,486.85,0,0,1-67.78,67c-101.46,81.44-112.22,135,19.16,252.79C483.89,2011.13,456.92,2114,356,2228.85"/><path class="cls-75" d="M403.85,47.71C373,245.88,371.52,463,441.3,607.26a338.57,338.57,0,0,1,31.94,107.31c9.67,77.06-46.73,133.85-130,192.73C222.19,993.67,17.88,1111.21,174.69,1192c199.56,86.48,341.48,217.84,213.32,370.42a490.16,490.16,0,0,1-67.86,67C218.21,1711.28,206.42,1764,339,1881.67,485.7,2012,457.91,2114.44,357.26,2229.34"/><path class="cls-76" d="M405.72,48C372.32,245.93,370,463.9,440.65,608.6A339.13,339.13,0,0,1,473.1,716c10,77.41-46.32,134.27-129.76,193.23-121.22,86.35-326.72,204.26-169.22,284.68,199.5,86.07,343.46,216.64,214.6,369.68a495.7,495.7,0,0,1-68,67.05c-102.43,82.31-115.23,134.15,18.49,251.74,148.25,130.38,119.64,232.48,19.21,347.46"/><path class="cls-77" d="M407.58,48.3C371.68,246,368.44,464.81,440,610c20,40.5,28.83,76.41,32.95,107.48,10.33,77.76-45.9,134.69-129.56,193.73-121.34,86.33-328,204.6-169.84,284.71C373,1281.53,519,1411.31,389.42,1564.8a497.43,497.43,0,0,1-68,67.07c-102.9,82.75-116.72,133.71,18.16,251.22,149.78,130.49,120.35,232.2,20.14,347.25"/><path class="cls-78" d="M409.45,48.59C371,246,366.9,465.72,439.35,611.29c20.18,40.54,29.22,76.47,33.46,107.57C483.47,797,427.31,854,343.44,913.1,222,999.41,14.11,1118,173,1197.84c199.38,85.24,347.43,214.23,217.15,368.18A503.2,503.2,0,0,1,322,1633.11c-103.38,83.18-118.22,133.26,17.83,250.69,151.3,130.59,121.05,231.92,21.06,347"/><path class="cls-79" d="M411.32,48.89c-40.93,197.16-46,417.75,27.38,563.74,20.39,40.57,29.61,76.54,34,107.66,11,78.47-45.09,135.53-129.18,194.74-121.57,86.29-330.63,205.28-171.08,284.77,199.32,84.83,349.41,213,218.43,367.44a506.61,506.61,0,0,1-68.22,67.1c-103.87,83.62-119.72,132.82,17.5,250.17,152.82,130.69,121.75,231.63,22,346.83"/><path class="cls-80" d="M413.19,49.18C369.75,246.1,363.81,467.55,438.05,614c20.59,40.6,30,76.6,34.48,107.75,11.32,78.82-44.68,135.95-129,195.24-121.7,86.27-331.95,205.63-171.71,284.8,199.26,84.42,351.39,211.83,219.7,366.7a511.82,511.82,0,0,1-68.3,67.11C218.89,1719.63,202,1768,340.4,1885.21c154.35,130.8,122.45,231.36,22.91,346.63"/><path class="cls-81" d="M415.05,49.48c-45.94,196.66-52.79,419,22.35,565.83,20.8,40.63,30.4,76.66,35,107.84C484,802.32,428.12,859.53,343.6,918.89c-121.82,86.25-333.26,206-172.33,284.83,199.19,84,353.37,210.64,221,366a516.65,516.65,0,0,1-68.39,67.13C219,1721.3,201.14,1768.74,340.69,1885.92c155.87,130.9,123.15,231.08,23.83,346.42"/><path class="cls-82" d="M416.92,49.77c-48.46,196.41-56.21,419.61,19.83,566.88,21,40.66,30.79,76.72,35.5,107.93,12,79.52-43.87,136.8-128.6,196.25-121.94,86.22-334.56,206.31-172.94,284.86C369.83,1289.27,526.06,1415.12,393,1570.9A520.87,520.87,0,0,1,324.47,1638C219.17,1723,200.26,1769.53,341,1886.63c157.4,131,123.86,230.8,24.76,346.21"/><path class="cls-83" d="M418.79,50.07C367.82,246.23,359.16,470.3,436.1,618c21.21,40.7,31.19,76.78,36,108,12.31,79.87-43.46,137.22-128.41,196.75C221.64,1009,7.83,1129.42,170.14,1207.65c199.06,83.17,357.33,208.23,223.52,364.47a524.42,524.42,0,0,1-68.57,67.15c-105.79,85.37-125.71,131,16.17,248.07,158.93,131.09,124.56,230.51,25.68,346"/><path class="cls-84" d="M420.65,50.36c-53.47,195.91-63,420.86,14.81,569,21.4,40.73,31.57,76.84,36.5,108.1,12.66,80.23-43,137.65-128.2,197.26-122.19,86.18-337.19,207-174.19,284.92,199,82.76,359.32,207,224.8,363.72a530.2,530.2,0,0,1-68.66,67.18c-106.27,85.8-127.21,130.59,15.84,247.54,160.45,131.18,125.26,230.23,26.6,345.78"/><path class="cls-85" d="M422.52,50.66c-56,195.65-66.46,421.48,12.29,570,21.6,40.76,32,76.9,37,108.19,13,80.58-42.63,138.07-128,197.77C221.5,1012.78,5.32,1134,169,1211.58c198.94,82.34,361.3,205.83,226.08,363a534.53,534.53,0,0,1-68.75,67.19c-106.75,86.24-128.7,130.15,15.5,247,162,131.27,126,230,27.53,345.57"/><path class="cls-86" d="M424.39,51c-58.5,195.41-69.88,422.11,9.77,571.06,21.81,40.8,32.36,77,37.52,108.28C485,811.22,429.45,868.78,343.86,928.56c-122.42,86.14-339.8,207.69-175.43,285,198.88,81.93,363.29,204.63,227.35,362.23A538.89,538.89,0,0,1,327,1643c-107.23,86.68-130.2,129.7,15.17,246.5,163.51,131.37,126.67,229.66,28.46,345.36"/><path class="cls-87" d="M426.26,51.25c-61,195.15-73.3,422.73,7.25,572.1,22,40.83,32.76,77,38,108.37C485.2,813,429.72,870.64,343.91,930.49c-122.54,86.12-341.1,208-176,285C366.68,1297,533.13,1418.94,396.49,1577a543.52,543.52,0,0,1-68.93,67.22c-107.7,87.11-131.69,129.24,14.84,246,165,131.46,127.38,229.38,29.39,345.15"/><path class="cls-88" d="M428.12,51.54C364.6,246.44,351.4,474.9,432.86,624.7c22.21,40.85,33.15,77.06,38.54,108.45C485.4,814.78,430,872.49,344,932.43c-122.67,86.09-342.42,208.37-176.68,285,198.76,81.1,367.26,202.23,229.91,360.74a548.71,548.71,0,0,1-69,67.23C220,1733,195,1774.23,342.69,1890.88,509.26,2022.44,470.77,2120,373,2235.83"/><path class="cls-89" d="M430,51.84c-66,194.64-80.14,424,2.22,574.2,22.42,40.89,33.55,77.12,39.05,108.54,14.34,82-41,139.76-127.24,199.78C221.23,1020.43.29,1143.08,166.73,1219.43c198.69,80.69,369.23,201,231.17,360a553.26,553.26,0,0,1-69.1,67.24c-108.67,88-134.68,128.35,14.18,244.92,168.09,131.64,128.77,228.82,31.23,344.74"/><path class="cls-90" d="M431.86,52.13c-68.55,194.4-83.57,424.62-.3,575.25,22.62,40.92,33.95,77.18,39.56,108.63,14.68,82.33-40.6,140.18-127,200.28-122.91,86.05-345,209.06-177.91,285.1,198.62,80.28,371.22,199.84,232.45,359.26a558.76,558.76,0,0,1-69.19,67.26c-109.15,88.43-136.18,127.88,13.84,244.39,169.63,131.73,129.48,228.54,32.16,344.53"/><path class="cls-91" d="M433.72,52.42c-71.05,194.15-87,425.25-2.81,576.3,22.82,41,34.34,77.24,40.06,108.72,15,82.67-40.18,140.6-126.85,200.78-123,86-346.34,209.41-178.53,285.14,198.56,79.86,373.21,198.64,233.72,358.5A562.15,562.15,0,0,1,330,1649.14C220.41,1738,192.36,1776.57,343.55,1893c171.15,131.81,130.18,228.26,33.08,344.32"/><path class="cls-92" d="M435.59,52.72C362,246.61,345.18,478.6,430.26,630.06c23,41,34.74,77.3,40.57,108.81,15.37,83-39.77,141-126.65,201.29C221,1026.16-3.47,1149.91,165,1225.32c198.5,79.45,375.2,197.45,235,357.76a566.92,566.92,0,0,1-69.37,67.29c-110.1,89.31-139.17,127,13.18,243.35,172.69,131.9,130.89,228,34,344.1"/><path class="cls-93" d="M437.46,53c-76.08,193.65-93.84,426.51-7.85,578.39,23.23,41,35.14,77.36,41.08,108.9,15.72,83.37-39.36,141.45-126.46,201.79-123.27,86-349,210.09-179.78,285.19,198.44,79,377.19,196.25,236.28,357a573.33,573.33,0,0,1-69.46,67.31c-110.58,89.74-140.66,126.52,12.85,242.82,174.22,132,131.59,227.69,34.93,343.89"/><path class="cls-94" d="M439.33,53.31C360.74,246.7,342.06,480.45,429,632.74c23.43,41.06,35.53,77.42,41.59,109C486.61,825.44,431.6,883.6,344.28,944,220.89,1030-6,1154.46,163.88,1229.25c198.38,78.61,379.17,195,237.55,356.27a578.24,578.24,0,0,1-69.54,67.32c-111.06,90.18-142.16,126.06,12.52,242.3,175.74,132.06,132.29,227.41,35.85,343.68"/><path class="cls-95" d="M441.19,53.6c-81.1,193.14-100.69,427.78-12.88,580.48,23.63,41.1,35.93,77.47,42.1,109.08,16.4,84.06-38.55,142.29-126.08,202.8-123.51,85.94-351.57,210.78-181,285.25,198.32,78.2,381.16,193.86,238.83,355.53a584,584,0,0,1-69.63,67.33C221,1744.7,188.86,1779.68,344.69,1895.84,522,2028,477.69,2123,381.47,2239.32"/><path class="cls-96" d="M443.06,53.9c-83.61,192.88-104.12,428.41-15.4,581.52C451.49,676.55,464,713,470.27,744.59,487,829,432.13,887.3,344.39,947.89,220.75,1033.81-8.5,1159,162.75,1233.17,361,1311,545.89,1425.84,402.85,1588a590,590,0,0,1-69.73,67.35c-112,91.06-145.14,125.14,11.86,241.24,178.81,132.23,133.7,226.85,37.71,343.27"/><path class="cls-97" d="M444.93,54.19C358.81,246.83,337.38,483.24,427,636.76c24,41.17,36.73,77.59,43.12,109.26,17.1,84.75-37.73,143.13-125.69,203.8-123.76,85.9-354.2,211.47-182.26,285.32,198.19,77.37,385.13,191.47,241.37,354a592.85,592.85,0,0,1-69.81,67.37c-112.5,91.5-146.64,124.68,11.53,240.72,180.33,132.31,134.4,226.57,38.63,343.06"/><path class="cls-98" d="M446.79,54.49c-88.63,192.38-111,429.68-20.43,583.61,24.24,41.2,37.12,77.65,43.62,109.35,17.45,85.09-37.31,143.56-125.49,204.3C220.61,1037.63-11,1163.57,161.61,1237.1c198.13,77,387.13,190.28,242.65,353.29a599.61,599.61,0,0,1-69.9,67.38c-113,92-148.13,124.23,11.19,240.2,181.87,132.39,135.1,226.29,39.56,342.85"/><path class="cls-99" d="M448.66,54.78c-91.14,192.13-114.41,430.32-23,584.67,24.44,41.23,37.52,77.69,44.13,109.43,17.8,85.44-36.91,144-125.3,204.81-124,85.85-356.81,212.15-183.5,285.37C359.1,1315.61,550.16,1428.15,405,1591.61a605,605,0,0,1-70,67.4c-113.46,92.38-149.63,123.76,10.86,239.67,183.4,132.46,135.8,226,40.48,342.64"/><path class="cls-100" d="M450.53,55.08C356.88,247,332.69,486,425.06,640.79,449.7,682.06,463,718.54,469.7,750.31c18.15,85.78-36.5,144.4-125.1,205.31C220.48,1041.45-13.52,1168.12,160.47,1241c198,76.13,391.11,187.89,245.2,351.8a609.51,609.51,0,0,1-70.07,67.41c-113.94,92.82-151.12,123.3,10.52,239.15,184.94,132.54,136.51,225.72,41.41,342.43"/><path class="cls-101" d="M452.4,55.37C356.23,247,331.12,487,424.41,642.13c24.84,41.3,38.32,77.81,45.15,109.61,18.5,86.13-36.09,144.82-124.91,205.81C220.41,1043.36-14.78,1170.39,159.9,1243c197.94,75.72,393.1,186.7,246.48,351.06a615,615,0,0,1-70.17,67.42c-114.41,93.27-152.61,122.84,10.2,238.63,186.47,132.61,137.21,225.44,42.33,342.21"/><path class="cls-102" d="M454.26,55.67C355.59,247,329.55,487.9,423.76,643.47c25,41.34,38.72,77.87,45.66,109.7,18.85,86.47-35.68,145.24-124.72,206.32C220.34,1045.28-16,1172.67,159.34,1245c197.87,75.31,395.08,185.51,247.75,350.32a622.35,622.35,0,0,1-70.26,67.44c-114.89,93.7-154.11,122.36,9.87,238.1,188,132.69,137.91,225.16,43.25,342"/><path class="cls-103" d="M456.13,56C355,247.09,328,488.84,423.11,644.81c25.24,41.38,39.12,77.92,46.17,109.79,19.2,86.81-35.28,145.66-124.53,206.82-124.48,85.77-362,213.53-186,285.49,197.81,74.9,397.08,184.32,249,349.58a620.09,620.09,0,0,1-70.34,67.45c-115.18,94.37-155.6,121.9,9.53,237.57,189.53,132.77,138.62,224.88,44.18,341.8"/><path class="cls-104" d="M458,56.26C354.3,247.13,326.42,489.77,422.47,646.15c25.43,41.42,39.51,78,46.67,109.88,19.55,87.15-34.87,146.09-124.33,207.32C220.2,1049.1-18.55,1177.22,158.2,1248.88,356,1323.36,557.27,1432,408.5,1597.7a625.76,625.76,0,0,1-70.43,67.47c-115.66,94.81-157.1,121.44,9.2,237,191.06,132.84,139.32,224.6,45.1,341.59"/><path class="cls-105" d="M459.86,56.55c-106.2,190.62-135,434.16-38,590.94,25.63,41.45,39.91,78,47.17,110C488.91,845,434.54,904,344.86,965.29,220.13,1051-19.8,1179.5,157.63,1250.84c197.69,74.07,401.06,181.94,251.58,348.08a630.54,630.54,0,0,1-70.53,67.48c-116.14,95.25-158.58,121,8.87,236.53,192.6,132.91,140,224.32,46,341.38"/><path class="cls-106" d="M461.73,56.85c-108.72,190.36-138.45,434.8-40.56,592,25.83,41.49,40.31,78.09,47.68,110.06,20.27,87.84-34,146.93-123.94,208.33-124.85,85.7-366,214.56-187.85,285.58,197.63,73.65,403.06,180.75,252.85,347.34a637.28,637.28,0,0,1-70.61,67.5c-116.62,95.68-160.08,120.5,8.54,236,194.13,133,140.73,224,47,341.17"/><path class="cls-107" d="M463.6,57.14c-111.23,190.12-141.89,435.44-43.08,593,26,41.53,40.71,78.15,48.19,110.14C489.34,848.5,435.07,907.67,345,969.15c-125,85.68-367.28,214.9-188.47,285.62,197.57,73.23,405,179.55,254.13,346.59a644,644,0,0,1-70.7,67.51c-117.11,96.11-161.57,120,8.21,235.48,195.66,133,141.43,223.75,47.88,341"/><path class="cls-108" d="M465.47,57.44C351.73,247.3,320.14,493.52,419.87,651.51c26.23,41.57,41.11,78.21,48.7,110.23,21,88.53-33.23,147.78-123.55,209.34-125.09,85.66-368.59,215.25-189.1,285.65,197.51,72.82,407.05,178.37,255.4,345.85a648,648,0,0,1-70.78,67.52c-117.59,96.55-163.07,119.57,7.87,235,197.2,133.11,142.13,223.47,48.81,340.75"/><path class="cls-109" d="M467.33,57.73C351.08,247.34,318.57,494.46,419.22,652.85c26.43,41.61,41.51,78.26,49.21,110.32C489.77,852,435.61,911.37,345.07,973c-125.21,85.63-369.9,215.59-189.71,285.67,197.43,72.41,409,177.18,256.67,345.11a656.94,656.94,0,0,1-70.87,67.54c-118.07,97-164.57,119.09,7.54,234.43C547.43,2039,491.53,2129,398.43,2246.31"/><path class="cls-110" d="M469.2,58C350.44,247.39,317,495.41,418.57,654.2c26.63,41.63,41.91,78.31,49.72,110.4C490,853.8,435.88,913.23,345.12,975c-125.33,85.62-371.21,215.93-190.33,285.71,197.37,72,411,176,258,344.36a662.09,662.09,0,0,1-71,67.55c-118.55,97.42-166,118.62,7.21,233.9,200.27,133.25,143.54,222.91,50.66,340.33"/><path class="cls-111" d="M471.07,58.32c-121.27,189.11-155.64,438-53.15,597.22,26.83,41.67,42.31,78.36,50.23,110.49,22.06,89.54-32,149.05-123,210.85-125.46,85.6-372.52,216.28-191,285.74,197.31,71.58,413,174.8,259.22,343.61a666.43,666.43,0,0,1-71.05,67.57c-119,97.86-167.55,118.15,6.88,233.38,201.8,133.31,144.24,222.63,51.58,340.12"/><path class="cls-112" d="M472.94,58.62C349.15,247.47,313.85,497.29,417.27,656.88,444.3,698.59,460,735.3,468,767.46c22.42,89.88-31.59,149.47-122.77,211.36-125.58,85.57-373.83,216.61-191.58,285.76,197.25,71.17,415,173.62,260.5,342.87A674.78,674.78,0,0,1,343,1675c-119.52,98.29-169,117.67,6.55,232.85,203.33,133.38,144.94,222.35,52.5,339.91"/><path class="cls-113" d="M474.8,58.91C348.51,247.52,312.28,498.23,416.62,658.22c27.23,41.75,43.11,78.47,51.24,110.67,22.78,90.22-31.18,149.89-122.58,211.86-125.7,85.55-375.13,217-192.2,285.8,197.19,70.75,417,172.42,261.78,342.12a681.15,681.15,0,0,1-71.23,67.6c-120,98.72-170.54,117.2,6.21,232.33,204.87,133.44,145.65,222.06,53.43,339.7"/><path class="cls-114" d="M476.67,59.2c-128.8,188.36-166,440-60.7,600.36,27.43,41.79,43.51,78.53,51.75,110.76C490.86,860.88,437,920.63,345.33,982.68,219.51,1068.21-31.11,1200,152.51,1268.51c197.13,70.34,419,171.24,263.05,341.38a688.66,688.66,0,0,1-71.31,67.61c-120.48,99.16-172,116.73,5.88,231.81,206.4,133.5,146.35,221.78,54.35,339.49"/><path class="cls-115" d="M478.54,59.5C347.22,247.6,309.13,500.12,415.32,660.9c27.63,41.83,43.91,78.58,52.26,110.85,23.51,90.89-30.37,150.73-122.19,212.86-125.94,85.51-377.76,217.65-193.45,285.86C349,1340.4,573,1440.53,416.27,1611.11a695.46,695.46,0,0,1-71.41,67.63c-121,99.59-173.52,116.25,5.56,231.28,207.93,133.56,147.05,221.5,55.27,339.28"/><path class="cls-116" d="M480.4,59.79C346.58,247.64,307.56,501.07,414.67,662.24c27.83,41.87,44.32,78.64,52.77,110.94,23.87,91.23-30,151.16-122,213.37-126.06,85.48-379.06,218-194.06,285.89,197,69.51,423,168.87,265.6,339.89a703.2,703.2,0,0,1-71.5,67.64c-121.44,100-175,115.78,5.22,230.76C560.17,2044.35,498.46,2132,406.9,2249.8"/><path class="cls-117" d="M482.27,60.09C345.93,247.69,306,502,414,663.58c28,41.91,44.72,78.69,53.28,111,24.23,91.57-29.55,151.58-121.81,213.87-126.18,85.46-380.37,218.34-194.68,285.92,196.94,69.1,425,167.68,266.87,339.14a707.9,707.9,0,0,1-71.58,67.66c-121.93,100.47-176.51,115.31,4.89,230.23,211,133.69,148.45,220.94,57.12,338.87"/><path class="cls-118" d="M484.14,60.38C345.29,247.73,304.4,503,413.37,664.92c28.22,42,45.12,78.75,53.79,111.12,24.59,91.9-29.14,152-121.62,214.37-126.3,85.45-381.67,218.68-195.3,285.95,196.87,68.68,427,166.5,268.15,338.4a716.12,716.12,0,0,1-71.67,67.68c-122.41,100.89-178,114.82,4.55,229.7,212.53,133.74,149.16,220.66,58.06,338.66"/><path class="cls-119" d="M486,60.68C344.65,247.77,302.83,503.91,412.72,666.26c28.42,42,45.52,78.8,54.29,111.21,25,92.24-28.73,152.42-121.41,214.88-126.43,85.42-383,219-195.93,286,196.81,68.26,429,165.31,269.43,337.65a724.28,724.28,0,0,1-71.77,67.69C224.45,1785,167.84,1798,351.56,1912.85c214.06,133.8,149.86,220.38,59,338.44"/><path class="cls-120" d="M487.87,61C344,247.82,301.25,504.86,412.07,667.6c28.62,42,45.92,78.86,54.8,111.3,25.33,92.57-28.32,152.84-121.22,215.38-126.55,85.4-384.3,219.37-196.55,286,196.75,67.85,431.33,164.44,270.7,336.91A718.8,718.8,0,0,1,348,1684.9c-123.37,101.77-181,113.87,3.9,228.66,215.59,133.86,150.56,220.09,59.9,338.23"/><path class="cls-121" d="M489.74,61.27C343.36,247.86,299.67,505.81,411.42,669c28.82,42.06,46.33,78.9,55.31,111.38,25.7,92.91-27.91,153.27-121,215.88-126.67,85.38-385.6,219.71-197.17,286,196.69,67.44,433.31,163.24,272,336.17a727.21,727.21,0,0,1-71.94,67.72c-123.85,102.2-182.49,113.39,3.56,228.13,217.13,133.91,151.27,219.81,60.83,338"/><path class="cls-122" d="M491.61,61.56C342.72,247.9,298.09,506.77,410.77,670.29c29,42.1,46.73,79,55.82,111.47,26.07,93.24-27.5,153.69-120.84,216.39C219,1083.5-41.16,1218.2,148,1284.22c196.63,67,435.28,162,273.25,335.42a735.49,735.49,0,0,1-72,67.73c-124.34,102.64-184,112.91,3.23,227.61,218.66,134,152,219.53,61.75,337.81"/><path class="cls-123" d="M493.47,61.86c-151.4,186.08-197,445.86-83.35,609.77,29.22,42.14,47.13,79,56.33,111.56,26.43,93.57-27.09,154.11-120.64,216.89-126.91,85.33-388.23,220.39-198.41,286.1C344,1352.79,584.64,1447,421.92,1620.86a744,744,0,0,1-72.11,67.74C225,1791.68,164.33,1801,352.7,1915.69c220.2,134,152.68,219.25,62.68,337.6"/><path class="cls-124" d="M495.34,62.15C341.43,248,294.93,508.67,409.48,673,438.89,715.16,457,752,466.31,784.62c26.8,93.9-26.69,154.53-120.45,217.39-127,85.31-389.53,220.74-199,286.13,196.5,66.2,439.22,159.62,275.8,333.93a750.57,750.57,0,0,1-72.21,67.77c-125.3,103.5-187,112,2.57,226.56,221.73,134.07,153.38,219,63.6,337.39"/><path class="cls-125" d="M497.21,62.45C340.78,248,293.35,509.62,408.83,674.31c29.6,42.23,47.93,79.12,57.34,111.74,27.17,94.24-26.28,155-120.26,217.89C218.76,1089.23-44.93,1225,146.26,1290.11c196.44,65.78,441.19,158.4,277.07,333.18A760.59,760.59,0,0,1,351,1691.07c-125.78,103.94-188.46,111.47,2.24,226,223.26,134.13,154.08,218.69,64.52,337.19"/><path class="cls-126" d="M499.08,62.74c-158.94,185.33-207.31,447.84-90.9,612.91C438,717.92,456.51,754.82,466,787.48c27.55,94.57-25.86,155.37-120.06,218.4-127.27,85.27-392.14,221.42-200.27,286.19,196.38,65.37,443.17,157.2,278.35,332.44a769.56,769.56,0,0,1-72.38,67.79C225.4,1796.68,161.9,1803,353.56,1917.81c225,133.78,154.79,218.41,65.45,337"/><path class="cls-127" d="M500.94,63C339.5,248.12,289.88,511.76,407.53,677c29.92,42.37,48.74,79.22,58.35,111.92,27.92,94.9-25.45,155.8-119.86,218.9-127.4,85.25-393.46,221.77-200.9,286.22,196.31,65,445.14,156,279.63,331.7a781.53,781.53,0,0,1-72.47,67.81c-126.75,104.81-191.29,110.21,1.57,225,226.53,133.9,155.48,218.12,66.37,336.76"/><path class="cls-128" d="M502.81,63.33c-164,184.83-214.45,449.34-95.93,615,30.13,42.4,49.14,79.27,58.86,112,28.29,95.23-25.05,156.22-119.67,219.4C218.55,1095-48.7,1231.86,144.55,1296c196.25,64.55,447.11,154.79,280.9,331a788.31,788.31,0,0,1-72.55,67.82c-127.23,105.25-192.82,109.79,1.23,224.46,228,134,156.19,217.84,67.31,336.55"/><path class="cls-129" d="M504.68,63.63c-166.47,184.57-217.84,450-98.45,616,30.35,42.43,49.6,79.31,59.37,112.1,28.83,95.51-24.64,156.64-119.48,219.91C218.48,1096.88-49.95,1234.13,144,1298c196.19,64.13,449.09,153.58,282.18,330.21A796.46,796.46,0,0,1,353.51,1696c-127.71,105.68-194.34,109.37.91,223.94,229.52,134.13,156.89,217.56,68.23,336.34"/><path class="cls-130" d="M506.54,63.92c-169,184.33-221.22,450.58-101,617.09,30.56,42.46,50,79.37,59.88,112.18,29.15,95.86-24.23,157.07-119.29,220.42-127.75,85.18-397.38,222.8-202.75,286.31,196.12,63.72,451.05,152.37,283.45,329.46a809.37,809.37,0,0,1-72.74,67.86c-128.19,106.11-195.87,108.93.58,223.41,231,134.24,157.59,217.28,69.15,336.13"/><path class="cls-131" d="M508.41,64.22C336.92,248.29,283.8,515.41,404.93,682.35c30.78,42.49,50.37,79.43,60.39,112.27,29.46,96.21-23.82,157.49-119.09,220.92-127.88,85.16-398.69,223.15-203.38,286.34,196.06,63.3,453,151.17,284.72,328.72a816.57,816.57,0,0,1-72.82,67.87C226.08,1805,157.34,1807,355,1921.36c232.51,134.36,158.3,217,70.08,335.92"/><path class="cls-132" d="M510.28,64.51c-174,183.82-228,451.81-106,619.19s70,248.64-58,333.77-400,223.49-204,286.38,455,150,286,328-307,155.77-73,290.24,159,216.72,71,335.72"/></g></g></svg>