<svg id="Layer_2" data-name="Layer 2" xmlns="http://www.w3.org/2000/svg" viewBox="0 0 1920 1080"><defs><style>.cls-1{opacity:0.53;}.cls-10,.cls-11,.cls-12,.cls-13,.cls-14,.cls-15,.cls-16,.cls-17,.cls-18,.cls-19,.cls-2,.cls-20,.cls-21,.cls-22,.cls-23,.cls-24,.cls-25,.cls-26,.cls-27,.cls-28,.cls-29,.cls-3,.cls-30,.cls-31,.cls-32,.cls-33,.cls-34,.cls-35,.cls-36,.cls-37,.cls-38,.cls-39,.cls-4,.cls-41,.cls-42,.cls-43,.cls-44,.cls-45,.cls-46,.cls-47,.cls-48,.cls-49,.cls-5,.cls-50,.cls-51,.cls-52,.cls-53,.cls-54,.cls-55,.cls-56,.cls-57,.cls-58,.cls-59,.cls-6,.cls-60,.cls-61,.cls-62,.cls-63,.cls-64,.cls-65,.cls-66,.cls-67,.cls-68,.cls-69,.cls-7,.cls-70,.cls-71,.cls-72,.cls-73,.cls-74,.cls-75,.cls-76,.cls-77,.cls-78,.cls-79,.cls-8,.cls-80,.cls-81,.cls-9{fill:none;stroke-miterlimit:10;}.cls-2{stroke:#dadaef;}.cls-10,.cls-11,.cls-12,.cls-13,.cls-14,.cls-15,.cls-16,.cls-17,.cls-18,.cls-19,.cls-2,.cls-20,.cls-21,.cls-22,.cls-23,.cls-24,.cls-25,.cls-26,.cls-27,.cls-28,.cls-29,.cls-3,.cls-30,.cls-31,.cls-32,.cls-33,.cls-34,.cls-35,.cls-36,.cls-37,.cls-38,.cls-39,.cls-4,.cls-41,.cls-42,.cls-44,.cls-45,.cls-46,.cls-47,.cls-48,.cls-50,.cls-51,.cls-52,.cls-53,.cls-54,.cls-55,.cls-56,.cls-57,.cls-58,.cls-59,.cls-6,.cls-60,.cls-61,.cls-62,.cls-63,.cls-64,.cls-65,.cls-66,.cls-67,.cls-68,.cls-69,.cls-7,.cls-70,.cls-71,.cls-72,.cls-73,.cls-74,.cls-75,.cls-76,.cls-77,.cls-78,.cls-79,.cls-8,.cls-80,.cls-81,.cls-9{stroke-width:3px;}.cls-3{stroke:#dbdbef;}.cls-4{stroke:#dcdcf0;}.cls-5{stroke:#ddddf0;}.cls-43,.cls-5{stroke-width:3px;}.cls-6{stroke:#dedef1;}.cls-7{stroke:#dfdff1;}.cls-8{stroke:#e0e0f2;}.cls-9{stroke:#e1e1f2;}.cls-10{stroke:#e2e2f2;}.cls-11{stroke:#e3e3f3;}.cls-12{stroke:#e4e4f3;}.cls-13{stroke:#e5e5f4;}.cls-14{stroke:#e6e6f4;}.cls-15{stroke:#e7e7f4;}.cls-16{stroke:#e8e8f5;}.cls-17{stroke:#e9e9f5;}.cls-18{stroke:#eaeaf6;}.cls-19{stroke:#ebebf6;}.cls-20{stroke:#ececf7;}.cls-21{stroke:#ededf7;}.cls-22{stroke:#eeeef8;}.cls-23{stroke:#efeff8;}.cls-24{stroke:#f0f0f9;}.cls-25{stroke:#f1f1f9;}.cls-26{stroke:#f2f2fa;}.cls-27{stroke:#f3f3fa;}.cls-28{stroke:#f4f4fa;}.cls-29{stroke:#f5f5fb;}.cls-30{stroke:#f6f6fb;}.cls-31{stroke:#f7f7fc;}.cls-32{stroke:#f8f8fc;}.cls-33{stroke:#f9f9fc;}.cls-34{stroke:#fafafd;}.cls-35{stroke:#fbfbfd;}.cls-36{stroke:#fcfcfe;}.cls-37{stroke:#fdfdfe;}.cls-38{stroke:#fefeff;}.cls-39{stroke:#fff;}.cls-40{opacity:0.58;}.cls-41{stroke:#9debf4;}.cls-42{stroke:#9febf4;}.cls-43{stroke:#a2ecf5;}.cls-44{stroke:#a4ecf5;}.cls-45{stroke:#a7edf5;}.cls-46{stroke:#a9edf5;}.cls-47{stroke:#abeef6;}.cls-48{stroke:#aeeef6;}.cls-49{stroke:#b0eff6;stroke-width:3px;}.cls-50{stroke:#b3eff6;}.cls-51{stroke:#b5f0f7;}.cls-52{stroke:#b7f0f7;}.cls-53{stroke:#baf1f7;}.cls-54{stroke:#bcf1f7;}.cls-55{stroke:#bef2f8;}.cls-56{stroke:#c1f2f8;}.cls-57{stroke:#c3f3f8;}.cls-58{stroke:#c6f3f9;}.cls-59{stroke:#c8f4f9;}.cls-60{stroke:#caf4f9;}.cls-61{stroke:#cdf5f9;}.cls-62{stroke:#cff5fa;}.cls-63{stroke:#d2f6fa;}.cls-64{stroke:#d4f6fa;}.cls-65{stroke:#d6f7fa;}.cls-66{stroke:#d9f7fb;}.cls-67{stroke:#dbf8fb;}.cls-68{stroke:#def8fb;}.cls-69{stroke:#e0f9fc;}.cls-70{stroke:#e2f9fc;}.cls-71{stroke:#e5fafc;}.cls-72{stroke:#e7fafc;}.cls-73{stroke:#e9fbfd;}.cls-74{stroke:#ecfbfd;}.cls-75{stroke:#eefcfd;}.cls-76{stroke:#f1fcfd;}.cls-77{stroke:#f3fdfe;}.cls-78{stroke:#f5fdfe;}.cls-79{stroke:#f8fefe;}.cls-80{stroke:#fafefe;}.cls-81{stroke:#fdffff;}</style></defs><title>abstract13</title><g class="cls-1"><path class="cls-2" d="M-631.07-417.25c475.84-33,961.53,111.73,1043.57,566.83s389.7,639.8,780.62,689.29,835.12,217.23,856.54,634.1"/><path class="cls-3" d="M-628.94-410c267.31-10.39,537,29.34,737.43,137.42,156.81,84.55,274.94,220.22,311,419,22.25,122.24,53,228,98.27,309,44.11,79,98,148.06,173.2,204.69,133.55,100.06,310.5,164.33,493.39,181.82,11.94,1.14,23.82,2.32,35.62,3.12,85.73,5.85,178.94,21.59,265.56,51.22,116.7,39.93,227.29,100.31,321.12,164.2,133.14,90.67,229.33,214,243,401.73"/><path class="cls-4" d="M-626.8-402.8C-359.46-405-90.37-363.1,110.2-264c157.43,77.73,280.11,209.2,316.25,407.31C449.17,266.89,473,376.7,512.56,453.31,551,528,596.26,598.85,674.27,657.86c134,101.39,321.28,175.58,501.3,187.07,11.81.75,23.49,2.28,34.85,1.32,82.59-7,178.16,11.22,264.1,43.7,114.84,43.4,223.86,113.53,319.66,172.67,135.08,83.37,237.47,195.45,255.51,388.74"/><path class="cls-5" d="M-624.66-395.58c267.38,5.91,535.93,50.06,736.58,140.08C270-184.58,397.2-57.33,433.43,140.1c23.17,125,40,238.83,73.95,311.12,32.82,70.45,69.48,142.93,150.22,204.43C792.22,758.18,989.72,842.43,1166.79,848c11.69.36,23.13.62,34.1-.49,80.31-8.12,177.37.83,262.64,36.19,113,46.83,220.33,126.74,318.2,181.14,136.89,76.08,245.59,176.91,268,375.76"/><path class="cls-6" d="M-622.53-388.35C-355.11-374.3-87-327.94,113.64-247,272.48-182.85,404.09-59.8,440.41,136.94,464,263.33,474.09,381.1,502.19,449.13c27.32,66.13,55.27,140.32,138.74,204.31C776.15,757.09,984.15,859.46,1158,851c11.55-.56,22.82-.24,33.34-2.29,78-15.21,176.55-9.6,261.18,28.67,111,50.23,216.72,139.95,316.74,189.62,138.58,68.81,253.72,158.37,280.43,362.77"/><path class="cls-7" d="M-620.39-381.13c267.46,22.2,535.17,70.74,735.74,142.72C275-181.11,411-62.27,447.38,133.78,471.48,261.55,474.63,383.33,497,447c21.72,61.86,41,137.7,127.25,204.18,135.83,104.77,354,209.07,525,202.79,11.45-.42,22.56-1.14,32.59-4.1,76.07-22.46,175.73-20,259.72,21.16,109.14,53.56,213,153.16,315.27,198.08C1897,1130.72,2018.67,1209,2049.72,1419"/><path class="cls-8" d="M-618.25-373.91c267.49,30.35,534.91,81.05,735.32,144.05C277.59-179.4,417.86-64.75,454.36,130.62,478.92,259.78,475.17,385.56,491.82,445,508,502.54,518.67,580,607.59,649c136.46,105.86,365,220.13,532.88,208,11.33-.82,22.31-2.08,31.82-5.91,74.33-29.94,174.91-30.54,258.26,13.65,107.24,56.85,209.23,166.39,313.82,206.55,141.62,54.38,270,121.29,305.36,336.81"/><path class="cls-9" d="M-616.11-366.69c267.53,38.5,534.72,91.31,734.9,145.38,161.45,43.61,306,154.09,342.54,348.77,25,130.54,14.4,260.34,25.3,315.41,10.56,53.33,12.66,132.44,104.28,203.92C728,753.75,967,877.92,1131.69,860.07c11.23-1.22,22.08-3.06,31.07-7.72,72.74-37.71,174.07-41.06,256.8,6.13,105.33,60.1,205.36,179.66,312.35,215,143,47.26,278.11,102.74,317.83,323.83"/><path class="cls-10" d="M-614-359.46c267.57,46.64,534.62,101.52,734.48,146.7C283-176,431.63-69.69,468.31,124.3c25.48,131.92,8,265.75,13.14,316.48,5,49.08-1.55,129.81,92.79,203.8,137.74,108,387.22,242,548.68,218.51,11.12-1.62,21.84-4.07,30.31-9.52,71.2-45.79,173.24-51.62,255.34-1.38,103.42,63.29,201.41,193,310.89,223.5,144.21,40.22,286.24,84.2,330.29,310.84"/><path class="cls-11" d="M-611.84-352.24c267.61,54.79,534.59,111.67,734.06,148,163.52,29.8,315.89,132.12,353.06,325.35,25.66,133.36,1.58,271.19,1,317.56-.58,44.85-15.74,127.16,81.31,203.67C696,751.47,956,895.24,1114.14,866.12c11-2,21.6-5.14,29.55-11.32,69.63-54.18,172.41-62.21,253.89-8.9,101.53,66.43,197.38,206.32,309.43,232,145.36,33.27,294.36,65.66,342.75,297.85"/><path class="cls-12" d="M-609.7-345C-342-282.08-75.08-223.26,123.94-195.67,288.57-172.83,445-74.55,482.26,118c26.1,134.75-4.84,276.66-11.19,318.63-6.15,40.66-29.92,124.51,69.83,203.54,139,110.16,409.6,263.62,564.46,229,10.93-2.44,21.35-6.23,28.8-13.13,67.91-62.83,171.59-72.83,252.43-16.41,99.64,69.54,193.3,219.74,308,240.43,146.45,26.44,302.5,47.12,355.22,284.88"/><path class="cls-13" d="M-607.57-337.79C-339.88-266.71-72.86-206,125.65-187.12,291.45-171.31,451.83-77,489.23,114.82,515.77,251,478,397,465.89,434.52,454.14,471,421.77,556.38,524.23,637.94c139.7,111.21,420.84,274.27,572.36,234.24,10.83-2.86,21.06-7.36,28-14.94,66-71.7,170.77-83.48,251-23.93,97.77,72.61,189.19,233.24,306.51,248.91,147.46,19.7,310.62,28.58,367.68,271.89"/><path class="cls-14" d="M-605.43-330.57c267.73,79.24,534.85,141.67,732.8,152,167,8.72,331.33,99.08,368.84,290.23,27,137.52-17.74,287.69-35.51,320.78-17.38,32.37-58.3,119.2,46.85,203.28C647.93,748,939.65,920.55,1087.81,875.21c10.75-3.29,20.76-8.49,27.29-16.75,63.86-80.73,170-94.16,249.5-31.44,95.92,75.63,185,246.81,305.05,257.38,148.43,13.07,318.75,10,380.14,258.91"/><path class="cls-15" d="M-603.29-323.35C-335.53-236-67.62-153.88,129.09-170,296.78-183.78,465.57-82,503.18,108.5c27.44,138.91-24.27,293.22-47.66,321.85C432.45,458.58,383,546.89,490.88,633.51,631.93,746.8,934.25,928.78,1079,878.23c10.65-3.72,20.42-9.63,26.52-18.55,61.49-89.87,169.18-104.86,248-38.95,94.08,78.62,182.63,244.23,303.58,265.85,147.19,26.31,326.88-8.51,392.61,245.92"/><path class="cls-16" d="M-601.15-316.13c267.8,95.54,536.7,179.62,732,154.66C299-183,472.45-84.43,510.16,105.34,538,245.64,479.3,404.05,450.33,428.26c-28.8,24.07-86.65,113.88,23.88,203,141.73,114.32,454.63,305.62,596.05,250,10.56-4.16,20.08-10.78,25.77-20.36,58.88-99.06,168.4-115.59,246.59-46.47,92.26,81.59,177.77,257.45,302.12,274.33,148.94,20.21,335-27,405.07,232.94"/><path class="cls-17" d="M-599-308.9C-331.18-205.22-63.58-138,132.52-152.92c170.79-13,346.8,66,384.62,255.1,28.33,141.68-37.46,304.16-72,324s-100.82,111.2,12.4,202.9C600,744.43,923.42,945,1061.49,884.29c10.47-4.6,19.71-11.93,25-22.17,56-108.27,167.65-126.35,245.12-54,90.48,84.51,172.88,270.91,300.67,282.79,150.7,14,343.13-45.58,417.54,220"/><path class="cls-18" d="M-596.88-301.68C-329-189.85-61.22-121.24,134.23-144.37c172.07-20.37,352,55,389.88,243.39C552.89,242.09,480.05,408.58,440,424.09c-40.31,15.59-115,108.53.9,202.78C584,743.24,918,952.91,1052.71,887.32c10.38-5.06,19.33-13.07,24.26-24,53-117.46,166.91-137.14,243.66-61.5,88.71,87.42,168.25,301.93,299.2,291.26,152.17-12.39,351.27-64.13,430,207"/><path class="cls-19" d="M-594.74-294.46C-326.83-174.48-58.87-104.55,136-135.83c173.34-27.82,357.14,44,395.14,231.7C560.32,240.31,480.45,410.79,434.77,422c-46,11.31-129.15,105.85-10.58,202.65C568,742,912.51,960.77,1043.94,890.35a50.38,50.38,0,0,0,23.49-25.78c49.88-126.61,166.21-147.93,242.21-69,87,90.3,164.07,315.92,297.74,299.74,153.12-18.53,359.39-82.67,442.47,194"/><path class="cls-20" d="M-592.61-287.23c268,128.12,536.07,199.28,730.28,160,174.59-35.36,362.31,33,400.39,220C567.76,238.54,480.87,413,429.58,419.92c-51.75,7-143.31,103.16-22.06,202.52C552,740.84,907,968.54,1035.16,893.37a51,51,0,0,0,22.74-27.58c46.57-135.71,165.51-158.75,240.75-76.53,85.24,93.16,159.92,330,296.28,308.21,154.1-24.59,367.52-101.22,454.93,181"/><path class="cls-20" d="M-590.47-280c268,136.27,536.23,208.59,729.85,161.28C315.21-161.69,506.87-96.79,545,89.55,575.19,236.76,481.3,415.17,424.4,417.83c-57.45,2.68-157.48,100.48-33.55,202.4,145.18,119.4,510.59,356,635.53,276.17a52.22,52.22,0,0,0,22-29.39c43.17-144.75,164.84-169.58,239.28-84,83.56,96,155.81,344.09,294.82,316.68,155.12-30.59,375.65-119.76,467.4,168"/><path class="cls-21" d="M-588.33-272.79C-320.3-128.37-52-54.95,141.1-110.18,318.13-160.82,513.76-99.27,552,86.39c30.62,148.59-70.25,331-132.8,329.35-63.13-1.63-171.63,97.79-45,202.27,145.88,120.41,521.64,365.87,643.43,281.42a53.68,53.68,0,0,0,21.23-31.2c39.68-153.73,164.2-180.42,237.82-91.55,81.88,98.83,151.72,358.26,293.36,325.15,156.18-36.52,383.78-138.3,479.86,155"/><path class="cls-22" d="M-586.19-265.57c268.06,152.57,536.45,227,729,163.94C321-160,520.66-101.74,559,83.23c31.08,150-76.77,336.32-145,330.43-68.8-6-185.78,95.08-56.53,202.14,146.59,121.41,532.65,375.66,651.33,286.66,9.87-7.41,17.29-18.67,20.47-33,36.13-162.65,163.58-191.28,236.37-99.07,80.24,101.66,147.68,372.5,291.89,333.62,157.29-42.4,391.91-156.84,492.33,142.06"/><path class="cls-23" d="M-584.06-258.34C-315.95-97.63-47.56-22.21,144.53-93.08c179.31-66.16,383-11.14,421.43,173.15,31.55,151.36-83.27,341.67-157.12,331.5-74.46-10.26-199.93,92.39-68,202C488.13,736,884.41,999,1000.06,905.48c9.75-7.88,16.86-19.76,19.71-34.8,32.52-171.53,163-202.16,234.91-106.59,78.62,104.47,143.67,386.78,290.43,342.09,158.43-48.24,400-175.38,504.79,129.07"/><path class="cls-24" d="M-581.92-251.12C-313.77-82.25-45.43-5.91,146.25-84.54c180.38-74,388.21-22.15,426.69,161.45,32,152.74-89.77,347-169.29,332.57-80.11-14.56-214.07,89.69-79.49,201.89,148,123.4,554.45,395.13,667.12,297.14,9.63-8.37,16.43-20.85,19-36.61,28.88-180.34,162.41-213,233.44-114.1,77,107.27,139.72,401.1,289,350.56,159.63-54.06,408.16-193.92,517.25,116.09"/><path class="cls-25" d="M-579.78-243.9C-311.6-66.88-43.34,10.36,148-76c181.4-81.87,393.39-33.18,431.94,149.74C612.4,227.87,483.65,426.13,398.47,407.4c-85.76-18.87-228.22,87-91,201.76C456.2,733.55,872.75,1014,982.51,911.54c9.5-8.87,16-21.94,18.19-38.42,25.22-189.09,161.87-223.91,232-121.62,75.45,110.08,135.81,415.47,287.51,359,160.87-59.84,416.3-212.47,529.72,103.1"/><path class="cls-26" d="M-577.65-236.67C-309.42-51.51-41.31,26.6,149.68-67.44c182.37-89.79,398.59-44.21,437.21,138,33,155.5-102.75,357.75-193.61,334.72-91.41-23.17-242.35,84.27-102.47,201.63,149.44,125.38,576,414.48,682.92,307.63,9.37-9.37,15.57-23,17.44-40.23,21.52-197.81,161.34-234.8,230.53-129.13,73.9,112.87,131.93,429.85,286,367.51,162.16-65.6,424.42-231,542.18,90.11"/><path class="cls-27" d="M-575.51-229.45C-307.25-36.14-39.34,42.81,151.4-58.89c183.29-97.73,403.77-55.23,442.47,126.32C627.3,224.32,484.63,430.54,388.09,403.22c-97-27.46-256.48,81.56-113.95,201.51C424.29,731.09,860.82,1028.86,965,917.6c9.22-9.87,15.13-24.11,16.68-42,17.82-206.48,160.84-245.69,229.07-136.64,72.37,115.66,128.1,444.26,284.59,376,163.49-71.34,432.55-249.54,554.64,77.14"/><path class="cls-28" d="M-573.37-222.23C-305.07-20.77-37.41,59,153.12-50.34,337.28-156,562.09-116.6,600.84,64.27c33.91,158.27-115.72,368.48-217.93,336.87C280.22,369.38,112.29,480,257.47,602.51,408.34,729.86,854.76,1036.3,956.18,920.62c9.08-10.36,14.7-25.17,15.93-43.84,14.1-215.12,160.35-256.58,227.6-144.15,70.86,118.45,124.32,458.69,283.13,384.44C1647.71,1040,1923.52,849,2050,1181.22"/><path class="cls-29" d="M-571.23-215C-302.9-5.4-35.54,75.19,154.83-41.79c185-113.68,414.17-77.29,453,102.9,34.39,159.64-122.15,373.66-230.1,337.94C269.45,362.81,93,475.17,240.8,600.3c151.59,128.33,607.84,443.44,706.6,323.35,8.93-10.86,14.27-26.24,15.17-45.65,10.39-223.72,159.9-267.48,226.15-151.67,69.37,121.26,120.57,473.15,281.67,392.92,166.29-82.81,448.81-286.63,579.58,51.17"/><path class="cls-30" d="M-569.1-207.78C-300.72,10-33.71,91.37,156.55-33.24,342.31-154.92,576.25-121.63,614.79,58,650,218.91,486.16,437,372.53,397c-113.91-40.51-298.87,73.39-148.4,201.13,152.31,129.3,618.34,453.1,714.5,328.59,8.77-11.36,13.83-27.31,14.41-47.45,6.66-232.3,159.45-278.38,224.69-159.19,67.9,124.06,116.86,487.6,280.21,401.39,167.74-88.54,456.93-305.17,592,38.18"/><path class="cls-31" d="M-567-200.56c268.41,225.9,535,308.11,725.22,175.86,186.5-129.67,424.88-99.4,463.51,79.49,35.64,162.34-135.12,384.44-254.42,340.08-119.56-44.77-313,70.67-159.9,201s628.79,462.79,722.4,333.84c8.61-11.86,13.4-28.37,13.66-49.26,2.94-240.84,159-289.27,223.23-166.7,66.44,126.86,113.18,502.07,278.74,409.86,169.24-94.26,465.06-323.72,604.51,25.2"/><path class="cls-32" d="M-564.82-193.34C-296.37,40.71-30.19,123.74,160-16.15,347.16-153.83,590-126.58,628.74,51.63c36.11,163.72-141.6,389.84-266.58,341.16C237,343.74,35.05,460.72,190.78,593.66,344.55,724.92,830,1066.14,921.08,932.73c8.44-12.35,13-29.43,12.9-51.06-.79-249.36,158.62-300.17,221.77-174.22,65,129.67,109.53,516.55,277.28,418.34,170.77-100,473.19-342.26,617,12.21"/><path class="cls-33" d="M-562.69-186.11C-294.2,56.08-28.5,139.93,161.7-7.6,349.52-153.29,596.91-129,635.72,48.47,672.28,213.58,487.63,443.7,357,390.7,226.13,337.39,15.74,455.9,174.11,591.44c154.5,132.24,649.52,482.21,738.19,344.32,8.27-12.85,12.53-30.49,12.14-52.87-4.5-257.86,158.24-311,220.31-181.73,63.59,132.48,105.93,531,275.82,426.8,172.33-105.71,481.32-360.8,629.44-.77"/><path class="cls-34" d="M-560.55-178.89C-292,71.45-26.84,156.12,163.41,1,351.85-152.74,603.8-131.52,642.69,45.31c37,166.49-154.57,400.62-290.9,343.3C215.3,331-3.3,450.78,157.44,589.23c155.48,132.91,659.82,492,746.09,349.56,8.08-13.35,12.09-31.54,11.38-54.68-8.22-266.34,157.87-321.94,218.85-189.24,62.18,135.3,102.34,545.49,274.36,435.27C1582,1018.7,1897.57,750.8,2050,1116.39"/><path class="cls-35" d="M-558.41-171.67c268.56,258.5,533.2,344,723.54,181.17,189-161.69,445.56-143.5,484.54,32.65C687.16,210,488.61,448.17,346.6,386.53,204.47,324.68-22.64,446,140.76,587c156.17,133.94,670.09,501.71,754,354.8,7.91-13.84,11.67-32.6,10.63-56.49-11.94-274.8,157.51-332.82,217.39-196.76,60.78,138.13,98.78,560,272.9,443.75,175.54-117.18,497.57-397.88,654.36-26.74"/><path class="cls-36" d="M-556.27-164.44c268.6,266.64,532.65,353,723.12,182.49C356.4-151.63,617.57-136.47,656.64,39c38,169.25-167.54,411.41-315.22,345.45C193.64,318.32-42,441.24,124.09,584.8c156.85,135,680.32,511.52,761.89,360.05,7.72-14.34,11.23-33.65,9.86-58.3C880.2,603.31,1053,542.85,1111.78,682.28c59.4,141,95.25,574.45,271.43,452.22,177.19-122.93,505.71-416.43,666.83-39.72"/><path class="cls-37" d="M-554.14-157.22c268.65,274.79,532.08,362,722.7,183.81,190.07-177.66,455.9-165.53,495.06,9.24,38.41,170.64-174,416.8-327.39,346.52S-61.33,436.46,107.42,582.59C265,718.58,797.93,1103.93,877.2,947.87c7.53-14.82,10.8-34.7,9.11-60.09C867,596.1,1043.16,533.2,1100.78,676c58,143.79,91.75,588.92,270,460.69,178.86-128.69,513.83-435,679.29-52.71"/><path class="cls-38" d="M-552-150C-283.32,132.94-20.53,221,170.28,35.14,360.84-150.49,631.35-141.42,670.6,32.67c38.87,172-180.53,422.2-339.56,347.6S-80.67,431.69,90.75,580.37C249,717.39,791.43,1111.58,868.43,950.9c7.33-15.31,10.36-35.75,8.35-61.9-23-300.09,156.53-365.45,213-219.3,56.67,146.64,88.25,603.38,268.52,469.15,180.55-134.44,522-453.5,691.75-65.68"/><path class="cls-39" d="M-549.86-142.78C-281.14,148.31-19,237.29,172,43.69S638.23-143.89,677.57,29.51s-187,427.59-351.71,348.67S-100,426.92,74.08,578.16,894,1198.72,867.25,890.22,1023.47,513.91,1078.8,663.4s84.78,617.85,267,477.63,530.09-472,704.22-78.67"/></g><g class="cls-40"><circle class="cls-41" cx="2058" cy="-179" r="212.5"/><circle class="cls-42" cx="2050.74" cy="-176.72" r="227.1"/><circle class="cls-43" cx="2043.49" cy="-174.44" r="241.7"/><circle class="cls-44" cx="2036.23" cy="-172.16" r="256.29"/><circle class="cls-45" cx="2028.98" cy="-169.88" r="270.89"/><circle class="cls-46" cx="2021.72" cy="-167.6" r="285.49"/><circle class="cls-47" cx="2014.46" cy="-165.32" r="300.09"/><circle class="cls-48" cx="2007.21" cy="-163.04" r="314.68"/><circle class="cls-49" cx="1999.95" cy="-160.76" r="329.28"/><circle class="cls-50" cx="1992.7" cy="-158.48" r="343.88"/><circle class="cls-51" cx="1985.44" cy="-156.2" r="358.48"/><circle class="cls-52" cx="1978.18" cy="-153.91" r="373.07"/><circle class="cls-53" cx="1970.93" cy="-151.63" r="387.67"/><circle class="cls-54" cx="1963.67" cy="-149.35" r="402.27"/><circle class="cls-55" cx="1956.41" cy="-147.07" r="416.87"/><circle class="cls-56" cx="1949.16" cy="-144.79" r="431.46"/><circle class="cls-57" cx="1941.9" cy="-142.51" r="446.06"/><circle class="cls-58" cx="1934.65" cy="-140.23" r="460.66"/><circle class="cls-59" cx="1927.39" cy="-137.95" r="475.26"/><circle class="cls-60" cx="1920.13" cy="-135.67" r="489.85"/><circle class="cls-61" cx="1912.88" cy="-133.39" r="504.45"/><circle class="cls-62" cx="1905.62" cy="-131.11" r="519.05"/><circle class="cls-63" cx="1898.37" cy="-128.83" r="533.65"/><circle class="cls-64" cx="1891.11" cy="-126.55" r="548.24"/><circle class="cls-65" cx="1883.85" cy="-124.27" r="562.84"/><circle class="cls-66" cx="1876.6" cy="-121.99" r="577.44"/><circle class="cls-67" cx="1869.34" cy="-119.71" r="592.04"/><circle class="cls-68" cx="1862.09" cy="-117.43" r="606.63"/><circle class="cls-69" cx="1854.83" cy="-115.15" r="621.23"/><circle class="cls-70" cx="1847.57" cy="-112.87" r="635.83"/><circle class="cls-71" cx="1840.32" cy="-110.59" r="650.43"/><circle class="cls-72" cx="1833.06" cy="-108.3" r="665.02"/><circle class="cls-73" cx="1825.8" cy="-106.02" r="679.62"/><circle class="cls-74" cx="1818.55" cy="-103.74" r="694.22"/><circle class="cls-75" cx="1811.29" cy="-101.46" r="708.82"/><circle class="cls-76" cx="1804.04" cy="-99.18" r="723.41"/><circle class="cls-77" cx="1796.78" cy="-96.9" r="738.01"/><circle class="cls-78" cx="1789.52" cy="-94.62" r="752.61"/><circle class="cls-79" cx="1782.27" cy="-92.34" r="767.21"/><circle class="cls-80" cx="1775.01" cy="-90.06" r="781.8"/><circle class="cls-81" cx="1767.76" cy="-87.78" r="796.4"/><circle class="cls-39" cx="1760.5" cy="-85.5" r="811"/></g></svg>