<svg id="Layer_1" data-name="Layer 1" xmlns="http://www.w3.org/2000/svg" xmlns:xlink="http://www.w3.org/1999/xlink" viewBox="0 0 1080 3088"><defs><style>.cls-1{fill:url(#linear-gradient);}.cls-2{mask:url(#mask);}.cls-10,.cls-100,.cls-101,.cls-102,.cls-103,.cls-104,.cls-105,.cls-106,.cls-107,.cls-108,.cls-109,.cls-11,.cls-110,.cls-111,.cls-112,.cls-113,.cls-114,.cls-115,.cls-116,.cls-117,.cls-118,.cls-119,.cls-12,.cls-120,.cls-121,.cls-122,.cls-123,.cls-124,.cls-125,.cls-126,.cls-127,.cls-128,.cls-129,.cls-13,.cls-130,.cls-131,.cls-132,.cls-133,.cls-134,.cls-135,.cls-136,.cls-137,.cls-138,.cls-139,.cls-14,.cls-140,.cls-141,.cls-142,.cls-143,.cls-144,.cls-145,.cls-146,.cls-147,.cls-148,.cls-149,.cls-15,.cls-150,.cls-151,.cls-152,.cls-153,.cls-154,.cls-155,.cls-156,.cls-157,.cls-158,.cls-159,.cls-16,.cls-160,.cls-161,.cls-162,.cls-163,.cls-164,.cls-165,.cls-166,.cls-167,.cls-168,.cls-169,.cls-17,.cls-170,.cls-171,.cls-172,.cls-173,.cls-174,.cls-175,.cls-176,.cls-177,.cls-178,.cls-179,.cls-18,.cls-180,.cls-181,.cls-182,.cls-183,.cls-184,.cls-185,.cls-186,.cls-187,.cls-188,.cls-189,.cls-19,.cls-190,.cls-191,.cls-192,.cls-193,.cls-194,.cls-195,.cls-196,.cls-197,.cls-198,.cls-199,.cls-20,.cls-200,.cls-201,.cls-202,.cls-203,.cls-204,.cls-205,.cls-206,.cls-207,.cls-208,.cls-21,.cls-22,.cls-23,.cls-24,.cls-25,.cls-26,.cls-27,.cls-28,.cls-29,.cls-3,.cls-30,.cls-31,.cls-32,.cls-33,.cls-34,.cls-35,.cls-36,.cls-37,.cls-38,.cls-39,.cls-4,.cls-40,.cls-41,.cls-42,.cls-43,.cls-44,.cls-45,.cls-46,.cls-47,.cls-48,.cls-49,.cls-5,.cls-50,.cls-51,.cls-52,.cls-53,.cls-54,.cls-55,.cls-56,.cls-57,.cls-58,.cls-59,.cls-6,.cls-60,.cls-61,.cls-62,.cls-63,.cls-64,.cls-65,.cls-66,.cls-67,.cls-68,.cls-69,.cls-7,.cls-70,.cls-71,.cls-72,.cls-73,.cls-74,.cls-75,.cls-76,.cls-77,.cls-78,.cls-79,.cls-8,.cls-80,.cls-81,.cls-82,.cls-83,.cls-84,.cls-85,.cls-86,.cls-87,.cls-88,.cls-89,.cls-9,.cls-90,.cls-91,.cls-92,.cls-93,.cls-94,.cls-95,.cls-96,.cls-97,.cls-98,.cls-99{fill:none;}.cls-3{stroke:#39b54a;}.cls-100,.cls-101,.cls-102,.cls-103,.cls-104,.cls-105,.cls-106,.cls-107,.cls-108,.cls-109,.cls-11,.cls-110,.cls-111,.cls-112,.cls-113,.cls-114,.cls-115,.cls-116,.cls-117,.cls-118,.cls-119,.cls-12,.cls-120,.cls-121,.cls-122,.cls-123,.cls-124,.cls-125,.cls-126,.cls-127,.cls-128,.cls-129,.cls-13,.cls-130,.cls-131,.cls-132,.cls-133,.cls-134,.cls-135,.cls-136,.cls-137,.cls-138,.cls-139,.cls-14,.cls-140,.cls-141,.cls-142,.cls-143,.cls-144,.cls-145,.cls-146,.cls-147,.cls-148,.cls-149,.cls-150,.cls-151,.cls-152,.cls-153,.cls-154,.cls-155,.cls-156,.cls-157,.cls-158,.cls-159,.cls-16,.cls-160,.cls-161,.cls-162,.cls-163,.cls-164,.cls-165,.cls-166,.cls-167,.cls-168,.cls-169,.cls-17,.cls-170,.cls-171,.cls-172,.cls-173,.cls-174,.cls-175,.cls-176,.cls-177,.cls-178,.cls-179,.cls-18,.cls-180,.cls-181,.cls-182,.cls-183,.cls-184,.cls-185,.cls-186,.cls-187,.cls-188,.cls-189,.cls-19,.cls-190,.cls-191,.cls-192,.cls-193,.cls-194,.cls-195,.cls-196,.cls-197,.cls-198,.cls-199,.cls-200,.cls-201,.cls-202,.cls-203,.cls-204,.cls-205,.cls-206,.cls-207,.cls-208,.cls-21,.cls-22,.cls-23,.cls-24,.cls-25,.cls-26,.cls-28,.cls-3,.cls-30,.cls-31,.cls-32,.cls-33,.cls-34,.cls-36,.cls-39,.cls-40,.cls-41,.cls-42,.cls-43,.cls-44,.cls-45,.cls-46,.cls-47,.cls-48,.cls-49,.cls-50,.cls-52,.cls-54,.cls-55,.cls-56,.cls-57,.cls-58,.cls-59,.cls-6,.cls-60,.cls-61,.cls-62,.cls-63,.cls-64,.cls-65,.cls-66,.cls-67,.cls-68,.cls-69,.cls-7,.cls-70,.cls-71,.cls-72,.cls-73,.cls-74,.cls-75,.cls-76,.cls-77,.cls-78,.cls-79,.cls-8,.cls-80,.cls-81,.cls-82,.cls-83,.cls-84,.cls-85,.cls-86,.cls-87,.cls-88,.cls-89,.cls-9,.cls-90,.cls-91,.cls-92,.cls-93,.cls-94,.cls-95,.cls-96,.cls-97,.cls-98,.cls-99{stroke-miterlimit:10;}.cls-100,.cls-101,.cls-102,.cls-103,.cls-104,.cls-105,.cls-106,.cls-107,.cls-108,.cls-109,.cls-11,.cls-110,.cls-111,.cls-112,.cls-113,.cls-114,.cls-115,.cls-116,.cls-117,.cls-118,.cls-119,.cls-120,.cls-121,.cls-122,.cls-123,.cls-124,.cls-125,.cls-126,.cls-127,.cls-128,.cls-129,.cls-130,.cls-131,.cls-132,.cls-133,.cls-134,.cls-135,.cls-136,.cls-137,.cls-138,.cls-139,.cls-14,.cls-140,.cls-141,.cls-142,.cls-143,.cls-144,.cls-145,.cls-146,.cls-147,.cls-148,.cls-149,.cls-15,.cls-150,.cls-151,.cls-152,.cls-153,.cls-154,.cls-155,.cls-156,.cls-157,.cls-158,.cls-159,.cls-16,.cls-160,.cls-161,.cls-162,.cls-163,.cls-164,.cls-165,.cls-166,.cls-167,.cls-168,.cls-169,.cls-170,.cls-171,.cls-172,.cls-173,.cls-174,.cls-175,.cls-176,.cls-177,.cls-178,.cls-179,.cls-180,.cls-181,.cls-182,.cls-183,.cls-184,.cls-185,.cls-186,.cls-187,.cls-188,.cls-189,.cls-19,.cls-190,.cls-191,.cls-192,.cls-193,.cls-194,.cls-195,.cls-196,.cls-197,.cls-198,.cls-199,.cls-20,.cls-200,.cls-201,.cls-202,.cls-203,.cls-204,.cls-205,.cls-206,.cls-207,.cls-208,.cls-21,.cls-24,.cls-25,.cls-26,.cls-27,.cls-28,.cls-29,.cls-3,.cls-30,.cls-32,.cls-34,.cls-35,.cls-36,.cls-37,.cls-38,.cls-39,.cls-4,.cls-41,.cls-42,.cls-44,.cls-45,.cls-46,.cls-48,.cls-50,.cls-51,.cls-52,.cls-53,.cls-54,.cls-56,.cls-57,.cls-59,.cls-6,.cls-60,.cls-61,.cls-63,.cls-65,.cls-66,.cls-67,.cls-68,.cls-70,.cls-71,.cls-73,.cls-74,.cls-75,.cls-76,.cls-78,.cls-80,.cls-81,.cls-82,.cls-84,.cls-85,.cls-87,.cls-88,.cls-89,.cls-9,.cls-91,.cls-93,.cls-94,.cls-95,.cls-96,.cls-97,.cls-98,.cls-99{stroke-width:6px;}.cls-4,.cls-5,.cls-6,.cls-7{stroke:#39b54b;}.cls-10,.cls-15,.cls-20,.cls-27,.cls-35,.cls-38,.cls-4,.cls-53{stroke-miterlimit:10;}.cls-29,.cls-37,.cls-5,.cls-51{stroke-miterlimit:10;}.cls-12,.cls-17,.cls-22,.cls-33,.cls-43,.cls-49,.cls-5,.cls-58,.cls-64,.cls-7,.cls-72,.cls-79,.cls-86,.cls-92{stroke-width:6px;}.cls-10,.cls-8,.cls-9{stroke:#39b54c;}.cls-10,.cls-13,.cls-18,.cls-23,.cls-31,.cls-40,.cls-47,.cls-55,.cls-62,.cls-69,.cls-77,.cls-8,.cls-83,.cls-90{stroke-width:6px;}.cls-11,.cls-12{stroke:#39b54d;}.cls-13,.cls-14,.cls-15{stroke:#39b54e;}.cls-16,.cls-17{stroke:#38b54f;}.cls-18,.cls-19,.cls-20{stroke:#38b550;}.cls-21,.cls-22{stroke:#38b551;}.cls-23{stroke:#38b552;}.cls-24{stroke:#38b452;}.cls-25{stroke:#38b453;}.cls-26,.cls-27{stroke:#38b454;}.cls-28,.cls-29{stroke:#38b455;}.cls-30,.cls-31{stroke:#38b456;}.cls-32{stroke:#38b457;}.cls-33,.cls-34{stroke:#38b458;}.cls-35{stroke:#37b458;}.cls-36,.cls-37,.cls-38{stroke:#37b459;}.cls-39,.cls-40{stroke:#37b45a;}.cls-41{stroke:#37b45b;}.cls-42,.cls-43{stroke:#37b45c;}.cls-44{stroke:#37b45d;}.cls-45{stroke:#37b45e;}.cls-46,.cls-47{stroke:#37b45f;}.cls-48{stroke:#37b460;}.cls-49{stroke:#37b461;}.cls-50{stroke:#37b361;}.cls-51,.cls-52,.cls-53{stroke:#36b362;}.cls-54,.cls-55{stroke:#36b363;}.cls-56{stroke:#36b364;}.cls-57,.cls-58{stroke:#36b365;}.cls-59{stroke:#36b366;}.cls-60{stroke:#36b367;}.cls-61,.cls-62{stroke:#36b368;}.cls-63{stroke:#36b369;}.cls-64,.cls-65{stroke:#36b36a;}.cls-66{stroke:#36b36b;}.cls-67{stroke:#35b36b;}.cls-68,.cls-69{stroke:#35b36c;}.cls-70{stroke:#35b36d;}.cls-71,.cls-72{stroke:#35b36e;}.cls-73{stroke:#35b36f;}.cls-74{stroke:#35b370;}.cls-75{stroke:#35b270;}.cls-76,.cls-77{stroke:#35b271;}.cls-78{stroke:#35b272;}.cls-79,.cls-80{stroke:#35b273;}.cls-81{stroke:#35b274;}.cls-82,.cls-83{stroke:#34b275;}.cls-84{stroke:#34b276;}.cls-85,.cls-86{stroke:#34b277;}.cls-87{stroke:#34b278;}.cls-88{stroke:#34b279;}.cls-89,.cls-90{stroke:#34b27a;}.cls-91,.cls-92{stroke:#34b27b;}.cls-93{stroke:#34b27c;}.cls-94{stroke:#34b27d;}.cls-95{stroke:#34b27e;}.cls-96{stroke:#33b27e;}.cls-97{stroke:#33b27f;}.cls-98{stroke:#33b17f;}.cls-99{stroke:#33b180;}.cls-100{stroke:#33b181;}.cls-101{stroke:#33b182;}.cls-102{stroke:#33b183;}.cls-103{stroke:#33b184;}.cls-104{stroke:#33b185;}.cls-105{stroke:#33b186;}.cls-106{stroke:#33b187;}.cls-107{stroke:#32b188;}.cls-108{stroke:#32b189;}.cls-109{stroke:#32b18a;}.cls-110{stroke:#32b18b;}.cls-111{stroke:#32b18c;}.cls-112{stroke:#32b18d;}.cls-113{stroke:#32b18e;}.cls-114{stroke:#32b08e;}.cls-115{stroke:#32b08f;}.cls-116{stroke:#32b090;}.cls-117{stroke:#32b091;}.cls-118{stroke:#31b091;}.cls-119{stroke:#31b092;}.cls-120{stroke:#31b093;}.cls-121{stroke:#31b094;}.cls-122{stroke:#31b095;}.cls-123{stroke:#31b096;}.cls-124{stroke:#31b097;}.cls-125{stroke:#31b098;}.cls-126{stroke:#31b099;}.cls-127{stroke:#31b09a;}.cls-128{stroke:#31b09b;}.cls-129{stroke:#30b09b;}.cls-130{stroke:#30b09c;}.cls-131{stroke:#30b09d;}.cls-132{stroke:#30b09e;}.cls-133{stroke:#30af9e;}.cls-134{stroke:#30af9f;}.cls-135{stroke:#30afa0;}.cls-136{stroke:#30afa1;}.cls-137{stroke:#30afa2;}.cls-138{stroke:#30afa3;}.cls-139{stroke:#30afa4;}.cls-140{stroke:#2fafa5;}.cls-141{stroke:#2fafa6;}.cls-142{stroke:#2fafa7;}.cls-143{stroke:#2fafa8;}.cls-144{stroke:#2fafa9;}.cls-145{stroke:#2fafaa;}.cls-146{stroke:#2fafab;}.cls-147{stroke:#2fafac;}.cls-148{stroke:#2fafad;}.cls-149{stroke:#2faead;}.cls-150{stroke:#2faeae;}.cls-151{stroke:#2eaeae;}.cls-152{stroke:#2eaeaf;}.cls-153{stroke:#2eaeb0;}.cls-154{stroke:#2eaeb1;}.cls-155{stroke:#2eaeb2;}.cls-156{stroke:#2eaeb3;}.cls-157{stroke:#2eaeb4;}.cls-158{stroke:#2eaeb5;}.cls-159{stroke:#2eaeb6;}.cls-160{stroke:#2eaeb7;}.cls-161{stroke:#2daeb8;}.cls-162{stroke:#2daeb9;}.cls-163{stroke:#2daeba;}.cls-164{stroke:#2daebb;}.cls-165{stroke:#2daebc;}.cls-166{stroke:#2dadbc;}.cls-167{stroke:#2dadbd;}.cls-168{stroke:#2dadbe;}.cls-169{stroke:#2dadbf;}.cls-170{stroke:#2dadc0;}.cls-171{stroke:#2dadc1;}.cls-172{stroke:#2cadc1;}.cls-173{stroke:#2cadc2;}.cls-174{stroke:#2cadc3;}.cls-175{stroke:#2cadc4;}.cls-176{stroke:#2cadc5;}.cls-177{stroke:#2cadc6;}.cls-178{stroke:#2cadc7;}.cls-179{stroke:#2cadc8;}.cls-180{stroke:#2cadc9;}.cls-181{stroke:#2cadca;}.cls-182{stroke:#2badcb;}.cls-183{stroke:#2baccb;}.cls-184{stroke:#2baccc;}.cls-185{stroke:#2baccd;}.cls-186{stroke:#2bacce;}.cls-187{stroke:#2baccf;}.cls-188{stroke:#2bacd0;}.cls-189{stroke:#2bacd1;}.cls-190{stroke:#2bacd2;}.cls-191{stroke:#2bacd3;}.cls-192{stroke:#2bacd4;}.cls-193{stroke:#2aacd4;}.cls-194{stroke:#2aacd5;}.cls-195{stroke:#2aacd6;}.cls-196{stroke:#2aacd7;}.cls-197{stroke:#2aacd8;}.cls-198{stroke:#2aacd9;}.cls-199{stroke:#2aacda;}.cls-200{stroke:#2aabda;}.cls-201{stroke:#2aabdb;}.cls-202{stroke:#2aabdc;}.cls-203{stroke:#2aabdd;}.cls-204{stroke:#29abde;}.cls-205{stroke:#29abdf;}.cls-206{stroke:#29abe0;}.cls-207{stroke:#29abe1;}.cls-208{stroke:#29abe2;}</style><linearGradient id="linear-gradient" x1="1154.67" y1="-514.92" x2="1154.67" y2="2945.55" gradientTransform="translate(-119.28 -30.61)" gradientUnits="userSpaceOnUse"><stop offset="0.61" stop-color="#fff"/><stop offset="0.67" stop-color="#fcfcfc"/><stop offset="0.72" stop-color="#f1f1f1"/><stop offset="0.77" stop-color="#e0e0e0"/><stop offset="0.81" stop-color="#c7c7c7"/><stop offset="0.86" stop-color="#a7a7a7"/><stop offset="0.9" stop-color="gray"/><stop offset="0.94" stop-color="#515151"/><stop offset="0.98" stop-color="#1d1d1d"/><stop offset="1"/></linearGradient><mask id="mask" x="-573.34" y="-787.52" width="3217.45" height="4785.15" maskUnits="userSpaceOnUse"><rect class="cls-1" x="-201.98" y="-545.53" width="2474.74" height="3460.47" transform="translate(-249.02 275.94) rotate(-13.57)"/></mask></defs><title>abstract14</title><g class="cls-2"><path class="cls-3" d="M1391.78,2966.57c-627.33,120.76-1267.63,327.95-1065.57-321.1s566.66-1059.24,19.51-1265.33S637.52-131-408.6-254.64"/><path class="cls-3" d="M1389.85,2968.46C764.41,3088.13,126.28,3293.21,326.79,2644.94S891.45,1586.41,346.2,1379.75s294.42-1510.85-751-1635.3"/><path class="cls-4" d="M1387.91,2970.35C764.38,3088.93,128.41,3291.9,327.37,2644.42S890,1586.59,346.69,1379.36,643.72-131.21-401-256.47"/><path class="cls-5" d="M1386,2972.25C764.34,3089.72,130.54,3290.59,328,2643.9S888.62,1586.77,347.18,1379,646.81-131.33-397.18-257.39"/><path class="cls-6" d="M1384.05,2974.14C764.3,3090.52,132.67,3289.28,328.54,2643.37S887.2,1587,347.67,1378.58s302.24-1510-741-1636.89"/><path class="cls-7" d="M1382.12,2976C764.27,3091.32,134.8,3288,329.12,2642.85s556.66-1055.72,19-1264.66S653-131.56-389.57-259.23"/><path class="cls-8" d="M1380.19,2977.92c-616,114.2-1243.26,308.73-1050.49-335.59s554.66-1055,18.95-1264.53S656.1-131.68-385.77-260.15"/><path class="cls-9" d="M1378.25,2979.81c-614.06,113.11-1239.19,305.53-1048-338s552.65-1054.31,18.84-1264.39S659.2-131.8-382-261.06"/><path class="cls-10" d="M1376.32,2981.7C764.15,3093.72,141.19,3284,330.87,2641.28S881.53,1587.67,349.62,1377,662.3-131.91-378.16-262"/><path class="cls-11" d="M1374.39,2983.6C764.12,3094.52,143.32,3282.72,331.45,2640.76s548.66-1052.91,18.66-1264.13S665.39-132-374.35-262.9"/><path class="cls-11" d="M1372.46,2985.49C764.08,3095.32,145.45,3281.41,332,2640.23s546.65-1052.2,18.56-1264S668.49-132.15-370.55-263.82"/><path class="cls-11" d="M1370.52,2987.38C764,3096.12,147.58,3280.1,332.62,2639.71s544.65-1051.5,18.47-1263.86S671.59-132.26-366.74-264.74"/><path class="cls-12" d="M1368.59,2989.27C764,3096.92,149.71,3278.79,333.2,2639.18s542.65-1050.79,18.38-1263.72S674.68-132.38-362.94-265.65"/><path class="cls-13" d="M1366.66,2991.16C764,3097.72,151.84,3277.47,333.78,2638.66s540.65-1050.09,18.29-1263.59S677.78-132.5-359.13-266.57"/><path class="cls-14" d="M1364.73,2993.05C763.93,3098.52,154,3276.16,334.37,2638.14S873,1588.75,352.55,1374.68,680.88-132.61-355.33-267.49"/><path class="cls-15" d="M1362.8,2995C763.89,3099.32,156.1,3274.85,335,2637.61S871.6,1588.93,353,1374.29,684-132.73-351.52-268.41"/><path class="cls-14" d="M1360.86,2996.84c-597,103.28-1202.63,276.7-1025.33-359.75s534.65-1048,18-1263.19S687.07-132.85-347.72-269.33"/><path class="cls-16" d="M1358.93,2998.73c-595.11,102.19-1198.57,273.5-1022.81-362.16S868.76,1589.29,354,1373.51,690.17-133-343.91-270.25"/><path class="cls-16" d="M1357,3000.62C763.78,3101.72,162.49,3270.92,336.7,2636s530.64-1046.57,17.81-1262.92S693.26-133.08-340.11-271.16"/><path class="cls-17" d="M1355.07,3002.51c-591.33,100-1190.45,267.1-1017.79-367S865.92,1589.65,355,1372.73,696.36-133.2-336.3-272.08"/><path class="cls-18" d="M1353.14,3004.41C763.71,3103.32,166.75,3268.3,337.86,2635s526.65-1045.17,17.62-1262.66S699.45-133.31-332.5-273"/><path class="cls-19" d="M1351.2,3006.3C763.67,3104.11,168.88,3267,338.45,2634.47S863.09,1590,356,1372,702.55-133.43-328.69-273.92"/><path class="cls-20" d="M1349.27,3008.19C763.63,3104.91,171,3265.67,339,2634s522.64-1043.76,17.43-1262.39S705.65-133.55-324.89-274.84"/><path class="cls-19" d="M1347.34,3010.08c-583.74,95.63-1174.2,254.28-1007.73-376.65S860.25,1590.37,357,1371.16s351.79-1504.82-678-1646.91"/><path class="cls-21" d="M1345.41,3012C763.56,3106.51,175.27,3263.05,340.19,2632.9s518.64-1042.35,17.25-1262.13S711.84-133.78-317.28-276.67"/><path class="cls-21" d="M1343.48,3013.86c-580,93.45-1166.08,247.88-1002.7-381.48s516.63-1041.65,17.15-1262,357-1504.28-671.4-1648"/><path class="cls-22" d="M1341.54,3015.76c-578.06,92.35-1162,244.67-1000.18-383.9S856,1590.91,358.41,1370,718-134-309.67-278.51"/><path class="cls-23" d="M1339.61,3017.65c-576.16,91.26-1157.95,241.47-997.67-386.32s512.64-1040.24,17-1261.73,362.23-1503.73-664.76-1649"/><path class="cls-24" d="M1337.68,3019.54c-574.27,90.17-1153.89,238.27-995.15-388.73s510.63-1039.54,16.86-1261.6S724.23-134.25-302.06-280.35"/><path class="cls-24" d="M1335.75,3021.43c-572.38,89.08-1149.83,235.06-992.64-391.14s508.63-1038.84,16.77-1261.47S727.32-134.36-298.25-281.26"/><path class="cls-24" d="M1333.82,3023.32c-570.48,88-1145.77,231.86-990.13-393.56s506.63-1038.13,16.68-1261.33,370-1502.91-654.82-1650.61"/><path class="cls-25" d="M1331.88,3025.21c-568.58,86.9-1141.7,228.66-987.61-396S848.91,1591.81,360.86,1368,733.52-134.6-290.64-283.1"/><path class="cls-25" d="M1330,3027.11c-566.69,85.8-1137.64,225.45-985.09-398.39S847.49,1592,361.35,1367.65,736.61-134.71-286.84-284"/><path class="cls-25" d="M1328,3029c-564.8,84.71-1133.58,222.25-982.58-400.81s500.63-1036,16.39-1260.93S739.71-134.83-283-284.94"/><path class="cls-26" d="M1326.09,3030.89C763.19,3114.51,196.57,3249.94,346,2627.67s498.63-1035.32,16.3-1260.8S742.81-134.95-279.23-285.86"/><path class="cls-27" d="M1324.15,3032.78c-561,82.53-1125.45,215.85-977.54-405.64s496.62-1034.61,16.2-1260.66S745.9-135.06-275.42-286.77"/><path class="cls-26" d="M1322.22,3034.67c-559.11,81.44-1121.39,212.64-975-408.05S841.81,1592.71,363.3,1366.09,749-135.18-271.62-287.69"/><path class="cls-26" d="M1320.29,3036.57C763.07,3116.91,203,3246,347.77,2626.1s492.63-1033.21,16-1260.4S752.1-135.3-267.81-288.61"/><path class="cls-28" d="M1318.36,3038.46C763,3117.7,205.1,3244.69,348.35,2625.57S839,1593.07,364.28,1365.31,755.19-135.41-264-289.53"/><path class="cls-28" d="M1316.43,3040.35c-553.43,78.15-1109.2,203-967.49-415.3s488.62-1031.8,15.82-1260.13S758.29-135.53-260.2-290.45"/><path class="cls-28" d="M1314.49,3042.24c-551.53,77.06-1105.13,199.83-965-417.71s486.62-1031.1,15.73-1260S761.39-135.65-256.4-291.36"/><path class="cls-29" d="M1312.56,3044.13C762.93,3120.1,211.49,3240.76,350.1,2624s484.62-1030.38,15.64-1259.86S764.48-135.76-252.59-292.28"/><path class="cls-30" d="M1310.63,3046c-547.74,74.88-1097,193.43-959.94-422.54S833.3,1593.8,366.23,1363.75,767.58-135.88-248.79-293.2"/><path class="cls-31" d="M1308.7,3047.92c-545.85,73.78-1092.95,190.22-957.43-425s480.62-1029,15.45-1259.6S770.67-136-245-294.12"/><path class="cls-30" d="M1306.77,3049.81c-544,72.69-1088.89,187-954.92-427.38S830.47,1594.16,367.21,1363,773.77-136.11-241.18-295"/><path class="cls-32" d="M1304.83,3051.7c-542,71.6-1084.82,183.81-952.4-429.79s476.62-1027.57,15.26-1259.33S776.87-136.23-237.37-296"/><path class="cls-32" d="M1302.9,3053.59C762.74,3124.1,222.14,3234.2,353,2621.39s474.61-1026.87,15.16-1259.2S780-136.35-233.57-296.87"/><path class="cls-32" d="M1301,3055.48C762.7,3124.9,224.27,3232.89,353.6,2620.86S826.21,1594.7,368.67,1361.8,783.06-136.46-229.76-297.79"/><path class="cls-32" d="M1299,3057.37c-536.38,68.33-1072.64,174.21-944.86-437s470.61-1025.46,15-1258.93,417-1498-595.12-1660.12"/><path class="cls-33" d="M1297.11,3059.27c-534.48,67.23-1068.58,171-942.35-439.45S823.38,1595.06,369.65,1361,789.25-136.7-222.15-299.63"/><path class="cls-34" d="M1295.17,3061.16C762.59,3127.3,230.66,3229,355.35,2619.29s466.61-1024,14.79-1258.66S792.35-136.81-218.35-300.55"/><path class="cls-35" d="M1293.24,3063.05c-530.69,65-1060.45,164.6-937.31-444.28s464.61-1023.35,14.7-1258.54S795.45-136.93-214.54-301.46"/><path class="cls-36" d="M1291.31,3064.94c-528.79,64-1056.39,161.39-934.8-446.69s462.61-1022.65,14.6-1258.41S798.54-137-210.74-302.38"/><path class="cls-37" d="M1289.38,3066.83C762.48,3129.7,237.05,3225,357.1,2617.72s460.6-1021.94,14.5-1258.27S801.64-137.16-206.93-303.3"/><path class="cls-36" d="M1287.45,3068.73c-525,61.77-1048.27,155-929.77-451.53S816.28,1596,372.09,1359.06,804.74-137.28-203.13-304.22"/><path class="cls-38" d="M1285.51,3070.62C762.4,3131.3,241.31,3222.4,358.26,2616.68s456.61-1020.54,14.32-1258S807.83-137.4-199.32-305.14"/><path class="cls-39" d="M1283.58,3072.51c-521.21,59.58-1040.14,148.58-924.74-456.36s454.61-1019.83,14.23-1257.87S810.93-137.51-195.52-306.06"/><path class="cls-39" d="M1281.65,3074.4c-519.32,58.49-1036.08,145.38-922.22-458.77S812,1596.5,373.56,1357.89,814-137.63-191.71-307"/><path class="cls-39" d="M1279.72,3076.29c-517.43,57.4-1032,142.18-919.71-461.18s450.6-1018.43,14-1257.61S817.12-137.75-187.91-307.89"/><path class="cls-40" d="M1277.78,3078.18c-515.52,56.31-1027.95,139-917.19-463.6s448.6-1017.72,13.94-1257.47S820.22-137.86-184.1-308.81"/><path class="cls-41" d="M1275.85,3080.08c-513.63,55.21-1023.89,135.76-914.67-466S807.77,1597,375,1356.72,823.32-138-180.3-309.73"/><path class="cls-41" d="M1273.92,3082c-511.74,54.12-1019.83,132.56-912.16-468.44s444.6-1016.31,13.75-1257.2,450.9-1494.43-552-1667"/><path class="cls-41" d="M1272,3083.86c-509.85,53-1015.77,129.36-909.65-470.85S804.94,1597.4,376,1355.94,829.51-138.21-172.69-311.57"/><path class="cls-42" d="M1270.06,3085.75c-507.95,51.94-1011.71,126.16-907.14-473.26s440.6-1014.91,13.57-1256.94S832.6-138.33-168.88-312.48"/><path class="cls-42" d="M1268.12,3087.64c-506,50.85-1007.64,123-904.61-475.68S802.1,1597.76,377,1355.16,835.7-138.45-165.08-313.4"/><path class="cls-43" d="M1266.19,3089.53C762,3139.29,262.61,3209.29,364.09,2611.44s436.59-1013.5,13.37-1256.67S838.8-138.56-161.27-314.32"/><path class="cls-42" d="M1264.26,3091.43C762,3140.09,264.74,3208,364.67,2610.92S799.26,1598.12,378,1354.38,841.89-138.68-157.46-315.24"/><path class="cls-44" d="M1262.33,3093.32C762,3140.89,266.87,3206.67,365.25,2610.39S797.85,1598.3,378.44,1354,845-138.8-153.66-316.16"/><path class="cls-44" d="M1260.4,3095.21c-498.48,46.48-991.4,110.14-894.56-485.34S796.43,1598.48,378.93,1353.6,848.09-138.91-149.85-317.07"/><path class="cls-44" d="M1258.46,3097.1c-496.58,45.39-987.33,106.94-892-487.75s428.59-1010.69,13-1256.14S851.18-139-146-318"/><path class="cls-45" d="M1256.53,3099c-494.68,44.3-983.27,103.74-889.53-490.17s426.59-1010,12.91-1256,474.37-1492-522.15-1671.73"/><path class="cls-45" d="M1254.6,3100.89c-492.79,43.2-979.21,100.53-887-492.59S792.17,1599,380.39,1352.43s477-1491.69-518.83-1672.26"/><path class="cls-45" d="M1252.67,3102.78c-490.9,42.11-975.15,97.33-884.5-495S790.75,1599.2,380.88,1352,860.47-139.38-134.63-320.75"/><path class="cls-45" d="M1250.74,3104.67c-489,41-971.09,94.13-882-497.42s420.59-1007.87,12.62-1255.6S863.57-139.5-130.83-321.67"/><path class="cls-46" d="M1248.8,3106.56c-487.1,39.92-967,90.93-879.47-499.83s418.59-1007.17,12.53-1255.47S866.67-139.61-127-322.58"/><path class="cls-47" d="M1246.87,3108.45c-485.21,38.83-963,87.73-876.95-502.24S786.5,1599.74,382.35,1350.87,869.76-139.73-123.22-323.5"/><path class="cls-46" d="M1244.94,3110.34c-483.32,37.74-958.9,84.52-874.44-504.66s414.58-1005.76,12.34-1255.2,490-1490.33-502.25-1674.9"/><path class="cls-48" d="M1243,3112.24c-481.42,36.64-954.84,81.31-871.93-507.08S783.66,1600.1,383.32,1350.09,876-140-115.61-325.34"/><path class="cls-48" d="M1241.08,3114.13c-479.53,35.55-950.78,78.11-869.41-509.49S782.24,1600.28,383.81,1349.7,879.05-140.08-111.8-326.26"/><path class="cls-48" d="M1239.14,3116c-477.63,34.46-946.71,74.91-866.89-511.91S780.83,1600.46,384.3,1349.3,882.15-140.2-108-327.17"/><path class="cls-48" d="M1237.21,3117.91c-475.74,33.37-942.65,71.71-864.38-514.32s406.58-1002.95,12-1254.68,500.46-1489.22-489-1677"/><path class="cls-49" d="M1235.28,3119.8c-473.84,32.28-938.58,68.51-861.87-516.73S778,1600.82,385.28,1348.52,888.34-140.43-100.39-329"/><path class="cls-50" d="M1233.35,3121.69C761.4,3152.88,298.83,3187,374,2602.54S776.57,1601,385.77,1348.13,891.44-140.55-96.58-329.93"/><path class="cls-50" d="M1231.41,3123.59C761.36,3153.68,301,3185.69,374.58,2602s400.57-1000.84,11.68-1254.28,508.28-1488.4-479-1678.59"/><path class="cls-50" d="M1229.48,3125.48c-468.16,29-926.39,58.89-854.32-524s398.57-1000.13,11.58-1254.14S897.63-140.78-89-331.77"/><path class="cls-51" d="M1227.55,3127.37c-466.26,27.91-922.33,55.69-851.8-526.4s396.57-999.43,11.48-1254S900.73-140.9-85.17-332.68"/><path class="cls-52" d="M1225.62,3129.26c-464.37,26.82-918.27,52.49-849.29-528.81s394.57-998.73,11.39-1253.88S903.82-141-81.36-333.6"/><path class="cls-53" d="M1223.69,3131.15c-462.48,25.73-914.21,49.29-846.78-531.23s392.57-998,11.3-1253.74S906.92-141.13-77.56-334.52"/><path class="cls-54" d="M1221.75,3133.05c-460.57,24.63-910.14,46.08-844.26-533.65s390.57-997.32,11.21-1253.61S910-141.25-73.75-335.44"/><path class="cls-54" d="M1219.82,3134.94c-458.68,23.54-906.08,42.88-841.74-536.06s388.56-996.62,11.11-1253.48S913.11-141.36-69.95-336.36"/><path class="cls-54" d="M1217.89,3136.83c-456.79,22.45-902,39.68-839.23-538.48s386.56-995.91,11-1253.34S916.21-141.48-66.14-337.28"/><path class="cls-55" d="M1216,3138.72c-454.9,21.36-898,36.48-836.72-540.89s384.57-995.21,10.92-1253.21S919.31-141.6-62.34-338.19"/><path class="cls-56" d="M1214,3140.61c-453,20.26-893.9,33.27-834.21-543.3s382.57-994.51,10.83-1253.08S922.4-141.71-58.53-339.11"/><path class="cls-56" d="M1212.09,3142.5c-451.1,19.17-889.83,30.07-831.68-545.72S761,1603,391.14,1343.84,925.5-141.83-54.73-340"/><path class="cls-56" d="M1210.16,3144.4C761,3162.47,324.39,3171.26,381,2596.26s378.56-993.1,10.64-1252.81,537-1485.4-442.55-1684.4"/><path class="cls-57" d="M1208.23,3146.29c-447.32,17-881.71,23.66-826.66-550.55s376.56-992.4,10.55-1252.68S931.69-142.06-47.12-341.87"/><path class="cls-57" d="M1206.3,3148.18c-445.42,15.89-877.65,20.46-824.14-553s374.56-991.69,10.45-1252.54S934.79-142.18-43.31-342.78"/><path class="cls-58" d="M1204.37,3150.07c-443.53,14.8-873.59,17.26-821.63-555.38s372.56-991,10.35-1252.41S937.89-142.3-39.51-343.7"/><path class="cls-57" d="M1202.43,3152C760.8,3165.67,332.91,3166,383.32,2594.17s370.56-990.29,10.26-1252.28S941-142.41-35.7-344.62"/><path class="cls-59" d="M1200.5,3153.85c-439.73,12.62-865.46,10.86-816.6-560.21s368.56-989.58,10.17-1252.14,550-1484-426-1687"/><path class="cls-59" d="M1198.57,3155.75c-437.84,11.52-861.4,7.64-814.08-562.63s366.55-988.88,10.07-1252S947.18-142.65-28.09-346.46"/><path class="cls-59" d="M1196.64,3157.64c-435.95,10.43-857.34,4.44-811.57-565s364.55-988.18,10-1251.88S950.27-142.76-24.29-347.38"/><path class="cls-60" d="M1194.7,3159.53c-434.05,9.34-853.27,1.24-809.05-567.46s362.56-987.47,9.89-1251.74S953.37-142.88-20.48-348.29"/><path class="cls-60" d="M1192.77,3161.42c-432.15,8.25-849.21-2-806.53-569.87S746.79,1604.78,396,1339.94,956.47-143-16.68-349.21"/><path class="cls-60" d="M1190.84,3163.31c-430.26,7.16-845.15-5.16-804-572.28S745.37,1605,396.51,1339.55,959.56-143.11-12.87-350.13"/><path class="cls-60" d="M1188.91,3165.2c-428.37,6.07-841.09-8.36-801.51-574.7S744,1605.14,397,1339.16,962.66-143.23-9.07-351"/><path class="cls-61" d="M1187,3167.1c-426.47,5-837-11.57-799-577.12s354.55-984.66,9.51-1251.21S965.75-143.35-5.26-352"/><path class="cls-62" d="M1185,3169c-424.57,3.88-833-14.77-796.47-579.54S741.11,1605.5,398,1338.37,968.85-143.46-1.46-352.88"/><path class="cls-61" d="M1183.11,3170.88c-422.68,2.79-828.9-18-794-582S739.7,1605.68,398.47,1338,972-143.58,2.35-353.8"/><path class="cls-61" d="M1181.18,3172.77c-420.79,1.69-824.84-21.18-791.45-584.36S738.28,1605.86,399,1337.59,975-143.7,6.15-354.72"/><path class="cls-63" d="M1179.25,3174.66c-418.89.6-820.78-24.38-788.93-586.78S736.86,1606,399.44,1337.2,978.14-143.81,10-355.64"/><path class="cls-63" d="M1177.32,3176.56c-417-.5-816.72-27.59-786.42-589.2s344.54-981.14,9-1250.55S981.24-143.93,13.76-356.56"/><path class="cls-63" d="M1175.38,3178.45c-415.1-1.59-812.65-30.79-783.9-591.61S734,1606.4,400.42,1336.42,984.33-144,17.57-357.48"/><path class="cls-64" d="M1173.45,3180.34c-413.21-2.68-808.59-34-781.39-594S732.6,1606.58,400.91,1336,987.43-144.16,21.37-358.39"/><path class="cls-65" d="M1171.52,3182.23C760.21,3178.46,367,3145,392.65,2585.79s338.54-979,8.75-1250.15S990.53-144.28,25.18-359.31"/><path class="cls-65" d="M1169.59,3184.12c-409.42-4.86-800.47-40.39-776.36-598.85s336.54-978.33,8.66-1250S993.62-144.4,29-360.23"/><path class="cls-65" d="M1167.66,3186c-407.53-6-796.41-43.6-773.85-601.27s334.54-977.62,8.56-1249.88S996.72-144.51,32.79-361.15"/><path class="cls-66" d="M1165.72,3187.91c-405.62-7-792.34-46.81-771.33-603.69s332.54-976.92,8.47-1249.75,597-1479.1-366.27-1696.54"/><path class="cls-66" d="M1163.79,3189.8c-403.73-8.14-788.28-50-768.81-606.1s330.53-976.22,8.37-1249.62S1002.91-144.75,40.4-363"/><path class="cls-67" d="M1161.86,3191.69c-401.84-9.23-784.22-53.21-766.3-608.52s328.53-975.51,8.28-1249.48S1006-144.86,44.2-363.9"/><path class="cls-68" d="M1159.93,3193.58c-400-10.32-780.16-56.41-763.79-610.93s326.54-974.81,8.19-1249.35S1009.11-145,48-364.82"/><path class="cls-68" d="M1158,3195.47c-398-11.41-776.1-59.61-761.27-613.34S721.26,1608,404.82,1332.91s607.38-1478-353-1698.65"/><path class="cls-68" d="M1156.06,3197.36c-396.15-12.5-772-62.81-758.75-615.76s322.53-973.4,8-1249.08S1015.3-145.21,55.62-366.66"/><path class="cls-69" d="M1154.13,3199.26c-394.26-13.6-768-66-756.24-618.18s320.53-972.7,7.9-1248.95S1018.4-145.33,59.42-367.58"/><path class="cls-70" d="M1152.2,3201.15c-392.37-14.69-763.91-69.23-753.73-620.59s318.53-972,7.81-1248.82,615.21-1477.19-343-1700.23"/><path class="cls-70" d="M1150.27,3203c-390.47-15.78-759.85-72.43-751.21-623s316.52-971.29,7.71-1248.68S1024.59-145.56,67-369.41"/><path class="cls-70" d="M1148.33,3204.93c-388.57-16.87-755.77-75.63-748.69-625.42S714.17,1608.92,407.26,1331,1027.69-145.68,70.84-370.33"/><path class="cls-70" d="M1146.4,3206.82c-386.68-18-751.71-78.83-746.18-627.83s312.53-969.89,7.53-1248.42S1030.78-145.8,74.64-371.25"/><path class="cls-71" d="M1144.47,3208.72c-384.78-19.07-747.65-82-743.66-630.26s310.52-969.17,7.43-1248.28S1033.88-145.91,78.45-372.17"/><path class="cls-72" d="M1142.54,3210.61c-382.89-20.16-743.59-85.24-741.15-632.67s308.52-968.47,7.33-1248.15S1037-146,82.25-373.09"/><path class="cls-71" d="M1140.61,3212.5c-381-21.25-739.53-88.44-738.64-635.09s306.52-967.76,7.24-1248S1040.07-146.15,86.06-374"/><path class="cls-73" d="M1138.67,3214.39c-379.1-22.34-735.46-91.65-736.12-637.5S707.07,1609.83,409.7,1329,1043.17-146.26,89.86-374.92"/><path class="cls-73" d="M1136.74,3216.28c-377.2-23.43-731.4-94.85-733.6-639.91S705.66,1610,410.19,1328.62s636.07-1475-316.52-1704.46"/><path class="cls-73" d="M1134.81,3218.17c-375.31-24.52-727.34-98.05-731.09-642.33s300.52-965.65,7-1247.61S1049.36-146.5,97.47-376.76"/><path class="cls-73" d="M1132.88,3220.07c-373.42-25.62-723.28-101.26-728.58-644.75s298.52-965,6.87-1247.48S1052.46-146.61,101.28-377.68"/><path class="cls-74" d="M1131,3222c-371.52-26.71-719.22-104.46-726.07-647.16s296.52-964.25,6.77-1247.36,643.9-1474.17-306.57-1706"/><path class="cls-75" d="M1129,3223.85c-369.62-27.8-715.15-107.66-723.54-649.58S700,1610.73,412.14,1327.05,1058.65-146.85,108.89-379.51"/><path class="cls-75" d="M1127.08,3225.74c-367.73-28.89-711.09-110.86-721-652s292.51-962.84,6.58-1247.09S1061.75-147,112.69-380.43"/><path class="cls-76" d="M1125.15,3227.63c-365.84-30-707-114.06-718.52-654.4s290.52-962.14,6.49-1247S1064.84-147.08,116.5-381.35"/><path class="cls-77" d="M1123.22,3229.52c-363.94-31.07-703-117.27-716-656.82s288.51-961.43,6.39-1246.82S1067.94-147.2,120.3-382.27"/><path class="cls-76" d="M1121.29,3231.42c-362-32.17-698.91-120.48-713.49-659.24s286.51-960.73,6.3-1246.69S1071-147.31,124.11-383.19"/><path class="cls-76" d="M1119.35,3233.31c-360.15-33.26-694.84-123.68-711-661.65s284.51-960,6.2-1246.56S1074.13-147.43,127.91-384.1"/><path class="cls-78" d="M1117.42,3235.2C759.16,3200.85,426.64,3108.32,409,2571.13s282.51-959.32,6.11-1246.42S1077.23-147.55,131.72-385"/><path class="cls-78" d="M1115.49,3237.09C759.13,3201.65,428.77,3107,409.55,2570.61s280.5-958.62,6-1246.29,664.77-1472-280-1710.26"/><path class="cls-78" d="M1113.56,3239c-354.47-36.53-682.66-133.28-703.43-668.89s278.51-957.92,5.92-1246.16S1083.42-147.78,139.33-386.86"/><path class="cls-79" d="M1111.63,3240.88c-352.58-37.64-678.6-136.49-700.92-671.32s276.51-957.21,5.83-1246,670-1471.44-273.41-1711.32"/><path class="cls-80" d="M1109.69,3242.77C759,3204,435.16,3103.08,411.3,2569S685.8,1612.53,417,1323.15,1089.62-148,146.94-388.69"/><path class="cls-80" d="M1107.76,3244.66c-348.78-39.82-670.47-142.9-695.88-676.14s272.5-955.81,5.64-1245.76S1092.71-148.13,150.74-389.61"/><path class="cls-80" d="M1105.83,3246.55c-346.89-40.91-666.41-146.1-693.37-678.56S683,1612.89,418,1322.37,1095.81-148.25,154.55-390.53"/><path class="cls-81" d="M1103.9,3248.44c-345-42-662.35-149.3-690.86-681s268.5-954.4,5.45-1245.49S1098.9-148.36,158.35-391.45"/><path class="cls-81" d="M1102,3250.33c-343.09-43.09-658.28-152.5-688.33-683.38s266.5-953.7,5.35-1245.36,683-1470.07-256.82-1714"/><path class="cls-81" d="M1100,3252.23c-341.2-44.19-654.22-155.71-685.82-685.81s264.5-953,5.26-1245.22S1105.1-148.6,166-393.29"/><path class="cls-81" d="M1098.1,3254.12c-339.31-45.28-650.16-158.91-683.31-688.22s262.5-952.29,5.17-1245.09,688.23-1469.52-250.19-1715"/><path class="cls-82" d="M1096.17,3256c-337.41-46.37-646.1-162.11-680.79-690.64s260.49-951.58,5.07-1244.95S1111.29-148.83,173.57-395.12"/><path class="cls-82" d="M1094.24,3257.9c-335.52-47.46-642-165.31-678.28-693.05S674.45,1614,420.93,1320,1114.39-148.95,177.38-396"/><path class="cls-83" d="M1092.3,3259.79c-333.62-48.55-638-168.52-675.76-695.46S673,1614.15,421.42,1319.64,1117.48-149.06,181.18-397"/><path class="cls-84" d="M1090.37,3261.68C758.64,3212,456.46,3090,417.12,2563.8s254.5-949.47,4.79-1244.55S1120.58-149.18,185-397.88"/><path class="cls-84" d="M1088.44,3263.58c-329.83-50.74-629.85-174.93-670.73-700.3s252.49-948.77,4.69-1244.42S1123.68-149.3,188.79-398.8"/><path class="cls-84" d="M1086.51,3265.47c-327.94-51.83-625.79-178.13-668.22-702.71s250.49-948.07,4.6-1244.29S1126.77-149.41,192.6-399.71"/><path class="cls-84" d="M1084.58,3267.36c-326-52.92-621.73-181.33-665.71-705.13s248.49-947.36,4.51-1244.15,706.49-1467.61-227-1718.71"/><path class="cls-85" d="M1082.64,3269.25c-324.15-54-617.66-184.53-663.19-707.54s246.49-946.66,4.42-1244S1133-149.65,200.21-401.55"/><path class="cls-86" d="M1080.71,3271.14C758.46,3216,467.11,3083.41,420,2561.19s244.49-946,4.31-1243.89S1136.06-149.76,204-402.47"/><path class="cls-85" d="M1078.78,3273c-320.36-56.2-609.54-190.94-658.16-712.38s242.49-945.25,4.22-1243.75,714.32-1466.79-217-1720.3"/><path class="cls-87" d="M1076.85,3274.93c-318.47-57.3-605.48-194.15-655.65-714.79s240.49-944.55,4.13-1243.63S1142.26-150,211.62-404.3"/><path class="cls-87" d="M1074.92,3276.82c-316.57-58.39-601.42-197.35-653.13-717.2s238.48-943.85,4-1243.5S1145.35-150.11,215.43-405.22"/><path class="cls-87" d="M1073,3278.71c-314.67-59.48-597.35-200.55-650.61-719.62S658.85,1616,426.31,1315.73s722.14-1466-207.08-1721.87"/><path class="cls-87" d="M1071.05,3280.6c-312.78-60.57-593.29-203.75-648.1-722s234.48-942.44,3.85-1243.23S1151.55-150.35,223-407.06"/><path class="cls-88" d="M1069.12,3282.49c-310.89-61.66-589.23-206.95-645.59-724.44S656,1616.31,427.28,1315,1154.64-150.46,226.84-408"/><path class="cls-88" d="M1067.19,3284.39c-309-62.76-585.17-210.16-643.07-726.87s230.48-941,3.65-1243,730-1465.14-197.12-1723.46"/><path class="cls-88" d="M1065.26,3286.28C758.16,3222.43,484.15,3072.92,424.7,2557s228.48-940.33,3.56-1242.83,732.58-1464.87-193.81-1724"/><path class="cls-89" d="M1063.32,3288.17c-305.2-64.94-577-216.56-638-731.69s226.48-939.63,3.47-1242.7S1163.93-150.81,238.26-410.73"/><path class="cls-90" d="M1061.39,3290.06c-303.31-66-573-219.77-635.52-734.11S650.34,1617,429.24,1313.39,1167-150.93,242.06-411.65"/><path class="cls-89" d="M1059.46,3292c-301.41-67.12-568.91-223-633-736.52S648.92,1617.21,429.73,1313,1170.12-151,245.87-412.57"/><path class="cls-89" d="M1057.53,3293.84C758,3225.63,492.68,3067.67,427,2554.91s220.48-937.52,3.18-1242.3,743-1463.77-180.54-1726.1"/><path class="cls-91" d="M1055.59,3295.74c-297.62-69.31-560.78-229.38-628-741.36s218.48-936.81,3.09-1242.16S1176.32-151.28,253.48-414.4"/><path class="cls-91" d="M1053.66,3297.63c-295.72-70.4-556.72-232.58-625.46-743.77s216.47-936.11,3-1242S1179.41-151.4,257.28-415.32"/><path class="cls-91" d="M1051.73,3299.52C757.9,3228,499.07,3063.74,428.78,2553.33s214.47-935.4,2.9-1241.89S1182.51-151.51,261.09-416.24"/><path class="cls-92" d="M1049.8,3301.41c-291.94-72.58-548.6-239-620.44-748.6s212.47-934.7,2.81-1241.76S1185.61-151.63,264.89-417.16"/><path class="cls-93" d="M1047.87,3303.3c-290-73.67-544.54-242.18-617.93-751s210.47-934,2.72-1241.63,756-1462.41-164-1728.74"/><path class="cls-93" d="M1045.93,3305.2c-288.14-74.77-540.47-245.4-615.4-753.44S639,1618.47,433.15,1310.27,1191.8-151.86,272.5-419"/><path class="cls-93" d="M1044,3307.09c-286.25-75.86-536.41-248.6-612.89-755.85s206.47-932.59,2.52-1241.36S1194.9-152,276.31-419.91"/><path class="cls-94" d="M1042.07,3309c-284.36-77-532.35-251.8-610.38-758.26s204.47-931.89,2.43-1241.23S1198-152.1,280.11-420.83"/><path class="cls-94" d="M1040.14,3310.87c-282.46-78-528.29-255-607.86-760.68S634.74,1619,434.61,1309.1,1201.09-152.21,283.92-421.75"/><path class="cls-94" d="M1038.21,3312.76c-280.57-79.14-524.23-258.2-605.35-763.09s200.46-930.48,2.24-1241,769.09-1461-147.38-1731.38"/><path class="cls-94" d="M1036.27,3314.65c-278.67-80.23-520.16-261.4-602.83-765.5s198.46-929.78,2.15-1240.83S1207.28-152.45,291.53-423.59"/><path class="cls-95" d="M1034.34,3316.55c-276.78-81.33-516.1-264.61-600.32-767.93s196.47-929.07,2.06-1240.69S1210.38-152.56,295.33-424.51"/><path class="cls-95" d="M1032.41,3318.44c-274.88-82.42-512-267.81-597.8-770.34s194.46-928.37,1.95-1240.56,776.92-1460.22-137.42-1733"/><path class="cls-96" d="M1030.48,3320.33c-273-83.51-508-271-595.29-772.75s192.46-927.67,1.86-1240.43S1216.57-152.8,302.94-426.34"/><path class="cls-97" d="M1028.55,3322.22c-271.1-84.6-503.92-274.22-592.78-775.17s190.46-927,1.77-1240.29,782.13-1459.67-130.79-1734"/><path class="cls-97" d="M1026.61,3324.11c-269.2-85.69-499.85-277.42-590.25-777.58S624.81,1620.27,438,1306.37,1222.77-153,310.55-428.18"/><path class="cls-97" d="M1024.68,3326c-267.3-86.78-495.79-280.62-587.74-780s186.45-925.56,1.58-1240S1225.86-153.15,314.36-429.1"/><path class="cls-98" d="M1022.75,3327.9C757.34,3240,531,3044.07,437.52,2545.48S622,1620.63,439,1305.58,1229-153.26,318.16-430"/><path class="cls-99" d="M1020.82,3329.79c-263.52-89-487.67-287-582.72-784.83s182.46-924.15,1.4-1239.77S1232.05-153.38,322-430.93"/><path class="cls-99" d="M1018.89,3331.68c-261.62-90.06-483.61-290.23-580.2-787.24S619.14,1621,440,1304.8,1235.15-153.5,325.77-431.85"/><path class="cls-99" d="M1017,3333.57c-259.72-91.15-479.54-293.43-577.68-789.66s178.45-922.74,1.2-1239.5,797.78-1458-110.89-1737.18"/><path class="cls-99" d="M1015,3335.46c-257.83-92.24-475.48-296.64-575.17-792.07S616.3,1621.35,441,1304,1241.34-153.73,333.38-433.69"/><path class="cls-100" d="M1013.09,3337.35C757.15,3244,541.67,3037.51,440.44,2542.87s174.44-921.34,1-1239.24,803-1457.48-104.26-1738.24"/><path class="cls-100" d="M1011.16,3339.25c-254-94.43-467.36-303.05-570.14-796.91s172.45-920.63.92-1239.1S1247.54-154,341-435.52"/><path class="cls-100" d="M1009.22,3341.14c-252.14-95.53-463.29-306.25-567.62-799.32s170.45-919.93.83-1239S1250.63-154.08,344.8-436.44"/><path class="cls-101" d="M1007.29,3343C757,3246.41,548.06,3033.58,442.18,2541.29s168.45-919.22.73-1238.83S1253.73-154.2,348.6-437.36"/><path class="cls-101" d="M1005.36,3344.92C757,3247.21,550.19,3032.27,442.77,2540.77s166.44-918.52.63-1238.7,813.43-1456.38-91-1740.35"/><path class="cls-101" d="M1003.43,3346.81C757,3248,552.32,3031,443.35,2540.25s164.44-917.82.54-1238.57,816-1456.11-87.68-1740.88"/><path class="cls-101" d="M1001.5,3348.71c-244.57-99.9-447-319.06-557.57-809s162.44-917.11.45-1238.43S1263-154.55,360-440.11"/><path class="cls-102" d="M999.56,3350.6c-242.67-101-443-322.27-555-811.4s160.45-916.41.36-1238.3S1266.12-154.66,363.82-441"/><path class="cls-102" d="M997.63,3352.49C756.86,3250.41,558.71,3027,445.1,2538.68s158.44-915.71.26-1238.17S1269.21-154.78,367.63-441.95"/><path class="cls-102" d="M995.7,3354.38c-238.88-103.17-434.86-328.67-550-816.23s156.44-915,.16-1238,826.47-1455-74.41-1743"/><path class="cls-103" d="M993.77,3356.27C756.78,3252,563,3024.4,446.26,2537.63s154.44-914.3.07-1237.9S1275.41-155,375.24-443.79"/><path class="cls-103" d="M991.84,3358.16c-235.1-105.35-426.74-335.07-545-821s152.43-913.6,0-1237.77S1278.5-155.13,379-444.71"/><path class="cls-103" d="M989.9,3360.06c-233.19-106.45-422.67-338.28-542.47-823.48s150.43-912.89-.12-1237.63S1281.6-155.25,382.85-445.62"/><path class="cls-103" d="M988,3362c-231.3-107.54-418.61-341.48-540-825.89s148.44-912.19-.21-1237.5,836.9-1453.92-61.15-1745.1"/><path class="cls-104" d="M986,3363.84c-229.41-108.63-414.55-344.68-537.45-828.3s146.44-911.49-.3-1237.37,839.5-1453.65-57.83-1745.63"/><path class="cls-104" d="M984.11,3365.73C756.6,3256,573.62,3017.84,449.18,2535s144.43-910.78-.4-1237.23S1290.89-155.6,394.26-448.38"/><path class="cls-104" d="M982.18,3367.62c-225.62-110.81-406.43-351.09-532.42-833.13s142.43-910.08-.5-1237.1S1294-155.71,398.07-449.3"/><path class="cls-105" d="M980.24,3369.51c-223.72-111.9-402.36-354.29-529.9-835.54s140.43-909.38-.59-1237S1297.08-155.83,401.87-450.22"/><path class="cls-105" d="M978.31,3371.41c-221.83-113-398.3-357.5-527.38-838s138.42-908.67-.69-1236.83S1300.18-155.95,405.68-451.13"/><path class="cls-105" d="M976.38,3373.3c-219.93-114.09-394.23-360.7-524.87-840.38s136.43-908-.78-1236.7S1303.27-156.06,409.48-452"/><path class="cls-105" d="M974.45,3375.19c-218-115.19-390.17-363.9-522.36-842.79s134.43-907.26-.87-1236.57,855.15-1452-37.93-1748.8"/><path class="cls-106" d="M972.52,3377.08C756.37,3260.8,586.41,3010,452.67,2531.87s132.43-906.55-1-1236.43S1309.47-156.3,417.09-453.89"/><path class="cls-106" d="M970.58,3379c-214.25-117.37-382-370.31-517.32-847.62S583.68,1625.5,452.19,1295,1312.56-156.41,420.9-454.81"/><path class="cls-106" d="M968.65,3380.87c-212.35-118.47-378-373.52-514.81-850s128.42-905.15-1.16-1236.18,863-1451.18-28-1750.37"/><path class="cls-106" d="M966.72,3382.76C756.26,3263.2,592.8,3006,454.42,2530.3s126.43-904.44-1.25-1236,865.59-1450.91-24.66-1750.9"/><path class="cls-107" d="M964.79,3384.65C756.22,3264,594.93,3004.73,455,2529.78S579.43,1626,453.66,1293.87,1321.85-156.76,432.31-457.56"/><path class="cls-107" d="M962.85,3386.54c-206.66-121.74-365.79-383.12-507.26-857.29s122.42-903-1.44-1235.77,870.8-1450.36-18-1752"/><path class="cls-107" d="M960.92,3388.43c-204.77-122.83-361.73-386.32-504.75-859.7s120.42-902.33-1.53-1235.64S1328.05-157,439.92-459.4"/><path class="cls-108" d="M959,3390.32C756.11,3266.4,601.32,3000.8,456.75,2528.21s118.42-901.63-1.63-1235.51,876-1449.81-11.39-1753"/><path class="cls-108" d="M957.06,3392.22c-201-125-353.61-392.73-499.72-864.54s116.41-900.92-1.73-1235.37,878.63-1449.54-8.07-1753.54"/><path class="cls-108" d="M955.13,3394.11C756,3268,605.58,2998.17,457.92,2527.16s114.42-900.22-1.82-1235.24,881.24-1449.27-4.76-1754.07"/><path class="cls-108" d="M953.19,3396C756,3268.8,607.71,2996.86,458.5,2526.64s112.42-899.52-1.91-1235.11,883.84-1449-1.44-1754.6"/><path class="cls-109" d="M951.26,3397.89C756,3269.6,609.84,2995.55,459.08,2526.11s110.42-898.81-2-1235S1343.53-157.58,459-464"/><path class="cls-109" d="M949.33,3399.78C755.93,3270.4,612,2994.24,459.67,2525.59s108.41-898.11-2.1-1234.84S1346.63-157.7,462.76-464.91"/><path class="cls-109" d="M947.4,3401.67c-191.51-130.47-333.3-408.74-487.15-876.6s106.41-897.41-2.19-1234.71,891.66-1448.17,8.5-1756.18"/><path class="cls-110" d="M945.47,3403.57c-189.62-131.57-329.24-412-484.64-879s104.41-896.7-2.29-1234.57,894.28-1447.9,11.83-1756.71"/><path class="cls-110" d="M943.53,3405.46C755.81,3272.8,618.36,2990.31,461.42,2524S563.83,1628,459,1289.58,1355.92-158,474.17-467.66"/><path class="cls-110" d="M941.6,3407.35C755.78,3273.6,620.49,2989,462,2523.5s100.41-895.3-2.48-1234.31S1359-158.16,478-468.58"/><path class="cls-110" d="M939.67,3409.24c-183.93-134.85-317-421.56-477.09-886.27S561,1628.38,460,1288.8s902.1-1447.08,21.77-1758.3"/><path class="cls-111" d="M937.74,3411.13c-182-135.94-313-424.76-474.58-888.68s96.41-893.89-2.66-1234S1365.2-158.4,485.59-470.42"/><path class="cls-111" d="M935.81,3413c-180.15-137-308.93-428-472.06-891.1S558.15,1628.74,461,1288,1368.3-158.51,489.39-471.33"/><path class="cls-111" d="M933.87,3414.92C755.63,3276.79,629,2983.75,464.33,2521.4s92.4-892.48-2.86-1233.77S1371.4-158.63,493.2-472.25"/><path class="cls-112" d="M931.94,3416.81c-176.35-139.22-300.8-434.37-467-895.93s90.41-891.78-3-1233.64,912.53-1446,35-1760.41"/><path class="cls-112" d="M930,3418.7c-174.46-140.31-296.74-437.57-464.51-898.34s88.4-891.08-3.05-1233.51S1377.59-158.86,500.81-474.09"/><path class="cls-112" d="M928.08,3420.59c-172.56-141.4-292.68-440.77-462-900.76s86.4-890.37-3.14-1233.37S1380.69-159,504.61-475"/><path class="cls-112" d="M926.14,3422.48c-170.66-142.49-288.61-444-459.48-903.17s84.4-889.67-3.23-1233.24,920.35-1445.17,45-1762"/><path class="cls-113" d="M924.21,3424.38c-168.77-143.59-284.55-447.19-457-905.59s82.4-889-3.32-1233.11,923-1444.89,48.3-1762.52"/><path class="cls-113" d="M922.28,3426.27c-166.88-144.68-280.49-450.39-454.45-908s80.39-888.26-3.42-1233S1390-159.33,516-477.76"/><path class="cls-113" d="M920.35,3428.16c-165-145.77-276.43-453.59-451.94-910.42s78.4-887.56-3.52-1232.84S1393.07-159.45,519.83-478.68"/><path class="cls-114" d="M918.42,3430.05C755.33,3283.19,646.05,2973.26,469,2517.21s76.4-886.85-3.61-1232.7S1396.17-159.56,523.64-479.6"/><path class="cls-115" d="M916.48,3431.94c-161.19-148-268.3-460-446.91-915.25s74.4-886.15-3.7-1232.58,933.4-1443.79,61.57-1764.63"/><path class="cls-115" d="M914.55,3433.83c-159.29-149-264.24-463.19-444.39-917.66s72.39-885.45-3.8-1232.45,936-1443.52,64.89-1765.15"/><path class="cls-115" d="M912.62,3435.73c-157.4-150.14-260.18-466.4-441.88-920.09s70.39-884.74-3.89-1232.31,938.61-1443.24,68.2-1765.68"/><path class="cls-116" d="M910.69,3437.62c-155.51-151.23-256.12-469.6-439.37-922.5s68.39-884-4-1232.18S1408.56-160,538.86-483.27"/><path class="cls-116" d="M908.76,3439.51C755.14,3287.19,656.7,2966.7,471.91,2514.6s66.39-883.34-4.09-1232,943.83-1442.7,74.84-1766.74"/><path class="cls-116" d="M906.82,3441.4c-151.71-153.41-248-476-434.33-927.33s64.39-882.63-4.18-1231.91S1414.75-160.26,546.47-485.11"/><path class="cls-116" d="M904.89,3443.29C755.07,3288.78,661,2964.08,473.07,2513.55s62.39-881.93-4.27-1231.78S1417.85-160.38,550.27-486"/><path class="cls-117" d="M903,3445.19C755,3289.58,663.09,2962.77,473.65,2513S534,1631.8,469.29,1281.38,1420.94-160.5,554.08-486.94"/><path class="cls-117" d="M901,3447.08c-146-156.7-235.81-485.62-426.79-934.58S532.62,1632,469.78,1281,1424-160.61,557.88-487.86"/><path class="cls-118" d="M899.1,3449C755,3291.18,667.35,2960.15,474.82,2512s56.38-879.82-4.55-1231.38S1427.13-160.73,561.69-488.78"/><path class="cls-119" d="M897.16,3450.86c-142.24-158.88-227.68-492-421.76-939.4s54.39-879.12-4.65-1231.25S1430.23-160.85,565.49-489.7"/><path class="cls-119" d="M895.23,3452.75c-140.35-160-223.62-495.22-419.24-941.82s52.38-878.41-4.75-1231.11S1433.33-161,569.3-490.62"/><path class="cls-119" d="M893.3,3454.64c-138.45-161.06-219.56-498.43-416.73-944.23s50.38-877.71-4.84-1231,964.69-1440.51,101.37-1771"/><path class="cls-119" d="M891.37,3456.54c-136.56-162.16-215.49-501.64-414.22-946.65s48.38-877-4.93-1230.85S1439.52-161.2,576.91-492.45"/><path class="cls-120" d="M889.44,3458.43C754.77,3295.18,678,2953.59,477.73,2509.36s46.38-876.3-5-1230.71,969.91-1440,108-1772"/><path class="cls-120" d="M887.5,3460.32c-132.77-164.34-207.36-508-409.18-951.48s44.37-875.6-5.12-1230.58S1445.71-161.43,584.52-494.29"/><path class="cls-120" d="M885.57,3462.21C754.7,3296.78,682.27,2951,478.9,2508.32s42.38-874.9-5.21-1230.45S1448.81-161.55,588.32-495.21"/><path class="cls-120" d="M883.64,3464.1c-129-166.52-199.24-514.44-404.16-956.31s40.38-874.19-5.31-1230.31,977.74-1439.14,118-1773.61"/><path class="cls-121" d="M881.71,3466c-127.09-167.61-195.18-517.64-401.65-958.72s38.38-873.49-5.4-1230.18S1455-161.78,595.93-497"/><path class="cls-121" d="M879.77,3467.89C754.58,3299.18,688.66,2947,480.65,2506.75s36.37-872.79-5.5-1230S1458.1-161.9,599.74-498"/><path class="cls-121" d="M877.84,3469.78C754.55,3300,690.79,2945.72,481.23,2506.22s34.37-872.08-5.59-1229.91S1461.2-162,603.54-498.88"/><path class="cls-122" d="M875.91,3471.67c-121.4-170.89-183-527.26-394.1-966s32.37-871.38-5.68-1229.78S1464.29-162.13,607.35-499.8"/><path class="cls-122" d="M874,3473.56c-119.51-172-178.93-530.46-391.58-968.39s30.37-870.67-5.78-1229.64S1467.39-162.25,611.15-500.72"/><path class="cls-122" d="M872.05,3475.45C754.44,3302.37,697.18,2941.79,483,2504.65s28.37-870-5.88-1229.51S1470.49-162.36,615-501.63"/><path class="cls-122" d="M870.11,3477.35c-115.71-174.18-170.8-536.87-386.55-973.22s26.37-869.27-6-1229.38,996-1437.23,141.17-1777.3"/><path class="cls-123" d="M868.18,3479.24c-113.82-175.27-166.74-540.07-384-975.64s24.37-868.56-6.06-1229.24,998.6-1437,144.49-1777.83"/><path class="cls-123" d="M866.25,3481.13c-111.93-176.36-162.68-543.27-381.52-978.05s22.36-867.86-6.16-1229.11S1479.78-162.71,626.37-504.39"/><path class="cls-123" d="M864.32,3483c-110-177.45-158.62-546.47-379-980.46s20.36-867.16-6.25-1229S1482.87-162.83,630.18-505.31"/><path class="cls-124" d="M862.39,3484.91C754.25,3306.37,707.83,2935.23,485.89,2502s18.37-866.45-6.34-1228.85S1486-162.95,634-506.23"/><path class="cls-124" d="M860.45,3486.8c-106.24-179.63-150.49-552.88-374-985.29s16.36-865.75-6.44-1228.72,1009-1435.85,157.75-1779.93"/><path class="cls-124" d="M858.52,3488.7C754.18,3308,712.09,2932.61,487.06,2501s14.36-865-6.54-1228.59S1492.16-163.18,641.59-508.06"/><path class="cls-124" d="M856.59,3490.59c-102.45-181.82-142.37-559.29-369-990.13S500,1636.12,481,1272,1495.26-163.3,645.4-509"/><path class="cls-125" d="M854.66,3492.48C754.1,3309.57,716.35,2930,488.22,2499.94s10.36-863.64-6.72-1228.32S1498.35-163.41,649.2-509.9"/><path class="cls-125" d="M852.73,3494.37c-98.67-184-134.25-565.69-363.92-994.95s8.35-862.94-6.82-1228.19,1019.46-1434.76,171-1782"/><path class="cls-125" d="M850.79,3496.26c-96.76-185.09-130.18-568.89-361.4-997.37s6.36-862.23-6.91-1228S1504.55-163.65,656.81-511.74"/><path class="cls-126" d="M848.86,3498.15C754,3312,722.74,2926.06,490,2498.37s4.36-861.53-7-1227.92S1507.64-163.76,660.62-512.65"/><path class="cls-126" d="M846.93,3500.05c-93-187.28-122.06-575.31-356.37-1002.2s2.35-860.83-7.11-1227.79,1027.29-1433.94,181-1783.63"/><path class="cls-126" d="M845,3501.94c-91.09-188.37-118-578.51-353.86-1004.62s.35-860.12-7.2-1227.65S1513.84-164,668.23-514.49"/><path class="cls-126" d="M843.07,3503.83c-89.19-189.46-113.94-581.71-351.35-1007s-1.65-859.42-7.29-1227.52S1516.93-164.11,672-515.41"/><path class="cls-127" d="M841.13,3505.72c-87.29-190.55-109.87-584.91-348.83-1009.44s-3.64-858.72-7.38-1227.39S1520-164.23,675.84-516.33"/><path class="cls-127" d="M839.2,3507.61C753.8,3316,733.39,2919.5,492.89,2495.75s-5.65-858-7.48-1227.25S1523.13-164.35,679.64-517.24"/><path class="cls-127" d="M837.27,3509.5c-83.5-192.74-101.75-591.31-343.8-1014.27s-7.65-857.31-7.57-1227.12S1526.22-164.46,683.45-518.16"/><path class="cls-127" d="M835.34,3511.4c-81.61-193.84-97.69-594.52-341.29-1016.69s-9.65-856.61-7.67-1227S1529.32-164.58,687.25-519.08"/><path class="cls-128" d="M833.4,3513.29c-79.71-194.93-93.62-597.72-338.77-1019.11s-11.65-855.9-7.76-1226.85S1532.42-164.7,691.06-520"/><path class="cls-129" d="M831.47,3515.18c-77.82-196-89.56-600.93-336.25-1021.52s-13.66-855.2-7.86-1226.72S1535.51-164.81,694.86-520.92"/><path class="cls-129" d="M829.54,3517.07C753.62,3320,744,2912.94,495.8,2493.13s-15.65-854.49-7.95-1226.58S1538.61-164.93,698.67-521.84"/><path class="cls-130" d="M827.61,3519c-74-198.2-81.44-607.33-331.23-1026.35s-17.65-853.79-8-1226.45S1541.71-165,702.47-522.75"/><path class="cls-130" d="M825.68,3520.86C753.54,3321.56,748.3,2910.32,497,2492.09S477.31,1639,488.83,1265.77,1544.8-165.16,706.28-523.67"/><path class="cls-130" d="M823.74,3522.75C753.51,3322.36,750.43,2909,497.55,2491.56s-21.66-852.38-8.23-1226.18S1547.9-165.28,710.08-524.59"/><path class="cls-130" d="M821.81,3524.64C753.47,3323.16,752.56,2907.7,498.13,2491s-23.66-851.68-8.33-1226S1551-165.4,713.89-525.51"/><path class="cls-131" d="M819.88,3526.53c-66.45-202.57-65.19-620.14-321.17-1036s-25.66-851-8.42-1225.92,1063.8-1430.11,227.4-1791"/><path class="cls-131" d="M818,3528.42C753.39,3324.76,756.82,2905.08,499.3,2490s-27.66-850.27-8.52-1225.78S1557.19-165.63,721.5-527.34"/><path class="cls-131" d="M816,3530.31C753.36,3325.56,759,2903.76,499.88,2489.47s-29.66-849.57-8.61-1225.65,1069-1429.57,234-1792.08"/><path class="cls-132" d="M814.08,3532.21c-60.76-205.85-53-629.76-313.62-1043.26s-31.66-848.87-8.7-1225.52S1563.38-165.86,729.11-529.18"/><path class="cls-133" d="M812.15,3534.1c-58.87-206.94-48.94-633-311.1-1045.68s-33.67-848.16-8.8-1225.38S1566.48-166,732.91-530.1"/><path class="cls-133" d="M810.22,3536c-57-208-44.88-636.16-308.59-1048.09s-35.67-847.46-8.9-1225.25S1569.57-166.1,736.72-531"/><path class="cls-133" d="M808.29,3537.88c-55.08-209.12-40.82-639.36-306.08-1050.5s-37.67-846.75-9-1225.13S1572.67-166.21,740.52-531.94"/><path class="cls-134" d="M806.36,3539.77c-53.19-210.21-36.76-642.56-303.57-1052.92s-39.66-846-9.08-1225S1575.77-166.33,744.33-532.85"/><path class="cls-134" d="M804.42,3541.66c-51.29-211.3-32.68-645.76-301-1055.33S461.71,1641,494.2,1261.47,1578.86-166.45,748.13-533.77"/><path class="cls-134" d="M802.49,3543.56c-49.39-212.41-28.62-649-298.53-1057.75s-43.67-844.64-9.27-1224.73S1582-166.56,751.94-534.69"/><path class="cls-134" d="M800.56,3545.45c-47.5-213.5-24.56-652.18-296-1060.17s-45.67-843.93-9.36-1224.59S1585.06-166.68,755.74-535.61"/><path class="cls-135" d="M798.63,3547.34C753,3332.75,778.13,2892,505.12,2484.76s-47.67-843.23-9.45-1224.46S1588.15-166.8,759.55-536.53"/><path class="cls-135" d="M796.7,3549.23c-43.72-215.68-16.44-658.58-291-1065S456,1641.71,496.15,1259.91,1591.25-166.91,763.35-537.45"/><path class="cls-135" d="M794.76,3551.12C753,3334.35,782.39,2889.34,506.29,2483.71s-51.67-841.82-9.65-1224.19S1594.35-167,767.16-538.36"/><path class="cls-136" d="M792.83,3553c-39.92-217.87-8.31-665-286-1069.83s-53.67-841.12-9.74-1224.06S1597.44-167.15,771-539.28"/><path class="cls-136" d="M790.9,3554.91c-38-219-4.25-668.19-283.44-1072.24s-55.68-840.42-9.84-1223.93S1600.54-167.26,774.77-540.2"/><path class="cls-136" d="M789,3556.8c-36.14-220.05-.19-671.39-280.93-1074.66s-57.68-839.71-9.93-1223.79S1603.64-167.38,778.57-541.12"/><path class="cls-136" d="M787,3558.69c-34.23-221.14,3.88-674.6-278.41-1077.07s-59.68-839-10-1223.66S1606.73-167.5,782.38-542"/><path class="cls-137" d="M785.1,3560.58c-32.34-222.23,7.94-677.8-275.9-1079.48s-61.68-838.31-10.12-1223.53S1609.83-167.61,786.18-542.95"/><path class="cls-137" d="M783.17,3562.47c-30.45-223.32,12-681-273.38-1081.9S446.11,1643,499.57,1257.18,1612.93-167.73,790-543.87"/><path class="cls-137" d="M781.24,3564.37C752.69,3340,797.3,2880.16,510.37,2480.05s-65.68-836.9-10.31-1223.26S1616-167.85,793.79-544.79"/><path class="cls-138" d="M779.31,3566.26C752.65,3340.75,799.43,2878.85,511,2479.52s-67.68-836.19-10.4-1223.12S1619.12-168,797.6-545.71"/><path class="cls-138" d="M777.37,3568.15c-24.76-226.6,24.19-690.61-265.83-1089.15S441.85,1643.51,501,1256,1622.22-168.08,801.4-546.63"/><path class="cls-138" d="M775.44,3570c-22.87-227.69,28.25-693.81-263.32-1091.56s-71.69-834.79-10.59-1222.86S1625.31-168.2,805.21-547.55"/><path class="cls-138" d="M773.51,3571.93c-21-228.78,32.31-697-260.81-1094S439,1643.87,502,1255.23,1628.41-168.31,809-548.46"/><path class="cls-139" d="M771.58,3573.82C752.5,3344,808,2873.6,513.28,2477.43S437.6,1644.05,502.5,1254.84,1631.5-168.43,812.82-549.38"/><path class="cls-139" d="M769.65,3575.72c-17.19-231,40.43-703.43-255.78-1098.81S436.18,1644.23,503,1254.45,1634.6-168.55,816.62-550.3"/><path class="cls-139" d="M767.71,3577.61c-15.28-232.07,44.5-706.63-253.26-1101.23s-79.69-832-11-1222.32S1637.7-168.66,820.43-551.22"/><path class="cls-140" d="M765.78,3579.5C752.39,3346.34,814.34,2869.67,515,2475.86S433.34,1644.59,504,1253.67,1640.79-168.78,824.23-552.14"/><path class="cls-140" d="M763.85,3581.39c-11.5-234.25,52.62-713-248.23-1106s-83.7-830.57-11.16-1222.06S1643.89-168.9,828-553"/><path class="cls-140" d="M761.92,3583.28c-9.61-235.34,56.68-716.23-245.72-1108.47S430.5,1645,505,1252.89,1647-169,831.84-554"/><path class="cls-140" d="M760,3585.18c-7.71-236.44,60.74-719.44-243.21-1110.89s-87.69-829.16-11.35-1221.79S1650.08-169.13,835.65-554.89"/><path class="cls-141" d="M758.05,3587.07c-5.81-237.53,64.81-722.64-240.69-1113.3s-89.69-828.46-11.44-1221.66S1653.18-169.25,839.45-555.81"/><path class="cls-141" d="M756.12,3589C752.2,3350.34,825,2863.11,518,2473.24s-91.7-827.75-11.54-1221.52S1656.28-169.36,843.26-556.73"/><path class="cls-141" d="M754.19,3590.85c-2-239.71,72.93-729-235.66-1118.13s-93.7-827-11.63-1221.4,1152.47-1420.8,340.16-1809"/><path class="cls-141" d="M752.26,3592.74c-.13-240.8,77-732.25-233.15-1120.54s-95.7-826.35-11.72-1221.27S1662.47-169.6,850.87-558.56"/><path class="cls-142" d="M750.33,3594.63c1.76-241.89,81-735.45-230.64-1123S422,1646,507.88,1250.54s1157.69-1420.25,346.79-1810"/><path class="cls-142" d="M748.39,3596.53c3.66-243,85.12-738.66-228.11-1125.38s-99.7-824.94-11.92-1221,1160.3-1420,350.12-1810.55"/><path class="cls-142" d="M746.46,3598.42c5.56-244.08,89.18-741.86-225.6-1127.79s-101.7-824.24-12-1220.87S1671.76-169.95,862.28-561.32"/><path class="cls-143" d="M744.53,3600.31c7.45-245.17,93.24-745.06-223.09-1130.21s-103.7-823.53-12.1-1220.73S1674.86-170.06,866.09-562.24"/><path class="cls-143" d="M742.6,3602.2c9.34-246.26,97.3-748.26-220.57-1132.62S416.32,1646.75,509.83,1249,1678-170.18,869.89-563.16"/><path class="cls-143" d="M740.66,3604.09c11.24-247.35,101.37-751.47-218-1135S414.9,1646.93,510.32,1248.59,1681.05-170.3,873.7-564.07"/><path class="cls-143" d="M738.73,3606c13.14-248.44,105.43-754.67-215.54-1137.45S413.48,1647.11,510.81,1248.2,1684.15-170.41,877.5-565"/><path class="cls-144" d="M736.8,3607.88c15-249.54,109.49-757.88-213-1139.87s-111.7-820.72-12.47-1220.2,1175.94-1418.34,370-1813.72"/><path class="cls-144" d="M734.87,3609.77c16.92-250.63,113.55-761.08-210.51-1142.29s-113.71-820-12.58-1220.06S1690.34-170.65,885.11-566.83"/><path class="cls-144" d="M732.94,3611.66c18.82-251.73,117.61-764.28-208-1144.7S409.23,1647.65,512.27,1247,1693.43-170.76,888.92-567.75"/><path class="cls-145" d="M731,3613.55c20.72-252.82,121.68-767.48-205.48-1147.11s-117.71-818.61-12.76-1219.8,1183.77-1417.52,380-1815.3"/><path class="cls-145" d="M729.07,3615.44c22.61-253.91,125.74-770.68-203-1149.53S406.39,1648,513.25,1246.25,1699.63-171,896.53-569.58"/><path class="cls-145" d="M727.14,3617.34c24.5-255,129.8-773.89-200.45-1152s-121.72-817.2-13-1219.53,1189-1417,386.59-1816.36"/><path class="cls-145" d="M725.21,3619.23c26.4-256.1,133.86-777.1-197.94-1154.36s-123.71-816.5-13-1219.4S1705.82-171.23,904.14-571.42"/><path class="cls-146" d="M723.28,3621.12c28.29-257.19,137.92-780.3-195.43-1156.78s-125.71-815.79-13.14-1219.26S1708.92-171.35,907.94-572.34"/><path class="cls-146" d="M721.34,3623c30.19-258.28,142-783.5-192.9-1159.19S400.72,1648.73,515.2,1244.69,1712-171.46,911.75-573.26"/><path class="cls-146" d="M719.41,3624.9C751.49,3365.53,865.47,2838.2,529,2463.3s-129.72-814.39-13.33-1219S1715.11-171.58,915.55-574.17"/><path class="cls-147" d="M717.48,3626.79c34-260.46,150.12-789.9-187.88-1164s-131.72-813.68-13.42-1218.86,1202-1415.61,403.18-1819"/><path class="cls-147" d="M715.55,3628.69c35.87-261.56,154.18-793.11-185.36-1166.44s-133.72-813-13.52-1218.73S1721.3-171.81,923.16-576"/><path class="cls-147" d="M713.62,3630.58c37.76-262.65,158.24-796.31-182.85-1168.85s-135.72-812.28-13.61-1218.6S1724.4-171.93,927-576.93"/><path class="cls-147" d="M711.68,3632.47C751.35,3368.73,874,2833,531.35,2461.2s-137.72-811.57-13.71-1218.46S1727.5-172,930.77-577.85"/><path class="cls-148" d="M709.75,3634.36c41.56-264.83,166.37-802.72-177.82-1173.68s-139.72-810.87-13.8-1218.33S1730.59-172.16,934.58-578.76"/><path class="cls-149" d="M707.82,3636.25c43.45-265.92,170.43-805.92-175.3-1176.09S390.79,1650,518.62,1242,1733.69-172.28,938.38-579.68"/><path class="cls-149" d="M705.89,3638.14c45.34-267,174.49-809.12-172.79-1178.51s-143.73-809.46-14-1218.06S1736.79-172.4,942.19-580.6"/><path class="cls-149" d="M704,3640c47.25-268.11,178.56-812.33-170.27-1180.93S388,1650.35,519.6,1241.18,1739.88-172.51,946-581.52"/><path class="cls-150" d="M702,3641.93c49.14-269.2,182.62-815.53-167.76-1183.34s-147.72-808.06-14.17-1217.8S1743-172.63,949.8-582.44"/><path class="cls-151" d="M700.09,3643.82c51-270.3,186.68-818.73-165.24-1185.76s-149.73-807.35-14.27-1217.67,1225.5-1413.14,433-1823.75"/><path class="cls-151" d="M698.16,3645.71c52.92-271.39,190.74-821.93-162.73-1188.17S383.7,1650.89,521.06,1240,1749.17-172.86,957.41-584.27"/><path class="cls-152" d="M696.23,3647.6C751.05,3375.12,891,2822.47,536,2457s-153.73-805.95-14.46-1217.41S1752.27-173,961.21-585.19"/><path class="cls-152" d="M694.29,3649.5c56.72-273.58,198.87-828.35-157.69-1193S380.86,1651.25,522,1239.22,1755.36-173.1,965-586.11"/><path class="cls-152" d="M692.36,3651.39C751,3376.72,895.29,2819.84,537.18,2456s-157.73-804.54-14.65-1217.14S1758.46-173.21,968.82-587"/><path class="cls-152" d="M690.43,3653.28c60.51-275.76,207-834.75-152.67-1197.84S378,1651.61,523,1238.44,1761.56-173.33,972.63-587.95"/><path class="cls-153" d="M688.5,3655.17c62.4-276.85,211-838-150.16-1200.25s-161.73-803.13-14.83-1216.87S1764.65-173.45,976.43-588.86"/><path class="cls-153" d="M686.57,3657.06c64.29-277.94,215.11-841.15-147.64-1202.66S375.19,1652,524,1237.66,1767.75-173.56,980.24-589.78"/><path class="cls-153" d="M684.63,3659c66.19-279,219.18-844.35-145.12-1205.08s-165.74-801.72-15-1216.6S1770.85-173.68,984-590.7"/><path class="cls-154" d="M682.7,3660.85c68.09-280.13,223.24-847.56-142.61-1207.5s-167.74-801-15.12-1216.47,1249-1410.68,462.88-1828.5"/><path class="cls-154" d="M680.77,3662.74c70-281.22,227.3-850.76-140.09-1209.91s-169.74-800.32-15.22-1216.34S1777-173.92,991.65-592.54"/><path class="cls-154" d="M678.84,3664.63c71.87-282.31,231.36-854-137.58-1212.33S369.52,1652.69,526,1236.1,1780.14-174,995.46-593.46"/><path class="cls-154" d="M676.91,3666.52c73.77-283.4,235.42-857.17-135.07-1214.74s-173.74-798.91-15.4-1216.07S1783.23-174.15,999.26-594.37"/><path class="cls-155" d="M675,3668.41C750.64,3383.92,914.46,2808,542.42,2451.26s-175.74-798.21-15.5-1215.94S1786.33-174.27,1003.07-595.29"/><path class="cls-155" d="M673,3670.3c77.56-285.58,243.55-863.57-130-1219.57s-177.75-797.5-15.6-1215.8,1262-1409.31,479.46-1831.14"/><path class="cls-155" d="M671.11,3672.2c79.45-286.68,247.61-866.78-127.52-1222s-179.75-796.8-15.69-1215.67,1264.62-1409,482.78-1831.67"/><path class="cls-155" d="M669.18,3674.09c81.35-287.77,251.67-870-125-1224.4s-181.74-796.1-15.78-1215.54S1795.62-174.62,1014.48-598"/><path class="cls-156" d="M667.25,3676C750.49,3387.12,923,2802.8,544.75,2449.16S361,1653.77,528.88,1233.76,1798.72-174.73,1018.29-599"/><path class="cls-156" d="M665.31,3677.87c85.14-290,259.8-876.38-120-1229.23s-185.75-794.69-16-1215.27S1801.81-174.85,1022.09-599.88"/><path class="cls-156" d="M663.38,3679.76c87-291.05,263.86-879.59-117.46-1231.64s-187.75-794-16.06-1215.14S1804.91-175,1025.9-600.8"/><path class="cls-157" d="M661.45,3681.65c88.93-292.14,267.92-882.79-115-1234.06s-189.75-793.28-16.16-1215S1808-175.08,1029.7-601.72"/><path class="cls-157" d="M659.52,3683.55c90.82-293.24,272-886-112.43-1236.48S355.33,1654.49,530.83,1232.2,1811.1-175.2,1033.51-602.64"/><path class="cls-157" d="M657.58,3685.44c92.72-294.33,276-889.2-109.91-1238.89s-193.75-791.88-16.35-1214.74,1282.88-1407.13,506-1835.37"/><path class="cls-157" d="M655.65,3687.33c94.62-295.42,280.11-892.4-107.4-1241.31s-195.75-791.17-16.44-1214.6S1817.3-175.43,1041.12-604.47"/><path class="cls-158" d="M653.72,3689.22c96.51-296.51,284.17-895.6-104.89-1243.72S351.08,1655,532.3,1231,1820.39-175.55,1044.92-605.39"/><path class="cls-158" d="M651.79,3691.11C750.19,3393.51,940,2792.31,549.42,2445s-199.76-789.77-16.63-1214.34S1823.49-175.67,1048.73-606.31"/><path class="cls-158" d="M649.86,3693c100.29-298.7,292.29-902-99.86-1248.56s-201.76-789.06-16.73-1214.2,1293.31-1406,519.27-1837.48"/><path class="cls-159" d="M647.92,3694.9c102.2-299.79,296.36-905.22-97.34-1251s-203.76-788.36-16.82-1214.07,1295.92-1405.76,522.58-1838"/><path class="cls-159" d="M646,3696.79c104.09-300.88,300.42-908.42-94.82-1253.39s-205.76-787.65-16.92-1213.94S1832.78-176,1060.15-609.07"/><path class="cls-159" d="M644.06,3698.68c106-302,304.48-911.62-92.31-1255.8s-207.76-786.95-17-1213.81S1835.87-176.13,1064-610"/><path class="cls-159" d="M642.13,3700.57c107.87-303.06,308.54-914.82-89.8-1258.21s-209.76-786.25-17.1-1213.68S1839-176.25,1067.76-610.9"/><path class="cls-160" d="M640.2,3702.46c109.77-304.15,312.6-918-87.29-1260.63s-211.76-785.54-17.19-1213.54S1842.07-176.37,1071.56-611.82"/><path class="cls-160" d="M638.26,3704.36c111.67-305.25,316.67-921.23-84.76-1263.05S339.73,1656.48,536.21,1227.9s1309-1404.38,539.16-1840.64"/><path class="cls-160" d="M636.33,3706.25c113.56-306.34,320.73-924.43-82.25-1265.46s-215.77-784.13-17.39-1213.28S1848.26-176.6,1079.17-613.66"/><path class="cls-161" d="M634.4,3708.14c115.46-307.43,324.79-927.63-79.74-1267.88S336.9,1656.84,537.18,1227.12,1851.36-176.72,1083-614.57"/><path class="cls-161" d="M632.47,3710c117.35-308.52,328.86-930.84-77.22-1270.29s-219.77-782.72-17.58-1213S1854.45-176.83,1086.78-615.49"/><path class="cls-161" d="M630.54,3711.92c119.24-309.62,332.92-934-74.71-1272.7s-221.77-782-17.67-1212.88S1857.55-176.95,1090.59-616.41"/><path class="cls-161" d="M628.6,3713.81c121.14-310.71,337-937.24-72.19-1275.12S332.64,1657.38,538.65,1226s1322-1403,555.74-1843.28"/><path class="cls-162" d="M626.67,3715.71c123-311.81,341.05-940.45-69.68-1277.54s-225.77-780.61-17.85-1212.61S1863.74-177.18,1098.2-618.25"/><path class="cls-162" d="M624.74,3717.6C749.67,3404.7,969.85,2774,557.58,2437.65s-227.78-779.91-18-1212.48S1866.84-177.3,1102-619.17"/><path class="cls-162" d="M622.81,3719.49c126.82-314,349.17-946.85-64.65-1282.37s-229.77-779.2-18-1212.34,1329.83-1402.2,565.7-1844.86"/><path class="cls-162" d="M620.88,3721.38C749.6,3406.3,974.11,2771.33,558.74,2436.6S327,1658.1,540.6,1224.39,1873-177.53,1109.61-621"/><path class="cls-163" d="M618.94,3723.27C749.56,3407.1,976.24,2770,559.32,2436.08S325.55,1658.28,541.09,1224s1335-1401.65,572.33-1845.92"/><path class="cls-163" d="M617,3725.17c132.51-317.27,361.36-956.47-57.1-1289.62s-235.78-777.09-18.33-1211.94S1879.23-177.77,1117.22-622.84"/><path class="cls-163" d="M615.08,3727.06c134.4-318.36,365.42-959.67-54.59-1292s-237.78-776.39-18.42-1211.81,1340.25-1401.1,579-1847"/><path class="cls-164" d="M613.15,3729c136.3-319.45,369.48-962.87-52.08-1294.44s-239.78-775.69-18.52-1211.68S1885.42-178,1124.83-624.68"/><path class="cls-164" d="M611.21,3730.84C749.41,3410.3,984.76,2764.77,561.66,2434S319.88,1659,543,1222.44s1345.47-1400.56,585.6-1848"/><path class="cls-164" d="M609.28,3732.73c140.09-321.63,377.61-969.27-47-1299.27s-243.78-774.28-18.71-1211.41S1891.61-178.23,1132.44-626.51"/><path class="cls-164" d="M607.35,3734.62c142-322.72,381.67-972.47-44.53-1301.68S317,1659.36,544,1221.66s1350.69-1400,592.23-1849.09"/><path class="cls-165" d="M605.42,3736.52c143.88-323.82,385.73-975.68-42-1304.11s-247.78-772.87-18.89-1211.14S1897.8-178.47,1140.05-628.35"/><path class="cls-165" d="M603.49,3738.41C749.26,3413.5,993.28,2759.52,564,2431.89s-249.79-772.17-19-1211S1900.9-178.58,1143.86-629.27"/><path class="cls-166" d="M601.55,3740.3c147.67-326,393.86-982.09-37-1308.94S312.79,1659.9,545.49,1220.49,1904-178.7,1147.66-630.18"/><path class="cls-167" d="M599.62,3742.19c149.57-327.09,397.92-985.29-34.47-1311.35S311.37,1660.08,546,1220.1,1907.09-178.82,1151.47-631.1"/><path class="cls-167" d="M597.69,3744.08c151.46-328.18,402-988.49-32-1313.76S310,1660.26,546.46,1219.71,1910.19-178.93,1155.27-632"/><path class="cls-167" d="M595.76,3746c153.35-329.28,406-991.69-29.44-1316.18S308.53,1660.44,547,1219.32,1913.29-179,1159.08-632.94"/><path class="cls-167" d="M593.83,3747.87c155.24-330.38,410.1-994.9-26.93-1318.6s-259.79-768.65-19.46-1210.35S1916.38-179.17,1162.88-633.86"/><path class="cls-168" d="M591.89,3749.76c157.15-331.47,414.17-998.1-24.41-1321S305.69,1660.8,547.93,1218.53,1919.48-179.28,1166.69-634.78"/><path class="cls-168" d="M590,3751.65c159-332.56,418.23-1001.3-21.89-1323.43S304.28,1661,548.42,1218.14,1922.58-179.4,1170.49-635.69"/><path class="cls-168" d="M588,3753.54C749,3419.89,1010.32,2749,568.65,2427.7S302.86,1661.16,548.9,1217.75,1925.67-179.52,1174.3-636.61"/><path class="cls-169" d="M586.1,3755.43c162.83-334.74,426.35-1007.71-16.87-1328.25s-267.79-765.84-19.84-1209.82,1379.38-1397,628.71-1854.89"/><path class="cls-169" d="M584.17,3757.33c164.72-335.84,430.41-1010.92-14.36-1330.68S300,1661.52,549.88,1217s1382-1396.72,632-1855.42"/><path class="cls-169" d="M582.23,3759.22c166.62-336.93,434.48-1014.12-11.83-1333.09s-271.8-764.43-20-1209.55S1935-179.87,1185.71-639.37"/><path class="cls-169" d="M580.3,3761.11c168.51-338,438.54-1017.32-9.32-1335.5s-273.8-763.73-20.12-1209.42S1938.06-180,1189.52-640.28"/><path class="cls-170" d="M578.37,3763c170.41-339.11,442.6-1020.52-6.81-1337.92s-275.79-763-20.21-1209.28,1389.81-1395.9,642-1857"/><path class="cls-170" d="M576.44,3764.89c172.3-340.2,446.66-1023.72-4.29-1340.33s-277.8-762.32-20.31-1209.15S1944.25-180.22,1197.13-642.12"/><path class="cls-170" d="M574.51,3766.78C748.7,3425.49,1025.23,2739.86,572.73,2424s-279.8-761.62-20.41-1209S1947.35-180.33,1200.93-643"/><path class="cls-170" d="M572.57,3768.68c176.09-342.39,454.79-1030.14.74-1345.17s-281.8-760.91-20.5-1208.88S1950.45-180.45,1204.74-644"/><path class="cls-171" d="M570.64,3770.57c178-343.48,458.85-1033.34,3.25-1347.58s-283.8-760.21-20.59-1208.75S1953.54-180.57,1208.54-644.88"/><path class="cls-172" d="M568.71,3772.46c179.88-344.57,462.91-1036.54,5.77-1350S288.67,1663,553.79,1213.85,1956.64-180.68,1212.35-645.79"/><path class="cls-172" d="M566.78,3774.35c181.77-345.66,467-1039.74,8.28-1352.41s-287.8-758.8-20.78-1208.48S1959.73-180.8,1216.15-646.71"/><path class="cls-173" d="M564.84,3776.24c183.68-346.75,471-1042.94,10.8-1354.82s-289.8-758.1-20.87-1208.35S1962.83-180.92,1220-647.63"/><path class="cls-173" d="M562.91,3778.13C748.48,3430.29,1038,2732,576.23,2420.9s-291.81-757.4-21-1208.22S1965.93-181,1223.76-648.55"/><path class="cls-173" d="M561,3780c187.46-349,479.16-1049.35,15.83-1359.66S283,1663.68,555.74,1212.29,1969-181.15,1227.57-649.47"/><path class="cls-173" d="M559.05,3781.92c189.35-350,483.22-1052.55,18.34-1362.07s-295.81-756-21.16-1207.95S1972.12-181.27,1231.37-650.39"/><path class="cls-174" d="M557.12,3783.81C748.37,3432.68,1044.4,2728.05,578,2419.32S280.16,1664,556.72,1211.51,1975.22-181.38,1235.18-651.3"/><path class="cls-174" d="M555.18,3785.7c193.15-352.22,491.35-1059,23.38-1366.9s-299.81-754.58-21.35-1207.68S1978.31-181.5,1239-652.22"/><path class="cls-174" d="M553.25,3787.59c195-353.31,495.41-1062.16,25.89-1369.31S277.33,1664.4,557.7,1210.73,1981.41-181.62,1242.79-653.14"/><path class="cls-175" d="M551.32,3789.49c196.93-354.41,499.47-1065.37,28.4-1371.74s-303.81-753.17-21.54-1207.41S1984.51-181.73,1246.59-654.06"/><path class="cls-175" d="M549.39,3791.38c198.83-355.5,503.53-1068.57,30.92-1374.15S274.49,1664.76,558.67,1210,1987.6-181.85,1250.4-655"/><path class="cls-175" d="M547.46,3793.27c200.72-356.59,507.6-1071.77,33.43-1376.56s-307.82-751.77-21.73-1207.15S1990.7-182,1254.2-655.89"/><path class="cls-175" d="M545.52,3795.16c202.62-357.68,511.67-1075,36-1379s-309.82-751.06-21.82-1207S1993.8-182.08,1258-656.81"/><path class="cls-176" d="M543.59,3797.05c204.52-358.77,515.73-1078.17,38.46-1381.39S270.24,1665.3,560.14,1208.78s1436.75-1391,701.67-1866.51"/><path class="cls-176" d="M541.66,3798.94c206.41-359.86,519.79-1081.38,41-1383.8s-313.82-749.66-22-1206.75,1439.36-1390.71,705-1867"/><path class="cls-176" d="M539.73,3800.84c208.3-361,523.85-1084.59,43.49-1386.23S267.4,1665.66,561.12,1208s1442-1390.42,708.3-1867.56"/><path class="cls-176" d="M537.8,3802.73c210.19-362.05,527.91-1087.79,46-1388.64S266,1665.84,561.6,1207.6,2006.18-182.55,1273.23-660.49"/><path class="cls-177" d="M535.86,3804.62c212.1-363.14,532-1091,48.52-1391S264.56,1666,562.09,1207.21,2009.28-182.67,1277-661.4"/><path class="cls-177" d="M533.93,3806.51c214-364.23,536-1094.19,51-1393.47S263.14,1666.2,562.58,1206.82s1449.8-1389.6,718.26-1869.14"/><path class="cls-177" d="M532,3808.4C747.88,3443.08,1072.1,2711,585.55,2412.52s-323.82-746.14-22.48-1206.09S2015.47-182.9,1284.64-663.24"/><path class="cls-178" d="M530.07,3810.29C747.85,3443.88,1074.23,2709.7,586.13,2412s-325.82-745.44-22.57-1206S2018.57-183,1288.45-664.16"/><path class="cls-178" d="M528.14,3812.19c219.67-367.52,548.22-1103.8,58.58-1400.72s-327.83-744.73-22.67-1205.82S2021.66-183.13,1292.25-665.08"/><path class="cls-178" d="M526.2,3814.08c221.57-368.61,552.29-1107,61.1-1403.13s-329.83-744-22.77-1205.69S2024.76-183.25,1296.06-666"/><path class="cls-178" d="M524.27,3816c223.46-369.7,556.35-1110.21,63.61-1405.54S256.05,1667.1,565,1204.87,2027.86-183.37,1299.86-666.91"/><path class="cls-179" d="M522.34,3817.86c225.36-370.79,560.41-1113.41,66.12-1408s-333.83-742.62-23-1205.42S2031-183.48,1303.67-667.83"/><path class="cls-179" d="M520.41,3819.75c227.25-371.88,564.47-1116.61,68.64-1410.37s-335.83-741.92-23-1205.29S2034.05-183.6,1307.47-668.75"/><path class="cls-179" d="M518.47,3821.65c229.15-373,568.54-1119.82,71.16-1412.79S251.8,1667.64,566.49,1203.7,2037.15-183.72,1311.28-669.67"/><path class="cls-180" d="M516.54,3823.54c231-374.07,572.6-1123,73.67-1415.21s-339.83-740.51-23.23-1205,1473.26-1387.14,748.1-1873.9"/><path class="cls-180" d="M514.61,3825.43c232.94-375.16,576.66-1126.22,76.19-1417.62S249,1668,567.47,1202.92,2043.34-183.95,1318.89-671.5"/><path class="cls-180" d="M512.68,3827.32c234.83-376.25,580.72-1129.42,78.7-1420S247.54,1668.18,568,1202.53,2046.44-184.07,1322.69-672.42"/><path class="cls-180" d="M510.75,3829.21C747.47,3451.87,1095.53,2696.58,592,2406.76s-345.84-738.4-23.52-1204.62S2049.53-184.18,1326.5-673.34"/><path class="cls-181" d="M508.81,3831.1c238.63-378.43,588.85-1135.83,83.73-1424.86s-347.83-737.7-23.61-1204.49,1483.7-1386,761.37-1876"/><path class="cls-181" d="M506.88,3833c240.52-379.53,592.91-1139,86.25-1427.29s-349.84-737-23.71-1204.35S2055.73-184.42,1334.11-675.18"/><path class="cls-181" d="M505,3834.89c242.41-380.62,597-1142.24,88.76-1429.7S241.87,1668.9,569.91,1201s1488.91-1385.5,768-1877.07"/><path class="cls-182" d="M503,3836.78c244.3-381.71,601-1145.44,91.27-1432.11S240.45,1669.08,570.4,1200.58,2061.92-184.65,1341.72-677"/><path class="cls-182" d="M501.09,3838.67c246.2-382.8,605.09-1148.64,93.78-1434.53s-355.84-734.88-24-1203.95S2065-184.77,1345.52-677.93"/><path class="cls-182" d="M499.15,3840.56c248.1-383.89,609.16-1151.84,96.31-1436.94S237.61,1669.44,571.37,1199.8s1496.74-1384.68,778-1878.65"/><path class="cls-183" d="M497.22,3842.45c250-385,613.22-1155,98.82-1439.35S236.2,1669.62,571.86,1199.41,2071.21-185,1353.13-679.77"/><path class="cls-184" d="M495.29,3844.35c251.89-386.08,617.28-1158.26,101.33-1441.78S234.78,1669.8,572.35,1199s1502-1384.14,784.59-1879.71"/><path class="cls-184" d="M493.36,3846.24c253.78-387.18,621.34-1161.46,103.85-1444.19S233.36,1670,572.84,1198.63,2077.4-185.23,1360.74-681.6"/><path class="cls-184" d="M491.43,3848.13c255.67-388.27,625.4-1164.66,106.36-1446.6s-365.85-731.37-24.46-1203.29S2080.5-185.35,1364.55-682.52"/><path class="cls-184" d="M489.49,3850C747.06,3460.66,1119,2682.16,598.37,2401s-367.85-730.66-24.56-1203.15S2083.6-185.47,1368.35-683.44"/><path class="cls-185" d="M487.56,3851.91C747,3461.46,1121.09,2680.85,599,2400.48s-369.85-730-24.65-1203,1512.39-1383,797.86-1881.82"/><path class="cls-185" d="M485.63,3853.8C747,3462.26,1123.22,2679.54,599.54,2400s-371.85-729.26-24.75-1202.9S2089.79-185.7,1376-685.28"/><path class="cls-185" d="M483.7,3855.7C747,3463.06,1125.35,2678.23,600.12,2399.43s-373.85-728.55-24.84-1202.76S2092.88-185.82,1379.77-686.2"/><path class="cls-186" d="M481.77,3857.59c265.14-393.73,645.71-1180.67,118.93-1458.68s-375.85-727.85-24.93-1202.63S2096-185.93,1383.57-687.11"/><path class="cls-186" d="M479.83,3859.48c267.05-394.82,649.78-1183.88,121.46-1461.09s-377.86-727.15-25-1202.5S2099.08-186,1387.38-688"/><path class="cls-186" d="M477.9,3861.37c268.94-395.91,653.84-1187.08,124-1463.51S222,1671.42,576.75,1195.5,2102.17-186.17,1391.18-688.95"/><path class="cls-186" d="M476,3863.26c270.83-397,657.9-1190.28,126.48-1465.92S220.6,1671.6,577.23,1195.11s1528-1381.39,817.76-1885"/><path class="cls-187" d="M474,3865.16c272.73-398.1,662-1193.49,129-1468.34s-383.85-725-25.31-1202.1S2108.37-186.4,1398.79-690.79"/><path class="cls-187" d="M472.1,3867.05c274.63-399.19,666-1196.69,131.52-1470.76s-385.86-724.33-25.41-1202S2111.46-186.52,1402.6-691.7"/><path class="cls-187" d="M470.17,3868.94c276.52-400.28,670.09-1199.89,134-1473.17s-387.86-723.62-25.5-1201.83S2114.56-186.63,1406.4-692.62"/><path class="cls-188" d="M468.24,3870.83c278.41-401.37,674.15-1203.09,136.54-1475.59s-389.86-722.91-25.59-1201.69,1538.47-1380.3,831-1887.09"/><path class="cls-188" d="M466.31,3872.72c280.31-402.46,678.21-1206.29,139.06-1478S213.5,1672.51,579.68,1193.16,2120.75-186.87,1414-694.46"/><path class="cls-188" d="M464.38,3874.61C746.58,3471.06,1146.65,2665.11,606,2394.2s-393.86-721.51-25.79-1201.43S2123.85-187,1417.82-695.38"/><path class="cls-188" d="M462.44,3876.51c284.1-404.65,686.34-1212.71,144.09-1482.84s-395.86-720.8-25.88-1201.29S2127-187.1,1421.62-696.3"/><path class="cls-189" d="M460.51,3878.4c286-405.74,690.41-1215.91,146.6-1485.25s-397.86-720.1-26-1201.16S2130-187.22,1425.43-697.21"/><path class="cls-189" d="M458.58,3880.29c287.89-406.84,694.47-1219.11,149.12-1487.66s-399.87-719.4-26.07-1201S2133.14-187.33,1429.23-698.13"/><path class="cls-189" d="M456.65,3882.18c289.78-407.93,698.53-1222.31,151.63-1490.08s-401.87-718.69-26.16-1200.89S2136.24-187.45,1433-699"/><path class="cls-190" d="M454.72,3884.07c291.67-409,702.59-1225.51,154.14-1492.49s-403.87-718-26.25-1200.76S2139.33-187.57,1436.84-700"/><path class="cls-190" d="M452.78,3886c293.58-410.11,706.66-1228.71,156.66-1494.9S203.58,1673.77,583.1,1190.43,2142.43-187.68,1440.65-700.89"/><path class="cls-190" d="M450.85,3887.86C746.32,3476.65,1161.57,2655.93,610,2390.53S202.16,1674,583.58,1190,2145.53-187.8,1444.45-701.8"/><path class="cls-190" d="M448.92,3889.75C746.28,3477.45,1163.7,2654.62,610.61,2390s-409.87-715.88-26.54-1200.36S2148.62-187.92,1448.26-702.72"/><path class="cls-191" d="M447,3891.64c299.25-413.39,718.84-1238.33,164.2-1502.15s-411.87-715.18-26.63-1200.23S2151.72-188,1452.06-703.64"/><path class="cls-191" d="M445.06,3893.53C746.21,3479.05,1168,2652,611.78,2389S197.9,1674.49,585.05,1188.87s1569.76-1377,870.82-1893.43"/><path class="cls-191" d="M443.12,3895.42c303-415.57,727-1244.73,169.24-1507s-415.88-713.77-26.82-1200,1572.37-1376.75,874.13-1894"/><path class="cls-191" d="M441.19,3897.32c304.94-416.67,731-1247.94,171.75-1509.4S195.07,1674.85,586,1188.09,2161-188.38,1463.48-706.4"/><path class="cls-192" d="M439.26,3899.21c306.84-417.76,735.09-1251.14,174.26-1511.82S193.65,1675,586.51,1187.7s1577.59-1376.2,880.77-1895"/><path class="cls-193" d="M437.33,3901.1c308.73-418.85,739.15-1254.34,176.78-1514.23S192.23,1675.21,587,1187.31,2167.2-188.62,1471.09-708.23"/><path class="cls-193" d="M435.39,3903C746,3483.05,1178.61,2645.44,614.69,2386.35s-423.88-711-27.2-1199.43S2170.3-188.73,1474.89-709.15"/><path class="cls-194" d="M433.46,3904.88c312.52-421,747.28-1260.75,181.81-1519.06S189.39,1675.57,588,1186.53,2173.39-188.85,1478.7-710.07"/><path class="cls-194" d="M431.53,3906.77C746,3484.65,1182.87,2642.82,615.86,2385.3S188,1675.75,588.47,1186.13,2176.49-189,1482.5-711"/><path class="cls-194" d="M429.6,3908.67C745.91,3485.45,1185,2641.51,616.44,2384.78s-429.88-708.85-27.48-1199S2179.59-189.08,1486.31-711.91"/><path class="cls-194" d="M427.67,3910.56C745.87,3486.25,1187.13,2640.2,617,2384.25s-431.88-708.14-27.58-1198.9S2182.68-189.2,1490.11-712.82"/><path class="cls-195" d="M425.73,3912.45c320.1-425.4,763.53-1273.56,191.87-1528.72S183.72,1676.29,589.93,1185s1595.85-1374.28,904-1898.7"/><path class="cls-195" d="M423.8,3914.34c322-426.5,767.59-1276.76,194.39-1531.14S182.3,1676.47,590.42,1184.57s1598.46-1374,907.3-1899.23"/><path class="cls-195" d="M421.87,3916.23c323.89-427.59,771.65-1280,196.9-1533.55s-437.89-706-27.86-1198.5S2192-189.55,1501.53-715.58"/><path class="cls-196" d="M419.94,3918.12c325.78-428.68,775.71-1283.17,199.41-1536s-439.89-705.33-28-1198.37S2195.07-189.67,1505.33-716.5"/><path class="cls-196" d="M418,3920c327.68-429.78,779.77-1286.38,201.92-1538.39S178.05,1677,591.89,1183.4,2198.17-189.78,1509.14-717.41"/><path class="cls-196" d="M416.07,3921.91C745.65,3491,1199.91,2632.33,620.52,2381.11S176.63,1677.19,592.38,1183,2201.26-189.9,1512.94-718.33"/><path class="cls-196" d="M414.14,3923.8c331.47-432,787.9-1292.78,207-1543.21s-445.89-703.22-28.24-1198S2204.36-190,1516.75-719.25"/><path class="cls-197" d="M412.21,3925.69c333.36-433.05,792-1296,209.47-1545.63s-447.89-702.51-28.33-1197.83,1614.11-1372.36,927.2-1902.4"/><path class="cls-197" d="M410.28,3927.58c335.26-434.14,796-1299.18,212-1548s-449.9-701.81-28.43-1197.7S2210.55-190.25,1524.36-721.09"/><path class="cls-197" d="M408.35,3929.48C745.5,3494.24,1208.43,2627.09,622.85,2379S171,1677.91,594.33,1181.45,2213.65-190.37,1528.16-722"/><path class="cls-197" d="M406.41,3931.37c339.05-436.33,804.15-1305.59,217-1552.88s-453.89-700.4-28.61-1197.43S2216.75-190.48,1532-722.92"/><path class="cls-198" d="M404.48,3933.26C745.43,3495.84,1212.69,2624.46,624,2378s-455.89-699.7-28.7-1197.3S2219.84-190.6,1535.77-723.84"/><path class="cls-198" d="M402.55,3935.15c342.84-438.51,812.27-1312,222.05-1557.7s-457.9-699-28.81-1197.17,1627.15-1371,943.79-1905"/><path class="cls-198" d="M400.62,3937c344.73-439.6,816.33-1315.2,224.56-1560.12s-459.9-698.29-28.9-1197S2226-190.83,1543.38-725.68"/><path class="cls-199" d="M398.69,3938.93c346.62-440.69,820.39-1318.4,227.07-1562.53s-461.9-697.59-29-1196.9S2229.13-190.95,1547.19-726.6"/><path class="cls-199" d="M396.75,3940.83C745.28,3499,1221.21,2619.22,626.35,2375.88S162.44,1679,597.26,1179.11,2232.23-191.07,1551-727.51"/><path class="cls-199" d="M394.82,3942.72c350.42-442.88,828.52-1324.81,232.11-1567.37S161,1679.17,597.75,1178.72,2235.32-191.18,1554.8-728.43"/><path class="cls-200" d="M392.89,3944.61c352.31-444,832.58-1328,234.62-1569.78s-467.9-695.48-29.27-1196.5S2238.42-191.3,1558.6-729.35"/><path class="cls-201" d="M391,3946.5c354.2-445.07,836.64-1331.21,237.13-1572.19s-469.9-694.78-29.36-1196.37S2241.52-191.42,1562.41-730.27"/><path class="cls-201" d="M389,3948.39C745.13,3502.23,1229.73,2614,628.68,2373.78s-471.91-694.07-29.47-1196.23,1645.4-1369.08,967-1908.74"/><path class="cls-201" d="M387.09,3950.28c358-447.25,844.77-1337.62,242.17-1577s-473.91-693.37-29.56-1196.1S2247.71-191.65,1570-732.11"/><path class="cls-202" d="M385.16,3952.18C745.05,3503.83,1234,2611.35,629.84,2372.74s-475.91-692.67-29.65-1196S2250.81-191.77,1573.82-733"/><path class="cls-202" d="M383.23,3954.07C745,3504.63,1236.12,2610,630.43,2372.21s-477.91-692-29.75-1195.83,1653.22-1368.26,977-1910.32"/><path class="cls-202" d="M381.3,3956C745,3505.43,1238.25,2608.73,631,2371.69S151.1,1680.43,601.17,1176,2257-192,1581.43-734.86"/><path class="cls-202" d="M379.36,3957.85c365.58-451.62,861-1350.43,252.23-1586.69S149.68,1680.61,601.66,1175.6,2260.1-192.12,1585.24-735.78"/><path class="cls-203" d="M377.43,3959.74C744.9,3507,1242.51,2606.11,632.17,2370.64s-483.91-689.85-30-1195.44S2263.19-192.23,1589-736.7"/><path class="cls-203" d="M375.5,3961.64c369.37-453.81,869.15-1356.84,257.26-1591.52S146.84,1681,602.63,1174.81,2266.29-192.35,1592.85-737.62"/><path class="cls-203" d="M373.57,3963.53c371.26-454.9,873.21-1360.05,259.77-1593.94s-487.92-688.44-30.22-1195.17S2269.39-192.47,1596.65-738.53"/><path class="cls-204" d="M371.64,3965.42c373.15-456,877.27-1363.25,262.28-1596.35S144,1681.33,603.61,1174,2272.48-192.58,1600.46-739.45"/><path class="cls-204" d="M369.7,3967.31C744.75,3510.23,1251,2600.86,634.5,2368.55s-491.91-687-30.4-1194.91S2275.58-192.7,1604.26-740.37"/><path class="cls-204" d="M367.77,3969.2C744.72,3511,1253.17,2599.55,635.09,2368s-493.92-686.33-30.5-1194.77S2278.68-192.82,1608.07-741.29"/><path class="cls-204" d="M365.84,3971.09C744.68,3511.83,1255.3,2598.24,635.67,2367.5s-495.92-685.63-30.6-1194.64S2281.77-192.93,1611.87-742.21"/><path class="cls-205" d="M363.91,3973c380.73-460.36,893.52-1376.06,272.34-1606s-497.92-684.93-30.69-1194.51S2284.87-193,1615.68-743.12"/><path class="cls-205" d="M362,3974.88c382.63-461.45,897.58-1379.26,274.86-1608.43s-499.93-684.22-30.79-1194.37S2288-193.17,1619.48-744"/><path class="cls-205" d="M360,3976.77c384.53-462.54,901.65-1382.46,277.38-1610.84S135.5,1682.41,606.54,1171.69,2291.06-193.28,1623.29-745"/><path class="cls-205" d="M358.11,3978.66C744.53,3515,1263.82,2593,638,2365.41S134.08,1682.59,607,1171.3,2294.16-193.4,1627.09-745.88"/><path class="cls-206" d="M356.18,3980.55C744.49,3515.82,1266,2591.68,638.58,2364.88s-505.92-682.11-31.06-1194S2297.25-193.52,1630.9-746.8"/><path class="cls-206" d="M354.25,3982.44c390.21-465.82,913.83-1392.07,284.92-1618.08S131.24,1683,608,1170.52,2300.35-193.63,1634.7-747.72"/><path class="cls-206" d="M352.32,3984.34c392.1-466.92,917.89-1395.28,287.43-1620.5s-509.93-680.71-31.26-1193.71,1695-1363.88,1030-1918.76"/><path class="cls-207" d="M350.38,3986.23c394-468,922-1398.48,290-1622.92s-511.92-680-31.35-1193.57S2306.54-193.87,1642.31-749.55"/><path class="cls-207" d="M348.45,3988.12c395.9-469.1,926-1401.68,292.47-1625.33S127,1683.49,609.47,1169.35,2309.64-194,1646.12-750.47"/><path class="cls-207" d="M346.52,3990c397.79-470.19,930.08-1404.88,295-1627.74S125.57,1683.67,610,1169,2312.74-194.1,1649.92-751.39"/><path class="cls-207" d="M344.59,3991.9c399.68-471.28,934.14-1408.08,297.49-1630.16s-517.93-677.89-31.63-1193.17S2315.83-194.22,1653.73-752.31"/><path class="cls-208" d="M342.65,3993.8c401.58-472.38,938.21-1411.3,300-1632.58s-519.93-677.19-31.72-1193,1708-1362.51,1046.59-1921.4"/><path class="cls-208" d="M340.72,3995.69c403.48-473.47,942.27-1414.5,302.53-1635s-521.94-676.49-31.83-1192.91S2322-194.45,1661.34-754.14"/></g></svg>