<svg id="Layer_1" data-name="Layer 1" xmlns="http://www.w3.org/2000/svg" xmlns:xlink="http://www.w3.org/1999/xlink" viewBox="0 0 2267 515"><defs><style>.cls-1{opacity:0.99;fill:url(#linear-gradient);}.cls-2{mask:url(#mask);}.cls-3{opacity:0.54;}.cls-10,.cls-100,.cls-101,.cls-102,.cls-103,.cls-104,.cls-105,.cls-106,.cls-107,.cls-108,.cls-109,.cls-11,.cls-110,.cls-111,.cls-112,.cls-113,.cls-114,.cls-115,.cls-116,.cls-117,.cls-118,.cls-119,.cls-12,.cls-120,.cls-121,.cls-122,.cls-123,.cls-124,.cls-125,.cls-126,.cls-127,.cls-128,.cls-129,.cls-13,.cls-130,.cls-131,.cls-132,.cls-14,.cls-15,.cls-16,.cls-17,.cls-18,.cls-19,.cls-20,.cls-21,.cls-22,.cls-23,.cls-24,.cls-25,.cls-26,.cls-27,.cls-28,.cls-29,.cls-30,.cls-31,.cls-32,.cls-33,.cls-34,.cls-35,.cls-36,.cls-37,.cls-38,.cls-39,.cls-4,.cls-40,.cls-41,.cls-42,.cls-43,.cls-44,.cls-45,.cls-46,.cls-47,.cls-48,.cls-49,.cls-5,.cls-50,.cls-51,.cls-52,.cls-53,.cls-54,.cls-55,.cls-56,.cls-57,.cls-58,.cls-59,.cls-6,.cls-60,.cls-61,.cls-62,.cls-63,.cls-64,.cls-65,.cls-66,.cls-67,.cls-68,.cls-69,.cls-7,.cls-70,.cls-71,.cls-72,.cls-73,.cls-74,.cls-75,.cls-76,.cls-77,.cls-78,.cls-79,.cls-8,.cls-80,.cls-81,.cls-82,.cls-83,.cls-84,.cls-85,.cls-86,.cls-87,.cls-88,.cls-89,.cls-9,.cls-90,.cls-91,.cls-92,.cls-93,.cls-94,.cls-95,.cls-96,.cls-97,.cls-98,.cls-99{fill:none;stroke-miterlimit:10;stroke-width:3px;}.cls-4{stroke:#ff457f;}.cls-5{stroke:#fe4580;}.cls-6{stroke:#fe4581;}.cls-7{stroke:#fd4482;}.cls-8{stroke:#fc4483;}.cls-9{stroke:#fc4484;}.cls-10{stroke:#fb4485;}.cls-11{stroke:#fa4486;}.cls-12{stroke:#fa4487;}.cls-13{stroke:#f94388;}.cls-14{stroke:#f84389;}.cls-15{stroke:#f8438a;}.cls-16{stroke:#f7438b;}.cls-17{stroke:#f6438c;}.cls-18{stroke:#f6428d;}.cls-19{stroke:#f5428e;}.cls-20{stroke:#f4428f;}.cls-21{stroke:#f44290;}.cls-22{stroke:#f34291;}.cls-23{stroke:#f24292;}.cls-24{stroke:#f24193;}.cls-25{stroke:#f14194;}.cls-26{stroke:#f04195;}.cls-27{stroke:#f04196;}.cls-28{stroke:#ef4197;}.cls-29{stroke:#ee4198;}.cls-30{stroke:#ee4099;}.cls-31{stroke:#ed409a;}.cls-32{stroke:#ec409b;}.cls-33{stroke:#ec409c;}.cls-34{stroke:#eb409d;}.cls-35{stroke:#ea3f9e;}.cls-36{stroke:#ea3f9f;}.cls-37{stroke:#e93fa0;}.cls-38{stroke:#e83fa1;}.cls-39{stroke:#e73fa2;}.cls-40{stroke:#e73fa3;}.cls-41{stroke:#e63ea4;}.cls-42{stroke:#e53ea5;}.cls-43{stroke:#e53ea6;}.cls-44{stroke:#e43ea7;}.cls-45{stroke:#e33ea8;}.cls-46{stroke:#e33da9;}.cls-47{stroke:#e23daa;}.cls-48{stroke:#e13dab;}.cls-49{stroke:#e13dac;}.cls-50{stroke:#e03dad;}.cls-51{stroke:#df3dae;}.cls-52{stroke:#df3caf;}.cls-53{stroke:#de3cb0;}.cls-54{stroke:#dd3cb1;}.cls-55{stroke:#dd3cb2;}.cls-56{stroke:#dc3cb3;}.cls-57{stroke:#db3bb4;}.cls-58{stroke:#db3bb5;}.cls-59{stroke:#da3bb6;}.cls-60{stroke:#d93bb7;}.cls-61{stroke:#d93bb8;}.cls-62{stroke:#d83bb9;}.cls-63{stroke:#d73aba;}.cls-64{stroke:#d73abb;}.cls-65{stroke:#d63abc;}.cls-66{stroke:#d53abd;}.cls-67{stroke:#d53abe;}.cls-68{stroke:#d439bf;}.cls-69{stroke:#d339c0;}.cls-70{stroke:#d339c1;}.cls-71{stroke:#d239c2;}.cls-72{stroke:#d139c3;}.cls-73{stroke:#d139c4;}.cls-74{stroke:#d038c5;}.cls-75{stroke:#cf38c6;}.cls-76{stroke:#cf38c7;}.cls-77{stroke:#ce38c8;}.cls-78{stroke:#cd38c9;}.cls-79{stroke:#cd38ca;}.cls-80{stroke:#cc37cb;}.cls-81{stroke:#cb37cc;}.cls-82{stroke:#cb37cd;}.cls-83{stroke:#ca37ce;}.cls-84{stroke:#c937cf;}.cls-85{stroke:#c936d0;}.cls-86{stroke:#c836d1;}.cls-87{stroke:#c736d2;}.cls-88{stroke:#c736d3;}.cls-89{stroke:#c636d4;}.cls-90{stroke:#c536d5;}.cls-91{stroke:#c535d6;}.cls-92{stroke:#c435d7;}.cls-93{stroke:#c335d8;}.cls-94{stroke:#c335d9;}.cls-95{stroke:#c235da;}.cls-96{stroke:#c134db;}.cls-97{stroke:#c134dc;}.cls-98{stroke:#c034dd;}.cls-99{stroke:#bf34de;}.cls-100{stroke:#bf34df;}.cls-101{stroke:#be34e0;}.cls-102{stroke:#bd33e1;}.cls-103{stroke:#bc33e2;}.cls-104{stroke:#bc33e3;}.cls-105{stroke:#bb33e4;}.cls-106{stroke:#ba33e5;}.cls-107{stroke:#ba32e6;}.cls-108{stroke:#b932e7;}.cls-109{stroke:#b832e8;}.cls-110{stroke:#b832e9;}.cls-111{stroke:#b732ea;}.cls-112{stroke:#b632eb;}.cls-113{stroke:#b631ec;}.cls-114{stroke:#b531ed;}.cls-115{stroke:#b431ee;}.cls-116{stroke:#b431ef;}.cls-117{stroke:#b331f0;}.cls-118{stroke:#b231f1;}.cls-119{stroke:#b230f2;}.cls-120{stroke:#b130f3;}.cls-121{stroke:#b030f4;}.cls-122{stroke:#b030f5;}.cls-123{stroke:#af30f6;}.cls-124{stroke:#ae2ff7;}.cls-125{stroke:#ae2ff8;}.cls-126{stroke:#ad2ff9;}.cls-127{stroke:#ac2ffa;}.cls-128{stroke:#ac2ffb;}.cls-129{stroke:#ab2ffc;}.cls-130{stroke:#aa2efd;}.cls-131{stroke:#aa2efe;}.cls-132{stroke:#a92eff;}</style><linearGradient id="linear-gradient" x1="74.53" y1="259.5" x2="2231.04" y2="259.5" gradientUnits="userSpaceOnUse"><stop offset="0" stop-color="#020202"/><stop offset="0.04" stop-color="#313131"/><stop offset="0.09" stop-color="#616161"/><stop offset="0.14" stop-color="#8c8c8c"/><stop offset="0.19" stop-color="#afafaf"/><stop offset="0.25" stop-color="#ccc"/><stop offset="0.3" stop-color="#e3e3e3"/><stop offset="0.37" stop-color="#f3f3f3"/><stop offset="0.44" stop-color="#fcfcfc"/><stop offset="0.54" stop-color="#fff"/><stop offset="0.62" stop-color="#fcfcfc"/><stop offset="0.68" stop-color="#f4f4f4"/><stop offset="0.72" stop-color="#e6e6e6"/><stop offset="0.76" stop-color="#d1d1d1"/><stop offset="0.8" stop-color="#b7b7b7"/><stop offset="0.83" stop-color="#969696"/><stop offset="0.86" stop-color="#707070"/><stop offset="0.89" stop-color="#434343"/><stop offset="0.92" stop-color="#111"/><stop offset="0.93"/></linearGradient><mask id="mask" x="15.15" y="-10" width="2232.74" height="539" maskUnits="userSpaceOnUse"><rect class="cls-1" x="74.53" y="-10" width="2156.5" height="539"/></mask></defs><title>abstract11</title><g class="cls-2"><g class="cls-3"><path class="cls-4" d="M16,285.5c290.24-198,473.27-234.87,586.29-212C740.64,101.5,876.6,515,1041.78,341.73c141-248.23,389.64-192.23,489.29-61.23s425.69-235,652.08,5"/><path class="cls-5" d="M16.29,283.63C232.1,138.75,389.61,81.52,502.62,70c38.69-3.86,72.18-2.09,101.1,3.63C656.17,83.87,708,149,761.21,217.18,849.11,329.78,941.08,451,1043.74,342.3c115.47-204,303.26-204.5,422.55-124.08a278,278,0,0,1,66,61.66c51.75,67.94,162.23,4.66,289-42,119.61-44.37,252.47-69.74,362.36,46.45"/><path class="cls-6" d="M16.59,281.77C232.14,139.4,390.52,83,504,70.66c38.72-4.08,72.22-2.4,101.19,3.12,52.77,10.06,104.72,74.95,158,143.34C851,329.85,943.36,452.22,1045.71,342.86c115-203.88,302-206.47,421.8-125.35a279.86,279.86,0,0,1,66,61.75c52.19,68.42,161.91,6.46,288.47-41.71,119.82-45.61,252.19-70.44,362.14,45.53"/><path class="cls-7" d="M16.88,279.9C232.18,140,391.4,84.25,505.3,71.31c38.74-4.4,72.28-2.74,101.28,2.61,53.11,9.81,105.14,74.54,158.5,143.15,87.85,112.85,180.56,236.41,282.59,126.36C1162.31,139.61,1348.51,135,1468.73,216.81a281.74,281.74,0,0,1,66,61.84c52.62,68.9,161.53,8.1,287.93-41.39,120-47,251.91-71.14,361.94,44.61"/><path class="cls-8" d="M17.18,278C232.23,140.68,392.3,85.67,506.64,72,545.41,67.31,579,68.87,608,74.07c53.44,9.56,105.56,74.13,159,143,87.83,113,180.9,237.72,282.62,127C1163.85,140.25,1349.27,133.59,1470,216.1A283.59,283.59,0,0,1,1536,278c53,69.38,161.16,9.76,287.41-41,120.16-48.36,251.63-71.85,361.73,43.68"/><path class="cls-9" d="M17.47,276.16C232.27,141.33,393.2,87.09,508,72.61c38.78-4.89,72.37-3.44,101.45,1.6,53.78,9.31,106,73.72,159.5,142.76,87.81,113.09,181.25,239,282.66,127.6C1165.4,140.88,1350,132.18,1471.17,215.39a285.27,285.27,0,0,1,66.06,62c53.49,69.87,160.79,11.41,286.89-40.72,120.33-49.74,251.35-72.55,361.52,42.76"/><path class="cls-10" d="M17.77,274.3C232.31,142,394.09,88.52,509.33,73.26c38.81-5.14,72.42-3.79,101.54,1.09,54.12,9.06,106.4,73.31,160,142.56,87.78,113.22,181.59,240.34,282.68,128.23C1167,141.51,1350.78,130.78,1472.39,214.69a287.57,287.57,0,0,1,66.08,62.1c53.92,70.35,160.41,13,286.36-40.39,120.5-51.12,251.07-73.25,361.31,41.83"/><path class="cls-11" d="M18.06,272.43C232.36,142.62,395,89.94,510.67,73.91c38.83-5.38,72.48-4.14,101.63.58,54.46,8.82,106.82,72.9,160.51,142.37,87.76,113.34,181.93,241.65,282.71,128.85,113-203.57,295.83-216.07,418.09-131.73,25.77,17.78,48.27,38.89,66.09,62.19,54.36,70.84,160,14.69,285.84-40.05,120.67-52.51,250.78-74,361.1,40.9"/><path class="cls-12" d="M18.36,270.56c214-127.3,377.52-179.19,493.65-196,38.86-5.63,72.53-4.49,101.72.07,54.8,8.57,107.25,72.5,161,142.18,87.74,113.45,182.28,243,282.75,129.47,112.56-203.51,294.59-218,417.33-133,25.78,17.85,48.29,39,66.11,62.29,54.8,71.31,159.67,16.32,285.32-39.73,120.84-53.9,250.5-74.66,360.89,40"/><path class="cls-13" d="M18.65,268.7C232.44,143.9,396.78,92.8,513.35,75.21c38.89-5.87,72.59-4.84,101.81-.44,55.14,8.31,107.67,72.09,161.52,142C864.4,330.33,959.3,461,1059.45,346.84,1171.6,143.4,1352.82,126.9,1476,212.57c25.78,17.92,48.29,39.07,66.13,62.37,55.22,71.79,159.29,17.95,284.79-39.39,121-55.3,250.22-75.37,360.68,39.05"/><path class="cls-14" d="M19,266.83c213.53-122.28,378.72-172.6,495.74-191a337.6,337.6,0,0,1,101.9-1c55.48,8.06,108.09,71.68,162,141.79,87.7,113.7,183,245.57,282.8,130.71C1173.15,144,1353.55,125.53,1477.26,211.86c25.78,18,48.3,39.16,66.14,62.46,55.66,72.28,158.92,19.58,284.26-39.06,121.19-56.69,249.94-76.06,360.48,38.13"/><path class="cls-15" d="M19.24,265C232.53,145.19,398.56,95.67,516,76.51a336.53,336.53,0,0,1,102-1.45c55.82,7.8,108.51,71.26,162.52,141.59C868.22,330.47,963.85,463.53,1063.37,348c111.33-203.32,290.91-223.82,415.11-136.83,25.78,18.06,48.3,39.26,66.15,62.55,56.1,72.76,158.56,21.2,283.74-38.73,121.37-58.09,249.66-76.76,360.26,37.21"/><path class="cls-16" d="M19.54,263.09c213-117.26,379.92-166,497.83-185.93a336.15,336.15,0,0,1,102.08-2c56.17,7.55,108.93,70.86,163,141.4,87.66,113.94,183.65,248.19,282.87,132C1176.25,145.29,1355,122.79,1479.7,210.45c25.79,18.13,48.31,39.35,66.17,62.64,56.53,73.24,158.18,22.81,283.21-38.4,121.54-59.5,249.38-77.47,360.05,36.28"/><path class="cls-17" d="M19.83,261.23C232.61,146.48,400.35,98.55,518.71,77.81a335.42,335.42,0,0,1,102.16-2.47c56.52,7.29,109.37,70.45,163.54,141.2C872,330.61,968.4,466,1067.3,349.12c110.5-203.19,288.45-227.71,413.62-139.38,25.79,18.2,48.31,39.44,66.18,62.73,57,73.72,157.81,24.43,282.69-38.07,121.71-60.91,249.1-78.17,359.84,35.36"/><path class="cls-18" d="M20.13,259.36C232.66,147.12,401.24,100,520.05,78.46a335.1,335.1,0,0,1,102.25-3c56.87,7,109.79,70,164,141C874,330.68,970.68,467.3,1069.26,349.69,1179.35,146.56,1356.48,120,1482.14,209c25.79,18.27,48.31,39.54,66.19,62.82,57.41,74.2,157.44,26,282.17-37.73,121.89-62.33,248.81-78.88,359.63,34.43"/><path class="cls-19" d="M20.42,257.49c212.28-109.72,381.71-156.06,501-178.38a334.48,334.48,0,0,1,102.34-3.49c57.21,6.78,110.21,69.63,164.54,140.82,87.59,114.31,184.68,252.11,283,133.81,109.67-203.06,286-231.59,412.12-141.92,25.8,18.34,48.33,39.62,66.22,62.9,57.83,74.69,157.07,27.65,281.64-37.4,122.06-63.74,248.53-79.58,359.42,33.51"/><path class="cls-20" d="M20.72,255.63c212-107.22,382.3-152.75,502-175.87a333.81,333.81,0,0,1,102.42-4C682.72,82.28,735.79,145,790.21,216.39c87.56,114.42,185,253.42,283,134.43,109.26-203,284.76-233.53,411.38-143.2,25.8,18.41,48.33,39.72,66.23,63,58.27,75.17,156.7,29.25,281.12-37.07,122.23-65.15,248.25-80.28,359.21,32.59"/><path class="cls-21" d="M21,253.76C232.78,149.05,403.91,104.32,524.08,80.41A333.55,333.55,0,0,1,626.59,75.9c57.91,6.26,111,68.82,165.55,140.43,87.55,114.55,185.37,254.74,283,135.06C1184,148.45,1358.68,115.91,1485.79,206.92c25.81,18.47,48.29,39.84,66.24,63.08,58.56,75.77,156.33,30.84,280.6-36.74,122.41-66.58,248-81,359,31.65"/><path class="cls-22" d="M21.31,251.89C232.83,149.7,404.8,105.77,525.42,81.05a332.94,332.94,0,0,1,102.6-5c58.26,6,111.47,68.4,166.05,140.23,87.53,114.67,185.71,256,283,135.68,108.42-202.88,282.3-237.42,409.89-145.75,25.81,18.54,48.29,39.94,66.26,63.17,59,76.26,156,32.44,280.06-36.41,122.59-68,247.69-81.69,358.8,30.73"/><path class="cls-23" d="M21.6,250C232.87,150.34,405.68,107.22,526.76,81.7a332.73,332.73,0,0,1,102.69-5.51c58.6,5.72,111.9,68,166.55,140C883.51,331,982.06,473.58,1079.08,352.53c108-202.82,281.07-239.37,409.15-147,25.81,18.61,48.29,40,66.27,63.26,59.41,76.75,155.58,34,279.54-36.07,122.76-69.44,247.41-82.4,358.58,29.8"/><path class="cls-24" d="M21.9,248.16C232.91,151,406.57,108.68,528.1,82.35a332.22,332.22,0,0,1,102.78-6c59,5.46,112.32,67.58,167.06,139.85C885.42,331.09,984.34,474.84,1081,353.1c107.6-202.76,279.85-241.32,408.41-148.3,25.81,18.68,48.3,40.13,66.28,63.34,59.84,77.24,155.21,35.63,279-35.74,122.94-70.86,247.12-83.09,358.37,28.88"/><path class="cls-25" d="M22.19,246.29C233,151.63,407.46,110.13,529.44,83a332.06,332.06,0,0,1,102.87-6.53c59.3,5.19,112.74,67.18,167.56,139.65,87.46,115,186.74,260,283.14,137.55C1190.19,151,1361.63,110.4,1490.66,204.09c25.83,18.75,48.31,40.22,66.31,63.43,60.26,77.73,154.83,37.21,278.49-35.41,123.11-72.29,246.84-83.79,358.16,28"/><path class="cls-26" d="M22.49,244.42C233,152.27,408.35,111.59,530.78,83.65a331.6,331.6,0,0,1,103-7c59.65,4.93,113.16,66.77,168.06,139.46C889.24,331.23,988.89,477.35,1085,354.23,1191.74,151.6,1362.36,109,1491.88,203.38c25.83,18.82,48.31,40.32,66.32,63.53,60.69,78.21,154.46,38.79,278-35.08,123.28-73.74,246.56-84.5,357.95,27"/><path class="cls-27" d="M22.78,242.55C233,152.91,409.23,113.05,532.12,84.3a331.47,331.47,0,0,1,103-7.55c60,4.66,113.58,66.36,168.57,139.27C891.15,331.29,991.16,478.6,1086.93,354.8c106.36-202.56,276.17-247.16,406.17-152.12,25.83,18.88,48.31,40.41,66.33,63.61,61.12,78.7,154.08,40.37,277.45-34.75s246.28-85.2,357.74,26.11"/><path class="cls-28" d="M23.07,240.69C233.09,153.56,410.12,114.51,533.46,85A331.36,331.36,0,0,1,636.6,76.89c60.35,4.39,114,66,169.07,139.08,87.39,115.39,187.77,263.89,283.23,139.4,105.94-202.5,274.94-249.11,405.42-153.4,25.83,18.95,48.32,40.5,66.35,63.7,61.54,79.19,153.7,41.95,276.92-34.42,123.62-76.61,246-85.9,357.53,25.19"/><path class="cls-29" d="M23.37,238.82C233.13,154.2,411,116,534.8,85.6A330.63,330.63,0,0,1,638,77c60.71,4.11,114.43,65.54,169.57,138.87,87.38,115.52,188.12,265.21,283.26,140,105.53-202.44,273.72-251.06,404.68-154.68,25.84,19,48.32,40.6,66.36,63.79,62,79.67,153.32,43.52,276.39-34.08,123.8-78.06,245.72-86.61,357.33,24.26"/><path class="cls-30" d="M23.66,237c209.51-82.1,388.24-119.51,512.48-150.7,39.29-9.86,73.57-11,103.32-9.07C700.52,81,754.31,142.31,809.54,215.86,896.89,331.5,998,482.37,1092.82,356.51c105.12-202.38,272.49-253,403.94-155.95,25.84,19.08,48.32,40.69,66.37,63.88,62.41,80.15,152.95,45.08,275.87-33.76,124-79.51,245.44-87.31,357.12,23.34"/><path class="cls-31" d="M24,235.09C233.21,155.49,412.78,118.91,537.49,86.9c39.3-10.09,73.62-11.31,103.4-9.58C702.3,80.89,756.16,142,811.47,215.81c87.33,115.76,188.8,267.82,283.32,141.27,104.7-202.32,271.26-255,403.19-157.23,25.84,19.15,48.32,40.79,66.39,64,62.83,80.64,152.56,46.65,275.34-33.42,124.14-81,245.15-88,356.91,22.4"/><path class="cls-32" d="M24.25,233.22c209-77.09,389.42-112.84,514.58-145.67,39.33-10.32,73.68-11.68,103.49-10.09,61.76,3.3,115.69,64.31,171.08,138.3,87.31,115.88,189.15,269.12,283.35,141.89,104.29-202.26,270-256.92,402.44-158.51,25.86,19.22,48.34,40.88,66.41,64.06,63.26,81.13,152.19,48.22,274.82-33.09,124.3-82.42,244.87-88.72,356.69,21.48"/><path class="cls-33" d="M24.55,231.35c208.75-74.57,390-109.49,515.62-143.15,39.35-10.54,73.74-12,103.58-10.6,62.12,3,116.11,63.91,171.58,138.1,87.29,116,189.49,270.44,283.38,142.51C1202.58,156,1367.53,99.34,1500.41,198.44c25.86,19.28,48.34,41,66.42,64.14,63.69,81.62,151.81,49.78,274.3-32.76,124.47-83.87,244.59-89.41,356.48,20.56"/><path class="cls-34" d="M24.84,229.48c208.5-72.06,390.6-106.15,516.67-140.63,39.37-10.77,73.8-12.42,103.67-11.11,62.47,2.75,116.53,63.5,172.09,137.91,87.26,116.12,189.83,271.75,283.41,143.13,103.45-202.13,267.59-260.83,401-161,25.86,19.35,48.34,41.07,66.44,64.23,64.12,82.11,151.42,51.34,273.77-32.42,124.63-85.33,244.31-90.12,356.27,19.63"/><path class="cls-35" d="M25.14,227.62C233.39,158.06,416.33,124.81,542.85,89.5c39.4-11,73.86-12.79,103.76-11.62,62.82,2.47,117,63.09,172.59,137.72,87.24,116.24,190.18,273,283.44,143.75C1205.68,157.28,1369,96.57,1502.85,197c25.87,19.41,48.35,41.15,66.45,64.32,64.55,82.59,151,52.89,273.25-32.1,124.8-86.79,244-90.82,356.06,18.71"/><path class="cls-36" d="M25.43,225.75c208-67,391.79-99.47,518.76-135.6C583.61,78.93,618.11,77,648,78c63.18,2.18,117.38,62.67,173.09,137.52,87.22,116.36,190.52,274.36,283.47,144.37,102.63-202,265.15-264.74,399.47-163.6,25.87,19.48,48.35,41.25,66.46,64.41,65,83.08,150.65,54.45,272.73-31.76,125-88.26,243.74-91.53,355.85,17.78"/><path class="cls-37" d="M25.73,223.88c207.74-64.53,392.38-96.12,519.8-133.08,39.45-11.45,74-13.53,103.94-12.63,63.53,1.9,117.8,62.27,173.6,137.32,87.2,116.49,190.86,275.68,283.5,145,102.21-201.94,263.93-266.7,398.72-164.88,25.88,19.55,48.35,41.35,66.47,64.5,65.42,83.56,150.27,56,272.2-31.43,125.13-89.72,243.47-92.23,355.65,16.86"/><path class="cls-38" d="M26,222c207.49-62,393-92.77,520.85-130.57,39.47-11.67,74-12.22,104-13.14,63.88-2,118.22,61.86,174.1,137.13,87.18,116.61,191.2,277,283.53,145.62,101.8-201.88,262.71-268.66,398-166.15,25.89,19.61,48.37,41.43,66.5,64.58,65.84,84.05,149.88,57.55,271.67-31.1,125.29-91.19,243.18-92.93,355.44,15.94"/><path class="cls-39" d="M26.32,220.15c207.24-59.51,393.56-89.42,521.89-128,39.49-11.89,74.12-12.58,104.12-13.65,64.22-2.3,118.64,61.45,174.6,136.94,87.16,116.73,191.55,278.29,283.56,146.24C1211.88,159.81,1372,91,1507.72,194.2c25.89,19.68,48.37,41.53,66.51,64.67,66.27,84.54,149.49,59.1,271.15-30.76,125.45-92.67,242.9-93.64,355.23,15"/><path class="cls-40" d="M26.61,218.28c207-57,394.16-86.06,522.94-125.53,39.52-12.12,74.19-12.93,104.2-14.16,64.56-2.64,119.08,61,175.11,136.75,87.14,116.85,191.9,279.59,283.59,146.85,101-201.75,260.27-272.56,396.49-168.7,25.9,19.75,48.37,41.63,66.52,64.77,66.71,85,149.1,60.64,270.63-30.44,125.61-94.14,242.62-94.34,355,14.09"/><path class="cls-41" d="M26.91,216.41c206.73-54.48,394.75-82.71,524-123,39.54-12.34,74.26-13.28,104.29-14.67,64.9-3,119.5,60.64,175.62,136.55,87.11,117,192.23,280.91,283.62,147.48,100.56-201.69,259-274.52,395.74-170,25.9,19.81,48.38,41.71,66.54,64.85,67.13,85.51,148.71,62.18,270.1-30.1,125.77-95.62,242.34-95,354.8,13.16"/><path class="cls-42" d="M27.2,214.55c206.49-52,395.35-79.36,525-120.51,39.56-12.55,74.32-13.63,104.37-15.17,65.24-3.33,119.92,60.23,176.12,136.36,87.09,117.09,192.58,282.22,283.65,148.1,100.15-201.63,257.83-276.49,395-171.25,25.91,19.88,48.38,41.81,66.55,64.94,67.56,86,148.32,63.72,269.58-29.77,125.92-97.09,242-95.75,354.59,12.23"/><path class="cls-43" d="M27.5,212.68c206.23-49.47,395.94-76,526.08-118C593.16,81.92,628,80.7,658,79c65.57-3.68,120.34,59.81,176.62,136.16,87.07,117.21,192.93,283.52,283.68,148.72C1218.08,162.33,1375,85.45,1512.6,191.37c25.91,19.94,48.38,41.91,66.56,65,68,86.48,147.93,65.26,269.06-29.44,126.08-98.57,241.77-96.44,354.38,11.31"/><path class="cls-44" d="M27.79,210.81c206-46.95,396.54-72.63,527.13-115.47,39.61-13,74.46-14.35,104.55-16.18,65.91-4,120.76,59.4,177.13,136,87,117.33,193.26,284.83,283.71,149.34C1219.63,163,1375.7,84.06,1513.82,190.67c25.92,20,48.39,42,66.58,65.11,68.42,87,147.52,66.8,268.52-29.1,126.24-100.06,241.5-97.15,354.18,10.38"/><path class="cls-45" d="M28.09,209C233.82,164.5,425.22,139.67,556.26,96,595.89,82.78,630.79,81.28,660.9,79.3c66.25-4.35,121.18,59,177.63,135.77,87,117.46,193.61,286.14,283.74,150C1221.17,163.6,1376.44,82.67,1515,190c25.93,20.07,48.4,42.09,66.6,65.21,68.86,87.45,147.13,68.33,268-28.78,126.39-101.54,241.21-97.85,354,9.46"/><path class="cls-46" d="M28.38,207.08C233.86,165.14,426.11,141.17,557.6,96.64c39.66-13.43,74.6-15.08,104.73-17.2C728.91,74.75,783.94,138,840.46,215c87,117.58,194,287.45,283.77,150.59,98.49-201.38,253-284.34,392-176.36,25.93,20.14,48.4,42.19,66.61,65.3,69.29,87.93,146.73,69.86,267.48-28.45,126.54-103,240.93-98.55,353.76,8.54"/><path class="cls-47" d="M28.68,205.21C233.9,165.79,427,142.67,558.94,97.29c39.68-13.65,74.67-15.44,104.82-17.71,66.92-5,122,58.18,178.64,135.39,87,117.7,194.29,288.76,283.8,151.2,98.07-201.31,251.74-286.29,391.27-177.62,25.94,20.2,48.41,42.27,66.63,65.38,69.72,88.42,146.33,71.39,267-28.11,126.69-104.51,240.65-99.26,353.55,7.61"/><path class="cls-48" d="M29,203.34c205-36.91,398.92-59.17,531.31-105.4C600,84.08,635,82.13,665.19,79.72c67.25-5.36,122.45,57.77,179.14,135.2C931.29,332.74,1039,505,1128.16,366.74c97.66-201.25,250.52-288.26,390.53-178.9,25.94,20.27,48.41,42.37,66.64,65.47,70.15,88.91,145.93,72.92,266.43-27.78,126.84-106,240.37-100,353.34,6.69"/><path class="cls-49" d="M29.27,201.48C234,167.08,428.78,145.67,561.62,98.59c39.74-14.08,74.82-16.18,105-18.73,67.59-5.69,122.87,57.37,179.64,135,86.94,117.94,195,291.38,283.86,152.45,97.25-201.19,249.31-290.22,389.79-180.18,25.95,20.33,48.41,42.47,66.65,65.57,70.59,89.38,145.53,74.44,265.91-27.45,127-107.49,240.08-100.67,353.13,5.76"/><path class="cls-50" d="M29.56,199.61C234,167.72,429.68,147.17,563,99.24,602.72,84.94,637.85,82.69,668.05,80c67.93-6,123.29,57,180.14,134.8,86.92,118.06,195.33,292.69,283.9,153.07,96.83-201.13,248.09-292.19,389-181.45,25.95,20.39,48.42,42.55,66.67,65.65,71,89.87,145.12,76,265.38-27.12,127.13-109,239.8-101.37,352.91,4.84"/><path class="cls-51" d="M29.85,197.74c204.22-29.38,400.72-49.06,534.45-97.85,39.79-14.51,74.84-18.79,105.18-19.74C738,78,793.19,136.69,850.13,214.76c86.89,118.18,195.67,294,283.92,153.69,96.42-201.07,246.88-294.15,388.3-182.73,26,20.46,48.42,42.65,66.68,65.74,71.45,90.36,144.72,77.5,264.85-26.79,127.28-110.47,239.53-102.07,352.71,3.92"/><path class="cls-52" d="M30.15,195.88c204-26.87,401.31-45.7,535.49-95.34,39.81-14.73,74.9-19.17,105.27-20.25,68.88-2.46,124.14,56.13,181.15,134.42C938.93,333,1048.07,510,1136,369c96-201,245.66-296.12,387.55-184,26,20.52,48.44,42.74,66.7,65.82,71.88,90.84,144.32,79,264.33-26.45,127.42-112,239.24-102.77,352.5,3"/><path class="cls-53" d="M30.44,194C234.16,169.65,432.36,151.69,567,101.19c39.83-14.94,75-19.55,105.35-20.76C741.58,77.67,796.9,136.15,854,214.65c86.86,118.43,196.36,296.61,284,154.94,95.59-200.95,244.44-298.09,386.8-185.28,26,20.58,48.44,42.83,66.72,65.91,72.31,91.33,143.9,80.54,263.8-26.12,127.56-113.47,239-103.47,352.29,2.06"/><path class="cls-54" d="M30.74,192.14c203.46-21.85,402.51-38.94,537.59-90.3,39.86-15.16,75-19.93,105.44-21.27,69.59-3.06,125,55.32,182.16,134,86.83,118.55,196.7,297.92,284,155.55,95.18-200.87,243.23-300,386.06-186.55,26,20.65,48.44,42.93,66.73,66,72.75,91.81,143.49,82.05,263.28-25.79,127.7-115,238.68-104.18,352.08,1.13"/><path class="cls-55" d="M31,190.27c203.21-19.33,403.12-35.56,538.64-87.78,39.88-15.37,75.08-20.31,105.53-21.78,69.95-3.36,125.4,54.91,182.66,133.84,86.81,118.67,197,299.23,284,156.17,94.77-200.81,242-302,385.32-187.82,26,20.71,48.45,43,66.74,66.09,73.18,92.29,143.09,83.57,262.76-25.46,127.84-116.47,238.39-104.88,351.87.21"/><path class="cls-56" d="M31.33,188.41C234.29,171.58,435,156.23,571,103.14c39.91-15.59,75.14-20.7,105.62-22.29,70.31-3.66,125.82,54.5,183.16,133.64,86.79,118.79,197.39,300.54,284.08,156.8,94.35-200.75,240.8-304,384.57-189.1,26,20.78,48.45,43.11,66.76,66.18,73.61,92.78,142.67,85.09,262.23-25.13,128-118,238.11-105.58,351.66-.71"/><path class="cls-57" d="M31.62,186.54c202.71-14.32,404.32-28.8,540.73-82.75C612.29,88,647.55,82.71,678.06,81c70.66-4,126.24,54.08,183.66,133.44,86.77,118.91,197.74,301.85,284.11,157.42,93.94-200.69,239.59-306,383.83-190.38,26,20.84,48.46,43.21,66.77,66.27,74,93.26,142.26,86.61,261.71-24.79,128.1-119.48,237.83-106.29,351.45-1.64"/><path class="cls-58" d="M31.92,184.67c202.45-11.8,404.92-25.41,541.77-80.23,40-16,75.27-21.46,105.8-23.3,71-4.28,126.51,53.79,184.17,133.25,86.5,119.21,198.07,303.15,284.13,158,93.52-200.63,238.38-307.93,383.08-191.65,26,20.9,48.47,43.29,66.79,66.35,74.48,93.75,141.85,88.13,261.19-24.46,128.24-121,237.55-107,351.23-2.56"/><path class="cls-59" d="M32.21,182.8c202.21-9.29,405.53-22,542.82-77.71,40-16.23,75.33-21.85,105.89-23.81,71.38-4.59,126.93,53.39,184.67,133.06C952.07,333.66,1064,518.8,1149.76,373c93.1-200.57,237.16-309.9,382.33-192.93,26,21,48.48,43.39,66.81,66.45,74.91,94.22,141.42,89.63,260.65-24.13,128.38-122.49,237.27-107.7,351-3.49"/><path class="cls-60" d="M32.51,180.94c202-6.78,406.13-18.64,543.86-75.2,40-16.44,75.39-22.23,106-24.32,71.73-4.9,127.35,53,185.17,132.86,86.46,119.45,198.76,305.78,284.2,159.29,92.69-200.51,236-311.87,381.59-194.21,26,21,48.48,43.48,66.82,66.54,75.34,94.71,141,91.15,260.13-23.8,128.51-124,237-108.4,350.82-4.41"/><path class="cls-61" d="M32.8,179.07c201.7-4.27,406.73-15.25,544.91-72.68,40-16.65,75.45-22.62,106.07-24.83,72.09-5.21,127.77,52.57,185.68,132.67,86.43,119.57,199.1,307.08,284.22,159.9C1246,173.69,1388.43,60.3,1534.53,178.66c26,21.09,48.48,43.57,66.83,66.62,75.78,95.19,140.59,92.66,259.61-23.47,128.63-125.5,236.71-109.1,350.61-5.33"/><path class="cls-62" d="M33.1,177.2c201.45-1.76,407.34-11.86,545.95-70.17A332.81,332.81,0,0,1,685.21,81.7c72.44-5.52,128.19,52.16,186.18,132.48,86.42,119.69,199.45,308.39,284.25,160.52C1247.51,174.32,1389.18,58.89,1535.75,178c26,21.16,48.49,43.67,66.85,66.71,76.21,95.68,140.17,94.17,259.08-23.13,128.76-127,236.42-109.8,350.4-6.26"/><path class="cls-63" d="M33.39,175.34c201.2.75,408-8.48,547-67.66A333.15,333.15,0,0,1,686.63,81.84C759.44,76,815.25,133.6,873.32,214.13c86.4,119.81,199.79,309.7,284.29,161.14C1249.06,175,1389.94,57.49,1537,177.24c26,21.22,48.49,43.76,66.86,66.81,76.65,96.15,139.75,95.67,258.56-22.81,128.88-128.52,236.14-110.5,350.19-7.19"/><path class="cls-64" d="M33.69,173.47c200.94,3.26,408.55-5.08,548.05-65.14A333,333,0,0,1,688.06,82c73.16-6.15,129,51.34,187.2,132.08,86.37,119.94,200.13,311,284.31,161.77,91-200.25,231.12-319.75,378.62-199.3,26,21.28,48.5,43.85,66.87,66.89,77.08,96.64,139.33,97.18,258-22.47,129-130,235.86-111.21,350-8.12"/><path class="cls-65" d="M34,171.6c200.69,5.77,409.16-1.68,549.1-62.62A333.65,333.65,0,0,1,689.49,82.13C763,75.67,819,133.06,877.19,214c86.35,120.06,200.48,312.32,284.34,162.39,90.63-200.19,229.91-321.73,377.87-200.58,26.07,21.34,48.51,43.94,66.9,67,77.51,97.12,138.9,98.69,257.51-22.14,129.13-131.55,235.58-111.91,349.77-9"/><path class="cls-66" d="M34.28,169.73C234.72,178,444,171.44,584.42,109.63a334,334,0,0,1,106.5-27.36c73.88-6.78,129.89,50.52,188.2,131.7,86.33,120.17,200.82,313.62,284.38,163,90.21-200.13,228.7-323.7,377.12-201.85,26.08,21.4,48.52,44,66.91,67.06,78,97.61,138.47,100.2,257-21.81,129.26-133.06,235.3-112.61,349.57-10"/><path class="cls-67" d="M34.57,167.87C234.76,178.66,445,173,585.76,110.28A334.43,334.43,0,0,1,692.35,82.41c74.23-7.09,130.31,50.12,188.7,131.51,86.31,120.29,201.17,314.93,284.41,163.62,89.8-200.06,227.49-325.67,376.38-203.12,26.08,21.47,48.52,44.13,66.92,67.15,78.39,98.09,138,101.71,256.46-21.47,129.37-134.58,235-113.32,349.35-10.89"/><path class="cls-68" d="M34.87,166c199.93,13.31,411,8.5,552.23-55.07A334.92,334.92,0,0,1,693.78,82.55C768.36,75.14,824.67,132.14,883,213.86c86.52,120.25,201.51,316.25,284.43,164.25,89.39-200,226.29-327.65,375.64-204.4,26.09,21.53,48.53,44.22,66.94,67.25,78.82,98.57,137.61,103.21,255.93-21.15,129.49-136.1,234.74-114,349.14-11.81"/><path class="cls-69" d="M35.16,164.13C234.85,180,446.76,176,588.44,111.58A335.36,335.36,0,0,1,695.21,82.69C770.15,75,826.53,131.87,884.92,213.81c86.51,120.37,201.85,317.55,284.47,164.87,89-199.94,225.08-329.62,374.89-205.67a466.27,466.27,0,0,1,67,67.33c79.25,99,137.19,104.71,255.41-20.82,129.61-137.61,234.45-114.72,348.93-12.73"/><path class="cls-70" d="M35.46,162.27c199.43,18.32,412.2,15.3,554.32-50a336.08,336.08,0,0,1,106.86-29.4c75.29-8,131.74,48.78,190.21,130.93,86.49,120.49,202.2,318.86,284.5,165.49,88.55-199.88,223.87-331.6,374.15-206.95a470.35,470.35,0,0,1,67,67.42c79.69,99.54,136.76,106.22,254.89-20.48,129.72-139.13,234.17-115.43,348.72-13.66"/><path class="cls-71" d="M35.75,160.4c199.18,20.84,412.82,18.71,555.37-47.52a336.25,336.25,0,0,1,107-29.9c75.65-8.38,132.16,48.36,190.72,130.73,86.46,120.6,202.53,320.16,284.52,166.11C1261.45,180,1396,46.24,1546.72,171.59a475.09,475.09,0,0,1,67,67.51c80.12,100,136.32,107.72,254.36-20.15C1997.89,78.3,2102,102.83,2216.57,204.37"/><path class="cls-72" d="M36,158.53c198.94,23.35,413.44,22.11,556.42-45a337,337,0,0,1,107-30.41c76-8.7,132.58,47.95,191.22,130.53,86.44,120.73,202.88,321.48,284.56,166.74,87.72-199.76,221.46-335.56,372.65-209.5a478.27,478.27,0,0,1,67,67.59c80.56,100.5,135.89,109.23,253.84-19.81,129.94-142.17,233.61-116.83,348.3-15.51"/><path class="cls-73" d="M36.34,156.66C235,182.52,450.39,182.18,593.8,114.18A337.25,337.25,0,0,1,700.93,83.26c76.35-9,133,47.54,191.72,130.34C979.07,334.45,1095.88,536.39,1177.24,381c87.31-199.69,220.26-337.53,371.91-210.78a482,482,0,0,1,67,67.69c81,101,135.46,110.72,253.32-19.49,130-143.69,233.32-117.53,348.09-16.43"/><path class="cls-74" d="M36.63,154.8c198.43,28.37,414.67,28.92,558.51-40A337.77,337.77,0,0,1,702.36,83.4c76.71-9.34,133.42,47.14,192.22,130.15,86.4,121,203.57,324.09,284.62,168,86.9-199.62,219-339.5,371.17-212a487.51,487.51,0,0,1,67,67.78c81.43,101.46,135,112.22,252.78-19.16,130.17-145.21,233-118.23,347.89-17.36"/><path class="cls-75" d="M36.93,152.93c198.17,30.88,415.28,32.33,559.55-37.45A338.57,338.57,0,0,1,703.79,83.54c77.06-9.67,133.85,46.73,192.73,130,86.37,121.09,203.91,325.4,284.65,168.59C1267.65,182.53,1399,40.61,1551.59,168.77a490.16,490.16,0,0,1,67,67.86c81.87,101.94,134.58,113.72,252.26-18.82,130.28-146.73,232.77-118.94,347.68-18.29"/><path class="cls-76" d="M37.22,151.06c197.93,33.39,415.9,35.74,560.61-34.93A339,339,0,0,1,705.22,83.68c77.41-10,134.27,46.32,193.23,129.76,86.35,121.22,204.26,326.72,284.68,169.22,86.07-199.5,216.64-343.46,369.68-214.6a495.13,495.13,0,0,1,67,67.95c82.31,102.43,134.15,115.23,251.74-18.49C2002,69.27,2104.08,97.88,2219.06,198.31"/><path class="cls-77" d="M37.52,149.2C235.19,185.1,454,188.34,599.17,116.78c40.5-20,76.42-28.83,107.48-33,77.77-10.32,134.69,45.91,193.73,129.57,86.34,121.34,204.6,328,284.71,169.84C1270.75,183.79,1400.53,37.78,1554,167.35a499,499,0,0,1,67.06,68c82.75,102.91,133.71,116.73,251.22-18.15,130.49-149.78,232.2-120.35,347.25-20.14"/><path class="cls-78" d="M37.81,147.33c197.42,38.41,417.13,42.55,562.7-29.9C641.05,97.25,677,88.21,708.08,84c78.12-10.66,135.11,45.5,194.24,129.37,86.31,121.45,204.94,329.33,284.74,170.46,85.24-199.38,214.23-347.43,368.18-217.15a503.2,503.2,0,0,1,67.09,68.13C1705.51,338.16,1755.59,353,1873,217c130.59-151.3,231.92-121,347-21.06"/><path class="cls-79" d="M38.11,145.46c197.17,40.93,417.75,46,563.74-27.38,40.57-20.39,76.54-29.62,107.66-34C788,73.12,845,129.2,904.25,213.29,990.54,334.86,1109.54,543.92,1189,384.37c84.83-199.32,213-349.41,367.44-218.43a506.61,506.61,0,0,1,67.1,68.22c83.62,103.87,132.82,119.72,250.17-17.5,130.69-152.82,231.63-121.75,346.83-22"/><path class="cls-80" d="M38.4,143.59C235.32,187,456.77,193,603.19,118.73c40.6-20.59,76.6-30,107.75-34.48,78.82-11.32,135.95,44.68,195.24,129,86.27,121.7,205.63,331.95,284.8,171.71,84.42-199.26,211.84-351.39,366.7-219.7a511.82,511.82,0,0,1,67.11,68.3c84.06,104.35,132.38,121.22,249.65-17.16C2005.23,62,2105.79,93.93,2221.06,193.47"/><path class="cls-81" d="M38.7,141.73c196.66,45.94,419,52.79,565.83-22.35,40.63-20.8,76.66-30.4,107.84-35,79.17-11.65,136.38,44.27,195.75,128.79C994.36,335,1114.09,546.44,1193,385.5c84-199.19,210.63-353.36,366-221A516,516,0,0,1,1626,232.92c84.49,104.83,131.93,122.72,249.11-16.83C2006,60.22,2106.22,92.94,2221.56,192.26"/><path class="cls-82" d="M39,139.86C235.4,188.32,458.61,196.07,605.87,120c40.67-21,76.72-30.79,107.93-35.49,79.52-12,136.8,43.86,196.25,128.6,86.22,121.94,206.31,334.56,284.86,172.94C1278.49,187,1404.34,30.72,1560.12,163.82a520.87,520.87,0,0,1,67.14,68.49c84.93,105.3,131.49,124.21,248.59-16.5,131-157.41,230.8-123.86,346.21-24.76"/><path class="cls-83" d="M39.29,138c196.16,51,420.23,59.63,567.92-17.32,40.7-21.2,76.78-31.18,108-36C795.1,72.36,852.45,128.13,912,213.08c86.2,122.06,206.66,335.87,284.89,173.56C1280,187.58,1405.1,29.31,1561.34,163.12a524.42,524.42,0,0,1,67.15,68.57c85.37,105.79,131,125.71,248.07-16.17,131.09-158.93,230.51-124.56,346-25.68"/><path class="cls-84" d="M39.58,136.13c195.91,53.47,420.86,63,569-14.81,40.73-21.4,76.84-31.57,108.11-36.51C796.88,72.16,854.3,127.86,913.91,213c86.18,122.19,207,337.18,284.93,174.19,82.75-199,207-359.32,363.72-224.8a530.74,530.74,0,0,1,67.17,68.66c85.8,106.27,130.59,127.2,247.54-15.84C2008.45,54.78,2107.5,90,2223.05,188.63"/><path class="cls-85" d="M39.88,134.26c195.65,56,421.48,66.46,570-12.29,40.76-21.6,76.9-32,108.2-37,80.57-13,138.06,42.63,197.76,128,86.16,122.3,207.34,338.49,284.95,174.81,82.34-198.94,205.83-361.3,363-226.08A534.53,534.53,0,0,1,1631,230.45c86.24,106.75,130.15,128.7,247-15.5,131.28-162,229.95-126,345.57-27.54"/><path class="cls-86" d="M40.17,132.39c195.41,58.5,422.11,69.88,571.06-9.77,40.8-21.81,77-32.36,108.28-37.52C800.44,71.77,858,127.32,917.78,212.92c86.14,122.42,207.69,339.8,285,175.43C1284.69,189.47,1407.39,25.06,1565,161a538.89,538.89,0,0,1,67.2,68.83c86.68,107.23,129.7,130.2,246.5-15.17C2010.06,51.15,2108.35,88,2224.05,186.2"/><path class="cls-87" d="M40.47,130.52c195.15,61,422.73,73.3,572.11-7.25,40.82-22,77-32.76,108.36-38,81.28-13.66,138.92,41.82,198.77,127.63,86.12,122.54,208,341.1,285,176.05,81.52-198.82,203.44-365.27,361.49-228.63a543.52,543.52,0,0,1,67.22,68.93c87.11,107.7,129.24,131.69,246-14.85C2010.86,49.34,2108.78,87,2224.55,185"/><path class="cls-88" d="M40.76,128.66c194.9,63.52,423.36,76.72,573.16-4.74C654.77,101.7,691,90.77,722.37,85.38c81.63-14,139.34,41.41,199.28,127.43,86.09,122.67,208.37,342.42,285,176.67,81.1-198.75,202.23-367.25,360.74-229.9a548,548,0,0,1,67.23,69c87.55,108.19,128.8,133.19,245.45-14.51C2011.66,47.52,2109.21,86,2225.05,183.78"/><path class="cls-89" d="M41.06,126.79c194.65,66,424,80.14,574.2-2.22,40.89-22.42,77.12-33.55,108.54-39,82-14.34,139.76,41,199.78,127.24,86.07,122.79,208.72,343.73,285.07,177.29,80.69-198.69,201-369.24,360-231.17a553.26,553.26,0,0,1,67.24,69.1c88,108.67,128.35,134.68,244.92-14.18C2012.45,45.71,2109.64,85,2225.55,182.57"/><path class="cls-90" d="M41.35,124.92c194.4,68.55,424.62,83.57,575.25.3,40.92-22.62,77.18-33.95,108.63-39.56C807.56,71,865.41,126.25,925.51,212.71c86,122.91,209.07,345,285.1,177.91C1290.89,192,1410.45,19.4,1569.87,158.17a558.76,558.76,0,0,1,67.26,69.19c88.43,109.15,127.89,136.18,244.39-13.84C2013.25,43.89,2110.06,84,2226.05,181.36"/><path class="cls-91" d="M41.65,123.05c194.14,71.06,425.24,87,576.29,2.82,41-22.82,77.24-34.34,108.72-40.06,82.67-15,140.6,40.18,200.78,126.85,86,123,209.41,346.34,285.14,178.53,79.86-198.56,198.64-373.21,358.5-233.73a563.56,563.56,0,0,1,67.28,69.28c88.87,109.63,127.43,137.68,243.87-13.51,131.82-171.15,228.26-130.18,344.32-33.08"/><path class="cls-92" d="M41.94,121.19c193.89,73.56,425.88,90.41,577.34,5.33,41-23,77.3-34.74,108.81-40.57,83-15.37,141,39.77,201.29,126.65,86,123.15,209.75,347.65,285.16,179.16,79.45-198.5,197.45-375.2,357.76-235a566.92,566.92,0,0,1,67.29,69.37c89.31,110.1,127,139.16,243.35-13.19,131.9-172.68,228-130.88,344.11-34"/><path class="cls-93" d="M42.24,119.32c193.64,76.08,426.51,93.84,578.38,7.85,41-23.23,77.36-35.14,108.9-41.08C812.89,70.37,871,125.45,931.31,212.55c86,123.27,210.09,349,285.19,179.78,79-198.44,196.25-377.19,357-236.28a573.33,573.33,0,0,1,67.31,69.46c89.74,110.58,126.52,140.66,242.82-12.85,132-174.22,227.69-131.59,343.89-34.93"/><path class="cls-94" d="M42.53,117.45C235.92,196,469.67,214.72,622,127.82,663,104.39,699.38,92.29,731,86.23c83.71-16.06,141.87,39,202.29,126.27,86,123.39,210.44,350.27,285.23,180.4,78.62-198.38,195-379.18,356.27-237.56a578.25,578.25,0,0,1,67.32,69.55c90.19,111.06,126.06,142.16,242.3-12.52C2016.42,36.63,2111.77,80.08,2228,176.52"/><path class="cls-95" d="M42.82,115.59C236,196.68,470.6,216.28,623.3,128.47c41.1-23.63,77.47-35.93,109.08-42.1,84.06-16.4,142.29,38.55,202.8,126.07C1021.12,336,1146,564,1220.43,393.46,1298.63,195.15,1414.29,12.3,1576,154.64a583.2,583.2,0,0,1,67.33,69.63c90.63,111.54,125.61,143.65,241.78-12.18,132.14-177.28,227.13-133,343.47-36.79"/><path class="cls-96" d="M43.12,113.72C236,197.33,471.53,217.84,624.64,129.12c41.13-23.83,77.53-36.33,109.17-42.61,84.41-16.75,142.71,38.14,203.3,125.88C1023,336,1148.23,565.28,1222.39,394c77.79-198.25,192.67-383.15,354.79-240.1a588.44,588.44,0,0,1,67.35,69.73c91.06,112,125.14,145.14,241.24-11.86C2018,33,2112.63,78.1,2229,174.09"/><path class="cls-97" d="M43.41,111.85C236.05,198,472.46,219.4,626,129.77c41.17-24,77.59-36.73,109.26-43.12C820,69.55,878.37,124.38,939,212.34c85.9,123.76,211.47,354.19,285.32,182.26,77.37-198.19,191.47-385.14,354-241.37A593.52,593.52,0,0,1,1645.76,223c91.5,112.49,124.68,146.64,240.72-11.53,132.31-180.34,226.57-134.4,343.06-38.63"/><path class="cls-98" d="M43.71,110c192.38,88.64,429.68,111,583.62,20.44C668.53,106.18,705,93.3,736.67,86.8,821.76,69.35,880.23,124.11,941,212.29c85.87,123.88,211.81,355.5,285.34,182.88C1303.28,197,1416.6,8,1579.61,152.52a598,598,0,0,1,67.38,69.9c92,113,124.23,148.13,240.2-11.19C2019.58,29.36,2113.48,76.12,2230,171.67"/><path class="cls-99" d="M44,108.12c192.13,91.14,430.32,114.41,584.67,22.95,41.23-24.44,77.7-37.52,109.43-44.13,85.44-17.8,144,36.91,204.81,125.29,85.85,124,212.15,356.82,285.37,183.51,76.55-198.07,189.09-389.12,352.55-243.93a605,605,0,0,1,67.4,70c92.38,113.45,123.76,149.63,239.67-10.86,132.47-183.4,226-135.8,342.64-40.48"/><path class="cls-100" d="M44.3,106.25c191.88,93.65,431,117.84,585.71,25.47,41.27-24.64,77.75-37.92,109.52-44.64,85.78-18.15,144.4,36.5,205.31,125.1,85.83,124.12,212.5,358.12,285.41,184.13,76.13-198,187.89-391.11,351.8-245.2a608.7,608.7,0,0,1,67.41,70.07c92.82,113.94,123.3,151.12,239.15-10.52C2021.15,25.72,2114.33,74.15,2231,169.25"/><path class="cls-101" d="M44.59,104.38c191.63,96.17,431.6,121.28,586.76,28,41.3-24.84,77.81-38.32,109.61-45.15,86.13-18.5,144.82,36.09,205.81,124.91,85.82,124.24,212.85,359.43,285.44,184.75,75.72-197.94,186.7-393.1,351.06-246.48a615,615,0,0,1,67.42,70.17c93.27,114.4,122.84,152.61,238.63-10.2C2021.93,23.9,2114.76,73.16,2231.54,168"/><path class="cls-102" d="M44.89,102.52c191.37,98.67,432.23,124.7,587.8,30.49C674,108,710.56,94.3,742.39,87.36,828.86,68.51,887.63,123,948.71,212.08c85.79,124.36,213.18,360.74,285.46,185.36,75.31-197.87,185.51-395.08,350.32-247.75A621.5,621.5,0,0,1,1651.93,220c93.7,114.88,122.36,154.1,238.1-9.87,132.69-188,225.16-137.91,342-43.25"/><path class="cls-103" d="M45.18,100.65c191.13,101.18,432.88,128.14,588.85,33C675.41,108.43,712,94.55,743.82,87.5,830.63,68.3,889.48,122.78,950.64,212c85.77,124.49,213.53,362.05,285.5,186C1311,200.2,1420.45.93,1585.71,149a619.26,619.26,0,0,1,67.45,70.34c94.37,115.18,121.9,155.6,237.57-9.53,132.77-189.53,224.88-138.62,341.8-44.18"/><path class="cls-104" d="M45.48,98.78C236.35,202.48,479,230.36,635.37,134.31c41.42-25.43,78-39.51,109.88-46.67C832.4,68.08,891.34,122.51,952.57,212c85.75,124.61,213.87,363.36,285.53,186.61,74.48-197.75,183.12-399.07,348.83-250.3a626.51,626.51,0,0,1,67.46,70.43c94.81,115.66,121.44,157.1,237-9.2C2024.28,18.45,2116,70.19,2233,164.41"/><path class="cls-105" d="M45.77,96.91c190.62,106.21,434.16,135,590.94,38.05,41.45-25.63,78-39.91,110-47.17,87.5-19.92,146.51,34.45,207.83,124.13,85.72,124.73,214.21,364.66,285.55,187.23C1314.13,201.46,1422-1.91,1588.14,147.57a631.55,631.55,0,0,1,67.49,70.52c95.24,116.15,121,158.59,236.52-8.87,132.91-192.59,224.32-140,341.38-46"/><path class="cls-106" d="M46.07,95.05c190.37,108.71,434.8,138.45,592,40.56,41.49-25.83,78.09-40.31,110.06-47.68C836,67.66,895,122,956.44,211.87c85.7,124.85,214.56,366,285.59,187.85,73.65-197.63,180.74-403.06,347.33-252.85a636.4,636.4,0,0,1,67.5,70.61c95.68,116.62,120.5,160.08,236-8.54,133-194.13,224-140.73,341.17-47"/><path class="cls-107" d="M46.36,93.18c190.12,111.23,435.45,141.89,593,43.08,41.53-26,78.15-40.71,110.15-48.19,88.18-20.63,147.35,33.64,208.83,123.74,85.68,125,214.9,367.29,285.62,188.48,73.23-197.57,179.55-405,346.59-254.13a643,643,0,0,1,67.51,70.7c96.12,117.1,120,161.57,235.48-8.21,133-195.66,223.75-141.43,341-47.88"/><path class="cls-108" d="M46.66,91.31c189.86,113.74,436.08,145.33,594.07,45.6C682.3,110.68,718.94,95.8,751,88.21c88.52-21,147.77,33.23,209.33,123.55C1046,336.85,1175.55,580.35,1246,400.86c72.82-197.51,178.37-407,345.85-255.41a650,650,0,0,1,67.53,70.79c96.54,117.59,119.56,163.07,235-7.87C2027.39,11.17,2117.75,66.23,2235,159.56"/><path class="cls-109" d="M47,89.45C236.56,205.7,483.69,238.21,642.08,137.56c41.6-26.43,78.25-41.51,110.31-49.21C841.26,67,900.6,121.17,962.24,211.71c85.63,125.21,215.59,369.9,285.68,189.71,72.4-197.43,177.17-409,345.1-256.67a656,656,0,0,1,67.54,70.87c97,118.07,119.09,164.56,234.43-7.54,133.18-198.73,223.19-142.83,340.54-49.73"/><path class="cls-110" d="M47.25,87.58c189.36,118.76,437.38,152.2,596.17,50.63,41.63-26.63,78.31-41.91,110.4-49.72C843,66.79,902.45,120.9,964.17,211.66,1049.79,337,1180.1,582.86,1249.88,402c72-197.37,176-411,344.36-258a662.05,662.05,0,0,1,67.55,71c97.42,118.56,118.62,166.06,233.91-7.21C2028.94,7.53,2118.6,64.26,2236,157.14"/><path class="cls-111" d="M47.54,85.71c189.11,121.27,438,155.64,597.22,53.15C686.43,112,723.12,96.55,755.25,88.63c89.54-22.06,149,32,210.85,123,85.6,125.46,216.28,372.52,285.74,191,71.58-197.31,174.8-413,343.61-259.22a667.6,667.6,0,0,1,67.58,71c97.85,119,118.14,167.55,233.37-6.88C2029.71,5.71,2119,63.27,2236.52,155.93"/><path class="cls-112" d="M47.84,83.84C236.69,207.63,486.51,242.92,646.1,139.51c41.71-27,78.42-42.71,110.58-50.73C846.56,66.35,906.15,120.37,968,211.55c85.57,125.58,216.62,373.83,285.76,191.58,71.17-197.25,173.62-415,342.87-260.5a673.8,673.8,0,0,1,67.59,71.14c98.29,119.51,117.67,169,232.85-6.55C2030.49,3.89,2119.46,62.28,2237,154.72"/><path class="cls-113" d="M48.13,82C236.74,208.27,487.46,244.5,647.44,140.16c41.75-27.23,78.48-43.11,110.67-51.24C848.33,66.13,908,120.1,970,211.5c85.55,125.7,217,375.13,285.8,192.2,70.75-197.19,172.43-417,342.12-261.78a681.15,681.15,0,0,1,67.6,71.23c98.72,120,117.2,170.54,232.33-6.21,133.44-204.87,222.07-145.65,339.7-53.43"/><path class="cls-114" d="M48.43,80.11c188.35,128.8,440,166,600.35,60.7,41.79-27.43,78.53-43.51,110.76-51.75C850.1,65.91,909.85,119.83,971.9,211.45c85.53,125.81,217.31,376.44,285.83,192.82,70.34-197.13,171.24-419,341.38-263a688.82,688.82,0,0,1,67.62,71.31c99.15,120.48,116.72,172,231.8-5.88C2032,.25,2120.31,60.3,2238,152.3"/><path class="cls-115" d="M48.72,78.24c188.1,131.32,440.63,169.41,601.4,63.22C692,113.83,728.71,97.54,761,89.2c90.89-23.51,150.74,30.36,212.87,122.19,85.5,125.94,217.64,377.76,285.85,193.44,69.93-197.06,170.06-421,340.64-264.32A694.37,694.37,0,0,1,1668,211.92c99.59,121,116.25,173.52,231.28-5.56,133.56-207.93,221.5-147,339.28-55.27"/><path class="cls-116" d="M49,76.38C236.86,210.2,490.29,249.22,651.46,142.11c41.87-27.83,78.64-44.32,110.94-52.77,91.23-23.87,151.16,30,213.37,122,85.48,126.06,218,379.06,285.89,194.06,69.51-197,168.87-423,339.89-265.6a703.2,703.2,0,0,1,67.64,71.5c100,121.44,115.78,175,230.76-5.22C2033.57-3.39,2121.17,58.32,2239,149.88"/><path class="cls-117" d="M49.31,74.51C236.91,210.84,491.24,250.8,652.8,142.76c41.91-28,78.69-44.72,111-53.28C855.4,65.25,915.41,119,977.7,211.29,1063.16,337.47,1196,591.66,1263.62,406,1332.72,209,1431.3-19,1602.77,139.1a708.85,708.85,0,0,1,67.65,71.58c100.47,121.93,115.31,176.51,230.24-4.89,133.68-211,220.93-148.46,338.86-57.13"/><path class="cls-118" d="M49.6,72.64C237,211.49,492.19,252.37,654.14,143.41c42-28.23,78.75-45.12,111.12-53.79,91.9-24.6,152,29.14,214.37,121.62,85.45,126.3,218.68,381.67,285.95,195.3,68.69-196.88,166.5-427,338.4-268.15a716.12,716.12,0,0,1,67.68,71.67c100.9,122.41,114.82,178,229.7-4.55C2035.1-7,2122,56.35,2240,147.45"/><path class="cls-119" d="M49.9,70.77C237,212.13,493.14,254,655.48,144.06c42-28.42,78.8-45.52,111.21-54.29,92.24-25,152.42,28.72,214.88,121.41,85.42,126.43,219,383,286,195.93,68.26-196.81,165.31-429,337.65-269.43a724.17,724.17,0,0,1,67.69,71.76c101.33,122.89,114.35,179.5,229.18-4.22,133.8-214.07,220.38-149.86,338.44-59"/><path class="cls-120" d="M50.19,68.91C237,212.78,494.08,255.53,656.83,144.71c42-28.62,78.85-45.93,111.29-54.8C860.69,64.58,921,118.23,983.5,211.13c85.4,126.55,219.37,384.3,286,196.55C1337.36,210.93,1434-23.65,1606.42,137a718.8,718.8,0,0,1,67.7,71.85c101.77,123.37,113.87,181,228.66-3.9C2036.64-10.67,2122.88,54.37,2241,145"/><path class="cls-121" d="M50.49,67C237.08,213.42,495,257.11,658.17,145.36c42.06-28.82,78.9-46.33,111.38-55.31,92.91-25.7,153.27,27.91,215.88,121,85.38,126.67,219.71,385.6,286,197.17,67.44-196.69,163.24-433.31,336.17-272a727.21,727.21,0,0,1,67.72,71.94c102.2,123.85,113.39,182.49,228.13-3.56,133.91-217.14,219.81-151.27,338-60.83"/><path class="cls-122" d="M50.78,65.17C237.12,214.06,496,258.69,659.51,146c42.1-29,79-46.72,111.47-55.81C864.22,64.12,924.67,117.69,987.37,211c85.35,126.78,220.05,386.91,286.07,197.78,67-196.62,162-435.27,335.42-273.25a736.65,736.65,0,0,1,67.73,72c102.64,124.34,112.91,184,227.61-3.23,134-218.66,219.53-152,337.81-61.75"/><path class="cls-123" d="M51.08,63.3c186.09,151.41,445.86,197,609.77,83.35,42.15-29.21,79-47.12,111.56-56.32C866,63.9,926.52,117.42,989.3,211c85.33,126.91,220.4,388.22,286.1,198.41C1342,212.82,1436.22-27.86,1610.08,134.86A744,744,0,0,1,1677.82,207c103.08,124.82,112.44,185.48,227.09-2.9,134-220.19,219.25-152.67,337.6-62.67"/><path class="cls-124" d="M51.37,61.44C237.21,215.35,497.89,261.85,662.19,147.3c42.19-29.41,79.06-47.53,111.65-56.83,93.91-26.8,154.53,26.69,217.39,120.45,85.31,127,220.74,389.53,286.13,199,66.2-196.5,159.62-439.22,333.94-275.8a752.79,752.79,0,0,1,67.76,72.2c103.5,125.3,112,187,226.56-2.56,134.07-221.73,219-153.38,337.39-63.6"/><path class="cls-125" d="M51.67,59.57C237.25,216,498.85,263.43,663.53,148c42.23-29.61,79.12-47.93,111.74-57.34,94.24-27.17,155,26.28,217.89,120.26,85.29,127.15,221.09,390.84,286.17,199.65,65.78-196.44,158.4-441.19,333.18-277.07a760.59,760.59,0,0,1,67.78,72.29c103.94,125.78,111.47,188.46,226-2.24C2040.45-19.76,2125,49.42,2243.51,139"/><path class="cls-126" d="M52,57.7C237.29,216.64,499.8,265,664.87,148.6,707.14,118.8,744,100.27,776.7,90.76c94.57-27.55,155.37,25.86,218.4,120.06,85.27,127.27,221.42,392.14,286.19,200.27,65.37-196.38,157.2-443.17,332.44-278.35a769.56,769.56,0,0,1,67.79,72.38c104.38,126.26,110.65,189.76,225.51-1.9,133.78-225,218.41-154.79,337-65.45"/><path class="cls-127" d="M52.26,55.84C237.34,217.28,501,266.9,666.21,149.25c42.37-29.92,79.22-48.74,111.92-58.35C873,63,933.93,116.35,997,210.76c85.25,127.4,221.77,393.46,286.22,200.9,65-196.32,156-445.14,331.7-279.63a778.91,778.91,0,0,1,67.81,72.47c104.81,126.75,110.21,191.29,225-1.57,133.9-226.53,218.12-155.49,336.77-66.38"/><path class="cls-128" d="M52.55,54c184.83,164,449.34,214.45,615,95.93,42.4-30.14,79.28-49.14,112-58.86,95.23-28.29,156.22,25,219.4,119.67,85.23,127.52,222.12,394.77,286.26,201.52,64.54-196.25,154.78-447.11,331-280.9A788.31,788.31,0,0,1,1684,203.88c105.25,127.23,109.79,192.82,224.46-1.24,134-228,217.84-156.18,336.55-67.3"/><path class="cls-129" d="M52.85,52.1c184.57,166.47,450,217.84,616,98.45C711.32,120.2,748.2,101,781,91.18c95.51-28.84,156.64,24.64,219.91,119.48,85.2,127.63,222.45,396.07,286.28,202.13,64.13-196.18,153.58-449.08,330.21-282.17a796.46,796.46,0,0,1,67.83,72.65c105.69,127.71,109.37,194.34,223.94-.91,134.13-229.52,217.56-156.89,336.34-68.23"/><path class="cls-130" d="M53.14,50.23c184.33,169,450.58,221.23,617.09,101,42.46-30.56,79.37-50,112.19-59.88,95.85-29.15,157.06,24.23,220.41,119.29C1088,338.36,1225.63,608,1289.14,413.36c63.72-196.12,152.38-451,329.47-283.45a810.62,810.62,0,0,1,67.85,72.74c106.11,128.19,108.94,195.87,223.41-.58,134.24-231,217.28-157.59,336.13-69.15"/><path class="cls-131" d="M53.44,48.37C237.51,219.86,504.63,273,671.58,151.85c42.48-30.78,79.42-50.37,112.27-60.39,96.2-29.46,157.48,23.82,220.91,119.09,85.16,127.88,223.15,398.69,286.35,203.38,63.3-196.06,151.16-453,328.71-284.72A815.09,815.09,0,0,1,1687.69,202c106.55,128.67,108.51,197.4,222.89-.24,134.36-232.51,217-158.3,335.92-70.08"/><path class="cls-132" d="M53.73,46.5c183.82,174,451.81,228,619.19,106s248.64-70,333.78,58,223.48,400,286.37,204,150-455,328-286,155.77,307,290.25,73S2128,42.5,2247,130.5"/></g></g></svg>