<?xml version="1.0" encoding="utf-8"?>
<!-- Generator: Adobe Illustrator 23.0.0, SVG Export Plug-In . SVG Version: 6.00 Build 0)  -->
<svg version="1.1" xmlns="http://www.w3.org/2000/svg" xmlns:xlink="http://www.w3.org/1999/xlink" x="0px" y="0px"
	 viewBox="0 0 600 332" style="enable-background:new 0 0 600 332;" xml:space="preserve">
<style type="text/css">
	.st0{display:none;}
	.st1{clip-path:url(#SVGID_2_);}
	.st2{clip-path:url(#SVGID_4_);}
	.st3{clip-path:url(#SVGID_6_);fill:url(#SVGID_7_);stroke:#000000;stroke-miterlimit:10;}
	.st4{opacity:0.84;clip-path:url(#SVGID_6_);}
	.st5{fill:none;stroke:#662D91;stroke-width:5;stroke-miterlimit:10;}
	.st6{fill:none;stroke:#652D91;stroke-width:5;stroke-miterlimit:10;}
	.st7{fill:none;stroke:#642D91;stroke-width:5;stroke-miterlimit:10;}
	.st8{fill:none;stroke:#632D91;stroke-width:5;stroke-miterlimit:10;}
	.st9{fill:none;stroke:#622D91;stroke-width:5;stroke-miterlimit:10;}
	.st10{fill:none;stroke:#612D91;stroke-width:5;stroke-miterlimit:10;}
	.st11{fill:none;stroke:#602D91;stroke-width:5;stroke-miterlimit:10;}
	.st12{fill:none;stroke:#5F2D91;stroke-width:5;stroke-miterlimit:10;}
	.st13{fill:none;stroke:#5E2E91;stroke-width:5;stroke-miterlimit:10;}
	.st14{fill:none;stroke:#5D2E91;stroke-width:5;stroke-miterlimit:10;}
	.st15{fill:none;stroke:#5C2E91;stroke-width:5;stroke-miterlimit:10;}
	.st16{fill:none;stroke:#5B2E91;stroke-width:5;stroke-miterlimit:10;}
	.st17{fill:none;stroke:#5A2E91;stroke-width:5;stroke-miterlimit:10;}
	.st18{fill:none;stroke:#592E91;stroke-width:5;stroke-miterlimit:10;}
	.st19{fill:none;stroke:#582E91;stroke-width:5;stroke-miterlimit:10;}
	.st20{fill:none;stroke:#572E91;stroke-width:5;stroke-miterlimit:10;}
	.st21{fill:none;stroke:#562E91;stroke-width:5;stroke-miterlimit:10;}
	.st22{fill:none;stroke:#552E91;stroke-width:5;stroke-miterlimit:10;}
	.st23{fill:none;stroke:#542E91;stroke-width:5;stroke-miterlimit:10;}
	.st24{fill:none;stroke:#532E91;stroke-width:5;stroke-miterlimit:10;}
	.st25{fill:none;stroke:#522E91;stroke-width:5;stroke-miterlimit:10;}
	.st26{fill:none;stroke:#512E91;stroke-width:5;stroke-miterlimit:10;}
	.st27{fill:none;stroke:#502F91;stroke-width:5;stroke-miterlimit:10;}
	.st28{fill:none;stroke:#4F2F91;stroke-width:5;stroke-miterlimit:10;}
	.st29{fill:none;stroke:#4E2F91;stroke-width:5;stroke-miterlimit:10;}
	.st30{fill:none;stroke:#4D2F91;stroke-width:5;stroke-miterlimit:10;}
	.st31{fill:none;stroke:#4C2F91;stroke-width:5;stroke-miterlimit:10;}
	.st32{fill:none;stroke:#4B2F91;stroke-width:5;stroke-miterlimit:10;}
	.st33{fill:none;stroke:#4A2F91;stroke-width:5;stroke-miterlimit:10;}
	.st34{fill:none;stroke:#4A2F92;stroke-width:5;stroke-miterlimit:10;}
	.st35{fill:none;stroke:#492F92;stroke-width:5;stroke-miterlimit:10;}
	.st36{fill:none;stroke:#482F92;stroke-width:5;stroke-miterlimit:10;}
	.st37{fill:none;stroke:#472F92;stroke-width:5;stroke-miterlimit:10;}
	.st38{fill:none;stroke:#462F92;stroke-width:5;stroke-miterlimit:10;}
	.st39{fill:none;stroke:#452F92;stroke-width:5;stroke-miterlimit:10;}
	.st40{fill:none;stroke:#442F92;stroke-width:5;stroke-miterlimit:10;}
	.st41{fill:none;stroke:#433092;stroke-width:5;stroke-miterlimit:10;}
	.st42{fill:none;stroke:#423092;stroke-width:5;stroke-miterlimit:10;}
	.st43{fill:none;stroke:#413092;stroke-width:5;stroke-miterlimit:10;}
	.st44{fill:none;stroke:#403092;stroke-width:5;stroke-miterlimit:10;}
	.st45{fill:none;stroke:#3F3092;stroke-width:5;stroke-miterlimit:10;}
	.st46{fill:none;stroke:#3E3092;stroke-width:5;stroke-miterlimit:10;}
	.st47{fill:none;stroke:#3D3092;stroke-width:5;stroke-miterlimit:10;}
	.st48{fill:none;stroke:#3C3092;stroke-width:5;stroke-miterlimit:10;}
	.st49{fill:none;stroke:#3B3092;stroke-width:5;stroke-miterlimit:10;}
	.st50{fill:none;stroke:#3A3092;stroke-width:5;stroke-miterlimit:10;}
	.st51{fill:none;stroke:#393092;stroke-width:5;stroke-miterlimit:10;}
	.st52{fill:none;stroke:#383092;stroke-width:5;stroke-miterlimit:10;}
	.st53{fill:none;stroke:#373092;stroke-width:5;stroke-miterlimit:10;}
	.st54{fill:none;stroke:#363092;stroke-width:5;stroke-miterlimit:10;}
	.st55{fill:none;stroke:#353192;stroke-width:5;stroke-miterlimit:10;}
	.st56{fill:none;stroke:#343192;stroke-width:5;stroke-miterlimit:10;}
	.st57{fill:none;stroke:#333192;stroke-width:5;stroke-miterlimit:10;}
	.st58{fill:none;stroke:#323192;stroke-width:5;stroke-miterlimit:10;}
	.st59{fill:none;stroke:#313192;stroke-width:5;stroke-miterlimit:10;}
	.st60{fill:none;stroke:#303192;stroke-width:5;stroke-miterlimit:10;}
	.st61{fill:none;stroke:#2F3192;stroke-width:5;stroke-miterlimit:10;}
	.st62{fill:none;stroke:#2E3192;stroke-width:5;stroke-miterlimit:10;}
	.st63{opacity:0.58;clip-path:url(#SVGID_6_);fill:url(#SVGID_8_);}
	.st64{opacity:0.58;clip-path:url(#SVGID_6_);fill:url(#SVGID_9_);}
	.st65{opacity:0.7;clip-path:url(#SVGID_6_);}
	.st66{fill:none;stroke:#00A99D;stroke-width:3;stroke-miterlimit:10;}
	.st67{fill:none;stroke:#00A69F;stroke-width:3.125;stroke-miterlimit:10;}
	.st68{fill:none;stroke:#00A2A1;stroke-width:3.25;stroke-miterlimit:10;}
	.st69{fill:none;stroke:#009FA3;stroke-width:3.375;stroke-miterlimit:10;}
	.st70{fill:none;stroke:#009BA5;stroke-width:3.5;stroke-miterlimit:10;}
	.st71{fill:none;stroke:#0098A7;stroke-width:3.625;stroke-miterlimit:10;}
	.st72{fill:none;stroke:#0094A9;stroke-width:3.75;stroke-miterlimit:10;}
	.st73{fill:none;stroke:#0091AB;stroke-width:3.875;stroke-miterlimit:10;}
	.st74{fill:none;stroke:#008DAD;stroke-width:4;stroke-miterlimit:10;}
	.st75{fill:none;stroke:#008AAE;stroke-width:4.125;stroke-miterlimit:10;}
	.st76{fill:none;stroke:#0086B0;stroke-width:4.25;stroke-miterlimit:10;}
	.st77{fill:none;stroke:#0083B2;stroke-width:4.375;stroke-miterlimit:10;}
	.st78{fill:none;stroke:#007FB4;stroke-width:4.5;stroke-miterlimit:10;}
	.st79{fill:none;stroke:#007CB6;stroke-width:4.625;stroke-miterlimit:10;}
	.st80{fill:none;stroke:#0078B8;stroke-width:4.75;stroke-miterlimit:10;}
	.st81{fill:none;stroke:#0075BA;stroke-width:4.875;stroke-miterlimit:10;}
	.st82{fill:none;stroke:#0071BC;stroke-width:5;stroke-miterlimit:10;}
</style>
<g id="Layer_1" class="st0">
</g>
<g id="Layer_3">
	<g>
		<defs>
			<rect id="SVGID_1_" x="0.5" y="0.5" width="599" height="332"/>
		</defs>
		<clipPath id="SVGID_2_">
			<use xlink:href="#SVGID_1_"  style="overflow:visible;"/>
		</clipPath>
		<g class="st1">
			<defs>
				<rect id="SVGID_3_" x="0.5" y="0.5" width="600" height="354.5"/>
			</defs>
			<clipPath id="SVGID_4_">
				<use xlink:href="#SVGID_3_"  style="overflow:visible;"/>
			</clipPath>
			<g class="st2">
				<defs>
					<rect id="SVGID_5_" x="0.5" y="-72.1" width="600" height="427.1"/>
				</defs>
				<clipPath id="SVGID_6_">
					<use xlink:href="#SVGID_5_"  style="overflow:visible;"/>
				</clipPath>
				
					<linearGradient id="SVGID_7_" gradientUnits="userSpaceOnUse" x1="-13.761" y1="124.0044" x2="738.9096" y2="124.0044" gradientTransform="matrix(0.997 -7.782170e-02 8.331320e-02 1.0673 -10.162 2.1635)">
					<stop  offset="0" style="stop-color:#93278F"/>
					<stop  offset="0.9883" style="stop-color:#2E3192"/>
				</linearGradient>
				<path class="st3" d="M-0.2,307c0,0,200.7-36.4,316.7-3.3s213,51.3,374.3-67.2c132.4-191.6-60-381.8-60-381.8L-12.7-84.4
					L-0.2,307z"/>
				<g class="st4">
					<path class="st5" d="M364.5-72.1c21,104.6-39,166.6-135,165.5c-96-1.1-192,8.5-229,214.6"/>
					<path class="st6" d="M366.5-72.1c22.1,106.7-39,168-135.9,166.5S38.3,103.5,1.9,307.7"/>
					<path class="st7" d="M368.4-72.1c23.2,108.8-39,169.5-136.8,167.5S39.2,105,3.2,307.3"/>
					<path class="st8" d="M370.4-72.1C394.8,38.8,331.4,98.8,232.7,96.4S40,106.5,4.6,307"/>
					<path class="st9" d="M372.4-72.1c25.5,113-38.9,172.3-138.6,169.6S40.9,108.1,5.9,306.6"/>
					<path class="st10" d="M374.3-72.1C400.9,43,335.4,101.7,234.8,98.5S41.7,109.6,7.3,306.2"/>
					<path class="st11" d="M376.3-72.1C404,45.1,337.4,103.1,235.8,99.5S42.6,111.2,8.6,305.9"/>
					<path class="st12" d="M378.3-72.1c28.9,119.3-38.9,176.7-141.4,172.6C134.4,96.4,43.4,112.7,10,305.5"/>
					<path class="st13" d="M380.2-72.1c30,121.4-38.9,178.1-142.3,173.6S44.2,114.2,11.3,305.2"/>
					<path class="st14" d="M382.2-72.1C413.3,51.4,343.3,107.4,239,102.5S45.1,115.8,12.7,304.8"/>
					<path class="st15" d="M384.1-72.1c32.2,125.6-38.8,181-144.1,175.6S45.9,117.3,14,304.5"/>
					<path class="st16" d="M386.1-72.1c33.4,127.7-38.8,182.4-145,176.6S46.8,118.8,15.4,304.1"/>
					<path class="st17" d="M388.1-72.1c34.5,129.8-38.8,183.9-145.9,177.6C135,99.3,47.6,120.4,16.7,303.7"/>
					<path class="st18" d="M390-72.1c35.6,131.9-38.8,185.3-146.9,178.7C135.1,99.9,48.4,121.9,18.1,303.4"/>
					<path class="st19" d="M392-72.1c36.7,134-38.8,186.8-147.8,179.7c-109-7.1-194.9,15.9-224.8,195.5"/>
					<path class="st20" d="M394-72.1C431.8,64,355.2,116.1,245.3,108.6C135.3,101,50.1,125,20.8,302.7"/>
					<path class="st21" d="M395.9-72.1c39,138.2-38.7,189.7-149.6,181.7S51,126.5,22.1,302.3"/>
					<path class="st22" d="M397.9-72.1C438,68.2,359.2,119,247.4,110.6S51.8,128.1,23.5,302"/>
					<path class="st23" d="M399.9-72.1c41.2,142.4-38.7,192.5-151.4,183.7s-195.8,18-223.6,190"/>
					<path class="st24" d="M401.8-72.1c42.3,144.5-38.7,194-152.3,184.7s-196,18.5-223.3,188.6"/>
					<path class="st25" d="M403.8-72.1c43.5,146.6-38.6,195.4-153.2,185.7s-196.2,19-223,187.3"/>
					<path class="st26" d="M405.8-72.1c44.6,148.7-38.6,196.9-154.2,186.7S55.2,134.2,28.9,300.5"/>
					<path class="st27" d="M407.7-72.1c45.7,150.8-38.6,198.3-155.1,187.8S56,135.7,30.2,300.2"/>
					<path class="st28" d="M409.7-72.1c46.8,152.9-38.6,199.7-156,188.8S56.9,137.3,31.6,299.8"/>
					<path class="st29" d="M411.7-72.1c47.9,155-38.6,201.2-156.9,189.8S57.7,138.8,32.9,299.5"/>
					<path class="st30" d="M413.6-72.1C462.7,85,375.1,130.5,255.8,118.7S58.6,140.3,34.3,299.1"/>
					<path class="st31" d="M415.6-72.1C465.8,87.1,377,132,256.9,119.7S59.4,141.9,35.6,298.8"/>
					<path class="st32" d="M417.6-72.1C468.9,89.2,379,133.4,257.9,120.7S60.2,143.4,37,298.4"/>
					<path class="st33" d="M419.5-72.1C472,91.3,381,134.9,259,121.7S61.1,144.9,38.3,298.1"/>
					<path class="st34" d="M421.5-72.1C475,93.4,383,136.3,260,122.7s-198.1,23.8-220.4,175"/>
					<path class="st35" d="M423.4-72.1C478.1,95.5,385,137.7,261.1,123.7S62.8,148,41,297.3"/>
					<path class="st36" d="M425.4-72.1C481.2,97.6,387,139.2,262.1,124.8S63.6,149.6,42.4,297"/>
					<path class="st37" d="M427.4-72.1c56.9,171.8-38.4,212.7-164.2,197.9S64.4,151.1,43.7,296.6"/>
					<path class="st38" d="M429.3-72.1c58.1,173.9-38.4,214.2-165.1,198.9S65.3,152.6,45.1,296.3"/>
					<path class="st39" d="M431.3-72.1c59.2,176-38.4,215.6-166,199.9S66.1,154.2,46.4,295.9"/>
					<path class="st40" d="M433.3-72.1c60.3,178.1-38.4,217.1-166.9,200.9S67,155.7,47.8,295.6"/>
					<path class="st41" d="M435.2-72.1c61.4,180.2-38.4,218.5-167.8,201.9S67.8,157.2,49.1,295.2"/>
					<path class="st42" d="M437.2-72.1c62.5,182.3-38.4,219.9-168.8,202.9s-199.8,27.9-218,164"/>
					<path class="st43" d="M439.2-72.1c63.7,184.4-38.3,221.4-169.7,203.9s-200,28.5-217.7,162.7"/>
					<path class="st44" d="M441.1-72.1c64.8,186.5-38.3,222.8-170.6,205s-200.2,29-217.4,161.3"/>
					<path class="st45" d="M443.1-72.1c65.9,188.6-38.3,224.3-171.5,206S71.2,163.4,54.5,293.8"/>
					<path class="st46" d="M445.1-72.1c67,190.7-38.3,225.7-172.4,207S72,164.9,55.9,293.4"/>
					<path class="st47" d="M447-72.1c68.2,192.8-38.3,227.2-173.3,208S72.9,166.5,57.2,293.1"/>
					<path class="st48" d="M449-72.1c69.3,194.9-38.2,228.6-174.2,209S73.7,168,58.6,292.7"/>
					<path class="st49" d="M451-72.1c70.4,197-38.2,230-175.1,210S74.6,169.5,59.9,292.4"/>
					<path class="st50" d="M452.9-72.1c71.5,199.1-38.2,231.5-176.1,211S75.4,171.1,61.3,292"/>
					<path class="st51" d="M454.9-72.1c72.6,201.2-38.2,232.9-177,212S76.2,172.6,62.6,291.6"/>
					<path class="st52" d="M456.9-72.1c73.8,203.3-38.2,234.4-177.9,213S77.1,174.1,64,291.3"/>
					<path class="st53" d="M458.8-72.1C533.7,133.2,420.7,163.7,280,142s-202.1,33.7-214.7,149"/>
					<path class="st54" d="M460.8-72.1c76,207.4-38.1,237.3-179.7,215.1S78.8,177.2,66.7,290.6"/>
					<path class="st55" d="M462.7-72.1c77.1,209.5-38.1,238.7-180.6,216.1S79.6,178.7,68,290.2"/>
					<path class="st56" d="M464.7-72.1C543,139.5,426.6,168,283.2,145S80.4,180.3,69.4,289.9"/>
					<path class="st57" d="M466.7-72.1c79.4,213.7-38.1,241.6-182.4,218.1S81.3,181.8,70.7,289.5"/>
					<path class="st58" d="M468.6-72.1c80.5,215.8-38.1,243-183.4,219.1S82.1,183.4,72.1,289.2"/>
					<path class="st59" d="M470.6-72.1c81.6,217.9-38.1,244.5-184.3,220.1S83,184.9,73.4,288.8"/>
					<path class="st60" d="M472.6-72.1c82.8,220-38,245.9-185.2,221.1S83.8,186.4,74.8,288.4"/>
					<path class="st61" d="M474.5-72.1c83.9,222.1-38,247.3-186.1,222.2S84.7,188,76.1,288.1"/>
					<path class="st62" d="M476.5-72.1c85,224.2-38,248.8-187,223.2s-204,38.4-212,136.7"/>
				</g>
				<linearGradient id="SVGID_8_" gradientUnits="userSpaceOnUse" x1="129" y1="-6.9744" x2="228" y2="-6.9744">
					<stop  offset="0" style="stop-color:#9E005D"/>
					<stop  offset="0.9883" style="stop-color:#29ABE2"/>
				</linearGradient>
				<ellipse class="st63" cx="178.5" cy="-7" rx="49.5" ry="52.9"/>
				<linearGradient id="SVGID_9_" gradientUnits="userSpaceOnUse" x1="455" y1="261.0361" x2="554" y2="261.0361">
					<stop  offset="0" style="stop-color:#9E005D"/>
					<stop  offset="0.9883" style="stop-color:#29ABE2"/>
				</linearGradient>
				<ellipse class="st64" cx="504.5" cy="261" rx="49.5" ry="52.9"/>
				<g class="st65">
					<path class="st66" d="M0.5,49.6c115-90.8,310-102.5,600,179.4"/>
					<path class="st67" d="M0.5,61.2c119.2-91.8,328.1-93.3,600,171"/>
					<path class="st68" d="M0.5,72.8c123.4-92.9,346.3-84.1,600,162.6"/>
					<path class="st69" d="M0.5,84.5c127.6-94,364.4-74.9,600,154.2"/>
					<path class="st70" d="M0.5,96.1C132.3,1,383,30.4,600.5,241.8"/>
					<path class="st71" d="M0.5,107.7c135.9-96.1,400.6-56.5,600,137.3"/>
					<path class="st72" d="M0.5,119.3c140.1-97.2,418.8-47.2,600,128.9"/>
					<path class="st73" d="M0.5,130.9c144.3-98.2,436.9-38,600,120.5"/>
					<path class="st74" d="M0.5,142.5c148.5-99.3,455-28.8,600,112.1"/>
					<path class="st75" d="M0.5,154.1c152.7-100.4,473.1-19.6,600,103.7"/>
					<path class="st76" d="M0.5,165.7c156.9-101.4,491.3-10.4,600,95.3"/>
					<path class="st77" d="M0.5,177.3c161.1-102.5,509.4-1.2,600,86.9"/>
					<path class="st78" d="M0.5,189c165.3-103.6,527.5,8,600,78.5"/>
					<path class="st79" d="M0.5,200.6c169.4-104.6,545.6,17.2,600,70.1"/>
					<path class="st80" d="M0.5,212.2c173.6-105.7,563.8,26.4,600,61.7"/>
					<path class="st81" d="M0.5,223.8c177.8-106.8,581.9,35.6,600,53.3"/>
					<path class="st82" d="M0.5,235.4c182-107.8,600,44.8,600,44.8"/>
				</g>
			</g>
		</g>
	</g>
</g>
<g id="Layer_2" class="st0">
</g>
</svg>
