<?xml version="1.0" encoding="utf-8"?>
<!-- Generator: Adobe Illustrator 23.0.0, SVG Export Plug-In . SVG Version: 6.00 Build 0)  -->
<svg version="1.1" id="Layer_1" xmlns="http://www.w3.org/2000/svg" xmlns:xlink="http://www.w3.org/1999/xlink" x="0px" y="0px"
	 viewBox="0 0 600 287" style="enable-background:new 0 0 600 287;" xml:space="preserve">
<style type="text/css">
	.st0{fill:url(#SVGID_1_);}
	.st1{opacity:0.33;}
	.st2{fill:none;stroke:#00FF00;stroke-width:2;stroke-miterlimit:10;}
	.st3{fill:none;stroke:#00FA06;stroke-width:2;stroke-miterlimit:10;}
	.st4{fill:none;stroke:#00F60C;stroke-width:2;stroke-miterlimit:10;}
	.st5{fill:none;stroke:#00F112;stroke-width:2;stroke-miterlimit:10;}
	.st6{fill:none;stroke:#00ED18;stroke-width:2;stroke-miterlimit:10;}
	.st7{fill:none;stroke:#00E81E;stroke-width:2;stroke-miterlimit:10;}
	.st8{fill:none;stroke:#00E424;stroke-width:2;stroke-miterlimit:10;}
	.st9{fill:none;stroke:#00DF2A;stroke-width:2;stroke-miterlimit:10;}
	.st10{fill:none;stroke:#00DA31;stroke-width:2;stroke-miterlimit:10;}
	.st11{fill:none;stroke:#00D637;stroke-width:2;stroke-miterlimit:10;}
	.st12{fill:none;stroke:#00D13D;stroke-width:2;stroke-miterlimit:10;}
	.st13{fill:none;stroke:#00CD43;stroke-width:2;stroke-miterlimit:10;}
	.st14{fill:none;stroke:#00C849;stroke-width:2;stroke-miterlimit:10;}
	.st15{fill:none;stroke:#00C34F;stroke-width:2;stroke-miterlimit:10;}
	.st16{fill:none;stroke:#00BF55;stroke-width:2;stroke-miterlimit:10;}
	.st17{fill:none;stroke:#00BA5B;stroke-width:2;stroke-miterlimit:10;}
	.st18{fill:none;stroke:#00B661;stroke-width:2;stroke-miterlimit:10;}
	.st19{fill:none;stroke:#00B167;stroke-width:2;stroke-miterlimit:10;}
	.st20{fill:none;stroke:#00AD6D;stroke-width:2;stroke-miterlimit:10;}
	.st21{fill:none;stroke:#00A873;stroke-width:2;stroke-miterlimit:10;}
	.st22{fill:none;stroke:#00A379;stroke-width:2;stroke-miterlimit:10;}
	.st23{fill:none;stroke:#009F7F;stroke-width:2;stroke-miterlimit:10;}
	.st24{fill:none;stroke:#009A85;stroke-width:2;stroke-miterlimit:10;}
	.st25{fill:none;stroke:#00968B;stroke-width:2;stroke-miterlimit:10;}
	.st26{fill:none;stroke:#009192;stroke-width:2;stroke-miterlimit:10;}
	.st27{fill:none;stroke:#008C98;stroke-width:2;stroke-miterlimit:10;}
	.st28{fill:none;stroke:#00889E;stroke-width:2;stroke-miterlimit:10;}
	.st29{fill:none;stroke:#0083A4;stroke-width:2;stroke-miterlimit:10;}
	.st30{fill:none;stroke:#007FAA;stroke-width:2;stroke-miterlimit:10;}
	.st31{fill:none;stroke:#007AB0;stroke-width:2;stroke-miterlimit:10;}
	.st32{fill:none;stroke:#0076B6;stroke-width:2;stroke-miterlimit:10;}
	.st33{fill:none;stroke:#0071BC;stroke-width:2;stroke-miterlimit:10;}
</style>
<linearGradient id="SVGID_1_" gradientUnits="userSpaceOnUse" x1="0" y1="143.5" x2="600" y2="143.5">
	<stop  offset="0" style="stop-color:#6AECFF"/>
	<stop  offset="1" style="stop-color:#AAFFDE"/>
</linearGradient>
<rect class="st0" width="600" height="287"/>
<g class="st1">
	<path class="st2" d="M-0.5,98.3c33-44,106-45,130-4s43,55,133,34s67-41,121-41s33,40,110,41s66-56,106-45"/>
	<path class="st3" d="M-0.5,96.5c33.6-40,106.5-43.3,132-3.8c2.2,3.4,4.3,6.6,6.5,9.6c23.2,32.3,42.6,45.7,126.7,27
		c90-20,67.8-40.5,120.3-41.5c31.4-0.6,36.8,12.7,52.7,23.6c10.8,7.4,26,13.9,56.6,14.6c75.9,1.7,66.5-51.4,105.2-40.8"/>
	<path class="st4" d="M-0.5,94.7C33.7,58.7,106.6,53,133.4,91c2.3,3.3,4.5,6.4,6.8,9.3c24.9,31.5,40.7,48.3,126.6,30
		c90-19.1,68.7-40,119.6-41.9c30.4-1.1,35.8,11.2,52.1,21.2c11,6.8,26.4,13.3,56.6,14.3c74.9,2.5,67-46.8,104.4-36.5"/>
	<path class="st5" d="M-0.5,92.9c34.7-32,107.6-40,135.9-3.5c2.4,3.1,4.7,6.2,7.1,9c26.5,30.7,38.7,50.8,126.5,33
		c90-18.2,69.5-39.6,118.9-42.4c29.5-1.7,34.9,9.6,51.4,18.8c11.3,6.3,26.9,12.6,56.6,13.9c73.8,3.2,67.4-42.2,103.6-32.3"/>
	<path class="st6" d="M-0.5,91.1c35.3-28,108.1-38.3,137.8-3.4c2.5,3,4.9,5.9,7.5,8.6c28.2,29.9,36.7,53.3,126.3,36
		c89.9-17.3,70.3-39.1,118.2-42.8c28.6-2.2,34,8.1,50.8,16.4c11.5,5.7,27.3,11.9,56.6,13.5c72.8,4,67.9-37.6,102.7-28"/>
	<path class="st7" d="M-0.5,89.3c35.9-24,108.6-36.7,139.8-3.2c2.6,2.8,5.1,5.7,7.8,8.3c29.8,29.1,34.7,55.8,126.2,39
		c89.9-16.5,71.1-38.6,117.5-43.3c27.7-2.8,33,6.5,50.1,14.1c11.8,5.2,27.7,11.2,56.6,13.1c71.7,4.7,68.4-33,101.9-23.8"/>
	<path class="st8" d="M-0.5,87.5c36.5-20,109.1-35,141.8-3.1c2.8,2.7,5.3,5.4,8.1,7.9c31.5,28.2,32.6,58.2,126.1,42
		c89.9-15.6,72-38.1,116.9-43.7c26.8-3.3,32.1,5,49.5,11.7c12.1,4.6,28.1,10.5,56.6,12.8c70.7,5.5,68.9-28.4,101.1-19.5"/>
	<path class="st9" d="M-0.5,85.7c37.1-16,109.5-33.4,143.7-2.9c2.9,2.6,5.6,5.2,8.5,7.6c33.3,27.4,30.6,60.7,125.9,45
		c89.8-14.8,72.8-37.6,116.2-44.2c25.9-3.9,31.2,3.4,48.9,9.3c12.3,4.1,28.5,9.9,56.6,12.4c69.6,6.2,69.3-23.8,100.3-15.3"/>
	<path class="st10" d="M-0.5,83.9c37.7-12,110-31.7,145.7-2.8c3,2.4,5.8,5,8.8,7.2c35,26.5,28.6,63.1,125.8,48
		c89.8-14,73.6-37.2,115.5-44.6c25-4.5,30.3,1.8,48.2,6.9c12.6,3.6,28.9,9.2,56.5,12c68.6,6.9,69.8-19.2,99.5-11"/>
	<path class="st11" d="M-0.5,82.1c38.2-8,110.5-30,147.7-2.6c3.1,2.3,6,4.7,9.1,6.9c36.8,25.7,26.6,65.6,125.7,51
		c89.7-13.2,74.5-36.7,114.8-45.1c24.1-5,29.4,0.3,47.6,4.5c12.9,3,29.3,8.5,56.5,11.6c67.5,7.7,70.3-14.6,98.7-6.8"/>
	<path class="st12" d="M-0.5,80.3c38.8-4,110.9-28.3,149.6-2.5c3.2,2.1,6.2,4.5,9.4,6.6c38.6,24.8,24.6,68,125.6,54
		c89.7-12.4,75.3-36.2,114.1-45.6c23.2-5.6,28.4-1.3,46.9,2.2c13.1,2.4,29.7,7.8,56.5,11.2c66.5,8.4,70.8-10,97.9-2.5"/>
	<path class="st13" d="M-0.5,78.5c39.4,0,111.3-26.7,151.6-2.3c3.3,2,6.4,4.2,9.8,6.2c40.4,23.9,22.5,70.4,125.4,57
		c89.6-11.6,76.1-35.7,113.4-46c22.3-6.1,27.5-2.9,46.3-0.2c13.4,1.9,30.1,7.1,56.5,10.9c65.4,9.2,71.2-5.4,97,1.7"/>
	<path class="st14" d="M-0.5,76.7c40,3.9,111.7-25,153.5-2.2c3.4,1.9,6.7,4,10.1,5.9c42.2,23,20.5,72.8,125.3,60
		c89.5-10.9,76.9-35.2,112.7-46.5c21.4-6.7,26.6-4.5,45.6-2.6c13.7,1.3,30.5,6.5,56.5,10.5c64.4,9.9,71.7-0.8,96.2,6"/>
	<path class="st15" d="M-0.5,74.9c40.6,7.9,112.2-23.3,155.5-2c3.5,1.7,6.9,3.7,10.4,5.5c44,22.1,18.5,75.1,125.2,63
		c89.5-10.2,77.8-34.8,112-46.9c20.5-7.3,25.7-6,45-5c14,0.8,30.9,5.8,56.5,10.1c63.3,10.7,72.2,3.8,95.4,10.2"/>
	<path class="st16" d="M-0.5,73.1C40.7,85.1,112.1,51.6,157,71.3c3.6,1.6,7.1,3.5,10.8,5.2c45.9,21.1,16.4,77.5,125,66
		c89.4-9.4,78.6-34.3,111.3-47.4c19.5-7.8,24.8-6.8,44.4-7.4c14.3-0.4,31.3,5.1,56.5,9.7c62.3,11.4,72.7,8.4,94.6,14.5"/>
	<path class="st17" d="M-0.5,71.4c41.7,15.9,113-19.8,159.4-1.7c3.7,1.5,7.3,3.2,11.1,4.8c47.7,20.2,14.4,79.8,124.9,69
		c89.3-8.7,79.4-33.8,110.6-47.8c18.6-8.4,23.9-9.2,43.7-9.8c14.5-0.4,31.7,4.4,56.5,9.4c61.2,12.1,73.1,13,93.8,18.7"/>
	<path class="st18" d="M-0.5,69.6C41.8,89.5,112.9,51.5,160.9,68c3.8,1.3,7.6,3,11.4,4.5c49.5,19.2,12.3,82.1,124.8,72
		c89.3-8,80.3-33.3,109.9-48.3c17.7-8.9,23-10.8,43.1-12.1c14.8-1,32.1,3.7,56.4,9c60.2,12.9,73.6,17.6,93,23"/>
	<path class="st19" d="M-0.5,67.8c42.9,23.9,113.8-16.3,163.3-1.4c3.9,1.2,7.8,2.7,11.8,4.1c51.4,18.2,10.3,84.4,124.6,75
		c89.2-7.4,81.1-32.8,109.2-48.7c16.8-9.5,22.1-12.5,42.4-14.5c15.1-1.5,32.5,3.1,56.4,8.6c59.1,13.6,74.1,22.2,92.1,27.2"/>
	<path class="st20" d="M-0.5,66C43,93.9,113.7,51.4,164.8,64.7c4.1,1.1,8,2.5,12.1,3.8c53.2,17.2,8.3,86.7,124.5,78
		c89.1-6.7,81.9-32.4,108.6-49.2c15.9-10,21.2-14.1,41.8-16.9c15.4-2.1,32.9,2.4,56.4,8.2c58.1,14.4,74.6,26.8,91.3,31.5"/>
	<path class="st21" d="M-0.5,64.2C43.6,96.1,114.1,51.4,166.8,63c4.2,0.9,8.2,2.2,12.4,3.5c55,16.2,6.2,89,124.4,81
		c89.1-6,82.7-31.9,107.9-49.6c15-10.6,20.3-15.7,41.1-19.3c15.6-2.7,33.3,1.7,56.4,7.9c57,15.1,75,31.4,90.5,35.7"/>
	<path class="st22" d="M-0.5,62.4c44.7,35.9,115-11,169.2-1c4.3,0.8,8.5,2,12.8,3.1c56.9,15.1,4.2,91.2,124.2,84
		c89-5.4,83.6-31.4,107.2-50.1c14.1-11.2,19.4-17.3,40.5-21.7c15.9-3.3,33.7,1,56.4,7.5c56,15.9,75.5,36,89.7,39.9"/>
	<path class="st23" d="M-0.5,60.6c45.2,39.9,115.4-9.3,171.2-0.8c4.4,0.7,8.7,1.7,13.1,2.8c58.7,14.1,2.1,93.5,124.1,87
		c88.9-4.7,84.4-30.9,106.5-50.6c13.2-11.7,18.4-18.9,39.9-24.1c16.2-3.9,34.1,0.3,56.4,7.1c54.9,16.6,76,40.6,88.9,44.2"/>
	<path class="st24" d="M-0.5,58.8c45.8,43.9,115.8-7.5,173.2-0.7c4.5,0.5,8.9,1.5,13.4,2.4c60.5,13,0.1,95.7,124,90
		c88.8-4.1,85.2-30.4,105.8-51c12.3-12.3,17.5-20.5,39.2-26.4c16.5-4.5,34.5-0.3,56.4,6.7c53.8,17.3,76.5,45.2,88.1,48.4"/>
	<path class="st25" d="M-0.5,57c46.4,47.9,116.3-5.7,175.1-0.5c4.6,0.4,9.1,1.2,13.7,2.1c62.4,11.9-1.9,97.9,123.8,93
		c88.8-3.5,86-30,105.1-51.5c11.4-12.8,16.6-22.2,38.6-28.8c16.7-5.1,35-1,56.4,6.4c52.8,18.1,76.9,49.8,87.3,52.7"/>
	<path class="st26" d="M-0.5,55.2c47,51.9,116.7-3.9,177.1-0.4c4.7,0.3,9.4,0.9,14.1,1.7c64.2,10.8-4,100.1,123.7,96
		c88.7-2.9,86.9-29.5,104.4-51.9c10.5-13.4,15.7-23.8,37.9-31.2c17-5.7,35.4-1.7,56.3,6c51.7,18.8,77.4,54.4,86.4,56.9"/>
	<path class="st27" d="M-0.5,53.4c47.6,55.9,117.1-2.1,179-0.2c4.8,0.1,9.6,0.7,14.4,1.4c66,9.7-6,102.3,123.6,99
		c88.6-2.2,87.7-29,103.7-52.4c9.6-14,14.7-25.4,37.3-33.6c17.3-6.3,35.8-2.4,56.3,5.6c50.7,19.6,77.9,59.1,85.6,61.2"/>
	<path class="st28" d="M-0.5,51.6c48.2,59.9,117.5-1.1,181-0.1c4.9,0.1,9.8,0.4,14.7,1.1c67.8,8.6-8.1,104.4,123.5,102
		c88.6-1.6,88.5-28.5,103-52.8c8.7-14.5,13.8-27,36.6-36c17.5-6.9,36.2-3.1,56.3,5.2c49.6,20.3,78.4,63.7,84.8,65.4"/>
	<path class="st29" d="M-0.5,49.8c48.7,63.9,118,1.5,183,0.1c5-0.1,10,0.2,15.1,0.7c69.6,7.5-10.1,106.6,123.3,105
		c88.5-1.1,89.4-28,102.3-53.3c7.7-15.1,12.9-28.7,36-38.4c17.8-7.4,36.6-3.7,56.3,4.8c48.6,21.1,78.8,68.3,84,69.7"/>
	<path class="st30" d="M-0.5,48c49.3,67.9,118.4,3.3,184.9,0.2c5.1-0.2,10.3-0.1,15.4,0.4c71.4,6.4-12.1,108.7,123.2,108
		c88.5-0.5,90.2-27.6,101.6-53.7c6.8-15.6,11.9-30.3,35.4-40.7c18-8,37-4.4,56.3,4.5c47.5,21.8,79.3,72.9,83.2,73.9"/>
	<path class="st31" d="M-0.5,46.2c49.9,71.9,118.9,5.2,186.9,0.4c5.2-0.4,10.5-0.4,15.7,0c73.2,5.3-14.1,111.7,123.1,111
		c88.4-0.5,91-27.1,101-54.2c5.9-16.2,11-31.9,34.7-43.1c18.3-8.6,37.4-5.1,56.3,4.1c46.5,22.5,79.8,77.5,82.4,78.2"/>
	<path class="st32" d="M-0.5,44.5C50,120.3,118.8,51.5,188.3,45c5.3-0.5,10.7-0.6,16.1-0.3c75,4.1-16.2,112.7,122.9,114
		c88.3,0.5,91.8-26.6,100.3-54.7c5-16.7,10.1-33.6,34.1-45.5c18.5-9.3,37.8-5.8,56.3,3.7c45.4,23.3,80.3,82.1,81.6,82.4"/>
	<path class="st33" d="M-0.5,42.7c55,86,130.4-3,207.2,0s-18.2,115,122.8,117s68-69,133-103s137,90,137,90"/>
</g>
</svg>
