<svg id="Layer_1" data-name="Layer 1" xmlns="http://www.w3.org/2000/svg" xmlns:xlink="http://www.w3.org/1999/xlink" viewBox="0 0 1920 1080"><defs><style>.cls-1{opacity:0.64;fill:url(#linear-gradient);}.cls-2{mask:url(#mask);}.cls-10,.cls-100,.cls-101,.cls-102,.cls-103,.cls-104,.cls-105,.cls-106,.cls-107,.cls-108,.cls-109,.cls-11,.cls-110,.cls-111,.cls-112,.cls-113,.cls-114,.cls-115,.cls-116,.cls-117,.cls-118,.cls-119,.cls-12,.cls-120,.cls-121,.cls-122,.cls-123,.cls-124,.cls-125,.cls-126,.cls-127,.cls-128,.cls-129,.cls-13,.cls-130,.cls-131,.cls-132,.cls-133,.cls-134,.cls-135,.cls-136,.cls-137,.cls-138,.cls-139,.cls-14,.cls-140,.cls-15,.cls-16,.cls-17,.cls-18,.cls-19,.cls-20,.cls-21,.cls-22,.cls-23,.cls-24,.cls-25,.cls-26,.cls-27,.cls-28,.cls-29,.cls-3,.cls-30,.cls-31,.cls-32,.cls-33,.cls-34,.cls-35,.cls-36,.cls-37,.cls-38,.cls-39,.cls-4,.cls-40,.cls-41,.cls-42,.cls-43,.cls-44,.cls-45,.cls-46,.cls-47,.cls-48,.cls-49,.cls-5,.cls-50,.cls-51,.cls-52,.cls-53,.cls-54,.cls-55,.cls-56,.cls-57,.cls-58,.cls-59,.cls-6,.cls-60,.cls-61,.cls-62,.cls-63,.cls-64,.cls-65,.cls-66,.cls-67,.cls-68,.cls-69,.cls-7,.cls-70,.cls-71,.cls-72,.cls-73,.cls-74,.cls-75,.cls-76,.cls-77,.cls-78,.cls-79,.cls-8,.cls-80,.cls-81,.cls-82,.cls-83,.cls-84,.cls-85,.cls-86,.cls-87,.cls-88,.cls-89,.cls-9,.cls-90,.cls-91,.cls-92,.cls-93,.cls-94,.cls-95,.cls-96,.cls-97,.cls-98,.cls-99{fill:none;}.cls-3{stroke:#bd00ff;}.cls-10,.cls-100,.cls-101,.cls-102,.cls-103,.cls-104,.cls-105,.cls-106,.cls-107,.cls-108,.cls-109,.cls-11,.cls-110,.cls-111,.cls-112,.cls-113,.cls-114,.cls-115,.cls-116,.cls-117,.cls-118,.cls-119,.cls-12,.cls-120,.cls-121,.cls-122,.cls-123,.cls-124,.cls-125,.cls-126,.cls-127,.cls-128,.cls-129,.cls-130,.cls-131,.cls-132,.cls-133,.cls-134,.cls-135,.cls-136,.cls-137,.cls-138,.cls-139,.cls-14,.cls-140,.cls-17,.cls-18,.cls-19,.cls-20,.cls-21,.cls-22,.cls-23,.cls-24,.cls-25,.cls-26,.cls-27,.cls-28,.cls-29,.cls-3,.cls-30,.cls-31,.cls-32,.cls-33,.cls-34,.cls-35,.cls-36,.cls-37,.cls-38,.cls-39,.cls-40,.cls-41,.cls-42,.cls-43,.cls-44,.cls-45,.cls-46,.cls-47,.cls-48,.cls-49,.cls-5,.cls-50,.cls-51,.cls-52,.cls-53,.cls-54,.cls-55,.cls-56,.cls-57,.cls-58,.cls-59,.cls-6,.cls-60,.cls-61,.cls-62,.cls-63,.cls-64,.cls-65,.cls-66,.cls-67,.cls-68,.cls-69,.cls-7,.cls-70,.cls-71,.cls-72,.cls-73,.cls-74,.cls-75,.cls-76,.cls-77,.cls-78,.cls-79,.cls-8,.cls-80,.cls-81,.cls-82,.cls-83,.cls-84,.cls-85,.cls-86,.cls-87,.cls-88,.cls-89,.cls-9,.cls-90,.cls-91,.cls-92,.cls-93,.cls-94,.cls-95,.cls-96,.cls-97,.cls-98,.cls-99{stroke-miterlimit:10;}.cls-100,.cls-101,.cls-102,.cls-103,.cls-104,.cls-105,.cls-106,.cls-107,.cls-108,.cls-109,.cls-11,.cls-110,.cls-111,.cls-112,.cls-113,.cls-114,.cls-115,.cls-116,.cls-117,.cls-118,.cls-119,.cls-12,.cls-120,.cls-121,.cls-122,.cls-123,.cls-124,.cls-125,.cls-126,.cls-127,.cls-128,.cls-129,.cls-13,.cls-130,.cls-131,.cls-132,.cls-133,.cls-134,.cls-135,.cls-136,.cls-137,.cls-138,.cls-139,.cls-14,.cls-140,.cls-15,.cls-16,.cls-17,.cls-18,.cls-19,.cls-20,.cls-22,.cls-23,.cls-24,.cls-25,.cls-26,.cls-28,.cls-29,.cls-3,.cls-30,.cls-31,.cls-32,.cls-33,.cls-34,.cls-35,.cls-36,.cls-38,.cls-39,.cls-4,.cls-40,.cls-41,.cls-42,.cls-44,.cls-45,.cls-46,.cls-47,.cls-48,.cls-49,.cls-5,.cls-50,.cls-51,.cls-52,.cls-53,.cls-54,.cls-55,.cls-56,.cls-57,.cls-58,.cls-59,.cls-6,.cls-60,.cls-61,.cls-62,.cls-63,.cls-64,.cls-65,.cls-66,.cls-67,.cls-68,.cls-69,.cls-7,.cls-70,.cls-71,.cls-72,.cls-73,.cls-74,.cls-75,.cls-76,.cls-77,.cls-78,.cls-79,.cls-8,.cls-80,.cls-81,.cls-82,.cls-83,.cls-84,.cls-85,.cls-86,.cls-87,.cls-88,.cls-89,.cls-9,.cls-90,.cls-91,.cls-92,.cls-93,.cls-94,.cls-95,.cls-96,.cls-97,.cls-98,.cls-99{stroke-width:3px;}.cls-4{stroke:#bc01ff;}.cls-15,.cls-4{stroke-miterlimit:10;}.cls-5{stroke:#bc02ff;}.cls-6{stroke:#bb03ff;}.cls-7{stroke:#ba04ff;}.cls-8{stroke:#ba05ff;}.cls-9{stroke:#b906ff;}.cls-10{stroke:#b807ff;}.cls-10,.cls-21,.cls-37{stroke-width:3px;}.cls-11{stroke:#b808ff;}.cls-12{stroke:#b709ff;}.cls-13{stroke:#b60aff;}.cls-13,.cls-16{stroke-miterlimit:10;}.cls-14{stroke:#b50bff;}.cls-15{stroke:#b50cff;}.cls-16{stroke:#b40dff;}.cls-17{stroke:#b30eff;}.cls-18{stroke:#b30fff;}.cls-19{stroke:#b210ff;}.cls-20{stroke:#b111ff;}.cls-21{stroke:#b112ff;}.cls-22{stroke:#b013ff;}.cls-23{stroke:#af14ff;}.cls-24{stroke:#af15ff;}.cls-25{stroke:#ae16ff;}.cls-26{stroke:#ad17ff;}.cls-27{stroke:#ad18ff;}.cls-27,.cls-43{stroke-width:3px;}.cls-28{stroke:#ac19ff;}.cls-29{stroke:#ab1aff;}.cls-30{stroke:#aa1bff;}.cls-31{stroke:#aa1cff;}.cls-32{stroke:#a91dff;}.cls-33{stroke:#a81eff;}.cls-34{stroke:#a81fff;}.cls-35{stroke:#a720ff;}.cls-36{stroke:#a621ff;}.cls-37{stroke:#a622ff;}.cls-38{stroke:#a523ff;}.cls-39{stroke:#a424ff;}.cls-40{stroke:#a425ff;}.cls-41{stroke:#a326ff;}.cls-42{stroke:#a227ff;}.cls-43{stroke:#a228ff;}.cls-44{stroke:#a129ff;}.cls-45{stroke:#a02aff;}.cls-46{stroke:#9f2bff;}.cls-47{stroke:#9f2cff;}.cls-48{stroke:#9e2dff;}.cls-49{stroke:#9d2eff;}.cls-50{stroke:#9d2fff;}.cls-51{stroke:#9c30ff;}.cls-52{stroke:#9b31ff;}.cls-53{stroke:#9b32ff;}.cls-54{stroke:#9a33ff;}.cls-55{stroke:#9934ff;}.cls-56{stroke:#9935ff;}.cls-57{stroke:#9836ff;}.cls-58{stroke:#9737ff;}.cls-59{stroke:#9738ff;}.cls-60{stroke:#9639ff;}.cls-61{stroke:#953aff;}.cls-62{stroke:#953bff;}.cls-63{stroke:#943cff;}.cls-64{stroke:#933dff;}.cls-65{stroke:#923eff;}.cls-66{stroke:#923fff;}.cls-67{stroke:#9140ff;}.cls-68{stroke:#9041ff;}.cls-69{stroke:#9042ff;}.cls-70{stroke:#8f43ff;}.cls-71{stroke:#8e44ff;}.cls-72{stroke:#8e45ff;}.cls-73{stroke:#8d46ff;}.cls-74{stroke:#8c47ff;}.cls-75{stroke:#8c48ff;}.cls-76{stroke:#8b49ff;}.cls-77{stroke:#8a4aff;}.cls-78{stroke:#8a4bff;}.cls-79{stroke:#894cff;}.cls-80{stroke:#884dff;}.cls-81{stroke:#874eff;}.cls-82{stroke:#874fff;}.cls-83{stroke:#8650ff;}.cls-84{stroke:#8551ff;}.cls-85{stroke:#8552ff;}.cls-86{stroke:#8453ff;}.cls-87{stroke:#8354ff;}.cls-88{stroke:#8355ff;}.cls-89{stroke:#8256ff;}.cls-90{stroke:#8157ff;}.cls-91{stroke:#8158ff;}.cls-92{stroke:#8059ff;}.cls-93{stroke:#7f5aff;}.cls-94{stroke:#7f5bff;}.cls-95{stroke:#7e5cff;}.cls-96{stroke:#7d5dff;}.cls-97{stroke:#7d5eff;}.cls-98{stroke:#7c5fff;}.cls-99{stroke:#7b60ff;}.cls-100{stroke:#7a61ff;}.cls-101{stroke:#7a62ff;}.cls-102{stroke:#7963ff;}.cls-103{stroke:#7864ff;}.cls-104{stroke:#7865ff;}.cls-105{stroke:#76f;}.cls-106{stroke:#7667ff;}.cls-107{stroke:#7668ff;}.cls-108{stroke:#7569ff;}.cls-109{stroke:#746aff;}.cls-110{stroke:#746bff;}.cls-111{stroke:#736cff;}.cls-112{stroke:#726dff;}.cls-113{stroke:#726eff;}.cls-114{stroke:#716fff;}.cls-115{stroke:#7070ff;}.cls-116{stroke:#6f71ff;}.cls-117{stroke:#6f72ff;}.cls-118{stroke:#6e73ff;}.cls-119{stroke:#6d74ff;}.cls-120{stroke:#6d75ff;}.cls-121{stroke:#6c76ff;}.cls-122{stroke:#6b77ff;}.cls-123{stroke:#6b78ff;}.cls-124{stroke:#6a79ff;}.cls-125{stroke:#697aff;}.cls-126{stroke:#697bff;}.cls-127{stroke:#687cff;}.cls-128{stroke:#677dff;}.cls-129{stroke:#677eff;}.cls-130{stroke:#667fff;}.cls-131{stroke:#6580ff;}.cls-132{stroke:#6481ff;}.cls-133{stroke:#6482ff;}.cls-134{stroke:#6383ff;}.cls-135{stroke:#6284ff;}.cls-136{stroke:#6285ff;}.cls-137{stroke:#6186ff;}.cls-138{stroke:#6087ff;}.cls-139{stroke:#6088ff;}.cls-140{stroke:#5f89ff;}.cls-141{fill:url(#linear-gradient-2);}</style><linearGradient id="linear-gradient" y1="540.5" x2="1920" y2="540.5" gradientUnits="userSpaceOnUse"><stop offset="0.03"/><stop offset="0.08" stop-color="#323232"/><stop offset="0.14" stop-color="#676767"/><stop offset="0.2" stop-color="#969696"/><stop offset="0.26" stop-color="#bcbcbc"/><stop offset="0.32" stop-color="#d9d9d9"/><stop offset="0.39" stop-color="#eee"/><stop offset="0.44" stop-color="#fbfbfb"/><stop offset="0.5" stop-color="#fff"/><stop offset="0.57" stop-color="#fbfbfb"/><stop offset="0.63" stop-color="#f0f0f0"/><stop offset="0.69" stop-color="#dcdcdc"/><stop offset="0.75" stop-color="#c1c1c1"/><stop offset="0.81" stop-color="#9e9e9e"/><stop offset="0.87" stop-color="#737373"/><stop offset="0.93" stop-color="#404040"/><stop offset="0.99" stop-color="#070707"/><stop offset="1"/></linearGradient><mask id="mask" x="-303.57" y="1" width="2451.13" height="1079" maskUnits="userSpaceOnUse"><rect class="cls-1" y="1" width="1920" height="1079"/></mask><linearGradient id="linear-gradient-2" x1="-118" y1="712" x2="516" y2="712" gradientUnits="userSpaceOnUse"><stop offset="0.03" stop-color="#6a95ff"/><stop offset="0.03" stop-color="#6c92ff"/><stop offset="0.13" stop-color="#866dff"/><stop offset="0.23" stop-color="#9b50ff"/><stop offset="0.32" stop-color="#aa3bff"/><stop offset="0.41" stop-color="#b32eff"/><stop offset="0.5" stop-color="#b62aff"/><stop offset="0.61" stop-color="#b92efd"/><stop offset="0.72" stop-color="#c339f9"/><stop offset="0.82" stop-color="#d44df1"/><stop offset="0.93" stop-color="#eb68e6"/><stop offset="1" stop-color="#ff7fdc"/></linearGradient></defs><title>abstract15</title><g class="cls-2"><path class="cls-3" d="M-302.81,432.79C21.91,241.37,471.4,212.19,627.47,504.47S536.63,1256.31,1005,924.15,1430,383.92,1473.33,592s381,174.69,516.39,88.93l135.4-85.75"/><path class="cls-4" d="M-302.69,431.27c324.58-191.61,774.05-221.08,930.3,71.1s-90.36,751.87,377.77,419.44S1430,381.33,1473.5,589.38,1854.6,763.82,1989.94,678l135.33-85.84"/><path class="cls-5" d="M-302.57,429.74C21.88,237.94,471.32,208.2,627.75,500.27s-89.88,751.91,378,419.2,424.29-540.73,467.9-332.72S1854.88,761,1990.15,675l135.28-85.91"/><path class="cls-6" d="M-302.45,428.22c324.32-192,773.73-222,930.34,70s-89.39,751.94,378.28,419,423.93-541,467.67-333,381.31,174,516.53,88l135.22-86"/><path class="cls-7" d="M-302.34,426.7C21.86,234.51,471.23,204.21,628,496.08s-88.91,752,378.54,418.7S1430.14,373.56,1474,581.51s381.4,173.73,516.56,87.64l135.17-86.08"/><path class="cls-8" d="M-302.22,425.18c324.07-192.39,773.41-223,930.39,68.8S539.74,1246,1007,912.44,1430.18,371,1474.19,578.88s381.51,173.49,516.61,87.33l135.1-86.16"/><path class="cls-9" d="M-302.1,423.66C21.84,231.08,471.15,200.23,628.31,491.88s-87.94,752.06,379.05,418.22,422.86-541.72,467-333.84S1856,749.51,1991,663.27l135-86.25"/><path class="cls-10" d="M-302,422.14c323.8-192.78,773.09-223.91,930.43,67.65s-87.46,752.08,379.31,418,422.51-542,466.78-334.12,381.71,173,516.69,86.68l135-86.32"/><path class="cls-11" d="M-301.86,420.62c323.67-193,772.92-224.38,930.45,67.07s-87,752.12,379.57,417.72S1430.31,363.2,1474.71,571s381.81,172.76,516.74,86.36L2126.37,571"/><path class="cls-12" d="M-301.74,419.1C21.8,225.93,471,194.25,628.73,485.59s-86.5,752.16,379.83,417.48,421.79-542.46,466.32-334.68,381.91,172.53,516.78,86l134.87-86.49"/><path class="cls-13" d="M-301.62,417.58C21.79,224.21,471,192.26,628.87,483.49s-86,752.2,380.09,417.24,421.43-542.71,466.09-335,382,172.29,516.83,85.72l134.81-86.57"/><path class="cls-14" d="M-301.5,416.06C21.78,222.5,470.93,190.26,629,481.4s-85.53,752.23,380.34,417,421.08-543,465.88-335.24,382.11,172,516.86,85.39l134.76-86.65"/><path class="cls-15" d="M-301.38,414.54C21.76,220.78,470.89,188.27,629.15,479.3s-85,752.27,380.6,416.75,420.72-543.21,465.65-335.52,382.22,171.8,516.91,85.07L2127,558.87"/><path class="cls-16" d="M-301.26,413c323-193.95,772.11-226.74,930.55,64.18s-84.56,752.3,380.86,416.5,420.36-543.45,465.42-335.8,382.32,171.57,517,84.75l134.63-86.81"/><path class="cls-17" d="M-301.14,411.5c322.88-194.15,772-227.22,930.57,63.6s-84.08,752.34,381.12,416.26,420-543.7,465.2-336.08,382.42,171.33,517,84.43l134.58-86.89"/><path class="cls-18" d="M-301,410C21.73,215.63,470.76,182.29,629.57,473S546,1225.38,1011,889s419.64-544,465-336.36,382.52,171.08,517,84.11l134.51-87"/><path class="cls-19" d="M-300.9,408.46C21.72,213.92,470.72,180.3,629.71,470.91s-83.11,752.41,381.63,415.77S1430.63,342.47,1476.09,550s382.62,170.85,517.08,83.79l134.46-87.06"/><path class="cls-20" d="M-300.78,406.94C21.7,212.2,470.68,178.3,629.85,468.81s-82.63,752.45,381.89,415.52,418.94-544.45,464.52-336.92S1859,718,1993.39,630.88l134.4-87.14"/><path class="cls-21" d="M-300.67,405.42C21.69,210.49,470.64,176.31,630,466.71S547.84,1219.2,1012.14,882s418.58-544.7,464.3-337.2,382.82,170.36,517.16,83.14L2128,540.71"/><path class="cls-22" d="M-300.55,403.9C21.68,208.77,470.59,174.32,630.13,464.62s-81.67,752.51,382.41,415,418.22-544.95,464.07-337.48S1859.54,712.29,1993.82,625l134.28-87.3"/><path class="cls-23" d="M-300.43,402.38c322.1-195.33,771-230,930.7,60.14s-81.18,752.55,382.66,414.79,417.87-545.2,463.85-337.77,383,169.89,517.26,82.5l134.22-87.38"/><path class="cls-24" d="M-300.31,400.86c322-195.52,770.82-230.53,930.72,59.56S549.71,1213,1013.33,875,1430.84,329.52,1477,536.92s383.12,169.64,517.29,82.18l134.17-87.46"/><path class="cls-25" d="M-300.19,399.34c321.84-195.72,770.65-231,930.74,59S550.33,1211,1013.73,872.62s417.15-545.69,463.4-338.32,383.23,169.4,517.34,81.86l134.11-87.55"/><path class="cls-26" d="M-300.07,397.82c321.7-195.91,770.49-231.47,930.76,58.41S551,1208.89,1014.13,870.28s416.79-545.94,463.17-338.6,383.33,169.16,517.38,81.53l134-87.63"/><path class="cls-27" d="M-299.95,396.3C21.62,200.19,470.38,164.35,630.83,454.13s-79.25,752.7,383.7,413.81S1431,321.75,1477.47,529.05,1860.91,698,1994.9,610.27l134-87.71"/><path class="cls-28" d="M-299.83,394.78C21.61,198.48,470.34,162.36,631,452S552.2,1204.76,1014.92,865.6,1431,319.16,1477.65,526.43s383.53,168.68,517.46,80.89l133.94-87.79"/><path class="cls-29" d="M-299.71,393.26c321.31-196.5,770-232.89,930.82,56.68s-78.29,752.76,384.21,413.32S1431,316.57,1477.82,523.81s383.63,168.44,517.51,80.57l133.87-87.87"/><path class="cls-30" d="M-299.59,391.74C21.59,195,470.25,158.37,631.25,447.84s-77.8,752.8,384.47,413.07S1431.08,314,1478,521.18s383.74,168.21,517.55,80.25l133.82-87.95"/><path class="cls-31" d="M-299.47,390.22c321-196.89,769.68-233.84,930.86,55.52s-77.32,752.84,384.73,412.83,415-547.18,462.05-340,383.83,168,517.59,79.93l133.76-88"/><path class="cls-32" d="M-299.35,388.7C21.56,191.61,470.16,154.39,631.53,443.64s-76.84,752.88,385,412.59,414.65-547.43,461.82-340.29,383.94,167.72,517.64,79.6l133.7-88.11"/><path class="cls-33" d="M-299.23,387.18C21.55,189.9,470.12,152.4,631.67,441.55s-76.35,752.91,385.24,412.34,414.3-547.68,461.6-340.57,384,167.48,517.68,79.28l133.64-88.2"/><path class="cls-34" d="M-299.11,385.66C21.54,188.18,470.08,150.4,631.81,439.45s-75.87,753,385.5,412.09,413.94-547.92,461.37-340.85,384.15,167.24,517.73,79L2130,501.38"/><path class="cls-35" d="M-299,384.14C21.53,186.46,470,148.41,632,437.35s-75.39,753,385.76,411.85S1431.29,301,1478.86,508.07s384.24,167,517.76,78.64l133.53-88.36"/><path class="cls-36" d="M-298.88,382.62c320.39-197.87,768.87-236.2,931,52.63s-74.9,753,386,411.61S1431.33,298.44,1479,505.45s384.34,166.76,517.81,78.32l133.46-88.44"/><path class="cls-37" d="M-298.76,381.1C21.5,183,470,144.42,632.22,433.16s-74.41,753.05,386.29,411.36,412.86-548.67,460.69-341.7,384.45,166.52,517.85,78l133.41-88.52"/><path class="cls-38" d="M-298.64,379.57c320.13-198.25,768.55-237.14,931,51.49s-73.93,753.09,386.54,411.12,412.51-548.92,460.48-342,384.54,166.28,517.89,77.68l133.35-88.61"/><path class="cls-39" d="M-298.52,378.05c320-198.45,768.39-237.61,931,50.91s-73.45,753.13,386.8,410.87,412.15-549.16,460.25-342.25,384.65,166,517.94,77.35l133.29-88.68"/><path class="cls-40" d="M-298.4,376.53c319.87-198.65,768.22-238.09,931,50.33s-73,753.17,387.06,410.63,411.79-549.41,460-342.53,384.75,165.8,518,77l133.23-88.77"/><path class="cls-41" d="M-298.28,375C21.45,176.17,469.78,136.45,632.78,424.77S560.3,1178,1020.1,835.15s411.44-549.66,459.79-342.82,384.85,165.56,518,76.71l133.17-88.84"/><path class="cls-42" d="M-298.16,373.49c319.6-199,767.9-239,931.08,49.18s-72,753.23,387.57,410.14,411.09-549.91,459.58-343.1S1865,655,1998.13,566.1l133.12-88.93"/><path class="cls-43" d="M-298,372c319.47-199.23,767.73-239.5,931.1,48.6s-71.51,753.27,387.83,409.89,410.73-550.15,459.35-343.37,385,165.08,518.11,76.07l133.05-89"/><path class="cls-44" d="M-297.92,370.45c319.34-199.43,767.57-240,931.12,48s-71,753.31,388.09,409.65,410.37-550.4,459.12-343.65,385.16,164.83,518.15,75.74l133-89.09"/><path class="cls-45" d="M-297.8,368.93C21.41,169.31,469.61,128.48,633.34,416.38s-70.55,753.34,388.35,409.4,410-550.65,458.89-343.94,385.26,164.6,518.2,75.43l132.94-89.18"/><path class="cls-46" d="M-297.68,367.41C21.4,167.59,469.57,126.49,633.48,414.28s-70.07,753.38,388.61,409.16,409.65-550.9,458.67-344.22,385.36,164.36,518.24,75.1l132.88-89.25"/><path class="cls-47" d="M-297.56,365.89c318.94-200,767.08-241.4,931.18,46.29S564,1165.59,1022.48,821.1,1431.78,270,1480.93,476.6s385.46,164.11,518.28,74.78L2132,462"/><path class="cls-48" d="M-297.44,364.37C21.37,164.16,469.48,122.5,633.76,410.08s-69.1,753.45,389.12,408.67S1431.82,267.36,1481.1,474s385.56,163.88,518.33,74.46L2132.19,459"/><path class="cls-49" d="M-297.33,362.85C21.36,162.44,469.44,120.51,633.9,408s-68.62,753.48,389.38,408.42,408.58-551.64,458-345.06S1866.94,635,1999.64,545.49L2132.35,456"/><path class="cls-50" d="M-297.21,361.33C21.35,160.73,469.39,118.51,634,405.89s-68.13,753.52,389.64,408.18,408.22-551.89,457.77-345.34,385.76,163.4,518.41,73.81L2132.5,453"/><path class="cls-51" d="M-297.09,359.81c318.43-200.8,766.44-243.29,931.27,44s-67.65,753.56,389.9,407.94S1432,259.58,1481.62,466.11s385.87,163.15,518.45,73.49l132.59-89.66"/><path class="cls-52" d="M-297,358.29c318.29-201,766.28-243.76,931.29,43.41s-67.17,753.59,390.15,407.69S1432,257,1481.79,463.48s386,162.92,518.5,73.18l132.53-89.75"/><path class="cls-53" d="M-296.85,356.77C21.31,155.58,469.27,112.54,634.46,399.6S567.77,1153.22,1024.87,807,1432,254.4,1482,460.86,1868,623.54,2000.5,533.71L2133,443.89"/><path class="cls-54" d="M-296.73,355.25c318-201.39,766-244.71,931.33,42.25s-66.2,753.66,390.67,407.2,406.8-552.89,456.87-346.46,386.17,162.43,518.58,72.53l132.41-89.91"/><path class="cls-55" d="M-296.61,353.73C21.29,152.15,469.18,108.55,634.74,395.4s-65.72,753.7,390.93,407,406.44-553.14,456.64-346.74,386.27,162.19,518.63,72.2l132.35-90"/><path class="cls-56" d="M-296.49,352.21c317.77-201.78,765.63-245.65,931.37,41.1S569.64,1147,1026.06,800s406.09-553.39,456.43-347,386.37,162,518.66,71.89l132.3-90.07"/><path class="cls-57" d="M-296.37,350.69C21.26,148.72,469.1,104.56,635,391.21S570.27,1145,1026.46,797.67s405.73-553.63,456.2-347.3,386.47,161.71,518.71,71.56l132.23-90.15"/><path class="cls-58" d="M-296.25,349.17C21.25,147,469.05,102.57,635.16,389.11s-64.27,753.81,391.7,406.22,405.37-553.88,456-347.58S1869.41,609.22,2001.58,519l132.18-90.23"/><path class="cls-59" d="M-296.13,347.65C21.24,145.28,469,100.58,635.3,387s-63.79,753.85,392,406,405-554.13,455.74-347.87S1869.68,606.36,2001.8,516l132.12-90.31"/><path class="cls-60" d="M-296,346.13C21.23,143.57,469,98.58,635.44,384.92s-63.3,753.87,392.22,405.73,404.65-554.38,455.52-348.15S1870,603.49,2002,513.1l132.07-90.39"/><path class="cls-61" d="M-295.89,344.61c317.11-202.76,764.81-248,931.47,38.21s-62.82,753.91,392.47,405.49,404.31-554.63,455.3-348.43,386.88,160.75,518.88,70.28l132-90.48"/><path class="cls-62" d="M-295.77,343.09C21.2,140.14,468.88,94.6,635.72,380.72s-62.34,754,392.73,405.24,404-554.87,455.07-348.7,387,160.51,518.93,69.95l131.94-90.56"/><path class="cls-63" d="M-295.66,341.57c316.85-203.15,764.5-249,931.52,37.05s-61.86,754,393,405,403.59-555.12,454.85-349,387.08,160.28,519,69.64l131.89-90.64"/><path class="cls-64" d="M-295.54,340.05C21.18,136.7,468.8,90.61,636,376.53s-61.37,754,393.25,404.75S1432.48,225.91,1483.87,432s387.18,160,519,69.31L2134.7,410.6"/><path class="cls-65" d="M-295.42,338.53C21.17,135,468.75,88.62,636.14,374.43s-60.89,754.06,393.51,404.51S1432.52,223.32,1484,429.39s387.28,159.79,519.05,69l131.77-90.8"/><path class="cls-66" d="M-295.3,337c316.46-203.74,764-250.38,931.58,35.32S575.87,1126.42,1030,776.59s402.52-555.86,454.17-349.82,387.39,159.55,519.1,68.66L2135,404.55"/><path class="cls-67" d="M-295.18,335.49C21.15,131.56,468.67,84.63,636.42,370.23s-59.92,754.13,394,404,402.16-556.11,454-350.11,387.48,159.31,519.13,68.35l131.66-91"/><path class="cls-68" d="M-295.06,334C21.13,129.84,468.63,82.64,636.56,368.14s-59.44,754.16,394.28,403.77,401.8-556.36,453.72-350.39,387.59,159.07,519.18,68l131.59-91"/><path class="cls-69" d="M-294.94,332.45C21.12,128.12,468.58,80.65,636.7,366s-59,754.2,394.54,403.53S1432.68,213,1484.73,418.9,1872.42,577.73,2004,486.6l131.53-91.13"/><path class="cls-70" d="M-294.82,330.93c315.93-204.52,763.36-252.28,931.66,33s-58.48,754.24,394.8,403.29,401.08-556.86,453.27-351,387.78,158.59,519.26,67.39l131.48-91.21"/><path class="cls-71" d="M-294.7,329.41C21.1,124.69,468.5,76.66,637,361.84s-58,754.28,395,403,400.74-557.1,453.05-351.23S1873,572,2004.39,480.71l131.41-91.29"/><path class="cls-72" d="M-294.58,327.88c315.67-204.9,763-253.21,931.7,31.87s-57.51,754.3,395.31,402.79S1432.81,205.19,1485.25,411s388,158.11,519.35,66.74L2136,386.4"/><path class="cls-73" d="M-294.46,326.36C21.07,121.26,468.41,72.68,637.26,357.65s-57,754.34,395.57,402.55,400-557.6,452.59-351.79,388.1,157.87,519.4,66.41l131.3-91.45"/><path class="cls-74" d="M-294.34,324.84C21.06,119.55,468.37,70.68,637.4,355.55s-56.54,754.38,395.83,402.31S1432.89,200,1485.6,405.78s388.19,157.63,519.43,66.1l131.25-91.54"/><path class="cls-75" d="M-294.22,323.32C21.05,117.83,468.33,68.69,637.54,353.46s-56.06,754.41,396.08,402.06,399.31-558.1,452.15-352.36,388.3,157.39,519.48,65.77l131.18-91.61"/><path class="cls-76" d="M-294.1,321.8C21,116.11,468.28,66.7,637.68,351.36S582.1,1105.81,1034,753.17s399-558.34,451.92-352.63,388.4,157.15,519.52,65.45l131.13-91.7"/><path class="cls-77" d="M-294,320.28C21,114.4,468.24,64.7,637.82,349.26s-55.09,754.49,396.6,401.57S1433,192.24,1486.12,397.92s388.49,156.9,519.56,65.13l131.07-91.78"/><path class="cls-78" d="M-293.87,318.76C21,112.68,468.2,62.71,638,347.16s-54.61,754.52,396.86,401.33,398.23-558.84,451.47-353.2S1874.89,552,2005.9,460.1l131-91.86"/><path class="cls-79" d="M-293.75,317.24C21,111,468.15,60.72,638.1,345.07S584,1099.62,1035.22,746.15s397.87-559.09,451.24-353.48,388.7,156.43,519.65,64.49l131-91.94"/><path class="cls-80" d="M-293.63,315.72C21,109.25,468.11,58.72,638.24,343s-53.65,754.59,397.37,400.83,397.52-559.33,451-353.75,388.81,156.18,519.7,64.16l130.89-92"/><path class="cls-81" d="M-293.51,314.2C21,107.53,468.07,56.73,638.38,340.87S585.22,1095.5,1036,741.46s397.16-559.58,450.8-354,388.9,156,519.73,63.85l130.84-92.11"/><path class="cls-82" d="M-293.39,312.68C21,105.82,468,54.74,638.52,338.77s-52.68,754.67,397.89,400.35S1433.22,179.29,1487,384.8s389,155.71,519.78,63.52l130.77-92.18"/><path class="cls-83" d="M-293.27,311.16C21,104.1,468,52.75,638.66,336.68s-52.2,754.7,398.15,400.1,396.45-560.08,450.34-354.6,389.11,155.46,519.82,63.2l130.72-92.27"/><path class="cls-84" d="M-293.15,309.64c314.09-207.25,761.09-258.89,932,24.94s-51.71,754.74,398.41,399.86S1433.3,174.1,1487.32,379.56s389.21,155.22,519.87,62.87l130.66-92.34"/><path class="cls-85" d="M-293,308.12c314-207.45,760.93-259.36,932,24.36s-51.23,754.77,398.66,399.61,395.74-560.58,449.9-355.16,389.31,155,519.91,62.56L2138,347.06"/><path class="cls-86" d="M-292.91,306.6C20.92,99,467.86,46.77,639.08,330.38S588.33,1085.19,1038,729.75s395.38-560.83,449.67-355.44,389.41,154.75,519.95,62.24L2138.16,344"/><path class="cls-87" d="M-292.79,305.08c313.7-207.84,760.6-260.31,932,23.21S589,1083.13,1038.4,727.41s395-561.08,449.44-355.72,389.52,154.5,520,61.91L2138.32,341"/><path class="cls-88" d="M-292.67,303.56c313.57-208,760.44-260.78,932,22.63s-49.78,754.88,399.44,398.88,394.66-561.33,449.22-356,389.61,154.26,520,61.59L2138.48,338"/><path class="cls-89" d="M-292.55,302C20.88,93.81,467.73,40.79,639.5,324.09S590.2,1079,1039.19,722.72s394.31-561.57,449-356.28,389.71,154,520.08,61.27L2138.63,335"/><path class="cls-90" d="M-292.43,300.52C20.87,92.09,467.68,38.79,639.64,322s-48.82,755,399.95,398.39,394-561.82,448.77-356.56,389.82,153.78,520.12,60.95l130.31-92.84"/><path class="cls-91" d="M-292.32,299c313.18-208.62,760-262.2,932.1,20.9S591.45,1074.88,1040,718,1433.58,156,1488.53,361.2s389.92,153.54,520.17,60.62L2139,328.91"/><path class="cls-92" d="M-292.2,297.48C20.85,88.66,467.6,34.81,639.92,317.8s-47.85,755,400.47,397.9,393.24-562.32,448.32-357.13,390,153.31,520.21,60.31l130.18-93"/><path class="cls-93" d="M-292.08,296C20.84,86.94,467.56,32.82,640.06,315.7s-47.37,755.06,400.73,397.66S1433.67,150.79,1488.88,356,1879,509,2009.13,415.93l130.13-93.08"/><path class="cls-94" d="M-292,294.44C20.82,85.23,467.51,30.82,640.2,313.6s-46.88,755.1,401,397.41,392.53-562.81,447.87-357.68,390.22,152.82,520.3,59.66l130.07-93.16"/><path class="cls-95" d="M-291.84,292.92C20.81,83.51,467.47,28.83,640.34,311.51s-46.4,755.13,401.24,397.16,392.17-563.06,447.65-358,390.32,152.58,520.33,59.34l130-93.25"/><path class="cls-96" d="M-291.72,291.4c312.52-209.6,759.15-264.56,932.2,18S594.56,1064.58,1042,706.33,1433.79,143,1489.4,348.08s390.42,152.35,520.38,59l130-93.32"/><path class="cls-97" d="M-291.6,289.88c312.39-209.8,759-265,932.22,17.43S595.18,1062.51,1042.38,704s391.45-563.56,447.19-358.53,390.53,152.1,520.42,58.7l129.9-93.41"/><path class="cls-98" d="M-291.48,288.36c312.26-210,758.82-265.51,932.24,16.85s-45,755.24,402,396.44,391.09-563.81,447-358.81,390.63,151.86,520.47,58.37l129.84-93.48"/><path class="cls-99" d="M-291.36,286.84C20.76,76.65,467.3,20.86,640.9,303.12s-44.47,755.27,402.27,396.18,390.74-564,446.75-359.08,390.73,151.62,520.5,58L2140.2,304.7"/><path class="cls-100" d="M-291.24,285.32C20.75,74.93,467.26,18.86,641,301s-44,755.31,402.53,395.94S1434,132.66,1490.09,337.59,1880.92,489,2010.64,395.32l129.72-93.65"/><path class="cls-101" d="M-291.12,283.8C20.74,73.22,467.21,16.87,641.17,298.92s-43.49,755.35,402.8,395.7S1434,130.07,1490.26,335s390.93,151.14,520.6,57.41l129.66-93.73"/><path class="cls-102" d="M-291,282.28C20.73,71.5,467.17,14.88,641.31,296.83s-43,755.38,403.06,395.45S1434,127.48,1490.44,332.35s391,150.9,520.63,57.08l129.61-93.81"/><path class="cls-103" d="M-290.88,280.76c311.6-211,758-267.87,932.33,14s-42.53,755.41,403.32,395.2,389.31-565,445.84-360.21,391.13,150.66,520.68,56.77l129.54-93.89"/><path class="cls-104" d="M-290.76,279.24C20.71,68.07,467.09,10.89,641.59,292.63s-42.05,755.45,403.57,395,389-565.29,445.62-360.49S1882,477.52,2011.5,383.55l129.49-94"/><path class="cls-105" d="M-290.65,277.71C20.69,66.35,467,8.9,641.73,290.53S600.17,1046,1045.56,685.25,1434.16,119.71,1491,324.48s391.34,150.18,520.77,56.12l129.43-94.06"/><path class="cls-106" d="M-290.53,276.19C20.68,64.64,467,6.91,641.87,288.44S600.79,1044,1046,682.91s388.24-565.79,445.17-361,391.43,149.94,520.8,55.8l129.37-94.14"/><path class="cls-107" d="M-290.41,274.67C20.67,62.92,467,4.91,642,286.34s-40.6,755.56,404.35,394.23,387.88-566,444.94-361.34,391.54,149.7,520.85,55.48l129.31-94.22"/><path class="cls-108" d="M-290.29,273.15c311-211.94,757.2-270.23,932.44,11.09s-40.11,755.6,404.6,394,387.53-566.28,444.72-361.61,391.64,149.46,520.9,55.16l129.25-94.3"/><path class="cls-109" d="M-290.17,271.63C20.65,59.49,466.87.93,642.29,282.14s-39.63,755.64,404.86,393.74S1434.32,109.35,1491.65,314s391.74,149.22,520.93,54.83l129.2-94.38"/><path class="cls-110" d="M-290,270.11C20.63,57.77,466.83-1.07,642.43,280.05s-39.15,755.66,405.12,393.49,386.81-566.78,444.27-362.18,391.84,149,521,54.52l129.13-94.46"/><path class="cls-111" d="M-289.93,268.59C20.62,56.06,466.79-3.06,642.57,278S603.91,1033.65,1048,671.2s386.45-567,444-362.46,391.94,148.74,521,54.19l129.08-94.54"/><path class="cls-112" d="M-289.81,267.07C20.61,54.34,466.74-5,642.71,275.85s-38.18,755.74,405.64,393,386.1-567.27,443.81-362.73,392,148.5,521.07,53.87l129-94.63"/><path class="cls-113" d="M-289.69,265.55C20.6,52.63,466.7-7,642.85,273.75s-37.7,755.78,405.89,392.76,385.75-567.52,443.6-363,392.14,148.25,521.1,53.55l129-94.71"/><path class="cls-114" d="M-289.57,264C20.59,50.91,466.66-9,643,271.66s-37.22,755.81,406.15,392.51,385.39-567.77,443.37-363.3,392.25,148,521.15,53.23l128.9-94.79"/><path class="cls-115" d="M-289.45,262.51C20.57,49.19,466.62-11,643.13,269.56s-36.73,755.85,406.41,392.27,385-568,443.14-363.58S1885,446,2013.88,351.16l128.84-94.87"/><path class="cls-116" d="M-289.33,261c309.89-213.51,755.9-274,932.6,6.47s-36.25,755.88,406.67,392,384.67-568.27,442.92-363.86,392.45,147.53,521.23,52.58l128.79-94.95"/><path class="cls-117" d="M-289.21,259.47C20.55,45.76,466.53-15,643.41,265.36s-35.77,755.92,406.93,391.78S1434.65,88.62,1493,293s392.55,147.29,521.28,52.26l128.72-95"/><path class="cls-118" d="M-289.09,258C20.54,44.05,466.49-17,643.55,263.27s-35.28,756,407.18,391.53S1434.69,86,1493.2,290.38s392.65,147.06,521.32,51.94l128.67-95.11"/><path class="cls-119" d="M-289,256.43C20.53,42.33,466.44-19,643.69,261.17s-34.8,756,407.44,391.29,383.6-569,442.24-364.7,392.76,146.82,521.37,51.62l128.61-95.2"/><path class="cls-120" d="M-288.86,254.91C20.51,40.61,466.4-21,643.83,259.07s-34.32,756,407.7,391.05,383.24-569.27,442-365,392.85,146.57,521.4,51.3l128.55-95.28"/><path class="cls-121" d="M-288.74,253.39C20.5,38.9,466.36-23,644,257s-33.84,756.07,408,390.81,382.88-569.52,441.79-365.27,393,146.34,521.45,51l128.49-95.36"/><path class="cls-122" d="M-288.62,251.87C20.49,37.18,466.32-25,644.11,254.88S610.76,1011,1052.32,645.43s382.54-569.76,441.57-365.54S1887,426,2015.38,330.55l128.44-95.44"/><path class="cls-123" d="M-288.5,250.35C20.48,35.47,466.27-27,644.25,252.78s-32.87,756.13,408.47,390.31,382.18-570,441.35-365.82,393.15,145.85,521.53,50.33L2144,232.08"/><path class="cls-124" d="M-288.38,248.83C20.47,33.75,466.23-29,644.39,250.68S612,1006.85,1053.12,640.75s381.82-570.26,441.12-366.1,393.26,145.61,521.58,50l128.31-95.61"/><path class="cls-125" d="M-288.26,247.31C20.46,32,466.19-31,644.53,248.58s-31.9,756.21,409,389.83S1435,67.9,1494.41,272,1887.77,417.4,2016,321.71L2144.29,226"/><path class="cls-126" d="M-288.14,245.79c308.58-215.47,754.28-278.74,932.81.7s-31.42,756.24,409.25,389.57S1435,65.31,1494.58,269.4s393.47,145.13,521.67,49.37L2144.45,223"/><path class="cls-127" d="M-288,244.27C20.43,28.6,466.1-34.95,644.81,244.39s-30.94,756.28,409.5,389.33,380.75-571,440.45-366.94,393.56,144.89,521.7,49L2144.6,220"/><path class="cls-128" d="M-287.9,242.75C20.42,26.89,466.06-36.94,645,242.29S614.5,998.6,1054.71,631.38,1435.1,60.13,1494.93,264.16s393.67,144.65,521.75,48.72L2144.76,217"/><path class="cls-129" d="M-287.78,241.23C20.41,25.17,466-38.93,645.09,240.2s-30,756.34,410,388.84,380-571.5,440-367.51S1888.87,406,2016.89,309.94l128-96"/><path class="cls-130" d="M-287.66,239.71C20.4,23.46,466-40.93,645.23,238.1s-29.49,756.38,410.28,388.6S1435.18,55,1495.27,258.91,1889.14,403.08,2017.11,307l128-96.09"/><path class="cls-131" d="M-287.54,238.19C20.38,21.74,465.93-42.92,645.37,236s-29,756.42,410.54,388.35,379.31-572,439.54-368.06,394,143.93,521.88,47.76l127.9-96.18"/><path class="cls-132" d="M-287.42,236.67C20.37,20,465.89-44.91,645.51,233.9S617,990.36,1056.3,622s379-572.24,439.32-368.35,394.07,143.7,521.92,47.44l127.85-96.25"/><path class="cls-133" d="M-287.31,235.15c307.67-216.84,753.16-282,933-3.34s-28,756.49,411.05,387.86S1435.31,47.18,1495.79,251s394.18,143.45,522,47.12l127.79-96.34"/><path class="cls-134" d="M-287.19,233.63c307.54-217,753-282.53,933-3.92S618.23,986.23,1057.1,617.33,1435.35,44.59,1496,248.42s394.27,143.21,522,46.79L2145.7,198.8"/><path class="cls-135" d="M-287.07,232.11c307.41-217.23,752.83-283,933-4.5S618.86,984.17,1057.5,615,1435.39,42,1496.14,245.8s394.37,143,522.05,46.47l127.67-96.5"/><path class="cls-136" d="M-286.95,230.59c307.27-217.43,752.67-283.47,933-5.08s-26.59,756.6,411.83,387.13,377.53-573.23,438.41-369.47,394.48,142.73,522.09,46.15L2146,192.74"/><path class="cls-137" d="M-286.83,229.07c307.14-217.63,752.5-283.95,933-5.65S620.1,980.05,1058.29,610.3s377.18-573.48,438.19-369.75S1891.06,383,2018.62,286.38l127.56-96.66"/><path class="cls-138" d="M-286.71,227.55C20.3,9.73,465.63-56.87,646.35,221.32S620.72,978,1058.69,608s376.82-573.73,438-370,394.68,142.25,522.18,45.51l127.49-96.75"/><path class="cls-139" d="M-286.59,226C20.29,8,465.59-58.86,646.49,219.22s-25.14,756.71,412.6,386.4,376.46-574,437.74-370.31,394.78,142,522.22,45.18l127.44-96.82"/><path class="cls-140" d="M-286.47,224.5c306.75-218.2,752-285.36,933.1-7.38S622,973.87,1059.49,603.27,1435.59,29.05,1497,232.68s394.89,141.77,522.27,44.87l127.38-96.91"/><circle class="cls-141" cx="199" cy="712" r="317"/></g></svg>