<svg id="Layer_1" data-name="Layer 1" xmlns="http://www.w3.org/2000/svg" xmlns:xlink="http://www.w3.org/1999/xlink" viewBox="0 0 1286 2762"><defs><style>.cls-1{opacity:0.28;}.cls-10,.cls-100,.cls-101,.cls-102,.cls-103,.cls-104,.cls-105,.cls-106,.cls-107,.cls-108,.cls-109,.cls-11,.cls-110,.cls-111,.cls-112,.cls-113,.cls-114,.cls-115,.cls-116,.cls-117,.cls-118,.cls-119,.cls-12,.cls-120,.cls-121,.cls-122,.cls-123,.cls-124,.cls-125,.cls-126,.cls-127,.cls-128,.cls-129,.cls-13,.cls-130,.cls-131,.cls-132,.cls-133,.cls-134,.cls-135,.cls-136,.cls-137,.cls-138,.cls-139,.cls-14,.cls-140,.cls-141,.cls-142,.cls-143,.cls-144,.cls-145,.cls-146,.cls-147,.cls-148,.cls-149,.cls-15,.cls-150,.cls-151,.cls-152,.cls-153,.cls-154,.cls-155,.cls-156,.cls-157,.cls-158,.cls-159,.cls-16,.cls-160,.cls-161,.cls-162,.cls-163,.cls-164,.cls-165,.cls-166,.cls-167,.cls-168,.cls-169,.cls-17,.cls-170,.cls-171,.cls-172,.cls-173,.cls-174,.cls-175,.cls-176,.cls-177,.cls-18,.cls-19,.cls-2,.cls-20,.cls-21,.cls-22,.cls-23,.cls-24,.cls-25,.cls-26,.cls-27,.cls-28,.cls-29,.cls-3,.cls-30,.cls-31,.cls-32,.cls-33,.cls-34,.cls-35,.cls-36,.cls-37,.cls-38,.cls-39,.cls-4,.cls-40,.cls-41,.cls-42,.cls-43,.cls-44,.cls-45,.cls-46,.cls-47,.cls-48,.cls-49,.cls-5,.cls-50,.cls-51,.cls-52,.cls-53,.cls-54,.cls-55,.cls-56,.cls-57,.cls-58,.cls-59,.cls-6,.cls-60,.cls-61,.cls-62,.cls-63,.cls-64,.cls-65,.cls-66,.cls-67,.cls-68,.cls-69,.cls-7,.cls-70,.cls-71,.cls-72,.cls-73,.cls-74,.cls-75,.cls-76,.cls-77,.cls-78,.cls-79,.cls-8,.cls-80,.cls-81,.cls-82,.cls-83,.cls-84,.cls-85,.cls-86,.cls-87,.cls-88,.cls-89,.cls-9,.cls-90,.cls-91,.cls-92,.cls-93,.cls-94,.cls-95,.cls-96,.cls-97,.cls-98,.cls-99{fill:none;stroke-width:4px;}.cls-2{stroke:#ff00cf;}.cls-10,.cls-100,.cls-101,.cls-102,.cls-103,.cls-104,.cls-105,.cls-106,.cls-107,.cls-108,.cls-109,.cls-11,.cls-110,.cls-111,.cls-112,.cls-113,.cls-114,.cls-115,.cls-116,.cls-117,.cls-118,.cls-119,.cls-12,.cls-120,.cls-121,.cls-122,.cls-123,.cls-124,.cls-125,.cls-126,.cls-127,.cls-128,.cls-129,.cls-13,.cls-130,.cls-131,.cls-132,.cls-133,.cls-134,.cls-135,.cls-136,.cls-137,.cls-138,.cls-139,.cls-14,.cls-140,.cls-141,.cls-142,.cls-143,.cls-144,.cls-145,.cls-146,.cls-147,.cls-148,.cls-149,.cls-15,.cls-150,.cls-151,.cls-152,.cls-153,.cls-154,.cls-155,.cls-156,.cls-157,.cls-158,.cls-159,.cls-16,.cls-160,.cls-161,.cls-162,.cls-163,.cls-164,.cls-165,.cls-166,.cls-167,.cls-168,.cls-169,.cls-17,.cls-170,.cls-171,.cls-172,.cls-173,.cls-174,.cls-175,.cls-176,.cls-177,.cls-18,.cls-19,.cls-2,.cls-20,.cls-21,.cls-22,.cls-23,.cls-24,.cls-25,.cls-26,.cls-27,.cls-29,.cls-3,.cls-30,.cls-32,.cls-33,.cls-34,.cls-35,.cls-36,.cls-37,.cls-38,.cls-39,.cls-40,.cls-41,.cls-42,.cls-43,.cls-44,.cls-45,.cls-46,.cls-47,.cls-48,.cls-49,.cls-5,.cls-50,.cls-51,.cls-52,.cls-53,.cls-54,.cls-55,.cls-56,.cls-57,.cls-58,.cls-59,.cls-6,.cls-60,.cls-61,.cls-62,.cls-63,.cls-64,.cls-65,.cls-66,.cls-67,.cls-68,.cls-69,.cls-7,.cls-70,.cls-71,.cls-72,.cls-73,.cls-74,.cls-75,.cls-76,.cls-77,.cls-78,.cls-79,.cls-8,.cls-80,.cls-81,.cls-82,.cls-83,.cls-84,.cls-85,.cls-86,.cls-87,.cls-88,.cls-89,.cls-9,.cls-90,.cls-91,.cls-92,.cls-93,.cls-94,.cls-95,.cls-96,.cls-97,.cls-98,.cls-99{stroke-miterlimit:10;}.cls-3{stroke:#fe00cf;}.cls-4{stroke:#fd00d0;}.cls-28,.cls-4{stroke-miterlimit:10;}.cls-5{stroke:#fc00d0;}.cls-6{stroke:#fb00d0;}.cls-7{stroke:#fa00d0;}.cls-8{stroke:#f900d1;}.cls-9{stroke:#f800d1;}.cls-10{stroke:#f700d1;}.cls-11{stroke:#f600d1;}.cls-12{stroke:#f500d2;}.cls-13{stroke:#f400d2;}.cls-14{stroke:#f300d2;}.cls-15{stroke:#f200d3;}.cls-16{stroke:#f100d3;}.cls-17{stroke:#f000d3;}.cls-18{stroke:#ef00d3;}.cls-19{stroke:#ee00d4;}.cls-20{stroke:#ed00d4;}.cls-21{stroke:#ec00d4;}.cls-22{stroke:#eb00d4;}.cls-23{stroke:#ea00d5;}.cls-24{stroke:#e900d5;}.cls-25{stroke:#e800d5;}.cls-26{stroke:#e700d6;}.cls-27{stroke:#e600d6;}.cls-28{stroke:#e500d6;}.cls-29{stroke:#e400d6;}.cls-30{stroke:#e300d7;}.cls-31{stroke:#e200d7;stroke-miterlimit:10;}.cls-32{stroke:#e100d7;}.cls-33{stroke:#e000d8;}.cls-34{stroke:#df00d8;}.cls-35{stroke:#de00d8;}.cls-36{stroke:#dd00d8;}.cls-37{stroke:#dc00d9;}.cls-38{stroke:#db00d9;}.cls-39{stroke:#da00d9;}.cls-40{stroke:#d900d9;}.cls-41{stroke:#d800da;}.cls-42{stroke:#d700da;}.cls-43{stroke:#d600da;}.cls-44{stroke:#d500db;}.cls-45{stroke:#d400db;}.cls-46{stroke:#d300db;}.cls-47{stroke:#d200db;}.cls-48{stroke:#d100dc;}.cls-49{stroke:#d000dc;}.cls-50{stroke:#cf00dc;}.cls-51{stroke:#ce00dc;}.cls-52{stroke:#cd00dd;}.cls-53{stroke:#c0d;}.cls-54{stroke:#cb00dd;}.cls-55{stroke:#ca00de;}.cls-56{stroke:#c900de;}.cls-57{stroke:#c800de;}.cls-58{stroke:#c700de;}.cls-59{stroke:#c600df;}.cls-60{stroke:#c500df;}.cls-61{stroke:#c400df;}.cls-62{stroke:#c300df;}.cls-63{stroke:#c200e0;}.cls-64{stroke:#c100e0;}.cls-65{stroke:#c000e0;}.cls-66{stroke:#bf00e1;}.cls-67{stroke:#be00e1;}.cls-68{stroke:#bd00e1;}.cls-69{stroke:#bc00e1;}.cls-70{stroke:#bb00e2;}.cls-71{stroke:#ba00e2;}.cls-72{stroke:#b900e2;}.cls-73{stroke:#b800e2;}.cls-74{stroke:#b700e3;}.cls-75{stroke:#b600e3;}.cls-76{stroke:#b500e3;}.cls-77{stroke:#b400e4;}.cls-78{stroke:#b300e4;}.cls-79{stroke:#b200e4;}.cls-80{stroke:#b100e4;}.cls-81{stroke:#b000e5;}.cls-82{stroke:#af00e5;}.cls-83{stroke:#ae00e5;}.cls-84{stroke:#ad00e5;}.cls-85{stroke:#ac00e6;}.cls-86{stroke:#ab00e6;}.cls-87{stroke:#aa00e6;}.cls-88{stroke:#a900e7;}.cls-89{stroke:#a800e7;}.cls-90{stroke:#a700e7;}.cls-91{stroke:#a600e7;}.cls-92{stroke:#a500e8;}.cls-93{stroke:#a400e8;}.cls-94{stroke:#a300e8;}.cls-95{stroke:#a200e9;}.cls-96{stroke:#a100e9;}.cls-97{stroke:#a000e9;}.cls-98{stroke:#9f00e9;}.cls-99{stroke:#9e00ea;}.cls-100{stroke:#9d00ea;}.cls-101{stroke:#9c00ea;}.cls-102{stroke:#9b00ea;}.cls-103{stroke:#9a00eb;}.cls-104{stroke:#9900eb;}.cls-105{stroke:#9800eb;}.cls-106{stroke:#9700ec;}.cls-107{stroke:#9600ec;}.cls-108{stroke:#9500ec;}.cls-109{stroke:#9400ec;}.cls-110{stroke:#9300ed;}.cls-111{stroke:#9200ed;}.cls-112{stroke:#9100ed;}.cls-113{stroke:#9000ed;}.cls-114{stroke:#8f00ee;}.cls-115{stroke:#8e00ee;}.cls-116{stroke:#8d00ee;}.cls-117{stroke:#8c00ef;}.cls-118{stroke:#8b00ef;}.cls-119{stroke:#8a00ef;}.cls-120{stroke:#8900ef;}.cls-121{stroke:#8800f0;}.cls-122{stroke:#8700f0;}.cls-123{stroke:#8600f0;}.cls-124{stroke:#8500f0;}.cls-125{stroke:#8400f1;}.cls-126{stroke:#8300f1;}.cls-127{stroke:#8200f1;}.cls-128{stroke:#8100f2;}.cls-129{stroke:#8000f2;}.cls-130{stroke:#7f00f2;}.cls-131{stroke:#7e00f2;}.cls-132{stroke:#7d00f3;}.cls-133{stroke:#7c00f3;}.cls-134{stroke:#7b00f3;}.cls-135{stroke:#7a00f3;}.cls-136{stroke:#7900f4;}.cls-137{stroke:#7800f4;}.cls-138{stroke:#7700f4;}.cls-139{stroke:#7600f5;}.cls-140{stroke:#7500f5;}.cls-141{stroke:#7400f5;}.cls-142{stroke:#7300f5;}.cls-143{stroke:#7200f6;}.cls-144{stroke:#7100f6;}.cls-145{stroke:#7000f6;}.cls-146{stroke:#6f00f6;}.cls-147{stroke:#6e00f7;}.cls-148{stroke:#6d00f7;}.cls-149{stroke:#6c00f7;}.cls-150{stroke:#6b00f8;}.cls-151{stroke:#6a00f8;}.cls-152{stroke:#6900f8;}.cls-153{stroke:#6800f8;}.cls-154{stroke:#6700f9;}.cls-155{stroke:#6600f9;}.cls-156{stroke:#6500f9;}.cls-157{stroke:#6400fa;}.cls-158{stroke:#6300fa;}.cls-159{stroke:#6200fa;}.cls-160{stroke:#6100fa;}.cls-161{stroke:#6000fb;}.cls-162{stroke:#5f00fb;}.cls-163{stroke:#5e00fb;}.cls-164{stroke:#5d00fb;}.cls-165{stroke:#5c00fc;}.cls-166{stroke:#5b00fc;}.cls-167{stroke:#5a00fc;}.cls-168{stroke:#5900fd;}.cls-169{stroke:#5800fd;}.cls-170{stroke:#5700fd;}.cls-171{stroke:#5600fd;}.cls-172{stroke:#5500fe;}.cls-173{stroke:#5400fe;}.cls-174{stroke:#5300fe;}.cls-175{stroke:#5200fe;}.cls-176{stroke:#5100ff;}.cls-177{stroke:#5000ff;}.cls-178,.cls-179{opacity:0.56;}.cls-178{fill:url(#linear-gradient);}.cls-179{fill:url(#linear-gradient-2);}</style><linearGradient id="linear-gradient" x1="47" y1="879" x2="497" y2="879" gradientUnits="userSpaceOnUse"><stop offset="0" stop-color="#ff7fdc"/><stop offset="1" stop-color="#662d91"/></linearGradient><linearGradient id="linear-gradient-2" x1="849" y1="1335" x2="1573" y2="1335" xlink:href="#linear-gradient"/></defs><title>abstract12</title><g class="cls-1"><path class="cls-2" d="M-140.5,405.08c358-342.35,1867.5-501.6,1142,211.66s-34,1782.78,552,1137.86"/><path class="cls-3" d="M-140.69,406.59C217.79,65.84,1721.7-95.07,999,618.13S959.24,2405.3,1552.75,1757.58"/><path class="cls-4" d="M-140.88,408.1C218.07,69,1716.4-93.62,996.51,619.52S951,2411.07,1552,1760.57"/><path class="cls-5" d="M-141.07,409.61C218.36,72.08,1711.1-92.17,994,620.91s-51.29,1795.93,557.22,1142.65"/><path class="cls-6" d="M-141.25,411.12C218.64,75.19,1705.8-90.71,991.52,622.3s-57,1800.31,559,1144.24"/><path class="cls-7" d="M-141.44,412.63C218.93,78.31,1700.5-89.26,989,623.69s-62.82,1804.69,560.7,1145.84"/><path class="cls-8" d="M-141.63,414.14C219.21,81.43,1695.2-87.81,986.53,625.08S918,2434.15,1549,1772.52"/><path class="cls-9" d="M-141.82,415.65C219.5,84.55,1689.9-86.36,984,626.47s-74.34,1813.45,564.18,1149"/><path class="cls-10" d="M-142,417.16C219.79,87.66,1684.6-84.91,981.55,627.86S901.44,2445.7,1547.47,1778.49"/><path class="cls-11" d="M-142.2,418.67C220.07,90.78,1679.3-83.46,979.05,629.25s-85.86,1822.22,567.66,1152.23"/><path class="cls-12" d="M-142.39,420.18C220.36,93.9,1674-82,976.56,630.64S884.93,2457.24,1546,1784.47"/><path class="cls-13" d="M-142.57,421.69C220.64,97,1668.7-80.55,974.06,632S876.67,2463,1545.2,1787.46"/><path class="cls-14" d="M-142.76,423.2C220.93,100.13,1663.4-79.1,971.57,633.42s-103.16,1835.36,572.88,1157"/><path class="cls-15" d="M-142.95,424.71c364.16-321.46,1801.05-502.36,1112,210.1S860.16,2474.55,1543.69,1793.43"/><path class="cls-16" d="M-143.14,426.22C221.5,106.37,1652.8-76.2,966.58,636.2S851.9,2480.32,1542.94,1796.42"/><path class="cls-17" d="M-143.33,427.73C221.79,109.48,1647.5-74.74,964.09,637.59S843.64,2486.1,1542.19,1799.4"/><path class="cls-18" d="M-143.52,429.23C222.07,112.6,1642.2-73.29,961.59,639s-126.2,1852.89,579.84,1163.41"/><path class="cls-19" d="M-143.71,430.74C222.36,115.72,1636.9-71.84,959.1,640.37s-132,1857.27,581.58,1165"/><path class="cls-20" d="M-143.89,432.25C222.64,118.83,1631.6-70.39,956.6,641.76S818.87,2503.41,1539.92,1808.37"/><path class="cls-21" d="M-144.08,433.76C222.93,122,1626.3-68.94,954.11,643.15s-143.5,1866,585.06,1168.2"/><path class="cls-22" d="M-144.27,435.27C223.21,125.07,1621-67.48,951.61,644.54S802.36,2515,1538.41,1814.34"/><path class="cls-23" d="M-144.46,436.78C223.5,128.18,1615.7-66,949.12,645.93s-155,1874.79,588.54,1171.4"/><path class="cls-24" d="M-144.65,438.29c368.44-307,1755.05-502.87,1091.28,209s-160.79,1879.18,590.28,1173"/><path class="cls-25" d="M-144.84,439.8C224.07,134.42,1605.1-63.13,944.13,648.71s-166.54,1883.56,592,1174.59"/><path class="cls-26" d="M-145,441.31C224.36,137.54,1599.8-61.68,941.64,650.1S769.33,2538,1535.4,1826.29"/><path class="cls-27" d="M-145.21,442.82C224.64,140.65,1594.5-60.23,939.14,651.49s-178.07,1892.32,595.5,1177.79"/><path class="cls-28" d="M-145.4,444.33C224.93,143.77,1589.2-58.77,936.65,652.88s-183.84,1896.7,597.24,1179.38"/><path class="cls-29" d="M-145.59,445.84C225.21,146.89,1583.9-57.32,934.15,654.27s-189.59,1901.08,599,1181"/><path class="cls-30" d="M-145.78,447.35C225.5,150,1578.6-55.87,931.66,655.66S736.3,2561.13,1532.38,1838.24"/><path class="cls-31" d="M-146,448.86C225.79,153.12,1573.3-54.42,929.17,657.05S728,2566.9,1531.63,1841.22"/><path class="cls-32" d="M-146.16,450.37C226.07,156.24,1568-53,926.67,658.44s-206.88,1914.23,604.2,1185.77"/><path class="cls-33" d="M-146.35,451.88C226.36,159.36,1562.7-51.51,924.18,659.83S711.53,2578.44,1530.12,1847.2"/><path class="cls-34" d="M-146.53,453.39C226.64,162.47,1557.4-50.06,921.68,661.22s-218.41,1923,607.68,1189"/><path class="cls-35" d="M-146.72,454.9C226.93,165.59,1552.1-48.61,919.19,662.61S695,2590,1528.61,1853.17"/><path class="cls-36" d="M-146.91,456.41C227.21,168.71,1546.8-47.16,916.69,664S686.76,2595.75,1527.85,1856.16"/><path class="cls-37" d="M-147.1,457.92C227.5,171.82,1541.5-45.71,914.2,665.39S678.5,2601.53,1527.1,1859.15"/><path class="cls-38" d="M-147.29,459.43C227.79,174.94,1536.2-44.25,911.71,666.78S670.24,2607.3,1526.35,1862.14"/><path class="cls-39" d="M-147.48,460.94C228.07,178.06,1530.9-42.8,909.21,668.17S662,2613.07,1525.59,1865.12"/><path class="cls-40" d="M-147.67,462.45c376-281.27,1673.27-503.8,1054.39,207.11s-253,1949.28,618.12,1198.55"/><path class="cls-41" d="M-147.85,464C228.64,184.29,1520.3-39.9,904.22,671S645.47,2624.61,1524.08,1871.1"/><path class="cls-42" d="M-148,465.47c377-278.06,1663-503.92,1049.77,206.87s-264.52,1958,621.6,1201.74"/><path class="cls-43" d="M-148.23,467C229.21,190.53,1509.7-37,899.23,673.73S629,2636.15,1522.57,1877.07"/><path class="cls-44" d="M-148.42,468.49C229.5,193.64,1504.4-35.54,896.74,675.12s-276,1966.81,625.08,1204.94"/><path class="cls-45" d="M-148.61,470C229.79,196.76,1499.1-34.09,894.25,676.51S612.44,2647.7,1521.07,1883.05"/><path class="cls-46" d="M-148.8,471.51C230.07,199.88,1493.8-32.64,891.75,677.9S604.19,2653.47,1520.31,1886"/><path class="cls-47" d="M-149,473C230.36,203,1488.5-31.19,889.26,679.29s-293.33,1980,630.3,1209.73"/><path class="cls-48" d="M-149.17,474.53C230.64,206.11,1483.2-29.74,886.76,680.68S587.67,2665,1518.8,1892"/><path class="cls-49" d="M-149.36,476C230.93,209.23,1477.9-28.28,884.27,682.07S579.41,2670.78,1518.05,1895"/><path class="cls-50" d="M-149.55,477.55C231.21,212.35,1472.6-26.83,881.77,683.46S571.16,2676.55,1517.29,1898"/><path class="cls-51" d="M-149.74,479.06c381.24-263.6,1617-504.44,1029,205.79S562.9,2682.33,1516.54,1901"/><path class="cls-52" d="M-149.93,480.57C231.79,218.58,1462-23.93,876.79,686.24S554.64,2688.1,1515.79,1904"/><path class="cls-53" d="M-150.12,482.08C232.07,221.7,1456.7-22.48,874.29,687.63S546.39,2693.87,1515,1906.94"/><path class="cls-54" d="M-150.31,483.59C232.36,224.81,1451.4-21,871.8,689S538.13,2699.64,1514.28,1909.93"/><path class="cls-55" d="M-150.49,485.1C232.64,227.93,1446.1-19.57,869.3,690.41s-339.43,2015,644.22,1222.51"/><path class="cls-56" d="M-150.68,486.61C232.93,231.05,1440.8-18.12,866.81,691.8s-345.2,2019.38,646,1224.11"/><path class="cls-57" d="M-150.87,488.12C233.21,234.17,1435.5-16.67,864.31,693.19S513.36,2717,1512,1918.89"/><path class="cls-58" d="M-151.06,489.63C233.5,237.28,1430.2-15.22,861.82,694.58S505.1,2722.73,1511.26,1921.88"/><path class="cls-59" d="M-151.25,491.14C233.79,240.4,1424.9-13.76,859.33,696S496.84,2728.5,1510.51,1924.87"/><path class="cls-60" d="M-151.44,492.65c385.51-249.13,1571-505,1008.27,204.71S488.59,2734.27,1509.75,1927.85"/><path class="cls-61" d="M-151.63,494.16c386-247.53,1565.93-505,1006,204.59S480.33,2740,1509,1930.84"/><path class="cls-62" d="M-151.81,495.67C234.64,249.75,1409-9.41,851.84,700.14s-379.77,2045.67,656.4,1233.69"/><path class="cls-63" d="M-152,497.18C234.93,252.87,1403.7-8,849.35,701.53S463.81,2751.58,1507.49,1936.82"/><path class="cls-64" d="M-152.19,498.69C235.21,256,1398.4-6.51,846.85,702.92S455.56,2757.36,1506.73,1939.8"/><path class="cls-65" d="M-152.38,500.2C235.5,259.1,1393.1-5,844.36,704.31S447.3,2763.13,1506,1942.79"/><path class="cls-66" d="M-152.57,501.71C235.79,262.22,1387.8-3.6,841.87,705.7S439,2768.9,1505.23,1945.78"/><path class="cls-67" d="M-152.76,503.22C236.07,265.34,1382.5-2.15,839.37,707.09s-408.58,2067.58,665.1,1241.67"/><path class="cls-68" d="M-152.95,504.73C236.36,268.45,1377.2-.7,836.88,708.48s-414.35,2072,666.84,1243.27"/><path class="cls-69" d="M-153.13,506.24C236.64,271.57,1371.9.75,834.38,709.87S414.27,2786.21,1503,1954.74"/><path class="cls-70" d="M-153.32,507.75C236.93,274.69,1366.6,2.21,831.89,711.26S406,2792,1502.21,1957.73"/><path class="cls-71" d="M-153.51,509.26C237.21,277.8,1361.3,3.66,829.39,712.65S397.76,2797.76,1501.45,1960.71"/><path class="cls-72" d="M-153.7,510.77C237.5,280.92,1356,5.11,826.9,714S389.5,2803.53,1500.7,1963.7"/><path class="cls-73" d="M-153.89,512.28C237.79,284,1350.7,6.56,824.41,715.43S381.24,2809.3,1500,1966.69"/><path class="cls-74" d="M-154.08,513.79C238.07,287.16,1345.4,8,821.91,716.82S373,2815.07,1499.19,1969.67"/><path class="cls-75" d="M-154.27,515.3C238.36,290.27,1340.1,9.47,819.42,718.21s-454.69,2102.63,679,1254.45"/><path class="cls-76" d="M-154.45,516.81C238.64,293.39,1334.8,10.92,816.92,719.6s-460.45,2107,680.76,1256.05"/><path class="cls-77" d="M-154.64,518.32C238.93,296.51,1329.5,12.37,814.43,721s-466.22,2111.39,682.5,1257.65"/><path class="cls-78" d="M-154.83,519.83c394-220.21,1479-506,966.76,202.55S340,2838.16,1496.17,1981.62"/><path class="cls-79" d="M-155,521.34C239.5,302.74,1318.9,15.27,809.44,723.77s-477.74,2120.16,686,1260.84"/><path class="cls-80" d="M-155.21,522.84c395-217,1468.81-506.12,962.16,202.32S323.44,2849.7,1494.67,1987.6"/><path class="cls-81" d="M-155.4,524.35C240.07,309,1308.3,18.18,804.45,726.55s-489.26,2128.92,689.46,1264"/><path class="cls-82" d="M-155.59,525.86C240.36,312.09,1303,19.63,802,727.94s-495,2133.3,691.2,1265.63"/><path class="cls-83" d="M-155.77,527.37c396.41-212.16,1453.47-506.29,955.23,202S298.67,2867,1492.4,1996.56"/><path class="cls-84" d="M-156,528.88C240.93,318.33,1292.4,22.53,797,730.72S290.41,2872.78,1491.65,1999.55"/><path class="cls-85" d="M-156.15,530.39C241.21,321.44,1287.1,24,794.47,732.11S282.16,2878.56,1490.89,2002.53"/><path class="cls-86" d="M-156.34,531.9C241.5,324.56,1281.8,25.44,792,733.5s-518.08,2150.83,698.16,1272"/><path class="cls-87" d="M-156.53,533.41c398.32-205.73,1433-506.52,946,201.48S265.64,2890.1,1489.39,2008.51"/><path class="cls-88" d="M-156.72,534.92C242.07,330.8,1271.2,28.34,787,736.28S257.39,2895.87,1488.63,2011.5"/><path class="cls-89" d="M-156.91,536.43C242.36,333.91,1265.9,29.79,784.5,737.67s-535.37,2164,703.38,1276.81"/><path class="cls-90" d="M-157.09,537.94C242.64,337,1260.6,31.24,782,739.06S240.87,2907.41,1487.12,2017.47"/><path class="cls-91" d="M-157.28,539.45c400.21-199.3,1412.58-506.75,936.79,201s-546.9,2172.73,706.86,1280"/><path class="cls-92" d="M-157.47,541C243.21,343.26,1250,34.15,777,741.84S224.36,2919,1485.61,2023.44"/><path class="cls-93" d="M-157.66,542.47C243.5,346.38,1244.7,35.6,774.52,743.23s-558.42,2181.5,710.34,1283.2"/><path class="cls-94" d="M-157.85,544C243.79,349.5,1239.4,37.05,772,744.62S207.84,2930.5,1484.11,2029.42"/><path class="cls-95" d="M-158,545.49C244.07,352.61,1234.1,38.5,769.53,746s-569.94,2190.26,713.82,1286.4"/><path class="cls-96" d="M-158.23,547C244.36,355.73,1228.8,40,767,747.4S191.33,2942,1482.6,2035.39"/><path class="cls-97" d="M-158.41,548.51c403-189.66,1381.91-507.1,923,200.28s-581.47,2199,717.3,1289.59"/><path class="cls-98" d="M-158.6,550C244.93,362,1218.2,42.86,762.05,750.18s-587.24,2203.41,719,1291.19"/><path class="cls-99" d="M-158.79,551.53c404-186.45,1371.69-507.22,918.34,200.05s-593,2207.78,720.78,1292.77"/><path class="cls-100" d="M-159,553C245.5,368.2,1207.6,45.76,757.06,753S158.3,2965.13,1479.58,2047.34"/><path class="cls-101" d="M-159.17,554.55c405-183.23,1361.47-507.34,913.74,199.81S150,2970.9,1478.83,2050.33"/><path class="cls-102" d="M-159.36,556.06C246.07,374.43,1197,48.67,752.07,755.75s-610.28,2220.92,726,1297.57"/><path class="cls-103" d="M-159.55,557.57c405.91-180,1351.25-507.45,909.13,199.57S133.53,2982.44,1477.32,2056.3"/><path class="cls-104" d="M-159.73,559.08C246.64,380.67,1186.4,51.57,747.08,758.53S125.27,2988.21,1476.56,2059.29"/><path class="cls-105" d="M-159.92,560.59C246.93,383.79,1181.1,53,744.59,759.92S117,2994,1475.81,2062.28"/><path class="cls-106" d="M-160.11,562.1C247.21,386.9,1175.8,54.47,742.09,761.31s-633.33,2238.45,733,1304"/><path class="cls-107" d="M-160.3,563.61C247.5,390,1170.5,55.93,739.6,762.7S100.5,3005.53,1474.3,2068.25"/><path class="cls-108" d="M-160.49,565.12c408.28-172,1325.69-507.74,897.6,199S92.24,3011.3,1473.55,2071.24"/><path class="cls-109" d="M-160.68,566.63C248.07,396.25,1159.9,58.83,734.61,765.48S84,3017.07,1472.79,2074.23"/><path class="cls-110" d="M-160.87,568.14c409.23-168.77,1315.47-507.86,893,198.73S75.73,3022.84,1472,2077.21"/><path class="cls-111" d="M-161,569.65C248.64,402.49,1149.3,61.73,729.62,768.26S67.47,3028.61,1471.28,2080.2"/><path class="cls-112" d="M-161.24,571.16C248.93,405.61,1144,63.18,727.13,769.65S59.21,3034.39,1470.53,2083.19"/><path class="cls-113" d="M-161.43,572.67C249.21,408.72,1138.7,64.64,724.63,771S51,3040.16,1469.77,2086.18"/><path class="cls-114" d="M-161.62,574.18C249.5,411.84,1133.4,66.09,722.14,772.43S42.7,3045.93,1469,2089.16"/><path class="cls-115" d="M-161.81,575.69C249.79,415,1128.1,67.54,719.65,773.82S34.44,3051.7,1468.27,2092.15"/><path class="cls-116" d="M-162,577.2C250.07,418.07,1122.8,69,717.15,775.21s-691,2282.26,750.36,1319.93"/><path class="cls-117" d="M-162.19,578.71C250.36,421.19,1117.5,70.44,714.66,776.6S17.93,3063.24,1466.76,2098.12"/><path class="cls-118" d="M-162.37,580.22C250.64,424.31,1112.2,71.9,712.16,778S9.67,3069,1466,2101.11"/><path class="cls-119" d="M-162.56,581.73C250.93,427.42,1106.9,73.35,709.67,779.38S1.41,3074.79,1465.25,2104.1"/><path class="cls-120" d="M-162.75,583.24c414-152.7,1264.35-508.44,869.92,197.53s-714,2299.79,757.32,1326.32"/><path class="cls-121" d="M-162.94,584.75C251.5,433.66,1096.3,76.25,704.68,782.16S-15.1,3086.33,1463.74,2110.07"/><path class="cls-122" d="M-163.13,586.26C251.79,436.78,1091,77.7,702.19,783.55S-23.36,3092.1,1463,2113.06"/><path class="cls-123" d="M-163.32,587.77c415.39-147.88,1249-508.61,863,197.17s-731.3,2312.93,762.54,1331.11"/><path class="cls-124" d="M-163.51,589.28C252.36,443,1080.4,80.61,697.2,786.33S-39.87,3103.64,1461.48,2119"/><path class="cls-125" d="M-163.69,590.79C252.64,446.13,1075.1,82.06,694.7,787.72s-742.83,2321.7,766,1334.3"/><path class="cls-126" d="M-163.88,592.3C252.93,449.24,1069.8,83.51,692.21,789.11S-56.39,3115.19,1460,2125"/><path class="cls-127" d="M-164.07,593.81C253.21,452.36,1064.5,85,689.71,790.5S-64.64,3121,1459.21,2128"/><path class="cls-128" d="M-164.26,595.32C253.5,455.48,1059.2,86.42,687.22,791.89S-72.9,3126.73,1458.46,2131"/><path class="cls-129" d="M-164.45,596.83C253.79,458.6,1053.9,87.87,684.73,793.28S-81.16,3132.5,1457.71,2134"/><path class="cls-130" d="M-164.64,598.34c418.71-136.63,1213.24-509,846.87,196.33S-89.41,3138.27,1457,2137"/><path class="cls-131" d="M-164.83,599.85c419.19-135,1208.13-509.08,844.57,196.21S-97.67,3144,1456.2,2140"/><path class="cls-132" d="M-165,601.36C254.64,468,1038,92.22,677.24,797.45s-783.17,2352.37,778.2,1345.48"/><path class="cls-133" d="M-165.2,602.87c420.13-131.81,1197.9-509.2,840,196s-788.94,2356.75,779.94,1347.08"/><path class="cls-134" d="M-165.39,604.38C255.21,474.18,1027.4,95.13,672.25,800.23s-794.69,2361.13,781.68,1348.68"/><path class="cls-135" d="M-165.58,605.89C255.5,477.3,1022.1,96.58,669.76,801.62S-130.7,3167.13,1453.18,2151.89"/><path class="cls-136" d="M-165.77,607.4C255.79,480.42,1016.8,98,667.27,803S-139,3172.9,1452.43,2154.88"/><path class="cls-137" d="M-166,608.91C256.07,483.53,1011.5,99.48,664.77,804.4s-812,2374.27,786.9,1353.47"/><path class="cls-138" d="M-166.15,610.42C256.36,486.65,1006.2,100.93,662.28,805.79s-817.75,2378.65,788.64,1355.07"/><path class="cls-139" d="M-166.33,611.93c423-122.16,1167.23-509.54,826.11,195.25s-823.51,2383,790.38,1356.66"/><path class="cls-140" d="M-166.52,613.44C256.93,492.88,995.6,103.84,657.29,808.57S-172,3196,1449.41,2166.83"/><path class="cls-141" d="M-166.71,614.94C257.21,496,990.3,105.29,654.79,810s-835,2391.8,793.86,1359.86"/><path class="cls-142" d="M-166.9,616.45C257.5,499.12,985,106.74,652.3,811.35S-188.5,3207.53,1447.9,2172.8"/><path class="cls-143" d="M-167.09,618C257.79,502.23,979.7,108.19,649.81,812.74S-196.76,3213.3,1447.15,2175.79"/><path class="cls-144" d="M-167.28,619.47C258.07,505.35,974.4,109.65,647.31,814.13S-205,3219.07,1446.39,2178.78"/><path class="cls-145" d="M-167.47,621C258.36,508.47,969.1,111.1,644.82,815.52s-858.09,2409.32,800.82,1366.25"/><path class="cls-146" d="M-167.65,622.49c426.29-110.9,1131.45-509.94,810,194.42s-863.85,2413.71,802.56,1367.84"/><path class="cls-147" d="M-167.84,624C258.93,514.7,958.5,114,639.83,818.3s-869.62,2418.09,804.3,1369.44"/><path class="cls-148" d="M-168,625.51C259.21,517.82,953.2,115.45,637.33,819.69s-875.37,2422.47,806,1371"/><path class="cls-149" d="M-168.22,627C259.5,520.94,947.9,116.9,634.84,821.08S-246.3,3247.93,1442.62,2193.72"/><path class="cls-150" d="M-168.41,628.53c428.2-104.48,1111-510.17,800.76,193.94S-254.56,3253.7,1441.87,2196.7"/><path class="cls-151" d="M-168.6,630C260.07,527.17,937.3,119.81,629.85,823.86s-892.66,2435.61,811.26,1375.83"/><path class="cls-152" d="M-168.79,631.55C260.36,530.29,932,121.26,627.36,825.25s-898.43,2440,813,1377.43"/><path class="cls-153" d="M-169,633.06C260.64,533.41,926.7,122.71,624.86,826.64S-279.33,3271,1439.6,2205.66"/><path class="cls-154" d="M-169.16,634.57C260.93,536.52,921.4,124.16,622.37,828s-910,2448.76,816.48,1380.62"/><path class="cls-155" d="M-169.35,636.08C261.21,539.64,916.1,125.62,619.87,829.42s-915.71,2453.14,818.22,1382.22"/><path class="cls-156" d="M-169.54,637.59c431-94.83,1080.34-510.52,786.92,193.22s-921.48,2457.52,820,1383.82"/><path class="cls-157" d="M-169.73,639.1C261.79,545.87,905.5,128.52,614.89,832.2s-927.25,2461.9,821.7,1385.41"/><path class="cls-158" d="M-169.92,640.61C262.07,549,900.2,130,612.39,833.59s-933,2466.28,823.44,1387"/><path class="cls-159" d="M-170.11,642.12c432.47-90,1065-510.7,780,192.86s-938.77,2470.67,825.18,1388.61"/><path class="cls-160" d="M-170.29,643.63C262.64,555.23,889.6,132.88,607.4,836.37s-944.53,2475.05,826.92,1390.2"/><path class="cls-161" d="M-170.48,645.14C262.93,558.34,884.3,134.33,604.91,837.76s-950.3,2479.43,828.66,1391.8"/><path class="cls-162" d="M-170.67,646.65C263.21,561.46,879,135.78,602.41,839.15s-956,2483.81,830.4,1393.4"/><path class="cls-163" d="M-170.86,648.16C263.5,564.58,873.7,137.23,599.92,840.54s-961.82,2488.19,832.14,1395"/><path class="cls-164" d="M-171,649.67c434.84-82,1039.45-511,768.48,192.26S-370.16,3334.5,1431.31,2238.52"/><path class="cls-165" d="M-171.24,651.18c435.31-80.37,1034.34-511,766.17,192.14s-973.34,2497,835.62,1398.19"/><path class="cls-166" d="M-171.43,652.69c435.79-78.76,1029.23-511.1,763.87,192S-386.67,3346.05,1429.8,2244.5"/><path class="cls-167" d="M-171.61,654.2C264.64,577,852.5,143,589.94,846.1S-394.93,3351.82,1429,2247.48"/><path class="cls-168" d="M-171.8,655.71c436.73-75.55,1019-511.22,759.25,191.78s-990.64,2510.1,840.84,1403"/><path class="cls-169" d="M-172,657.22C265.21,583.28,841.9,145.94,585,848.88s-996.39,2514.48,842.58,1404.58"/><path class="cls-170" d="M-172.18,658.73C265.5,586.4,836.6,147.39,582.46,850.27S-419.7,3369.13,1426.78,2256.45"/><path class="cls-171" d="M-172.37,660.24C265.79,589.51,831.3,148.85,580,851.66S-428,3374.9,1426,2259.43"/><path class="cls-172" d="M-172.56,661.75c438.63-69.12,998.56-511.45,750,191.3s-1013.68,2527.62,847.8,1409.37"/><path class="cls-173" d="M-172.75,663.26C266.36,595.75,820.7,151.75,575,854.44s-1019.45,2532,849.54,1411"/><path class="cls-174" d="M-172.93,664.77C266.64,598.86,815.4,153.2,572.48,855.83S-452.73,3392.22,1423.76,2268.4"/><path class="cls-175" d="M-173.12,666.28C266.93,602,810.1,154.65,570,857.22S-461,3398,1423,2271.38"/><path class="cls-176" d="M-173.31,667.79C267.21,605.1,804.8,156.11,567.49,858.61S-469.24,3403.76,1422.25,2274.37"/><path class="cls-177" d="M-173.5,669.3c441-61.08,973-511.74,738.5,190.7S-477.5,3409.53,1421.5,2277.36"/></g><circle class="cls-178" cx="272" cy="879" r="225"/><circle class="cls-179" cx="1211" cy="1335" r="362"/></svg>