<svg xmlns="http://www.w3.org/2000/svg" xmlns:xlink="http://www.w3.org/1999/xlink" viewBox="0 0 661.79 1528.85"><defs><style>.cls-1,.cls-13,.cls-4{fill:#ffcdcd;}.cls-1{clip-rule:evenodd;}.cls-2{isolation:isolate;}.cls-3{fill:#d3c9d1;}.cls-10,.cls-11,.cls-12,.cls-13,.cls-16,.cls-18,.cls-19,.cls-20,.cls-21,.cls-22,.cls-23,.cls-24,.cls-25,.cls-26,.cls-27,.cls-28,.cls-3,.cls-30,.cls-33,.cls-34,.cls-35,.cls-38,.cls-42,.cls-43,.cls-6,.cls-7,.cls-8,.cls-9{fill-rule:evenodd;}.cls-14,.cls-16,.cls-5{fill:#ff8c8c;}.cls-37,.cls-6{fill:#fefafd;}.cls-7{fill:#b8cae0;}.cls-11,.cls-7{opacity:0.23;}.cls-11,.cls-22,.cls-23,.cls-7{mix-blend-mode:multiply;}.cls-8{fill:#414042;}.cls-9{fill:#231f20;}.cls-10{fill:#58595b;}.cls-11{fill:#2b2628;}.cls-12{fill:#d9dee2;}.cls-14,.cls-35,.cls-36{opacity:0.47;}.cls-15{clip-path:url(#clip-path);}.cls-17{clip-path:url(#clip-path-2);}.cls-18,.cls-29{fill:#570000;}.cls-19{fill:#580000;}.cls-20{fill:#e9f9ff;}.cls-21{fill:#09f;}.cls-22,.cls-23{fill:#335ead;}.cls-22{opacity:0.35;}.cls-23{opacity:0.65;}.cls-24{fill:#d4f7ff;}.cls-25,.cls-39{fill:#fff;}.cls-26{fill:#e1ecf1;}.cls-27{fill:#7c5c5c;}.cls-28{fill:#725454;}.cls-30{fill:#6d6e71;}.cls-31{fill:#808184;}.cls-32,.cls-42{fill:#a6a8ab;}.cls-33{fill:#e5e6e7;}.cls-34{fill:#5496d1;}.cls-35{fill:#ffa28c;}.cls-36{fill:#ff8e8c;}.cls-38,.cls-40{fill:#515264;}.cls-41,.cls-43{fill:#bbbdbf;}</style><clipPath id="clip-path"><path class="cls-1" d="M452.18,311.76c22.73,0,41.17,19,41.17,42.36s-18.44,42.35-41.17,42.35S411,377.49,411,354.12s18.46-42.36,41.18-42.36Z"/></clipPath><clipPath id="clip-path-2"><path class="cls-1" d="M183.13,312.44c22.72,0,41.17,19,41.17,42.36s-18.45,42.36-41.17,42.36S142,378.17,142,354.8s18.45-42.36,41.18-42.36Z"/></clipPath></defs><title>doctor_chibi</title><g class="cls-2"><g id="Layer_1" data-name="Layer 1"><path class="cls-3" d="M395.59,562.87H259.89l-3.72-70.07,4.3-9.4c42.17-10.48,84.61-7.79,125.17-.81l12.89,8.6Z"/><rect class="cls-4" x="221.5" y="1366.13" width="71.08" height="59.98"/><rect class="cls-5" x="262.61" y="1366.13" width="29.97" height="59.98"/><path class="cls-6" d="M221.5,1400.14v26h71.08v-26A232.07,232.07,0,0,1,221.5,1400.14Z"/><path class="cls-7" d="M262.61,1402.78v23.33h30v-26A226.79,226.79,0,0,1,262.61,1402.78Z"/><path class="cls-8" d="M291.62,1487H220.68a20.2,20.2,0,0,1-18-29.34l20-33.4h70.18l17.21,34.35A20.19,20.19,0,0,1,291.62,1487Z"/><path class="cls-9" d="M302.72,1475a176.82,176.82,0,0,0-25.68-6,160.85,160.85,0,0,0-27.31-1.32,85,85,0,0,0-24.13,4.61c-7,2.3-14,4.8-21.24,6.31a20,20,0,0,0,16.32,8.36h70.94A20,20,0,0,0,309,1477C306.91,1476.29,304.82,1475.61,302.72,1475Z"/><path class="cls-10" d="M225.67,1461.9a106.82,106.82,0,0,1,26.79-4.36,131.24,131.24,0,0,1,27,2.56c8.71,1.68,17.24,4.14,25.92,6,2.17.46,4.32,1,6.44,1.53a20,20,0,0,0-1.71-9l-17.36-35.48-71.11.39-18.92,34.14a20,20,0,0,0-2.11,10.89C209.07,1466.87,217.33,1464.22,225.67,1461.9Z"/><path class="cls-11" d="M310.07,1458.57l-17.36-35.48-28,.15V1458a145.59,145.59,0,0,1,14.7,2.07c8.71,1.68,17.24,4.14,25.92,6,2.17.46,4.32,1,6.44,1.53A20,20,0,0,0,310.07,1458.57Z"/><rect class="cls-4" x="361.07" y="1366.13" width="71.08" height="59.98"/><rect class="cls-5" x="402.18" y="1366.13" width="29.97" height="59.98"/><path class="cls-6" d="M361.07,1400.14v26h71.08v-26A232.07,232.07,0,0,1,361.07,1400.14Z"/><path class="cls-7" d="M402.18,1402.78v23.33h30v-26A226.79,226.79,0,0,1,402.18,1402.78Z"/><path class="cls-8" d="M431.19,1487H360.25a20.19,20.19,0,0,1-18-29.34l20-33.4h70.18l17.21,34.35A20.19,20.19,0,0,1,431.19,1487Z"/><path class="cls-9" d="M442.29,1475a177,177,0,0,0-25.67-6,161,161,0,0,0-27.32-1.32,85,85,0,0,0-24.13,4.61c-7,2.3-14,4.8-21.23,6.31a19.93,19.93,0,0,0,16.31,8.36h70.94a20,20,0,0,0,17.37-10C446.48,1476.29,444.39,1475.61,442.29,1475Z"/><path class="cls-10" d="M365.24,1461.9a106.9,106.9,0,0,1,26.79-4.36,131.24,131.24,0,0,1,27,2.56c8.71,1.68,17.24,4.14,25.92,6,2.17.46,4.32,1,6.44,1.53a20,20,0,0,0-1.71-9l-17.36-35.48-71.11.39-18.91,34.14a19.9,19.9,0,0,0-2.11,10.89C348.64,1466.87,356.91,1464.22,365.24,1461.9Z"/><path class="cls-11" d="M449.64,1458.57l-17.36-35.48-28,.15V1458a145.59,145.59,0,0,1,14.7,2.07c8.71,1.68,17.24,4.14,25.92,6,2.17.46,4.32,1,6.44,1.53A20,20,0,0,0,449.64,1458.57Z"/><polygon class="cls-8" points="316.99 1388.9 198.93 1388.9 178.22 937.77 316.99 927.33 316.99 1388.9"/><polygon class="cls-8" points="453.1 1388.9 335.05 1388.9 335.05 930.92 468.56 940.85 453.1 1388.9"/><polygon class="cls-12" points="368.26 511.46 281.06 511.46 281.47 488.04 368.27 487.84 368.26 511.46"/><polygon class="cls-13" points="364.57 457.05 284.08 457.05 284.08 537.58 364.57 537.58 364.57 457.05 364.57 457.05"/><rect class="cls-14" x="324.63" y="457.05" width="39.94" height="80.53"/><path class="cls-13" d="M452.18,311.76c22.73,0,41.17,19,41.17,42.36s-18.44,42.35-41.17,42.35S411,377.49,411,354.12s18.46-42.36,41.18-42.36Z"/><g class="cls-15"><path class="cls-16" d="M452.18,329.79c12.92,0,23.15,11,23.15,24.33s-10.23,24.32-23.15,24.32S429,367.4,429,354.12s10.23-24.33,23.15-24.33Z"/></g><path class="cls-13" d="M183.13,312.44c22.72,0,41.17,19,41.17,42.36s-18.45,42.36-41.17,42.36S142,378.17,142,354.8s18.45-42.36,41.18-42.36Z"/><g class="cls-17"><path class="cls-16" d="M183.13,330.47c12.91,0,23.14,11,23.14,24.33S196,379.13,183.13,379.13,160,368.09,160,354.8s10.22-24.33,23.15-24.33Z"/></g><path class="cls-13" d="M456.34,166.61H182V342.09c0,63.3,44.52,104.64,103.54,127.55a143.53,143.53,0,0,0,37.72,8.52s19.72-.65,37.73-9.74c51-25.74,95.37-58.19,95.37-115.31V166.61Z"/><path class="cls-18" d="M381.85,302.06c8.69,0,15.75,9.26,15.75,20.68s-7.06,20.68-15.75,20.68-15.76-9.27-15.76-20.68,7.06-20.68,15.76-20.68Z"/><path class="cls-18" d="M264.67,300.93c8.7,0,15.76,9.27,15.76,20.68s-7.06,20.68-15.76,20.68-15.75-9.26-15.75-20.68,7.06-20.68,15.75-20.68Z"/><path class="cls-16" d="M323.67,326.75c4.82,0,8.72,3.1,8.72,6.91s-4.12,9-8.94,9-8.5-5.19-8.5-9,3.91-6.91,8.72-6.91Z"/><path class="cls-19" d="M402,291.8a2.06,2.06,0,0,0,2.29-.22,2.09,2.09,0,0,0,.7-2.19c-2-6.74-10-12.35-20.08-13.33s-18.82,2.87-22.13,9a2.13,2.13,0,0,0,2.48,3.05,56.8,56.8,0,0,1,18.59-1.24A55.56,55.56,0,0,1,402,291.8Z"/><path class="cls-19" d="M282.78,289.86a2.1,2.1,0,0,0,2.44-3c-3.34-6.19-12.34-10-22.39-8.93S245,284.62,243,291.3a2.16,2.16,0,0,0,.71,2.25,2.12,2.12,0,0,0,2.35.22,56.72,56.72,0,0,1,17.94-5,55.14,55.14,0,0,1,18.77,1.11Z"/><path class="cls-20" d="M478.59,536.94c-12.83-17-109.93-49.05-111-48.54-2.32,1.16-40.26,33-41.75,33.76-2,1-42.5-31.92-44.27-31.65-25.22,3.9-116.52,41.52-116.52,46.43,0,12,23.71,40.87,35.65,156.45.84,8.15,7.33,54.24,3.2,69.17-2,7.16-3.73,24.91-4.5,30.61-1.85,13.62,11.89,5,11.89,5l227.48,5.41s4.88-3.11,3.36-14.81c-.49-3.78-4.21-27.33-4.71-31.63-2.15-18.46,1.47-54.82,2.64-66C446.68,627.73,476,538.76,478.59,536.94Z"/><polygon class="cls-21" points="353.14 744.59 323.66 764.43 292.59 742.93 313.61 551.5 334.67 551.5 353.14 744.59"/><polygon class="cls-22" points="324.06 763.85 353.14 744.59 335.42 557.03 325.06 561.26 324.06 763.85"/><polygon class="cls-23" points="342.31 554.3 324.99 561.3 307.35 554.3 305.35 522.28 323.74 526.31 344.71 522.28 342.31 554.3"/><polygon class="cls-21" points="342.31 552.76 324.99 559.76 307.35 552.76 305.35 520.75 323.92 522.66 344.71 520.75 342.31 552.76"/><polygon class="cls-24" points="324.65 522.6 296.42 561.66 255.17 501.36 282.13 489.43 324.65 522.6"/><polygon class="cls-24" points="323.15 522.6 352.88 564.48 392.34 499.99 368.49 490.6 323.15 522.6"/><polygon class="cls-25" points="324.24 521.72 297.4 558.04 256.15 497.74 281.47 488.24 324.24 521.72"/><polygon class="cls-25" points="324.07 521.59 352.53 561.7 392 497.22 368.14 487.82 324.07 521.59"/><path class="cls-16" d="M320.68,402.19h0a26.58,26.58,0,0,1-26.58-26.58V362.9h53.15v12.71A26.58,26.58,0,0,1,320.68,402.19Z"/><path class="cls-6" d="M181.88,303.76,182,312l45.28,41.58s-43.4,17.29-37.3,32.75c15.8,40,54.08,67.25,95.55,83.35a143.53,143.53,0,0,0,37.72,8.52s19.72-.65,37.73-9.74c42-21.23,79.59-47,91.47-87.43,2.53-8.6-30.83-28-30.83-28l34.72-41.26.09-7L415,350.21l-74.71-19.35a67.55,67.55,0,0,0-33.1-.19L233.4,348.91Z"/><path class="cls-26" d="M456.42,304.69,415,350.21l-74.71-19.35a68,68,0,0,0-14.71-2.09V478c5.73-.47,21.07-2.36,35.37-9.58,42-21.23,79.59-47,91.47-87.43,2.53-8.6-30.83-28-30.83-28l34.72-41.27Z"/><path class="cls-27" d="M206.9,195.34a38.28,38.28,0,0,0-4.84-6.29,46.61,46.61,0,0,0-12.16-10c-7-3.85-14.69-4.22-21.58,0-7.88,4.84-14.1,13.52-18.21,21.63a90.78,90.78,0,0,0-8,25.23c-8.87,15.17-10.5,37.21-6.14,53.45,2.85,10.58,9.76,22.4,19.66,28.45,2.29,3,4.37,11.36,7.59,9.6a44.17,44.17,0,0,1,13.47-4.62c3.21-.34,5.63,8.39,8.86,8.47,2.5.06.25-7.14,0-9.63-1.68-16.73-.19-36.36,2.51-53.62a182.51,182.51,0,0,1,18.24-54.85C207.64,200.47,208.46,198.13,206.9,195.34ZM137,275.09c-2.65-13.47-1.52-31.83,4.45-45.52-.18,1.21-.34,2.42-.48,3.62-1.42,12.47-.68,26.86,1.06,39.32a84.56,84.56,0,0,0,8.87,28.09A46.45,46.45,0,0,1,137,275.09Z"/><path class="cls-27" d="M504.1,229.36c-5.42-24.66-20-44.63-47.57-48.76-5.15-.77-12.48,1.53-13.94,5.7-8.8,8.11-5.86,21.31-3.07,30.21,4.54,14.48,9.8,30.6,8.63,45.5s-2.83,41.7.74,56.36c1.25,5.16,9.52-7.31,16.88-4.33,10.05,4.09,7,4.66,12.83,2.65,5.66-1.94,10.59-8.46,14.64-17.06C511.9,283.15,512,252.16,504.1,229.36Zm1.42,8.14c2.78,10.79,3.53,22.06.93,33.05a53,53,0,0,1-9.52,20C503.59,271.89,506.79,248.4,505.52,237.5Z"/><path class="cls-28" d="M206.9,195.34a38.28,38.28,0,0,0-4.84-6.29,46.61,46.61,0,0,0-12.16-10,26.56,26.56,0,0,0-2.64-1.27l-.19.3a183.7,183.7,0,0,0-15.3,30.28,205.85,205.85,0,0,0-10.35,34.35,181.5,181.5,0,0,0-3.94,35.92,137,137,0,0,0,4,34.75q.54,2.13,1.17,4.23a2.08,2.08,0,0,0,.51-.18,44.17,44.17,0,0,1,13.47-4.62c3.21-.34,5.63,8.39,8.86,8.47,2.5.06.25-7.14,0-9.63-1.68-16.73-.19-36.36,2.51-53.62a182.51,182.51,0,0,1,18.24-54.85C207.64,200.47,208.46,198.13,206.9,195.34Z"/><path class="cls-28" d="M465.77,314c8.46,3.44,7.64,4.38,10.65,3.4,1.42-3.3,2.7-6.66,3.8-10.07a145.1,145.1,0,0,0,6.59-37.6,186.93,186.93,0,0,0-2-37.44c-1.64-10.6-4-21.23-8.08-31.17-2.84-6.88-6.73-13.68-12.17-18.82a62.43,62.43,0,0,0-8-1.74c-5.15-.77-12.48,1.53-13.94,5.7-8.8,8.11-5.86,21.31-3.07,30.21,4.54,14.47,9.8,30.6,8.63,45.5s-2.83,41.7.74,56.36C450.14,323.53,458.41,311.06,465.77,314Z"/><path class="cls-28" d="M496.93,290.59c6.66-18.7,9.86-42.19,8.59-53.09,2.78,10.79,3.53,22.06.93,33.05A53,53,0,0,1,496.93,290.59Z"/><path class="cls-29" d="M386,267.67a50.19,50.19,0,0,0-50,56.19H312.3a50.16,50.16,0,1,0-.62,4h24.93A50.38,50.38,0,1,0,386,267.67ZM262.28,364.4a46.35,46.35,0,1,1,46.34-46.34A46.4,46.4,0,0,1,262.28,364.4Zm123.73,0a46.35,46.35,0,1,1,46.35-46.34A46.4,46.4,0,0,1,386,364.4Z"/><path class="cls-6" d="M276.87,311.83c0,2.5-1.68,4.53-3.75,4.53s-3.75-2-3.75-4.53,1.68-4.53,3.75-4.53S276.87,309.32,276.87,311.83Z"/><path class="cls-6" d="M393.08,311.83c0,2.5-1.68,4.53-3.75,4.53s-3.75-2-3.75-4.53,1.68-4.53,3.75-4.53S393.08,309.32,393.08,311.83Z"/><path class="cls-27" d="M470.65,118.82a60.15,60.15,0,0,0-29.87-40.57l0,0c-45.62-38.33-109,9.48-160.28,12.56-94,5.62-122.81-30.66-122.85-30.72-2.81,7.46-7.09,32.66-7.89,37.58-.12.76-.23,1.53-.35,2.29-6.64,19.2-10,39.4-3,59.3a68.47,68.47,0,0,0,34.95,38.81,79,79,0,0,0,21.07,13.37c28.15,11.92,57.15-1.91,84.26-10.26,20.9-6.43,41.66-13.4,63-18.28,11.48-2.62,23.11-5,34.92-5.43,16.35-.57,35.58,1.85,47.71,14,1.26,1.25,15.47,20.1,13.17,21.55,8.9-5.6,12.75-20.32,15-29.58a193.65,193.65,0,0,0,3.76-19.2C470.79,150.07,473.81,134.31,470.65,118.82ZM148.32,157.27c-5.19-15.69-4-32.56,0-48.77-1.7,17.09-.51,33.67,6,50.28a104.22,104.22,0,0,0,19.48,31.85A65.87,65.87,0,0,1,148.32,157.27Zm316.55,1.66a133.86,133.86,0,0,0-.53-37c-2.2-13-6.92-25.31-15.25-35.36C469.53,104.3,473.1,133.58,464.87,158.93Z"/><path class="cls-28" d="M452.51,173c-17-1.78-31.41-11.84-47.62-16.41-17.47-4.92-35.94-2.38-53.09,2.64C319,168.89,288.71,188,254,190.69a107.1,107.1,0,0,1-82.53-30.51c-9.54-9.54-17.2-20.59-23.71-32.36a98,98,0,0,0,6.51,31,104.22,104.22,0,0,0,19.48,31.85,65.91,65.91,0,0,1-25.41-33.36c-3.59-10.84-4.13-22.23-2.81-33.59-.55-1-1.08-2.09-1.61-3.15-2.24,12.8-2.07,25.81,2.43,38.71a68.47,68.47,0,0,0,34.95,38.81,79,79,0,0,0,21.07,13.37c28.15,11.92,57.15-1.91,84.26-10.26,20.9-6.43,41.66-13.4,63-18.28,11.48-2.62,23.11-5,34.92-5.43,16.35-.57,35.58,1.85,47.71,14,1.26,1.25,15.47,20.1,13.17,21.55,8.9-5.6,12.75-20.32,15-29.58.82-3.28,1.56-6.67,2.23-10.14A61.52,61.52,0,0,1,452.51,173Z"/><path class="cls-8" d="M468.26,946.51H178.46c-3.14-65.63,2.33-74.61,16.52-143l252.73,6.86C464.87,856.17,473.36,892,468.26,946.51Z"/><path class="cls-11" d="M337.67,909.33A26.45,26.45,0,0,1,326,919.12a48.8,48.8,0,0,1-18.65,3.73,93.67,93.67,0,0,1-21.05-2.06,112.5,112.5,0,0,1-19.77-5.94c-4.73-1.92-13.6-5.53-17.8-8.47-.06,12.06-.17,26.63,1.19,38.15l12.72,444.37H317L317,946.5h16.25C334.49,934.09,336.1,921.71,337.67,909.33Z"/><path class="cls-11" d="M464.16,867.23c-3.84,5.22-8.68,10.74-12.85,15.71a196.63,196.63,0,0,1-18,19.16c-4.81,4.37-16.79,10.56-28.53,15.36-.07,9.77-.7,23.3-.7,23.3l-5.27,448.14H453.1l15.46-444.84h-.15C470,918.21,469.78,892.44,464.16,867.23Z"/><polygon class="cls-30" points="453.36 821.06 191.37 817.39 195.04 790.97 445.29 790.24 453.36 821.06"/><polygon class="cls-10" points="193.51 804.96 191.16 817.6 453.65 821.42 449.54 806.43 193.51 804.96"/><rect class="cls-31" x="287.69" y="783.76" width="61.11" height="41.6" rx="10.98"/><rect class="cls-32" x="300.77" y="777.33" width="34.94" height="54.46" rx="7.66" transform="translate(1122.8 486.31) rotate(90)"/><path class="cls-33" d="M302.18,787.09h-3.51a7.66,7.66,0,0,0-7.65,7.65v3.5Q296.59,792.65,302.18,787.09Z"/><path class="cls-33" d="M309.68,787.09h-5.37q-6.66,6.63-13.29,13.31v5.35Z"/><path class="cls-33" d="M339.24,794l-28,28h14.44q9.9-9.88,19.82-19.75v-7.54a7.62,7.62,0,0,0-1.94-5Z"/><path class="cls-34" d="M510.3,704.67a24.16,24.16,0,0,1-12,.44q1.62-9.09,3.59-18.11a9.87,9.87,0,0,1,3.29,2c1.75,1.39,3.62,3,4.53,5.06a5,5,0,0,1,.37,2.42,34.42,34.42,0,0,0,.24,3.66c0,.77.06,1.55.07,2.32A12.21,12.21,0,0,1,510.3,704.67Z"/><path class="cls-34" d="M159,712.37q1.76-15.14,3.49-30.25c.07-.61.09-1.34-.41-1.69a1.66,1.66,0,0,0-.69-.23A14.86,14.86,0,0,0,149.75,684a26.11,26.11,0,0,0-6.92,10.45,36.9,36.9,0,0,0-1.55,5.7,8.94,8.94,0,0,0-.36,3,2.83,2.83,0,0,0,1,.95,62,62,0,0,0,11.11,6C153.52,710.3,159.05,712.33,159,712.37Z"/><path class="cls-13" d="M364.2,692.73l38.63-5.59c-15.27-21.46-35.16-32.91-63.54-25.9l-109,13.48c-6.48,2.14-8.16-4-6.71-10.65L235.12,605,158.8,633.09c-9.58,46.29-12.92,47.61-13.26,70.4-2,16.93,5.8,36.36,19.22,43.86C193.18,758.8,299.46,727.08,364.2,692.73Z"/><path class="cls-35" d="M172.84,684a47.94,47.94,0,0,1,14.7-2.25,81.3,81.3,0,0,1,14.15,1.73c9.59,1.84,19.26,4.29,29.07,2.59,10.74-1.86,19.14-8.21,27.43-14.79l-27.9,3.45c-6.48,2.14-8.16-4-6.71-10.66L235.12,605,158.8,633.09c-8.33,40.28-12,46.51-13,62.47C154.75,691.49,163.43,686.84,172.84,684Z"/><path class="cls-20" d="M218.57,678.64c-29.4-14.15-68,3.21-77.59,24.37-1.14,2.52,1.29-35.27,2.57-44.89,7.69-47.45,12-79,21.54-121.4l25.42-3.92,47.32-27.23,2.1,78.79-1.85,16.95-6.92,32.51,3.44,38.41C234.46,675.56,221.58,680.09,218.57,678.64Z"/><path class="cls-24" d="M234.22,589.17c-12.7-15.93-30.44-29.77-46.39-41.67a1.22,1.22,0,0,0-1.54,1.89c8.44,7.61,16.91,15.22,25.12,23.07,7.88,7.53,15.08,16.09,23.41,23.11Z"/><path class="cls-13" d="M482.9,749.16c-33.22,10-151.48,12.12-216.25-16.65,33.85-10.59,69.57-24.94,97.54-39.78l13.16-1.9,46.6-7.62c13-8,5.14-11.91,3.71-18.56l-11.55-59.08,76.33,28.1c9.57,46.29,12.93,47.62,13.27,70.39,1.87,15.54-4.58,33.18-16,41.77A21.43,21.43,0,0,1,482.9,749.16Z"/><path class="cls-35" d="M428.45,676.26c8.86.71,17.87-1.12,26.63,1.06a86.19,86.19,0,0,1,12,4.18,78.34,78.34,0,0,1,10.45,5.22,57,57,0,0,1,17.31,16c5,7.07,7.23,15.22,8.27,23.66a50.41,50.41,0,0,0,2.59-22.3c-.34-22.77-3.7-24.1-13.27-70.39l-76.33-28.1,11.55,59.08A46.5,46.5,0,0,1,428.45,676.26Z"/><path class="cls-20" d="M432.66,679.22c29.41-14.15,68,3.21,77.59,24.37,1.15,2.52-1.28-35.27-2.56-44.89-7.7-47.45-6.95-85.58-28.89-121.48L467,530.85l-53.56-24.7-2.1,78.79,1.85,16.95,6.92,32.51-3.45,38.41C416.77,676.14,429.66,680.67,432.66,679.22Z"/><path class="cls-24" d="M418,588.39c12-18.56,31.2-34.81,48.24-48.63a1.22,1.22,0,0,1,1.61,1.83c-8.12,7.94-16.28,15.89-24.17,24.06S428.84,583,420.43,590.46A1.61,1.61,0,0,1,418,588.39Z"/><path class="cls-24" d="M238.46,653.23c0-7.89-1.33-15.76-1.32-23.67a107.91,107.91,0,0,1,4.38-30.25c.92-3.14-3.7-5.22-4.81-2-5,14.46-8.48,32.91-4.18,48.48-.32-.35-.67-.68-1-1-1.17-3.68-2.58-7.28-3.93-10.9-.44-1.18-2.16-.46-1.8.71.72,2.29,1.4,4.58,2.14,6.85a41.24,41.24,0,0,0-16.56-8.7,31,31,0,0,1,9.14,18.19c-6.92-3.13-13.89-6.27-21.23-8.2s-15.16-2.65-22.54-.85l17.36,20.34c.3.35.62.78.5,1.22s-.67.66-1.14.77c-3.8.93-8.34,1.43-10.32,4.81.13-.12,1.3.21,1.5.24a27.86,27.86,0,0,1,6.3,2.07,32.47,32.47,0,0,0,4.23,1.75c3.33,1,7.17.36,10.57.28q7.24-.17,14.5-.19t14.5.1q7.24.11,14.49.37A116.82,116.82,0,0,0,238.46,653.23Z"/><path class="cls-13" d="M230.68,656.83c-4.46-.75-8.9.34-13.41,0-6.45-.48-16.84-5.35-22.72-5.48-2,0-3.66.21-3.79,2.2-.07,1.15,4.38,4.16,5.26,4.92,3.51,3,12.31,8,20.7,10.67-3.31.11-20-2.6-24-1.43-3.81,1.12-8.67,5.83-.61,7,8.39,1.19,17.34,4.29,25.95,5a21.68,21.68,0,0,0,5.15-.22c13.53-2.16,33.05-7.59,32.57-8-3.61-3.32-8.13-5.62-12.25-8.24-3.72-2.37-7.37-5-11.72-6.1Q231.27,656.94,230.68,656.83Z"/><path class="cls-36" d="M265.48,732.94a136.94,136.94,0,0,0,13.27-3.74q6.79-2.16,13.55-4.49,13.18-4.59,26.14-9.84c8.74-3.57,17.36-7.45,25.88-11.52s16.72-8.06,25.73-10.58c10.62-3,21.74-2.79,32.41-5.43.56-.14.46-1-.13-.91-9.53,1.9-19.33,2-28.81,4.12-9,2.05-17.57,5.71-25.86,9.8a481.38,481.38,0,0,1-52.17,21.74q-7.38,2.61-14.81,5.06c-5.13,1.7-10.34,3.22-15.36,5.23a.29.29,0,0,0,.16.56Z"/><path class="cls-6" d="M497.35,558.61c0-3.09,4.73-7.12,2.8-9.81-20.22-28.15-105.93-64.24-107.29-63.56-3.3,1.65-66.33,162.51-68.46,163.57-2.85,1.43-60.23-163-62.76-162.67-22.56,3.23-94.48,41.68-109.83,55.94-1.56,1.45-8.73,4.77-8.86,6-.18,1.59,3.08,6.9,2.92,8.77-7.52,90.26,12.84,673.36,12.84,673.36H497.35V558.61Z"/><path class="cls-7" d="M386.34,484.32c-2.88,1.44-49.48,132-61.2,164.13v581.69l172.21.06s3.23-374.66-5.48-514.92c-3.67-59-16-110.43-13.25-133.46,1.58-13.46,23.18-30.58,21-33C478.46,525.08,387.7,483.64,386.34,484.32Z"/><path class="cls-7" d="M325.78,652,269.24,601.9,278,580.31l-65.9-73c9.56-5,31.11-19.17,48.12-22.71Z"/><path class="cls-6" d="M326.94,653.48l-55.53-53.06,8.64-20.35-67.86-75.89c9.56-5,33.22-17.55,50.23-21.1Z"/><path class="cls-7" d="M323.17,651.59l56.54-50.08-8.78-21.58,67.52-74.6c-9.56-5-32.73-17.61-49.74-21.16Z"/><path class="cls-6" d="M322,653.1,377.54,600l-8.64-20.36,67.86-75.88c-9.56-5-33.22-17.56-50.23-21.1Z"/><path class="cls-7" d="M226.62,814.77,152.47,865c-24.11-26.85-65.29-80.33-83.78-129.7a30.42,30.42,0,0,1,.63-22.68c26-60.32,45.42-107.39,81.11-158l45.44,71C179.93,653,174.1,682.41,163.4,707a20.51,20.51,0,0,0,1,18.49C180.15,752.6,208.32,788.93,226.62,814.77Z"/><path class="cls-6" d="M221.72,814.42,148.2,866.55C123.69,840.88,80,784.67,61.49,735.3a30.42,30.42,0,0,1,.63-22.68c26-60.32,45.29-114.09,81-164.65l51.26,76.19c-11.58,28.29-25.34,59.5-36,84.06-2.6,6-2.49,11.32,1.17,16.73C177.8,752.06,204.39,788.57,221.72,814.42Z"/><path class="cls-13" d="M225.49,849.17c2.08,10.21,2,20.73,1.9,31.15a422.74,422.74,0,0,0-49.82,1.89c-.46-9.21-2.46-23.85-9-30.37-.53-.53,38.81-30.45,42.63-30.45,1.06,0,7.52,9.59,9,12.53A59.7,59.7,0,0,1,225.49,849.17Z"/><path class="cls-16" d="M187.41,850.48c7.6-9.86,15.7-19.32,23.48-29-5.26,1.28-42.82,29.87-42.3,30.39,3.56,3.56,5.74,9.54,7.09,15.73A204.44,204.44,0,0,1,187.41,850.48Z"/><path class="cls-26" d="M236.47,964.86h-46.3c-13.54,0-23.74-11.27-23.74-24.8L166,859.19h95.32l-.61,81.22A24.23,24.23,0,0,1,236.47,964.86Z"/><path class="cls-37" d="M168,857.46h91.39a0,0,0,0,1,0,0V939a23.5,23.5,0,0,1-23.5,23.5h-44.4A23.5,23.5,0,0,1,168,939V857.46A0,0,0,0,1,168,857.46Z"/><path class="cls-26" d="M111.45,734c13.31-4,36.89-9.28,48.76-8.21-.91-3.26-1.78-4-3.31-6.6.35-1.06-.12-1.56-.12-4.35,0-.71-5.39.85-6.77,1.24a94.25,94.25,0,0,0-16.55,6.52C130.41,724.17,114.31,732.15,111.45,734Z"/><path class="cls-7" d="M416.54,814.77,490.68,865c24.12-26.85,65.3-80.33,83.79-129.7a30.47,30.47,0,0,0-.63-22.68c-26-60.32-38.53-113-74.21-163.56l-51.1,75.53A817.8,817.8,0,0,0,479.75,707a20.51,20.51,0,0,1-1,18.49C463,752.6,434.84,788.93,416.54,814.77Z"/><path class="cls-6" d="M421.44,814.42,495,866.55c24.51-25.67,68.22-81.88,86.71-131.25a30.47,30.47,0,0,0-.63-22.68c-26-60.32-45.29-114.09-81-164.65l-51.25,76.19c11.58,28.29,25.34,59.5,36,84.06,2.6,6,2.48,11.32-1.17,16.73C465.36,752.06,438.76,788.57,421.44,814.42Z"/><path class="cls-7" d="M421.44,814.42,495,866.55c24.51-25.67,68.22-81.88,86.71-131.25a30.47,30.47,0,0,0-.63-22.68c-26-60.32-46.88-116.37-82.57-166.93-15.39,16.46-31.45,47.13-49.66,78.47,11.58,28.29,25.34,59.5,36,84.06,2.6,6,2.48,11.32-1.17,16.73C465.36,752.06,438.76,788.57,421.44,814.42Z"/><path class="cls-13" d="M417.67,849.17c-2.09,10.21-2,20.73-1.9,31.15a422.82,422.82,0,0,1,49.82,1.89c.46-9.21,2.46-23.85,9-30.37.53-.53-38.81-30.45-42.64-30.45-1.05,0-7.52,9.59-9,12.53A59.32,59.32,0,0,0,417.67,849.17Z"/><path class="cls-16" d="M455.75,850.48c-7.6-9.86-15.7-19.32-23.48-29,5.26,1.28,42.81,29.87,42.3,30.39-3.56,3.56-5.74,9.54-7.09,15.73A206.87,206.87,0,0,0,455.75,850.48Z"/><path class="cls-26" d="M406.69,964.86H453c13.53,0,23.74-11.27,23.74-24.8l.41-80.87H381.83l.61,81.22A24.23,24.23,0,0,0,406.69,964.86Z"/><path class="cls-37" d="M407.29,857.46h44.4a23.5,23.5,0,0,1,23.5,23.5V962.5a0,0,0,0,1,0,0H383.79a0,0,0,0,1,0,0V881A23.5,23.5,0,0,1,407.29,857.46Z" transform="translate(858.97 1819.96) rotate(180)"/><path class="cls-26" d="M531.71,734c-13.31-4-36.9-9.28-48.76-8.21.91-3.26,1.78-4,3.31-6.6-.35-1.06.12-1.56.12-4.35,0-.71,5.39.85,6.77,1.24a94.87,94.87,0,0,1,16.55,6.52C512.75,724.17,528.85,732.15,531.71,734Z"/><path class="cls-38" d="M364.58,475.54c-.16-.11,0,12.16,0,12.16a17,17,0,0,1,3.51,3.34c15.17,19.4,21.56,34.26,17.61,74.85-3.24,25.15-6.93,39.48-13.23,58l10.78,3S423.06,515.24,364.58,475.54Z"/><circle class="cls-39" cx="377.89" cy="629.49" r="27.3" transform="translate(-353.42 694.63) rotate(-64.11)"/><path class="cls-40" d="M377.83,658.82a29.32,29.32,0,1,1,29-33.83h0a29.38,29.38,0,0,1-29,33.83Zm.08-54.6a24.58,24.58,0,0,0-3.9.3,25.28,25.28,0,1,0,28.86,21.09h0A25.31,25.31,0,0,0,377.91,604.22Z"/><circle class="cls-41" cx="378.13" cy="629.67" r="15.92" transform="translate(-327.19 834.6) rotate(-75.22)"/><path class="cls-38" d="M283.81,475.59l-.24,12A82,82,0,0,0,259.81,517c-8.73,20.49-13.22,45.54-4.29,77.43.08.44.2.85.29,1.25.64,3,1.33,5.82,2.14,8.61a32.67,32.67,0,0,0-9.3,3.64,17.2,17.2,0,0,0-1.53,1q-1.27-4.36-2.43-9c-8-32.9-9.33-75,19.4-108.55C266.51,488.52,279.24,477.33,283.81,475.59Z"/><path class="cls-42" d="M316.06,659.75a150,150,0,0,0-10.88-35.23c-1.58-3.56-6.8-.48-5.23,3.06,8,18,14.64,40.6,10.92,60.43-1.61,8.58-5.67,17-12.76,22.39A23.53,23.53,0,0,1,280.53,715a5.27,5.27,0,0,0,1-1.89,6.49,6.49,0,0,0-.55-4.18,7.87,7.87,0,0,0-4.65-4,7.48,7.48,0,0,0-3.7-.21,6.9,6.9,0,0,0-3.15,1.57c-2.73,2.22-3.51,8.77-.16,10.91,8.32,5.31,18.86,5.33,27.62,1,9.11-4.48,15.31-13.47,18.37-22.93C319,683.87,318.09,671.46,316.06,659.75Z"/><path class="cls-43" d="M313.79,685.11c-4.68-1.87-10.36,3-10.12,8.09a7.38,7.38,0,0,0,7.77,6.66c-1.57,4.33-4.33,7.14-9,8-9,1.73-20.77-1.19-28.77-5.26-8.34-4.25-14.75-11.6-20.17-19-5.74-7.86-11.37-16.64-15.37-26.33-1.49-3.6-6.75-.74-5.48,3,4.21,12.22,13.79,24.38,22.34,34.5a62.62,62.62,0,0,0,17.24,14.16,49.36,49.36,0,0,0,18.2,5.59,35,35,0,0,0,18.75-3.35c5.57-2.8,7.74-7.43,9.2-13.18C319.57,693.2,320.08,687.63,313.79,685.11Z"/><path class="cls-38" d="M236.49,653.2a33.17,33.17,0,0,1,10.63-44.33,17.2,17.2,0,0,1,1.53-1,32.67,32.67,0,0,1,9.3-3.64,30.56,30.56,0,0,1,7.23-.85A33.34,33.34,0,0,1,294,620l5.71,9.89a80.81,80.81,0,0,0,7.64-4.58l-5.63-9.75a42,42,0,0,0-36.45-21,39.52,39.52,0,0,0-9.41,1.09,41.6,41.6,0,0,0-11.12,4.25c-.16.08-.32.2-.48.28a42,42,0,0,0-15.4,57.47l4.16,7.2q4-2,7.88-4.09Z"/><path class="cls-24" d="M412.65,673.86a12.41,12.41,0,0,0-1.63-6.79l9.44,2A195.06,195.06,0,0,1,425,612.7c.33,21.78.86,44.31,10,64.06a71.32,71.32,0,0,1-32.14,9.38c-.35,0-2.28-3.17-2.6-3.58-1-1.24-2-2.44-3-3.6a68.49,68.49,0,0,0-14-12c-2.2-1.42-4.69-2.46-6.83-4-2.63-1.82,2.83-1.17,3.66-1.06a79.13,79.13,0,0,1,12.82,2.85,89.08,89.08,0,0,1,17.51,7.73C411.17,673,411.91,673.42,412.65,673.86Z"/></g></g></svg>