<?xml version="1.0" encoding="utf-8"?>
<!-- Generator: Adobe Illustrator 23.0.0, SVG Export Plug-In . SVG Version: 6.00 Build 0)  -->
<svg version="1.1" xmlns="http://www.w3.org/2000/svg" xmlns:xlink="http://www.w3.org/1999/xlink" x="0px" y="0px"
	 viewBox="0 0 288 288" style="enable-background:new 0 0 288 288;" xml:space="preserve">
<style type="text/css">
	.st0{fill:none;}
	.st1{opacity:0.5;}
	.st2{fill:url(#SVGID_1_);}
	.st3{fill:url(#SVGID_2_);}
	.st4{fill:#F8004E;}
	.st5{opacity:0.9;fill:#FFB400;}
	.st6{fill:#FFFFFF;}
</style>
<g id="Layer_2">
</g>
<g id="Layer_1">
	<rect x="0" class="st0" width="288" height="288"/>
	<g>
		<g class="st1">
			<radialGradient id="SVGID_1_" cx="158.8215" cy="179.1941" r="87.675" gradientUnits="userSpaceOnUse">
				<stop  offset="0.5549" style="stop-color:#FF9C06"/>
				<stop  offset="0.6383" style="stop-color:#FFB544"/>
				<stop  offset="0.7355" style="stop-color:#FFCF86"/>
				<stop  offset="0.8239" style="stop-color:#FFE4BA"/>
				<stop  offset="0.9002" style="stop-color:#FFF3E0"/>
				<stop  offset="0.9614" style="stop-color:#FFFCF7"/>
				<stop  offset="1" style="stop-color:#FFFFFF"/>
			</radialGradient>
			<circle class="st2" cx="158.8" cy="179.2" r="87.7"/>
		</g>
		<g class="st1">
			<radialGradient id="SVGID_2_" cx="105.9113" cy="142.0552" r="87.675" gradientUnits="userSpaceOnUse">
				<stop  offset="0.5549" style="stop-color:#FF9C06"/>
				<stop  offset="0.6383" style="stop-color:#FFB544"/>
				<stop  offset="0.7355" style="stop-color:#FFCF86"/>
				<stop  offset="0.8239" style="stop-color:#FFE4BA"/>
				<stop  offset="0.9002" style="stop-color:#FFF3E0"/>
				<stop  offset="0.9614" style="stop-color:#FFFCF7"/>
				<stop  offset="1" style="stop-color:#FFFFFF"/>
			</radialGradient>
			<circle class="st3" cx="105.9" cy="142.1" r="87.7"/>
		</g>
		<path class="st4" d="M85.4,75.7c-4.5,15.7,9.2,32.5,4.2,48.1c-2.6,8.1-9.7,13.9-17,18c-7.4,4.2-15.4,7.3-22.1,12.5
			c-6.2,4.8-11,11.4-12.9,19c-1.9,7.6-0.6,16,4.2,22.2c5.1,6.7,13.4,9.9,20.8,14c13.3,7.3,24.6,18,37.8,25.4
			c13.3,7.4,30.1,11.2,43.4,3.9c13.4-7.4,19.1-23.6,22.4-38.5c1.9-8.7,3.6-17.8,9.3-24.7c4.2-5,10.2-8.2,15.9-11.5
			c7.2-4.1,14.2-8.5,21.1-13.2c9.5-6.5,18.8-13.8,24.6-23.7c5.7-9.9,7.2-23.1,0.8-32.7c-2.7-4-6.6-7.3-8-11.9
			c-1.2-3.9-0.3-8.1-0.2-12.2c0.3-7.3-1.6-14.7-6.1-20.4c-4.5-5.7-11.8-9.3-19-8.7c-8.7,0.7-15.7,6.9-22.7,12
			c-7,5.1-16.2,9.4-24.1,6C116.7,41.5,90.6,57.4,85.4,75.7z"/>
		<path class="st5" d="M124.6,79c-5.7,3.8-12.5,5.3-19.1,6.8C95.7,88,86,90.2,76.2,92.4c-9,2-19,4.7-23.8,12.6
			c-7.1,11.6,0.2,29.4-9.7,38.8c-2.4,2.3-5.5,3.6-8.2,5.6c-5.6,4.2-8.8,11.4-8.1,18.4c0.6,7,5,13.5,11.3,16.6
			c13.6,6.9,32.6-1.9,44.2,7.9c5.2,4.4,7.3,11.6,7.7,18.4c0.4,6.8-0.5,13.7-0.1,20.5c0.4,7.3,3,15.2,9.4,18.7
			c8.1,4.4,18.2-0.5,24.6-7s11.2-14.8,18.9-19.9c6.6-4.3,14.6-5.7,22.4-7.2c7.6-1.5,15.1-3.2,22.6-5.1c7.1-1.8,14.4-3.9,20.2-8.4
			c9.2-7.2,13-19.2,15.5-30.6c1.4-6.3,2.6-12.9,6.5-18.1c2.4-3.2,5.8-5.6,8.9-8.1c7.3-6,13.8-13.5,16.8-22.5c3-9,1.8-19.7-4.6-26.7
			c-5.9-6.4-14.9-8.7-22.3-13.3c-8.1-5-14.2-12.7-21.1-19.3c-9.8-9.4-22-16.8-35.5-18.4c-11.4-1.3-23.9,2.1-32.1,10.4
			C133,62.7,133.5,73.1,124.6,79z"/>
		<g>
			<g>
				
					<image style="overflow:visible;" width="384" height="357" xlink:href="2F43AAC8.png"  transform="matrix(0.24 0 0 0.24 97.977 86.9344)">
				</image>
			</g>
			<g>
				
					<image style="overflow:visible;" width="181" height="175" xlink:href="2F43AACF.png"  transform="matrix(0.24 0 0 0.24 117.657 162.0544)">
				</image>
			</g>
		</g>
		<g>
			<g>
				<path class="st6" d="M150.3,91.4c5.6,0.6,10.7,1.8,15.2,3.7c4.5,1.9,8.3,4.3,11.4,7.3c3.1,3,5.3,6.4,6.8,10.4
					c1.4,3.9,1.9,8.2,1.5,12.8c-0.3,3.4-1.3,6.3-2.8,8.8c-1.5,2.5-3.3,4.7-5.4,6.6c-2.1,1.9-4.3,3.6-6.7,5c-2.3,1.4-4.5,2.7-6.6,3.9
					c-2,1.2-3.7,2.3-5.1,3.5c-1.4,1.1-2.1,2.3-2.3,3.6l-0.5,4.4c-0.1,1.1-1,1.8-2.1,1.7l-21.5-2.2c-1.1-0.1-1.8-1-1.7-2.1l0.9-8.7
					c0.2-1.8,0.8-3.4,1.9-4.9c1.1-1.5,2.5-2.9,4.1-4.3c1.6-1.3,3.3-2.7,5.1-3.9c1.8-1.3,3.5-2.6,5.1-4c1.6-1.4,3-2.9,4.1-4.5
					c1.1-1.6,1.8-3.4,2-5.4c0.1-1.4,0.1-2.7-0.2-4c-0.3-1.3-0.8-2.5-1.6-3.5c-0.7-1-1.7-1.9-2.8-2.6c-1.1-0.7-2.5-1.1-4-1.3
					c-2-0.2-3.7,0-5,0.6c-1.3,0.6-2.4,1.4-3.2,2.5c-0.8,1.1-1.4,2.4-1.8,3.8c-0.4,1.5-0.7,3-0.8,4.5c-0.1,0.7-0.1,1.3-0.2,2
					c0,0,0,0,0,0c-0.1,1.1-1,1.9-2.1,1.8l-23.5-2.4c-1-0.1-1.7-0.9-1.7-1.9c0-0.4,0-0.7,0-1.1c0-0.9,0-1.8,0.1-2.8
					c0.5-4.8,2-9.1,4.4-12.7c2.4-3.7,5.6-6.7,9.5-9c3.9-2.4,8.4-4,13.5-4.9C139,90.9,144.5,90.8,150.3,91.4z"/>
				<path class="st6" d="M150.6,196.3l-21.8-2.3c-1.1-0.1-1.8-1-1.7-2.1l2.1-20.1c0.1-1.1,1-1.8,2.1-1.7l21.8,2.3
					c1.1,0.1,1.8,1,1.7,2.1l-2.1,20.1C152.6,195.7,151.7,196.4,150.6,196.3z"/>
			</g>
			<g>
				<g>
					<g>
						<path class="st6" d="M153.9,169.2c-0.3,0-0.6,0-0.8,0l-21.5-2.2c-4.2-0.4-7.3-3.9-7.3-8.1c0-0.3,0-0.6,0-0.8l0.9-8.7
							c0.1-1.3,0.4-2.5,0.8-3.7l1.9,0.7c-0.4,1-0.6,2.1-0.7,3.2l-0.9,8.7c0,0.2,0,0.4,0,0.6c0,3.1,2.4,5.8,5.5,6.1l21.5,2.2
							c0.2,0,0.4,0,0.6,0l0.2,0l0,2L153.9,169.2z M175.5,149.9l-1.1-1.7c1.8-1.2,3.6-2.7,5.3-4.2c2-1.8,3.8-3.9,5.3-6.1l1.7,1.1
							c-1.6,2.4-3.5,4.6-5.6,6.5C179.3,147.1,177.5,148.6,175.5,149.9z M118.5,131.7l-11-1.1c-1.6-0.2-3.1-0.8-4.4-1.9l1.3-1.5
							c0.9,0.8,2.1,1.3,3.3,1.4l11,1.1L118.5,131.7z M109.7,100.6l-1.5-1.3c2.5-3,5.6-5.6,9.1-7.8c4.5-2.7,9.7-4.7,15.6-5.7
							c5.6-1,11.7-1.2,18-0.6l-0.2,2c-6.2-0.6-12.1-0.4-17.5,0.6c-5.6,1-10.6,2.9-14.9,5.5C115,95.2,112.1,97.7,109.7,100.6z"/>
					</g>
				</g>
				<g>
					<g>
						<path class="st6" d="M150.8,202.5c-0.3,0-0.6,0-0.8,0l-21.8-2.3c-4.1-0.4-7.3-3.9-7.3-8.1c0-0.3,0-0.6,0-0.8l0.1-1.3l2,0.2
							l-0.1,1.3c0,0.2,0,0.4,0,0.6c0,3.1,2.4,5.8,5.5,6.1l21.8,2.3c0.2,0,0.4,0,0.6,0V202.5L150.8,202.5z M160.3,182.2l-2-0.2
							l0.7-7.1c0-0.2,0-0.4,0-0.6c0-1.1-0.3-2.2-0.9-3.1l1.7-1c0.8,1.3,1.2,2.7,1.2,4.2c0,0.3,0,0.6,0,0.8L160.3,182.2z"/>
					</g>
				</g>
			</g>
		</g>
		<g>
			<g>
				<path class="st4" d="M196,193c-0.1,0-0.2,0-0.3-0.1c-0.2-0.2-0.2-0.5,0-0.6l46.3-46.3c0.2-0.2,0.5-0.2,0.6,0
					c0.2,0.2,0.2,0.5,0,0.6l-46.3,46.3C196.2,193,196.1,193,196,193z"/>
			</g>
			<g>
				<path class="st4" d="M208.8,124.9c-0.1,0-0.2,0-0.3-0.1c-0.2-0.2-0.2-0.5,0-0.6l47-47c0.2-0.2,0.5-0.2,0.6,0
					c0.2,0.2,0.2,0.5,0,0.6l-47,47C209.1,124.8,209,124.9,208.8,124.9z"/>
			</g>
			<g>
				<path class="st4" d="M66.6,118.3c-0.1,0-0.2,0-0.3-0.1c-0.2-0.2-0.2-0.5,0-0.6l46.6-46.6c0.2-0.2,0.5-0.2,0.6,0
					c0.2,0.2,0.2,0.5,0,0.6l-46.6,46.6C66.8,118.2,66.7,118.3,66.6,118.3z"/>
			</g>
			<g>
				<path class="st4" d="M33.2,203.9c-0.1,0-0.2,0-0.3-0.1c-0.2-0.2-0.2-0.5,0-0.6l33.6-33.6c0.2-0.2,0.5-0.2,0.6,0
					c0.2,0.2,0.2,0.5,0,0.6l-33.6,33.6C33.4,203.8,33.3,203.9,33.2,203.9z"/>
			</g>
			<g>
				<path class="st4" d="M90,194.2c-0.1,0-0.2,0-0.3-0.1c-0.2-0.2-0.2-0.5,0-0.6l6.6-6.6c0.2-0.2,0.5-0.2,0.6,0
					c0.2,0.2,0.2,0.5,0,0.6l-6.6,6.6C90.2,194.2,90.1,194.2,90,194.2z"/>
			</g>
			<g>
				<path class="st4" d="M161.5,249.9c-0.1,0-0.2,0-0.3-0.1c-0.2-0.2-0.2-0.5,0-0.6l28.3-28.3c0.2-0.2,0.5-0.2,0.6,0
					c0.2,0.2,0.2,0.5,0,0.6l-28.3,28.3C161.8,249.8,161.6,249.9,161.5,249.9z"/>
			</g>
			<g>
				<path class="st4" d="M191.6,89.6c-0.1,0-0.2,0-0.3-0.1c-0.2-0.2-0.2-0.5,0-0.6l13.4-13.4c0.2-0.2,0.5-0.2,0.6,0
					c0.2,0.2,0.2,0.5,0,0.6l-13.4,13.4C191.8,89.5,191.7,89.6,191.6,89.6z"/>
			</g>
		</g>
		<g>
			<g>
				<path class="st6" d="M55.4,157.4c-0.1,0-0.2,0-0.3-0.1c-0.2-0.2-0.2-0.5,0-0.6l46.3-46.3c0.2-0.2,0.5-0.2,0.6,0
					c0.2,0.2,0.2,0.5,0,0.6l-46.3,46.3C55.6,157.4,55.5,157.4,55.4,157.4z"/>
			</g>
			<g>
				<path class="st6" d="M41.8,226.3c-0.1,0-0.2,0-0.3-0.1c-0.2-0.2-0.2-0.5,0-0.6l47-47c0.2-0.2,0.5-0.2,0.6,0
					c0.2,0.2,0.2,0.5,0,0.6l-47,47C42,226.2,41.9,226.3,41.8,226.3z"/>
			</g>
			<g>
				<path class="st6" d="M184.4,232.6c-0.1,0-0.2,0-0.3-0.1c-0.2-0.2-0.2-0.5,0-0.6l46.6-46.6c0.2-0.2,0.5-0.2,0.6,0
					c0.2,0.2,0.2,0.5,0,0.6l-46.6,46.6C184.7,232.5,184.5,232.6,184.4,232.6z"/>
			</g>
			<g>
				<path class="st6" d="M230.9,133.9c-0.1,0-0.2,0-0.3-0.1c-0.2-0.2-0.2-0.5,0-0.6l33.6-33.6c0.2-0.2,0.5-0.2,0.6,0
					c0.2,0.2,0.2,0.5,0,0.6l-33.6,33.6C231.1,133.8,231,133.9,230.9,133.9z"/>
			</g>
			<g>
				<path class="st6" d="M201,116.6c-0.1,0-0.2,0-0.3-0.1c-0.2-0.2-0.2-0.5,0-0.6l6.6-6.6c0.2-0.2,0.5-0.2,0.6,0
					c0.2,0.2,0.2,0.5,0,0.6l-6.6,6.6C201.3,116.5,201.2,116.6,201,116.6z"/>
			</g>
			<g>
				<path class="st6" d="M107.8,82.6c-0.1,0-0.2,0-0.3-0.1c-0.2-0.2-0.2-0.5,0-0.6l28.3-28.3c0.2-0.2,0.5-0.2,0.6,0
					c0.2,0.2,0.2,0.5,0,0.6l-28.3,28.3C108,82.6,107.9,82.6,107.8,82.6z"/>
			</g>
			<g>
				<path class="st6" d="M92.7,228c-0.1,0-0.2,0-0.3-0.1c-0.2-0.2-0.2-0.5,0-0.6l13.4-13.4c0.2-0.2,0.5-0.2,0.6,0
					c0.2,0.2,0.2,0.5,0,0.6L93,227.8C92.9,227.9,92.8,228,92.7,228z"/>
			</g>
		</g>
	</g>
</g>
</svg>
